<?xml version="1.0" standalone="no"?><!DOCTYPE svg PUBLIC "-//W3C//DTD SVG 1.1//EN" "http://www.w3.org/Graphics/SVG/1.1/DTD/svg11.dtd"><svg xmlns="http://www.w3.org/2000/svg" width="950" height="400" viewBox="0 0 950 400"><g class="sankey" transform="translate(40,0)"><g class="groups"/><g class="links"><g class="link" style="opacity: 0.8;"><path d="M254,40 A0 0 0 0 0 254,40 L379.5,40 A0 0 0 0 0 379.5,40 L379.5,40 A0 0 0 0 0 379.5,40 L254,40 A0 0 0 0 0 254,40 Z" style="fill: rgb(207, 207, 207);"/><title>components → Fuselage
+0
0.00</title><text class="label" dy="0.35em" x="258" y="40"/></g><g class="link" style="opacity: 0.8;"><path d="M254,259.00281883590935 A0 0 0 0 0 254,259.00281883590935 L379.5,259.00281883590935 A0 0 0 0 0 379.5,259.00281883590935 L379.5,259.00281883590935 A0 0 0 0 0 379.5,259.00281883590935 L254,259.00281883590935 A0 0 0 0 0 254,259.00281883590935 Z" style="fill: rgb(207, 207, 207);"/><title>flight segments → flightstate
+0
0.00</title><text class="label" dy="0.35em" x="258" y="259.00281883590935"/></g><g class="link" style="opacity: 0.8;"><path d="M633.5,198.99999932440224 A0 0 0 0 0 633.5,198.99999932440224 L759,198.99999932440224 A0 0 0 0 0 759,198.99999932440224 L759,200.99999932440224 A0 0 0 0 0 759,200.99999932440224 L633.5,200.99999932440224 A0 0 0 0 0 633.5,200.99999932440224 Z" style="fill: rgb(89, 173, 228);"/><title>WingAero → Reynolds' number
-0.061
60.9m</title><text class="label" dy="0.35em" x="637.5" y="199.99999932440224"/></g><g class="link" style="opacity: 0.8;"><path d="M380.5,49.322999888789504 A54.23450715463021 54.23450715463021 0.4823320203893997 0 1 405.6564813474895,55.51030928414296 L481.7712114690328,95.36234806828007 A52.23450715463021 52.23450715463021 0.4823320203893997 0 0 506,101.32148873047947 L506,103.32148873047947 A54.23450715463021 54.23450715463021 0.4823320203893997 0 1 480.8435186525105,97.134179335126 L404.7287885309672,57.2821405509889 A52.23450715463021 52.23450715463021 0.4823320203893997 0 0 380.5,51.322999888789504 Z" style="fill: rgb(89, 173, 228);"/><title>Wing → average chord
-0.061
60.9m</title><text class="label" dy="0.35em" x="384.5" y="50.322999888789504"/></g><g class="link" style="opacity: 0.8;"><path d="M380.5,40 A0 0 0 0 0 380.5,40 L506,40 A0 0 0 0 0 506,40 L506,49.637136308429604 A0 0 0 0 0 506,49.637136308429604 L380.5,49.637136308429604 A0 0 0 0 0 380.5,49.637136308429604 Z" style="fill: rgb(89, 173, 228);"/><title>Wing → wing weight
-0.43
428m</title><text class="label" dy="0.35em" x="384.5" y="44.8185681542148"/></g><g class="link" style="opacity: 0.8;"><path d="M254,40 A0 0 0 0 0 254,40 L379.5,40 A0 0 0 0 0 379.5,40 L379.5,51.00886346914939 A0 0 0 0 0 379.5,51.00886346914939 L254,51.00886346914939 A0 0 0 0 0 254,51.00886346914939 Z" style="fill: rgb(89, 173, 228);"/><title>components → Wing
-0.49
489m</title><text class="label" dy="0.35em" x="258" y="45.504431734574695"/></g><g class="link" style="opacity: 0.8;"><path d="M127.5,40 A0 0 0 0 0 127.5,40 L253,40 A0 0 0 0 0 253,40 L253,51.00886346914939 A0 0 0 0 0 253,51.00886346914939 L127.5,51.00886346914939 A0 0 0 0 0 127.5,51.00886346914939 Z" style="fill: rgb(89, 173, 228);"/><title>Aircraft → components
-0.49
489m</title><text class="label" dy="0.35em" x="131.5" y="45.504431734574695"/></g><g class="link" style="opacity: 0.8;"><path d="M633.5,176.64559152137443 A26.45209256276008 26.45209256276008 1.0250763000152487 0 0 656.1100264835829,163.92302565695712 L717.0139493322149,63.62537237165634 A49.12063678542801 49.12063678542801 1.0250763000152487 0 1 759,40 L759,62.66854422266793 A26.45209256276008 26.45209256276008 1.0250763000152487 0 0 736.3899735164171,75.39111008708525 L675.4860506677851,175.688763372386 A49.12063678542801 49.12063678542801 1.0250763000152487 0 1 633.5,199.31413574404237 Z" style="fill: rgb(89, 173, 228);"/><title>WingAero → drag coefficient
-1
1.01</title><text class="label" dy="0.35em" x="637.5" y="187.9798636327084"/></g><g class="link" style="opacity: 0.8;"><path d="M380.5,290.62263746888544 A54.126822883183365 54.126822883183365 0.499942090417794 0 0 406.4470304212663,283.99807313985275 L475.04735936517955,246.52670070000372 A64.56877994156189 64.56877994156189 0.499942090417794 0 1 506,238.62414862719538 L506,261.29269420105885 A41.90023436769843 41.90023436769843 0.499942090417794 0 0 485.9140869926316,266.4208503200577 L417.31375804871834,303.89222275990676 A76.7953684570468 76.7953684570468 0.499942090417794 0 1 380.5,313.29118304274886 Z" style="fill: rgb(89, 173, 228);"/><title>aircraft performance → fuel burn
-1
1.01</title><text class="label" dy="0.35em" x="384.5" y="301.95691025581715"/></g><g class="link" style="opacity: 0.8;"><path d="M633.5,200.68586290476213 A49.120637461025765 49.120637461025765 1.0250763000152487 0 1 675.4860512452548,224.31123560135828 L736.3899740938867,324.60888888665903 A26.45209188716232 26.45209188716232 1.0250763000152487 0 0 759,337.3314544261366 L759,360 A49.120637461025765 49.120637461025765 1.0250763000152487 0 1 717.0139487547452,336.3746273034039 L656.1100259061133,236.07697401810313 A26.45209188716232 26.45209188716232 1.0250763000152487 0 0 633.5,223.3544084786256 Z" style="fill: rgb(89, 173, 228);"/><title>WingAero → drag
-1
1.01</title><text class="label" dy="0.35em" x="637.5" y="212.02013569169387"/></g><g class="link" style="opacity: 0.8;"><path d="M127.5,51.00886346914939 A80.79903602067156 80.79903602067156 0.3785424595601148 0 1 157.3606177240054,56.72908935666425 L234.77008272058868,87.51666361873869 A49.32783897932839 49.32783897932839 0.3785424595601148 0 0 253,91.0088634691494 L253,122.48006051049258 A80.79903602067156 80.79903602067156 0.3785424595601148 0 1 223.1393822759946,116.75983462297772 L145.72991727941132,85.97226036090328 A49.32783897932839 49.32783897932839 0.3785424595601148 0 0 127.5,82.48006051049256 Z" style="fill: rgb(89, 173, 228);"/><title>Aircraft → weight total
-1.4
1.40</title><text class="label" dy="0.35em" x="131.5" y="66.74446198982098"/></g><g class="link" style="opacity: 0.8;"><path d="M380.5,259.00281883590935 A22.5070042502073 22.5070042502073 0.8539459093580475 0 0 397.46755297915365,251.28322092415317 L465.19493662266404,173.57060900230528 A54.126822883183365 54.126822883183365 0.8539459093580475 0 1 506,155.00584115252934 L506,186.62565978550543 A22.5070042502073 22.5070042502073 0.8539459093580475 0 0 489.03244702084635,194.34525769726162 L421.30506337733596,272.0578696191095 A54.126822883183365 54.126822883183365 0.8539459093580475 0 1 380.5,290.6226374688854 Z" style="fill: rgb(89, 173, 228);"/><title>aircraft performance → takeoff constraint
-1.4
1.40</title><text class="label" dy="0.35em" x="384.5" y="274.81272815239737"/></g><g class="link" style="opacity: 0.8;"><path d="M1,100 A27.135594744753718 27.135594744753718 0.5479820351270179 0 0 15.136716860520693,96.02673973510767 L90.23262437546887,50.19329480123483 A69.61565525524628 69.61565525524628 0.5479820351270179 0 1 126.5,40 L126.5,82.48006051049256 A27.135594744753718 27.135594744753718 0.5479820351270179 0 0 112.36328313947931,86.4533207753849 L37.267375624531134,132.28676570925774 A69.61565525524628 69.61565525524628 0.5479820351270179 0 1 1,142.48006051049256 Z" style="fill: rgb(89, 173, 228);"/><title>Model → Aircraft
-1.9
1.89</title><text class="label" dy="0.35em" x="5" y="121.24003025524628"/></g><g class="link" style="opacity: 0.8;"><path d="M507,313.2911830427488 A14.431956195468459 14.431956195468459 1.0250763000152487 0 0 519.335769316369,306.34989804559416 L580.2396921650012,206.05224476029343 A61.14077315271962 61.14077315271962 1.0250763000152487 0 1 632.5,176.64559152137443 L632.5,223.35440847862557 A14.431956195468459 14.431956195468459 1.0250763000152487 0 0 620.164230683631,230.29569347578024 L559.2603078349988,330.59334676108097 A61.14077315271962 61.14077315271962 1.0250763000152487 0 1 507,360 Z" style="fill: rgb(89, 173, 228);"/><title>components → WingAero
-2.1
2.07</title><text class="label" dy="0.35em" x="511" y="336.6455915213744"/></g><g class="link" style="opacity: 0.8;"><path d="M380.5,313.2911830427489 A0 0 0 0 0 380.5,313.2911830427489 L506,313.2911830427488 A0 0 0 0 1 506,313.2911830427488 L506,360 A0 0 0 0 0 506,360 L380.5,360.0000000000001 A0 0 0 0 1 380.5,360.0000000000001 Z" style="fill: rgb(89, 173, 228);"/><title>aircraft performance → components
-2.1
2.07</title><text class="label" dy="0.35em" x="384.5" y="336.6455915213745"/></g><g class="link" style="opacity: 0.8;"><path d="M127.5,202.4800605104926 A36.80205833729164 36.80205833729164 0.37854245956011456 0 0 141.1008082470843,199.87463231255035 L218.51027324366757,169.08705805047592 A93.32481666270837 93.32481666270837 0.37854245956011456 0 1 253,162.4800605104926 L253,219.0028188359093 A36.80205833729164 36.80205833729164 0.37854245956011456 0 0 239.3991917529157,221.60824703385154 L161.98972675633243,252.39582129592597 A93.32481666270837 93.32481666270837 0.37854245956011456 0 1 127.5,259.0028188359093 Z" style="fill: rgb(89, 173, 228);"/><title>Mission → fuel segments
-2.5
2.51</title><text class="label" dy="0.35em" x="131.5" y="230.74143967320094"/></g><g class="link" style="opacity: 0.8;"><path d="M254,259.00281883590935 A0 0 0 0 0 254,259.00281883590935 L379.5,259.00281883590935 A0 0 0 0 0 379.5,259.00281883590935 L379.5,360 A0 0 0 0 0 379.5,360 L254,360 A0 0 0 0 0 254,360 Z" style="fill: rgb(89, 173, 228);"/><title>flight segments → aircraft performance
-4.5
4.48</title><text class="label" dy="0.35em" x="258" y="309.5014094179547"/></g><g class="link" style="opacity: 0.8;"><path d="M127.5,259.00281883590935 A0 0 0 0 0 127.5,259.00281883590935 L253,259.00281883590935 A0 0 0 0 0 253,259.00281883590935 L253,360 A0 0 0 0 0 253,360 L127.5,360 A0 0 0 0 0 127.5,360 Z" style="fill: rgb(89, 173, 228);"/><title>Mission → flight segments
-4.5
4.48</title><text class="label" dy="0.35em" x="131.5" y="309.5014094179547"/></g><g class="link" style="opacity: 0.8;"><path d="M1,142.48006051049256 A157.5199394895074 157.5199394895074 0.776656687236779 0 1 111.4055187313484,187.64719509313548 L126.5,202.48006051049262 A0 0 0.776656687236779 0 0 126.5,202.48006051049262 L126.5,360 A157.5199394895074 157.5199394895074 0.776656687236779 0 1 16.094481268651606,314.83286541735714 L1,300 A0 0 0.776656687236779 0 0 1,300 Z" style="fill: rgb(89, 173, 228);"/><title>Model → Mission
-7
6.99</title><text class="label" dy="0.35em" x="5" y="221.24003025524627"/></g></g><g class="nodes"><g class="node" transform="translate(126.5,40)"><title>Aircraft</title><line x1="0" x2="0" y1="-5" y2="42.480060510492564" style="display: inline; stroke: rgb(0, 0, 0);"/><rect class="node-body" width="1" height="42.480060510492564" style="fill: none;"/><text class="node-value" dy=".35em" text-anchor="middle" transform="translate(0.5,21.240030255246282) rotate(-90)" style="display: none;"/><text class="node-title" dy=".35em" text-anchor="start" transform="translate(-4,-10)" style="display: inline;">Aircraft</text><rect class="node-click-target" x="-5" y="-5" width="10" height="47.480060510492564" style="fill: none; visibility: hidden; pointer-events: all;"/></g><g class="node" transform="translate(253,40)"><title>components</title><line x1="0" x2="0" y1="-5" y2="11.008863469149397" style="display: inline; stroke: rgb(0, 0, 0);"/><rect class="node-body" width="1" height="11.008863469149397" style="fill: none;"/><text class="node-value" dy=".35em" text-anchor="middle" transform="translate(0.5,5.504431734574698) rotate(-90)" style="display: none;"/><text class="node-title" dy=".35em" text-anchor="start" transform="translate(-4,-10)" style="display: inline;">components</text><rect class="node-click-target" x="-5" y="-5" width="10" height="16.008863469149397" style="fill: none; visibility: hidden; pointer-events: all;"/></g><g class="node" transform="translate(379.5,40)"><title>Fuselage</title><line x1="0" x2="0" y1="0" y2="0" style="display: none; stroke: rgb(0, 0, 0);"/><rect class="node-body" width="1" height="0" style="fill: none;"/><text class="node-value" dy=".35em" text-anchor="middle" transform="translate(0.5,0) rotate(0)" style="display: none;"/><text class="node-title" dy=".35em" text-anchor="start" transform="translate(5,0)" style="display: none;">Fuselage</text><rect class="node-click-target" x="-5" y="-5" width="10" height="5" style="fill: none; visibility: hidden; pointer-events: all;"/></g><g class="node" transform="translate(379.5,40)"><title>Wing</title><line x1="0" x2="0" y1="0" y2="11.008863469149397" style="display: inline; stroke: rgb(0, 0, 0);"/><rect class="node-body" width="1" height="11.008863469149397" style="fill: none;"/><text class="node-value" dy=".35em" text-anchor="middle" transform="translate(0.5,5.504431734574698) rotate(-90)" style="display: none;"/><text class="node-title" dy=".35em" text-anchor="start" transform="translate(5,5.504431734574698)" style="display: inline;">Wing</text><rect class="node-click-target" x="-5" y="-5" width="10" height="16.008863469149397" style="fill: none; visibility: hidden; pointer-events: all;"/></g><g class="node" transform="translate(506,40)"><title>wing weight</title><line x1="0" x2="0" y1="0" y2="9.63713630842961" style="display: inline; stroke: rgb(0, 0, 0);"/><rect class="node-body" width="1" height="9.63713630842961" style="fill: none;"/><text class="node-value" dy=".35em" text-anchor="middle" transform="translate(0.5,4.818568154214805) rotate(-90)" style="display: none;"/><text class="node-title" dy=".35em" text-anchor="start" transform="translate(5,4.818568154214805)" style="display: inline;">wing weight</text><rect class="node-click-target" x="-5" y="-5" width="10" height="14.63713630842961" style="fill: none; visibility: hidden; pointer-events: all;"/></g><g class="node" transform="translate(506,101.63562515011958)"><title>average chord</title><line x1="0" x2="0" y1="0" y2="1.3717271607197858" style="display: inline; stroke: rgb(0, 0, 0);"/><rect class="node-body" width="1" height="1.3717271607197858" style="fill: none;"/><text class="node-value" dy=".35em" text-anchor="middle" transform="translate(0.5,0.6858635803598929) rotate(-90)" style="display: none;"/><text class="node-title" dy=".35em" text-anchor="start" transform="translate(5,0.6858635803598929)" style="display: inline;">average chord</text><rect class="node-click-target" x="-5" y="-5" width="10" height="6.371727160719786" style="fill: none; visibility: hidden; pointer-events: all;"/></g><g class="node" transform="translate(253,91.0088634691494)"><title>weight total</title><line x1="0" x2="0" y1="0" y2="31.471197041343174" style="display: inline; stroke: rgb(0, 0, 0);"/><rect class="node-body" width="1" height="31.471197041343174" style="fill: none;"/><text class="node-value" dy=".35em" text-anchor="middle" transform="translate(0.5,15.735598520671587) rotate(-90)" style="display: none;"/><text class="node-title" dy=".35em" text-anchor="start" transform="translate(5,15.735598520671587)" style="display: inline;">weight total</text><rect class="node-click-target" x="-5" y="-5" width="10" height="36.471197041343174" style="fill: none; visibility: hidden; pointer-events: all;"/></g><g class="node" transform="translate(126.5,202.4800605104926)"><title>Mission</title><line x1="0" x2="0" y1="-5" y2="157.5199394895074" style="display: inline; stroke: rgb(0, 0, 0);"/><rect class="node-body" width="1" height="157.5199394895074" style="fill: none;"/><text class="node-value" dy=".35em" text-anchor="middle" transform="translate(0.5,78.7599697447537) rotate(-90)" style="display: none;"/><text class="node-title" dy=".35em" text-anchor="start" transform="translate(-4,-10)" style="display: inline;">Mission</text><rect class="node-click-target" x="-5" y="-5" width="10" height="162.5199394895074" style="fill: none; visibility: hidden; pointer-events: all;"/></g><g class="node" transform="translate(253,162.4800605104926)"><title>fuel segments</title><line x1="0" x2="0" y1="0" y2="56.52275832541673" style="display: inline; stroke: rgb(0, 0, 0);"/><rect class="node-body" width="1" height="56.52275832541673" style="fill: none;"/><text class="node-value" dy=".35em" text-anchor="middle" transform="translate(0.5,28.261379162708366) rotate(-90)" style="display: none;"/><text class="node-title" dy=".35em" text-anchor="start" transform="translate(5,28.261379162708366)" style="display: inline;">fuel segments</text><rect class="node-click-target" x="-5" y="-5" width="10" height="61.52275832541673" style="fill: none; visibility: hidden; pointer-events: all;"/></g><g class="node" transform="translate(253,259.00281883590935)"><title>flight segments</title><line x1="0" x2="0" y1="-5" y2="100.99718116409065" style="display: inline; stroke: rgb(0, 0, 0);"/><rect class="node-body" width="1" height="100.99718116409065" style="fill: none;"/><text class="node-value" dy=".35em" text-anchor="middle" transform="translate(0.5,50.498590582045324) rotate(-90)" style="display: none;"/><text class="node-title" dy=".35em" text-anchor="start" transform="translate(-4,-10)" style="display: inline;">flight segments</text><rect class="node-click-target" x="-5" y="-5" width="10" height="105.99718116409065" style="fill: none; visibility: hidden; pointer-events: all;"/></g><g class="node" transform="translate(379.5,259.00281883590935)"><title>flightstate</title><line x1="0" x2="0" y1="0" y2="0" style="display: none; stroke: rgb(0, 0, 0);"/><rect class="node-body" width="1" height="0" style="fill: none;"/><text class="node-value" dy=".35em" text-anchor="middle" transform="translate(0.5,0) rotate(0)" style="display: none;"/><text class="node-title" dy=".35em" text-anchor="start" transform="translate(5,0)" style="display: none;">flightstate</text><rect class="node-click-target" x="-5" y="-5" width="10" height="5" style="fill: none; visibility: hidden; pointer-events: all;"/></g><g class="node" transform="translate(379.5,259.00281883590935)"><title>aircraft performance</title><line x1="0" x2="0" y1="0" y2="100.99718116409065" style="display: inline; stroke: rgb(0, 0, 0);"/><rect class="node-body" width="1" height="100.99718116409065" style="fill: none;"/><text class="node-value" dy=".35em" text-anchor="middle" transform="translate(0.5,50.498590582045324) rotate(-90)" style="display: none;"/><text class="node-title" dy=".35em" text-anchor="start" transform="translate(5,50.498590582045324)" style="display: inline;">aircraft performance</text><rect class="node-click-target" x="-5" y="-5" width="10" height="105.99718116409065" style="fill: none; visibility: hidden; pointer-events: all;"/></g><g class="node" transform="translate(506,155.00584115252934)"><title>takeoff constraint</title><line x1="0" x2="0" y1="0" y2="31.619818632976063" style="display: inline; stroke: rgb(0, 0, 0);"/><rect class="node-body" width="1" height="31.619818632976063" style="fill: none;"/><text class="node-value" dy=".35em" text-anchor="middle" transform="translate(0.5,15.809909316488032) rotate(-90)" style="display: none;"/><text class="node-title" dy=".35em" text-anchor="start" transform="translate(5,15.809909316488032)" style="display: inline;">takeoff constraint</text><rect class="node-click-target" x="-5" y="-5" width="10" height="36.61981863297606" style="fill: none; visibility: hidden; pointer-events: all;"/></g><g class="node" transform="translate(506,238.62414862719538)"><title>fuel burn</title><line x1="0" x2="0" y1="0" y2="22.66854557386347" style="display: inline; stroke: rgb(0, 0, 0);"/><rect class="node-body" width="1" height="22.66854557386347" style="fill: none;"/><text class="node-value" dy=".35em" text-anchor="middle" transform="translate(0.5,11.334272786931734) rotate(-90)" style="display: none;"/><text class="node-title" dy=".35em" text-anchor="start" transform="translate(5,11.334272786931734)" style="display: inline;">fuel burn</text><rect class="node-click-target" x="-5" y="-5" width="10" height="27.66854557386347" style="fill: none; visibility: hidden; pointer-events: all;"/></g><g class="node" transform="translate(506,313.2911830427488)"><title>components</title><line x1="0" x2="0" y1="-5" y2="46.708816957251145" style="display: inline; stroke: rgb(0, 0, 0);"/><rect class="node-body" width="1" height="46.708816957251145" style="fill: none;"/><text class="node-value" dy=".35em" text-anchor="middle" transform="translate(0.5,23.354408478625572) rotate(-90)" style="display: none;"/><text class="node-title" dy=".35em" text-anchor="start" transform="translate(-4,-10)" style="display: inline;">components</text><rect class="node-click-target" x="-5" y="-5" width="10" height="51.708816957251145" style="fill: none; visibility: hidden; pointer-events: all;"/></g><g class="node" transform="translate(632.5,176.64559152137443)"><title>WingAero</title><line x1="0" x2="0" y1="-5" y2="46.70881695725117" style="display: inline; stroke: rgb(0, 0, 0);"/><rect class="node-body" width="1" height="46.70881695725117" style="fill: none;"/><text class="node-value" dy=".35em" text-anchor="middle" transform="translate(0.5,23.354408478625587) rotate(-90)" style="display: none;"/><text class="node-title" dy=".35em" text-anchor="start" transform="translate(-4,-10)" style="display: inline;">WingAero</text><rect class="node-click-target" x="-5" y="-5" width="10" height="51.70881695725117" style="fill: none; visibility: hidden; pointer-events: all;"/></g><g class="node" transform="translate(759,40)"><title>drag coefficient</title><line x1="0" x2="0" y1="0" y2="22.668544222667933" style="display: inline; stroke: rgb(0, 0, 0);"/><rect class="node-body" width="1" height="22.668544222667933" style="fill: none;"/><text class="node-value" dy=".35em" text-anchor="middle" transform="translate(0.5,11.334272111333966) rotate(-90)" style="display: none;"/><text class="node-title" dy=".35em" text-anchor="start" transform="translate(5,11.334272111333966)" style="display: inline;">drag coefficient</text><rect class="node-click-target" x="-5" y="-5" width="10" height="27.668544222667933" style="fill: none; visibility: hidden; pointer-events: all;"/></g><g class="node" transform="translate(759,199.31413574404235)"><title>Reynolds' number</title><line x1="0" x2="0" y1="0" y2="1.3717271607197858" style="display: inline; stroke: rgb(0, 0, 0);"/><rect class="node-body" width="1" height="1.3717271607197858" style="fill: none;"/><text class="node-value" dy=".35em" text-anchor="middle" transform="translate(0.5,0.6858635803598929) rotate(-90)" style="display: none;"/><text class="node-title" dy=".35em" text-anchor="start" transform="translate(5,0.6858635803598929)" style="display: inline;">Reynolds' number</text><rect class="node-click-target" x="-5" y="-5" width="10" height="6.371727160719786" style="fill: none; visibility: hidden; pointer-events: all;"/></g><g class="node" transform="translate(759,337.3314544261366)"><title>drag</title><line x1="0" x2="0" y1="0" y2="22.66854557386347" style="display: inline; stroke: rgb(0, 0, 0);"/><rect class="node-body" width="1" height="22.66854557386347" style="fill: none;"/><text class="node-value" dy=".35em" text-anchor="middle" transform="translate(0.5,11.334272786931734) rotate(-90)" style="display: none;"/><text class="node-title" dy=".35em" text-anchor="start" transform="translate(5,11.334272786931734)" style="display: inline;">drag</text><rect class="node-click-target" x="-5" y="-5" width="10" height="27.66854557386347" style="fill: none; visibility: hidden; pointer-events: all;"/></g><g class="node" transform="translate(0,100)"><title>Model</title><line x1="0" x2="0" y1="0" y2="200" style="display: inline; stroke: rgb(0, 0, 0);"/><rect class="node-body" width="1" height="200" style="fill: none;"/><text class="node-value" dy=".35em" text-anchor="middle" transform="translate(0.5,100) rotate(-90)" style="display: none;"/><text class="node-title" dy=".35em" text-anchor="end" transform="translate(-4,100)" style="display: inline;">Model</text><rect class="node-click-target" x="-5" y="-5" width="10" height="205" style="fill: none; visibility: hidden; pointer-events: all;"/></g></g><g class="slice-titles"/></g></svg>