<?xml version="1.0" standalone="no"?><!DOCTYPE svg PUBLIC "-//W3C//DTD SVG 1.1//EN" "http://www.w3.org/Graphics/SVG/1.1/DTD/svg11.dtd"><svg xmlns="http://www.w3.org/2000/svg" width="1000" height="400" viewBox="0 0 1000 400"><g class="sankey" transform="translate(130,0)"><g class="groups"/><g class="links"><g class="link" style="opacity: 0.8;"><path d="M183.25,244.35440884701632 A84.67115584469788 84.67115584469788 0.44009293224723356 0 1 219.32190587329598,252.42254752694978 L326.0394597080341,302.67520988194843 A90.27796902029262 90.27796902029262 0.44009293224723356 0 0 364.5,311.27761015075345 L364.5,313.27761015075345 A92.27796902029262 92.27796902029262 0.44009293224723356 0 1 325.1874126203704,304.48463403355134 L218.4698587856323,254.2319716785527 A82.67115584469788 82.67115584469788 0.44009293224723356 0 0 183.25,246.35440884701632 Z" style="fill: rgb(89, 173, 228);"/><title>Fuselage → Aircraft
-1
1.02</title><text class="label" dy="0.35em" x="187.25" y="245.35440884701632"/></g><g class="link" style="opacity: 0.8;"><path d="M183.25,265.4831465436483 A113.87354543024759 113.87354543024759 0.30818380715678817 0 1 217.79109318875973,270.84817972633033 L330.5655638369481,306.7472388811066 A111.87354543024759 111.87354543024759 0.30818380715678817 0 0 364.5,312.0180441522503 L364.5,314.0180441522503 A113.87354543024759 113.87354543024759 0.30818380715678817 0 1 329.9589068112403,308.65301096956824 L217.1844361630519,272.75395181479195 A111.87354543024759 111.87354543024759 0.30818380715678817 0 0 183.25,267.4831465436483 Z" style="fill: rgb(89, 173, 228);"/><title>CFRPUD → Aircraft
-1
1.04</title><text class="label" dy="0.35em" x="187.25" y="266.4831465436483"/></g><g class="link" style="opacity: 0.8;"><path d="M365.5,250.87435921624208 A68.05306441503456 68.05306441503456 0.5570763369807028 0 0 401.48012082819486,240.58504192226388 L509.71246548625055,173.168833099202 A70.05306441503456 70.05306441503456 0.5570763369807028 0 1 546.75,162.5771247995454 L546.75,164.5771247995454 A68.05306441503456 68.05306441503456 0.5570763369807028 0 0 510.76987917180514,174.86644209352363 L402.53753451374945,242.2826509165855 A70.05306441503456 70.05306441503456 0.5570763369807028 0 1 365.5,252.87435921624208 Z" style="fill: rgb(89, 173, 228);"/><title>TailBoomBending → FlightSegment
-1.2
1.16</title><text class="label" dy="0.35em" x="369.5" y="251.87435921624208"/></g><g class="link" style="opacity: 0.8;"><path d="M1,224.89411711375826 A76.52488270470194 76.52488270470194 0.47724049765518917 0 0 36.15015569222128,216.3436724558765 L146.18118479599977,159.4456985247177 A78.52488270470194 78.52488270470194 0.47724049765518917 0 1 182.25,150.67178551626355 L182.25,152.67178551626355 A76.52488270470194 76.52488270470194 0.47724049765518917 0 0 147.09984430777874,161.22223017414532 L37.068815204000224,218.1202041053041 A78.52488270470194 78.52488270470194 0.47724049765518917 0 1 1,226.89411711375826 Z" style="fill: rgb(89, 173, 228);"/><title>WingSecondStruct → Wing
-1.2
1.16</title><text class="label" dy="0.35em" x="5" y="225.89411711375826"/></g><g class="link" style="opacity: 0.8;"><path d="M1,291.1401655482998 A80.22148145721086 80.22148145721086 0.4502062357773404 0 0 35.908476269788075,283.14668677502914 L146.47122127167637,229.71066727010069 A82.22148145721086 82.22148145721086 0.4502062357773404 0 1 182.25,221.51790325232767 L182.25,223.51790325232767 A80.22148145721086 80.22148145721086 0.4502062357773404 0 0 147.34152373021192,231.51138202559835 L36.77877872832364,284.9474015305268 A82.22148145721086 82.22148145721086 0.4502062357773404 0 1 1,293.1401655482998 Z" style="fill: rgb(89, 173, 228);"/><title>TailBoom → Empennage
-1.4
1.45</title><text class="label" dy="0.35em" x="5" y="292.1401655482998"/></g><g class="link" style="opacity: 0.8;"><path d="M1,322.59537384951983 A625.9975631465128 625.9975631465128 0.053131959435092524 0 1 34.24483025745471,323.4787631633436 L149.61138367120773,329.6141887322645 A623.9975631465128 623.9975631465128 0.053131959435092524 0 0 182.75,330.49475570502557 L182.75,332.49475570502557 A625.9975631465128 625.9975631465128 0.053131959435092524 0 1 149.5051697425453,331.6113663912018 L34.13861632879227,325.4759408222809 A623.9975631465128 623.9975631465128 0.053131959435092524 0 0 1,324.59537384951983 ZM182.75,330.49475570502557 A338.01814082494184 338.01814082494184 0.09826008098718053 0 0 215.91026908459082,328.86427827008936 L331.14352683592597,317.50486694085157 A340.01814082494184 340.01814082494184 0.09826008098718053 0 1 364.5,315.8647422282222 L364.5,317.8647422282222 A338.01814082494184 338.01814082494184 0.09826008098718053 0 0 331.3397309154092,319.4952196631584 L216.10647316407403,330.8546309923962 A340.01814082494184 340.01814082494184 0.09826008098718053 0 1 182.75,332.49475570502557 Z" style="fill: rgb(89, 173, 228);"/><title>SolarCells → Aircraft
-1.5
1.51</title><text class="label" dy="0.35em" x="5" y="323.59537384951983"/></g><g class="link" style="opacity: 0.8;"><path d="M183.25,286.935436040076 A193.38762217515813 193.38762217515813 0.17557788760905613 0 1 217.03040250720647,289.90862384374844 L331.0689518323035,310.13959063077357 A191.38762217515813 191.38762217515813 0.17557788760905613 0 0 364.5,313.08202995354293 L364.5,315.08202995354293 A193.38762217515813 193.38762217515813 0.17557788760905613 0 1 330.7195974927935,312.1088421498705 L216.68104816769647,291.8778753628454 A191.38762217515813 191.38762217515813 0.17557788760905613 0 0 183.25,288.935436040076 Z" style="fill: rgb(89, 173, 228);"/><title>CFRPFabric → Aircraft
-1.9
1.92</title><text class="label" dy="0.35em" x="187.25" y="287.935436040076"/></g><g class="link" style="opacity: 0.8;"><path d="M183.25,308.7883183457242 A857.6272059772714 857.6272059772714 0.038910291830431154 0 1 216.6121049478116,309.43746486882713 L331.2156960004682,313.8989758607539 A855.6272059772714 855.6272059772714 0.038910291830431154 0 0 364.5,314.54660856405593 L364.5,316.54660856405593 A857.6272059772714 857.6272059772714 0.038910291830431154 0 1 331.1378950521884,315.897462040953 L216.53430399953174,311.4359510490262 A855.6272059772714 855.6272059772714 0.038910291830431154 0 0 183.25,310.7883183457242 Z" style="fill: rgb(89, 173, 228);"/><title>Motor → Aircraft
-2.2
2.16</title><text class="label" dy="0.35em" x="187.25" y="309.7883183457242"/></g><g class="link" style="opacity: 0.8;"><path d="M183.25,221.9983916132651 A70.8360768729709 70.8360768729709 0.5775971816573848 0 1 221.92738263807007,233.4896299657567 L316.28149760812306,294.98394521128284 A88.31025548167652 88.31025548167652 0.5775971816573848 0 0 364.5,309.3098966121374 L364.5,311.91150722968774 A90.91186609922691 90.91186609922691 0.5775971816573848 0 1 314.86098571965823,297.1635148431325 L220.50687074960524,235.66919959760634 A68.23446625542051 68.23446625542051 0.5775971816573848 0 0 183.25,224.60000223081548 Z" style="fill: rgb(89, 173, 228);"/><title>Empennage → Aircraft
-3.6
3.62</title><text class="label" dy="0.35em" x="187.25" y="223.2991969220403"/></g><g class="link" style="opacity: 0.8;"><path d="M365.5,202.0200206002755 A99.03003954019204 99.03003954019204 0.3488110613301334 0 0 399.34655710841776,196.05640520562918 L511.58359267246396,155.2378471834896 A102.89172682991358 102.89172682991358 0.3488110613301334 0 1 546.75,149.0416799502575 L546.75,152.90336723997905 A99.03003954019204 99.03003954019204 0.3488110613301334 0 0 512.9034428915822,158.86698263462537 L400.66640732753604,199.68554065676494 A102.89172682991358 102.89172682991358 0.3488110613301334 0 1 365.5,205.88170788999705 Z" style="fill: rgb(89, 173, 228);"/><title>SparLoading → FlightSegment
-5.4
5.37</title><text class="label" dy="0.35em" x="369.5" y="203.95086424513627"/></g><g class="link" style="opacity: 0.8;"><path d="M1,256.7029207109868 A60.53319781087259 60.53319781087259 0.6439557147337074 0 0 37.34192993376308,244.57976489451542 L143.19127679741035,165.11754200079943 A65.0584441214803 65.0584441214803 0.6439557147337074 0 1 182.25,152.08810222584935 L182.25,156.61334853645707 A60.53319781087259 60.53319781087259 0.6439557147337074 0 0 145.90807006623692,168.73650435292845 L40.05872320258963,248.19872724664444 A65.0584441214803 65.0584441214803 0.6439557147337074 0 1 1,261.2281670215945 Z" style="fill: rgb(89, 173, 228);"/><title>BoxSpar → Wing
-6.3
6.30</title><text class="label" dy="0.35em" x="5" y="258.96554386629066"/></g><g class="link" style="opacity: 0.8;"><path d="M1,354.5310705116773 A997.2655352558387 997.2655352558387 0.012470048945192769 0 0 13.435627735732858,354.4535330636405 L169.74617621334045,352.5042318322688 A1002.7344647441613 1002.7344647441613 0.012470048945192769 0 1 182.25,352.4262691746754 L182.25,357.8951986629981 A997.2655352558387 997.2655352558387 0.012470048945192769 0 0 169.81437226426715,357.97273611103486 L13.50382378665956,359.9220373424066 A1002.7344647441613 1002.7344647441613 0.012470048945192769 0 1 1,360 Z" style="fill: rgb(89, 173, 228);"/><title>ActuatorProp → AircraftDrag
-7.6
7.61</title><text class="label" dy="0.35em" x="5" y="357.26553525583864"/></g><g class="link" style="opacity: 0.8;"><path d="M183.25,352.4262691746754 A996.2131345873377 996.2131345873377 0.011711517002775063 0 0 194.91690035521594,352.35794984284587 L352.7444017951086,350.5094658629946 A1003.7868654126623 1003.7868654126623 0.011711517002775063 0 1 364.5,350.440627132041 L364.5,358.0143579573657 A996.2131345873377 996.2131345873377 0.011711517002775063 0 0 352.83309964478406,358.0826772891952 L195.00559820489133,359.93116126904647 A1003.7868654126623 1003.7868654126623 0.011711517002775063 0 1 183.25,360.00000000000006 Z" style="fill: rgb(89, 173, 228);"/><title>AircraftDrag → Climb
-11
10.5</title><text class="label" dy="0.35em" x="187.25" y="356.2131345873377"/></g><g class="link" style="opacity: 0.8;"><path d="M1,40 A0 0 0 0 0 1,40 L182.25,40 A0 0 0 0 0 182.25,40 L182.25,47.61043021245244 A0 0 0 0 0 182.25,47.61043021245244 L1,47.61043021245244 A0 0 0 0 0 1,47.61043021245244 Z" style="fill: rgb(89, 173, 228);"/><title>WingAero → AircraftDrag
-11
10.6</title><text class="label" dy="0.35em" x="5" y="43.80521510622622"/></g><g class="link" style="opacity: 0.8;"><path d="M365.5,175.90980559409292 A140.59364813490527 140.59364813490527 0.23590858998011588 0 0 398.360462153756,172.01569631328593 L511.91436933931124,144.71908726279983 A149.04441625774854 149.04441625774854 0.23590858998011588 0 1 546.75,140.59091182741423 L546.75,149.0416799502575 A140.59364813490527 140.59364813490527 0.23590858998011588 0 0 513.889537846244,152.9357892310645 L400.3356306606888,180.2323982815506 A149.04441625774854 149.04441625774854 0.23590858998011588 0 1 365.5,184.3605737169362 Z" style="fill: rgb(89, 173, 228);"/><title>SteadyLevelFlight → FlightSegment
-12
11.8</title><text class="label" dy="0.35em" x="369.5" y="180.13518965551455"/></g><g class="link" style="opacity: 0.8;"><path d="M1,185.6917326236623 A114.30642990768828 114.30642990768828 0.2909239238139385 0 0 33.787364560764,180.88849282201983 L146.7682046752431,147.0598528561208 A123.7000108005557 123.7000108005557 0.2909239238139385 0 1 182.25,141.86188791381034 L182.25,151.25546880667775 A114.30642990768828 114.30642990768828 0.2909239238139385 0 0 149.462635439236,156.05870860832022 L36.48179532475688,189.88734857421923 A123.7000108005557 123.7000108005557 0.2909239238139385 0 1 1,195.0853135165297 Z" style="fill: rgb(89, 173, 228);"/><title>Planform → Wing
-13
13.1</title><text class="label" dy="0.35em" x="5" y="190.388523070096"/></g><g class="link" style="opacity: 0.8;"><path d="M365.5,350.440627132041 A0 0 0 0 0 365.5,350.440627132041 L547.25,350.440627132041 A0 0 0 0 0 547.25,350.440627132041 L547.25,359.99999999999994 A0 0 0 0 0 547.25,359.99999999999994 L365.5,359.99999999999994 A0 0 0 0 0 365.5,359.99999999999994 ZM547.25,350.440627132041 A86.34921981602051 86.34921981602051 0.39066806016658795 0 0 580.1323204417442,343.93463348582077 L692.4774108617223,297.6668730199526 A95.90859268397946 95.90859268397946 0.39066806016658795 0 1 729,290.440627132041 L729,299.99999999999994 A86.34921981602051 86.34921981602051 0.39066806016658795 0 0 696.1176795582558,306.5059936462202 L583.7725891382777,352.77375411208834 A95.90859268397946 95.90859268397946 0.39066806016658795 0 1 547.25,359.99999999999994 Z" style="fill: rgb(89, 173, 228);"/><title>Climb → Mission
-13
13.3</title><text class="label" dy="0.35em" x="369.5" y="355.2203135660205"/></g><g class="link" style="opacity: 0.8;"><path d="M365.5,223.5411547733364 A75.22748551756872 75.22748551756872 0.45621300888966165 0 0 398.6415882692598,215.84743639700508 L509.0894258965339,161.64615435956256 A85.48504887376363 85.48504887376363 0.45621300888966165 0 1 546.75,152.90336723997905 L546.75,163.16093059617396 A75.22748551756872 75.22748551756872 0.45621300888966165 0 0 513.6084117307403,170.8546489725053 L403.1605741034661,225.05593100994776 A85.48504887376363 85.48504887376363 0.45621300888966165 0 1 365.5,233.7987181295313 Z" style="fill: rgb(89, 173, 228);"/><title>GustL → FlightSegment
-14
14.3</title><text class="label" dy="0.35em" x="369.5" y="228.66993645143384"/></g><g class="link" style="opacity: 0.8;"><path d="M1,78.00291710009519 A161.10373257432775 161.10373257432775 0.2036244261849336 0 0 33.57842855160881,74.67452684036435 L147.41004725695177,51.16987013988007 A172.287205956749 172.287205956749 0.2036244261849336 0 1 182.25,47.61043021245244 L182.25,58.79390359487367 A161.10373257432775 161.10373257432775 0.2036244261849336 0 0 149.6715714483912,62.122293854604514 L35.83995274304823,85.62695055508878 A172.287205956749 172.287205956749 0.2036244261849336 0 1 1,89.18639048251642 Z" style="fill: rgb(89, 173, 228);"/><title>MotorPerf → AircraftDrag
-16
15.6</title><text class="label" dy="0.35em" x="5" y="83.5946537913058"/></g><g class="link" style="opacity: 0.8;"><path d="M365.5,40 A0 0 0 0 0 365.5,40 L546.75,40 A0 0 0 0 0 546.75,40 L546.75,54.70601796124454 A0 0 0 0 0 546.75,54.70601796124454 L365.5,54.70601796124454 A0 0 0 0 0 365.5,54.70601796124454 Z" style="fill: rgb(89, 173, 228);"/><title>FlightState → FlightSegment
-20
20.5</title><text class="label" dy="0.35em" x="369.5" y="47.35300898062227"/></g><g class="link" style="opacity: 0.8;"><path d="M183.25,141.86188791381034 A66.41895836205781 66.41895836205781 0.7580132137128631 0 1 228.91170497105,160.04717827272373 L330.84760746205706,256.5475544248888 A48.95035917249196 48.95035917249196 0.7580132137128631 0 0 364.5,269.95000030295284 L364.5,287.41859949251864 A66.41895836205781 66.41895836205781 0.7580132137128631 0 1 318.83829502895,269.23330913360525 L216.90239253794297,172.73293298144017 A48.95035917249196 48.95035917249196 0.7580132137128631 0 0 183.25,159.33048710337619 Z" style="fill: rgb(89, 173, 228);"/><title>Wing → Aircraft
-24
24.3</title><text class="label" dy="0.35em" x="187.25" y="150.59618750859326"/></g><g class="link" style="opacity: 0.8;"><path d="M183.25,179.7187907985113 A72.85496645704593 72.85496645704593 0.6862497428524581 0 1 229.41384585211276,196.2111324621743 L322.41426851741556,272.383191372504 A66.41895836205781 66.41895836205781 0.6862497428524581 0 0 364.5,287.4185994925187 L364.5,309.3098966121374 A88.31025548167652 88.31025548167652 0.6862497428524581 0 1 308.54305952676015,289.3189066132898 L215.54263686145728,213.14684770296014 A50.96366933742723 50.96366933742723 0.6862497428524581 0 0 183.25,201.61008791812998 Z" style="fill: rgb(89, 173, 228);"/><title>Battery → Aircraft
-30
30.5</title><text class="label" dy="0.35em" x="187.25" y="190.66443935832064"/></g><g class="link" style="opacity: 0.8;"><path d="M1,119.57887737015915 A72.32585999955863 72.32585999955863 0.397040679503712 0 0 28.96775380805682,113.9526033633762 L140.46950385613715,67.1988874580037 A108.04622836541903 108.04622836541903 0.397040679503712 0 1 182.25,58.79390359487367 L182.25,94.51427196073406 A72.32585999955863 72.32585999955863 0.397040679503712 0 0 154.2822461919432,100.140545967517 L42.780496143862855,146.89426187288953 A108.04622836541903 108.04622836541903 0.397040679503712 0 1 1,155.29924573601954 Z" style="fill: rgb(89, 173, 228);"/><title>ActuatorProp → AircraftDrag
-50
49.7</title><text class="label" dy="0.35em" x="5" y="137.43906155308935"/></g><g class="link" style="opacity: 0.8;"><path d="M365.5,269.95000030295284 A91.31881848927858 91.31881848927858 0.28019960217886775 0 0 390.7539883825431,266.38858994000964 L504.620207652169,233.62125735813152 A154.1499984350274 154.1499984350274 0.28019960217886775 0 1 547.25,227.60944718629221 L547.25,290.4406271320411 A91.31881848927858 91.31881848927858 0.28019960217886775 0 0 521.9960116174569,294.0020374949843 L408.129792347831,326.7693700768624 A154.1499984350274 154.1499984350274 0.28019960217886775 0 1 365.5,332.78118024870173 ZM547.25,227.60944718629221 A0 0 0 0 0 547.25,227.60944718629221 L729,227.60944718629221 A0 0 0 0 0 729,227.60944718629221 L729,290.4406271320411 A0 0 0 0 0 729,290.4406271320411 L547.25,290.4406271320411 A0 0 0 0 0 547.25,290.4406271320411 Z" style="fill: rgb(89, 173, 228);"/><title>Aircraft → Mission
-87
87.4</title><text class="label" dy="0.35em" x="369.5" y="301.3655902758273"/></g><g class="link" style="opacity: 0.8;"><path d="M183.25,40.00000000000001 A197.84446526057968 197.84446526057968 0.2165891280750165 0 1 225.76671600916455,44.62241348066309 L339.4919327059348,69.64659005283139 A116.37088104190445 116.37088104190445 0.2165891280750165 0 0 364.5,72.36546484458387 L364.5,153.8390490632591 A197.84446526057968 197.84446526057968 0.2165891280750165 0 1 321.9832839908355,149.216635582596 L208.2580672940652,124.19245901042771 A116.37088104190445 116.37088104190445 0.2165891280750165 0 0 183.25,121.47358421867523 Z" style="fill: rgb(89, 173, 228);"/><title>AircraftDrag → AircraftPerf
-1.1e+02
113</title><text class="label" dy="0.35em" x="187.25" y="80.73679210933761"/></g><g class="link" style="opacity: 0.8;"><path d="M365.5,72.36546484458387 A238.74886636206622 238.74886636206622 0.11900869949083592 0 0 393.8461698962309,70.676750851881 L508.2068904066472,57.00221137047226 A324.63376022823593 324.63376022823593 0.11900869949083592 0 1 546.75,54.70601796124453 L546.75,140.59091182741423 A238.74886636206622 238.74886636206622 0.11900869949083592 0 0 518.4038301037691,142.2796258201171 L404.0431095933528,155.95416530152585 A324.63376022823593 324.63376022823593 0.11900869949083592 0 1 365.5,158.25035871075357 Z" style="fill: rgb(89, 173, 228);"/><title>AircraftPerf → FlightSegment
-1.2e+02
120</title><text class="label" dy="0.35em" x="369.5" y="115.30791177766872"/></g><g class="link" style="opacity: 0.8;"><path d="M547.75,39.99999999999999 A154.9336298431461 154.9336298431461 0.39224302279783796 0 1 606.9752468180999,51.766595244715724 L718.555001947651,97.92483660234785 A27.324182656853885 27.324182656853885 0.39224302279783796 0 0 729,100 L729,227.6094471862922 A154.9336298431461 154.9336298431461 0.39224302279783796 0 1 669.7747531819001,215.84285194157644 L558.194998052349,169.68461058394433 A27.324182656853885 27.324182656853885 0.39224302279783796 0 0 547.75,167.6094471862922 Z" style="fill: rgb(89, 173, 228);"/><title>FlightSegment → Mission
-1.8e+02
178</title><text class="label" dy="0.35em" x="551.75" y="103.8047235931461"/></g></g><g class="nodes"><g class="node" transform="translate(0,323.0521640750051)"><title>SolarCells</title><line x1="0" x2="0" y1="0" y2="1.086419549029415" style="display: inline; stroke: rgb(0, 0, 0);"/><rect class="node-body" width="1" height="1.086419549029415" style="fill: none;"/><text class="node-value" dy=".35em" text-anchor="middle" transform="translate(0.5,0.5432097745147075) rotate(-90)" style="display: none;"/><text class="node-title" dy=".35em" text-anchor="end" transform="translate(-4,0.5432097745147075)" style="display: inline;">SolarCells</text><rect class="node-click-target" x="-5" y="-5" width="10" height="6.086419549029415" style="fill: none; visibility: hidden; pointer-events: all;"/></g><g class="node" transform="translate(364.5,269.95000030295284)"><title>Aircraft</title><line x1="0" x2="0" y1="0" y2="62.83117994574883" style="display: inline; stroke: rgb(0, 0, 0);"/><rect class="node-body" width="1" height="62.83117994574883" style="fill: none;"/><text class="node-value" dy=".35em" text-anchor="middle" transform="translate(0.5,31.415589972874415) rotate(-90)" style="display: none;"/><text class="node-title" dy=".35em" text-anchor="start" transform="translate(5,31.415589972874415)" style="display: inline;">Aircraft</text><rect class="node-click-target" x="-5" y="-5" width="10" height="67.83117994574883" style="fill: none; visibility: hidden; pointer-events: all;"/></g><g class="node" transform="translate(0,185.6917326236623)"><title>Planform</title><line x1="0" x2="0" y1="0" y2="9.39358089286742" style="display: inline; stroke: rgb(0, 0, 0);"/><rect class="node-body" width="1" height="9.39358089286742" style="fill: none;"/><text class="node-value" dy=".35em" text-anchor="middle" transform="translate(0.5,4.69679044643371) rotate(-90)" style="display: none;"/><text class="node-title" dy=".35em" text-anchor="end" transform="translate(-4,4.69679044643371)" style="display: inline;">Planform</text><rect class="node-click-target" x="-5" y="-5" width="10" height="14.39358089286742" style="fill: none; visibility: hidden; pointer-events: all;"/></g><g class="node" transform="translate(182.25,141.86188791381034)"><title>Wing</title><line x1="0" x2="0" y1="-5" y2="17.46859918956585" style="display: inline; stroke: rgb(0, 0, 0);"/><rect class="node-body" width="1" height="17.46859918956585" style="fill: none;"/><text class="node-value" dy=".35em" text-anchor="middle" transform="translate(0.5,8.734299594782925) rotate(-90)" style="display: none;"/><text class="node-title" dy=".35em" text-anchor="start" transform="translate(-4,-10)" style="display: inline;">Wing</text><rect class="node-click-target" x="-5" y="-5" width="10" height="22.46859918956585" style="fill: none; visibility: hidden; pointer-events: all;"/></g><g class="node" transform="translate(0,225.47780040417246)"><title>WingSecondStruct</title><line x1="0" x2="0" y1="0" y2="1" style="display: inline; stroke: rgb(0, 0, 0);"/><rect class="node-body" width="1" height="1" style="fill: none;"/><text class="node-value" dy=".35em" text-anchor="middle" transform="translate(0.5,0.4163167095858) rotate(0)" style="display: none;"/><text class="node-title" dy=".35em" text-anchor="end" transform="translate(-4,0.4163167095858)" style="display: inline;">WingSecondStruct</text><rect class="node-click-target" x="-5" y="-5" width="10" height="6" style="fill: none; visibility: hidden; pointer-events: all;"/></g><g class="node" transform="translate(0,256.7029207109868)"><title>BoxSpar</title><line x1="0" x2="0" y1="0" y2="4.525246310607713" style="display: inline; stroke: rgb(0, 0, 0);"/><rect class="node-body" width="1" height="4.525246310607713" style="fill: none;"/><text class="node-value" dy=".35em" text-anchor="middle" transform="translate(0.5,2.2626231553038565) rotate(-90)" style="display: none;"/><text class="node-title" dy=".35em" text-anchor="end" transform="translate(-4,2.2626231553038565)" style="display: inline;">BoxSpar</text><rect class="node-click-target" x="-5" y="-5" width="10" height="9.525246310607713" style="fill: none; visibility: hidden; pointer-events: all;"/></g><g class="node" transform="translate(182.25,179.7187907985113)"><title>Battery</title><line x1="0" x2="0" y1="0" y2="21.891297119618713" style="display: inline; stroke: rgb(0, 0, 0);"/><rect class="node-body" width="1" height="21.891297119618713" style="fill: none;"/><text class="node-value" dy=".35em" text-anchor="middle" transform="translate(0.5,10.945648559809356) rotate(-90)" style="display: none;"/><text class="node-title" dy=".35em" text-anchor="end" transform="translate(-4,10.945648559809356)" style="display: inline;">Battery</text><rect class="node-click-target" x="-5" y="-5" width="10" height="26.891297119618713" style="fill: none; visibility: hidden; pointer-events: all;"/></g><g class="node" transform="translate(0,291.62065390923726)"><title>TailBoom</title><line x1="0" x2="0" y1="0" y2="1.0390232781251143" style="display: inline; stroke: rgb(0, 0, 0);"/><rect class="node-body" width="1" height="1.0390232781251143" style="fill: none;"/><text class="node-value" dy=".35em" text-anchor="middle" transform="translate(0.5,0.5195116390625572) rotate(-90)" style="display: none;"/><text class="node-title" dy=".35em" text-anchor="end" transform="translate(-4,0.5195116390625572)" style="display: inline;">TailBoom</text><rect class="node-click-target" x="-5" y="-5" width="10" height="6.039023278125114" style="fill: none; visibility: hidden; pointer-events: all;"/></g><g class="node" transform="translate(182.25,221.9983916132651)"><title>Empennage</title><line x1="0" x2="0" y1="-5" y2="2.601610617550392" style="display: inline; stroke: rgb(0, 0, 0);"/><rect class="node-body" width="1" height="2.601610617550392" style="fill: none;"/><text class="node-value" dy=".35em" text-anchor="middle" transform="translate(0.5,1.300805308775196) rotate(-90)" style="display: none;"/><text class="node-title" dy=".35em" text-anchor="start" transform="translate(-4,-10)" style="display: inline;">Empennage</text><rect class="node-click-target" x="-5" y="-5" width="10" height="7.601610617550392" style="fill: none; visibility: hidden; pointer-events: all;"/></g><g class="node" transform="translate(182.25,244.9883059259506)"><title>Fuselage</title><line x1="0" x2="0" y1="0" y2="1" style="display: inline; stroke: rgb(0, 0, 0);"/><rect class="node-body" width="1" height="1" style="fill: none;"/><text class="node-value" dy=".35em" text-anchor="middle" transform="translate(0.5,0.3661029210657034) rotate(0)" style="display: none;"/><text class="node-title" dy=".35em" text-anchor="end" transform="translate(-4,0.3661029210657034)" style="display: inline;">Fuselage</text><rect class="node-click-target" x="-5" y="-5" width="10" height="6" style="fill: none; visibility: hidden; pointer-events: all;"/></g><g class="node" transform="translate(182.25,266.1088154632171)"><title>CFRPUD</title><line x1="0" x2="0" y1="0" y2="1" style="display: inline; stroke: rgb(0, 0, 0);"/><rect class="node-body" width="1" height="1" style="fill: none;"/><text class="node-value" dy=".35em" text-anchor="middle" transform="translate(0.5,0.37433108043117613) rotate(0)" style="display: none;"/><text class="node-title" dy=".35em" text-anchor="end" transform="translate(-4,0.37433108043117613)" style="display: inline;">CFRPUD</text><rect class="node-click-target" x="-5" y="-5" width="10" height="6" style="fill: none; visibility: hidden; pointer-events: all;"/></g><g class="node" transform="translate(182.25,287.2457813192146)"><title>CFRPFabric</title><line x1="0" x2="0" y1="0" y2="1.379309441722853" style="display: inline; stroke: rgb(0, 0, 0);"/><rect class="node-body" width="1" height="1.379309441722853" style="fill: none;"/><text class="node-value" dy=".35em" text-anchor="middle" transform="translate(0.5,0.6896547208614265) rotate(-90)" style="display: none;"/><text class="node-title" dy=".35em" text-anchor="end" transform="translate(-4,0.6896547208614265)" style="display: inline;">CFRPFabric</text><rect class="node-click-target" x="-5" y="-5" width="10" height="6.379309441722853" style="fill: none; visibility: hidden; pointer-events: all;"/></g><g class="node" transform="translate(182.25,309.0133944560726)"><title>Motor</title><line x1="0" x2="0" y1="0" y2="1.5498477793031498" style="display: inline; stroke: rgb(0, 0, 0);"/><rect class="node-body" width="1" height="1.5498477793031498" style="fill: none;"/><text class="node-value" dy=".35em" text-anchor="middle" transform="translate(0.5,0.7749238896515749) rotate(-90)" style="display: none;"/><text class="node-title" dy=".35em" text-anchor="end" transform="translate(-4,0.7749238896515749)" style="display: inline;">Motor</text><rect class="node-click-target" x="-5" y="-5" width="10" height="6.54984777930315" style="fill: none; visibility: hidden; pointer-events: all;"/></g><g class="node" transform="translate(729,100)"><title>Mission</title><line x1="0" x2="0" y1="0" y2="200" style="display: inline; stroke: rgb(0, 0, 0);"/><rect class="node-body" width="1" height="200" style="fill: none;"/><text class="node-value" dy=".35em" text-anchor="middle" transform="translate(0.5,100) rotate(-90)" style="display: none;"/><text class="node-title" dy=".35em" text-anchor="start" transform="translate(5,100)" style="display: inline;">Mission</text><rect class="node-click-target" x="-5" y="-5" width="10" height="205" style="fill: none; visibility: hidden; pointer-events: all;"/></g><g class="node" transform="translate(0,354.5310705116773)"><title>ActuatorProp</title><line x1="0" x2="0" y1="0" y2="5.468929488322715" style="display: inline; stroke: rgb(0, 0, 0);"/><rect class="node-body" width="1" height="5.468929488322715" style="fill: none;"/><text class="node-value" dy=".35em" text-anchor="middle" transform="translate(0.5,2.7344647441613574) rotate(-90)" style="display: none;"/><text class="node-title" dy=".35em" text-anchor="end" transform="translate(-4,2.7344647441613574)" style="display: inline;">ActuatorProp</text><rect class="node-click-target" x="-5" y="-5" width="10" height="10.468929488322715" style="fill: none; visibility: hidden; pointer-events: all;"/></g><g class="node" transform="translate(182.25,352.4262691746754)"><title>AircraftDrag</title><line x1="0" x2="0" y1="-5" y2="7.573730825324617" style="display: inline; stroke: rgb(0, 0, 0);"/><rect class="node-body" width="1" height="7.573730825324617" style="fill: none;"/><text class="node-value" dy=".35em" text-anchor="middle" transform="translate(0.5,3.7868654126623085) rotate(-90)" style="display: none;"/><text class="node-title" dy=".35em" text-anchor="start" transform="translate(-4,-10)" style="display: inline;">AircraftDrag</text><rect class="node-click-target" x="-5" y="-5" width="10" height="12.573730825324617" style="fill: none; visibility: hidden; pointer-events: all;"/></g><g class="node" transform="translate(364.5,350.440627132041)"><title>Climb</title><line x1="0" x2="0" y1="0" y2="9.559372867958984" style="display: inline; stroke: rgb(0, 0, 0);"/><rect class="node-body" width="1" height="9.559372867958984" style="fill: none;"/><text class="node-value" dy=".35em" text-anchor="middle" transform="translate(0.5,4.779686433979492) rotate(-90)" style="display: none;"/><text class="node-title" dy=".35em" text-anchor="start" transform="translate(5,4.779686433979492)" style="display: inline;">Climb</text><rect class="node-click-target" x="-5" y="-5" width="10" height="14.559372867958984" style="fill: none; visibility: hidden; pointer-events: all;"/></g><g class="node" transform="translate(364.5,40)"><title>FlightState</title><line x1="0" x2="0" y1="0" y2="14.706017961244534" style="display: inline; stroke: rgb(0, 0, 0);"/><rect class="node-body" width="1" height="14.706017961244534" style="fill: none;"/><text class="node-value" dy=".35em" text-anchor="middle" transform="translate(0.5,7.353008980622267) rotate(-90)" style="display: none;"/><text class="node-title" dy=".35em" text-anchor="end" transform="translate(-4,7.353008980622267)" style="display: inline;">FlightState</text><rect class="node-click-target" x="-5" y="-5" width="10" height="19.706017961244534" style="fill: none; visibility: hidden; pointer-events: all;"/></g><g class="node" transform="translate(546.75,40)"><title>FlightSegment</title><line x1="0" x2="0" y1="-5" y2="127.60944718629219" style="display: inline; stroke: rgb(0, 0, 0);"/><rect class="node-body" width="1" height="127.60944718629219" style="fill: none;"/><text class="node-value" dy=".35em" text-anchor="middle" transform="translate(0.5,63.80472359314609) rotate(-90)" style="display: none;"/><text class="node-title" dy=".35em" text-anchor="start" transform="translate(-4,-10)" style="display: inline;">FlightSegment</text><rect class="node-click-target" x="-5" y="-5" width="10" height="132.6094471862922" style="fill: none; visibility: hidden; pointer-events: all;"/></g><g class="node" transform="translate(0,40)"><title>WingAero</title><line x1="0" x2="0" y1="0" y2="7.610430212452442" style="display: inline; stroke: rgb(0, 0, 0);"/><rect class="node-body" width="1" height="7.610430212452442" style="fill: none;"/><text class="node-value" dy=".35em" text-anchor="middle" transform="translate(0.5,3.805215106226221) rotate(-90)" style="display: none;"/><text class="node-title" dy=".35em" text-anchor="end" transform="translate(-4,3.805215106226221)" style="display: inline;">WingAero</text><rect class="node-click-target" x="-5" y="-5" width="10" height="12.610430212452442" style="fill: none; visibility: hidden; pointer-events: all;"/></g><g class="node" transform="translate(182.25,40)"><title>AircraftDrag</title><line x1="0" x2="0" y1="-5" y2="81.47358421867521" style="display: inline; stroke: rgb(0, 0, 0);"/><rect class="node-body" width="1" height="81.47358421867521" style="fill: none;"/><text class="node-value" dy=".35em" text-anchor="middle" transform="translate(0.5,40.73679210933761) rotate(-90)" style="display: none;"/><text class="node-title" dy=".35em" text-anchor="start" transform="translate(-4,-10)" style="display: inline;">AircraftDrag</text><rect class="node-click-target" x="-5" y="-5" width="10" height="86.47358421867521" style="fill: none; visibility: hidden; pointer-events: all;"/></g><g class="node" transform="translate(0,78.00291710009519)"><title>MotorPerf</title><line x1="0" x2="0" y1="0" y2="11.183473382421226" style="display: inline; stroke: rgb(0, 0, 0);"/><rect class="node-body" width="1" height="11.183473382421226" style="fill: none;"/><text class="node-value" dy=".35em" text-anchor="middle" transform="translate(0.5,5.591736691210613) rotate(-90)" style="display: none;"/><text class="node-title" dy=".35em" text-anchor="end" transform="translate(-4,5.591736691210613)" style="display: inline;">MotorPerf</text><rect class="node-click-target" x="-5" y="-5" width="10" height="16.183473382421226" style="fill: none; visibility: hidden; pointer-events: all;"/></g><g class="node" transform="translate(0,119.57887737015916)"><title>ActuatorProp</title><line x1="0" x2="0" y1="0" y2="35.72036836586038" style="display: inline; stroke: rgb(0, 0, 0);"/><rect class="node-body" width="1" height="35.72036836586038" style="fill: none;"/><text class="node-value" dy=".35em" text-anchor="middle" transform="translate(0.5,17.86018418293019) rotate(-90)" style="display: none;"/><text class="node-title" dy=".35em" text-anchor="end" transform="translate(-4,17.86018418293019)" style="display: inline;">ActuatorProp</text><rect class="node-click-target" x="-5" y="-5" width="10" height="40.72036836586038" style="fill: none; visibility: hidden; pointer-events: all;"/></g><g class="node" transform="translate(364.5,72.36546484458387)"><title>AircraftPerf</title><line x1="0" x2="0" y1="0" y2="85.8848938661697" style="display: inline; stroke: rgb(0, 0, 0);"/><rect class="node-body" width="1" height="85.8848938661697" style="fill: none;"/><text class="node-value" dy=".35em" text-anchor="middle" transform="translate(0.5,42.94244693308485) rotate(-90)" style="display: none;"/><text class="node-title" dy=".35em" text-anchor="start" transform="translate(5,42.94244693308485)" style="display: inline;">AircraftPerf</text><rect class="node-click-target" x="-5" y="-5" width="10" height="90.8848938661697" style="fill: none; visibility: hidden; pointer-events: all;"/></g><g class="node" transform="translate(364.5,175.90980559409292)"><title>SteadyLevelFlight</title><line x1="0" x2="0" y1="0" y2="8.450768122843272" style="display: inline; stroke: rgb(0, 0, 0);"/><rect class="node-body" width="1" height="8.450768122843272" style="fill: none;"/><text class="node-value" dy=".35em" text-anchor="middle" transform="translate(0.5,4.225384061421636) rotate(-90)" style="display: none;"/><text class="node-title" dy=".35em" text-anchor="end" transform="translate(-4,4.225384061421636)" style="display: inline;">SteadyLevelFlight</text><rect class="node-click-target" x="-5" y="-5" width="10" height="13.450768122843272" style="fill: none; visibility: hidden; pointer-events: all;"/></g><g class="node" transform="translate(364.5,202.0200206002755)"><title>SparLoading</title><line x1="0" x2="0" y1="0" y2="3.8616872897215444" style="display: inline; stroke: rgb(0, 0, 0);"/><rect class="node-body" width="1" height="3.8616872897215444" style="fill: none;"/><text class="node-value" dy=".35em" text-anchor="middle" transform="translate(0.5,1.9308436448607722) rotate(-90)" style="display: none;"/><text class="node-title" dy=".35em" text-anchor="end" transform="translate(-4,1.9308436448607722)" style="display: inline;">SparLoading</text><rect class="node-click-target" x="-5" y="-5" width="10" height="8.861687289721544" style="fill: none; visibility: hidden; pointer-events: all;"/></g><g class="node" transform="translate(364.5,223.5411547733364)"><title>GustL</title><line x1="0" x2="0" y1="0" y2="10.257563356194908" style="display: inline; stroke: rgb(0, 0, 0);"/><rect class="node-body" width="1" height="10.257563356194908" style="fill: none;"/><text class="node-value" dy=".35em" text-anchor="middle" transform="translate(0.5,5.128781678097454) rotate(-90)" style="display: none;"/><text class="node-title" dy=".35em" text-anchor="end" transform="translate(-4,5.128781678097454)" style="display: inline;">GustL</text><rect class="node-click-target" x="-5" y="-5" width="10" height="15.257563356194908" style="fill: none; visibility: hidden; pointer-events: all;"/></g><g class="node" transform="translate(364.5,251.45816501287064)"><title>TailBoomBending</title><line x1="0" x2="0" y1="0" y2="1" style="display: inline; stroke: rgb(0, 0, 0);"/><rect class="node-body" width="1" height="1" style="fill: none;"/><text class="node-value" dy=".35em" text-anchor="middle" transform="translate(0.5,0.41619420337143254) rotate(0)" style="display: none;"/><text class="node-title" dy=".35em" text-anchor="end" transform="translate(-4,0.41619420337143254)" style="display: inline;">TailBoomBending</text><rect class="node-click-target" x="-5" y="-5" width="10" height="6" style="fill: none; visibility: hidden; pointer-events: all;"/></g></g><g class="slice-titles"/></g></svg>