<?xml version="1.0" standalone="no"?><!DOCTYPE svg PUBLIC "-//W3C//DTD SVG 1.1//EN" "http://www.w3.org/Graphics/SVG/1.1/DTD/svg11.dtd"><svg xmlns="http://www.w3.org/2000/svg" width="1200" height="400" viewBox="0 0 1200 400"><g class="sankey" transform="translate(230,0)"><g class="groups"/><g class="links"><g class="link" style="opacity: 0.8;"><path d="M277.3333333333333,39.00000000341588 A0 0 0 0 0 277.3333333333333,39.00000000341588 L414.5,39.00000000341588 A0 0 0 0 0 414.5,39.00000000341588 L414.5,41.00000000341588 A0 0 0 0 0 414.5,41.00000000341588 L277.3333333333333,41.00000000341588 A0 0 0 0 0 277.3333333333333,41.00000000341588 Z" style="fill: rgb(207, 207, 207);"/><title>Wburn ≥ 0.1·D → aircraft performance
-4e-10
400p</title><text class="label" dy="0.35em" x="281.3333333333333" y="40.00000000341588"/></g><g class="link" style="opacity: 0.8;"><path d="M1,105.97287500319584 A80.68731418338992 80.68731418338992 0.32372876931922034 0 0 26.666944924604554,101.78164312711361 L111.86351405106701,73.1953994715313 A82.68731418338992 82.68731418338992 0.32372876931922034 0 1 138.16666666666666,68.90027934688112 L138.16666666666666,70.90027934688112 A80.68731418338992 80.68731418338992 0.32372876931922034 0 0 112.4997217420621,75.09151122296335 L27.303152615599632,103.67775487854566 A82.68731418338992 82.68731418338992 0.32372876931922034 0 1 1,107.97287500319584 Z" style="fill: rgb(89, 173, 228);"/><title>Re = rho·V·c/mu → WingAero
-0.061
61.3m</title><text class="label" dy="0.35em" x="5" y="106.97287500319584"/></g><g class="link" style="opacity: 0.8;"><path d="M1,332.58079449141985 A156.0332943441088 156.0332943441088 0.16460921151447794 0 1 26.568682492490368,334.68997954957723 L112.92571784922262,349.0349423255326 A154.0332943441088 154.0332943441088 0.16460921151447794 0 0 138.16666666666666,351.11709231957724 L138.16666666666666,353.11709231957724 A156.0332943441088 156.0332943441088 0.16460921151447794 0 1 112.5979841741763,351.00790726141986 L26.240948817444036,336.6629444854645 A154.0332943441088 154.0332943441088 0.16460921151447794 0 0 1,334.58079449141985 Z" style="fill: rgb(89, 173, 228);"/><title>c = (S/A)^0.5 → Wing
-0.061
61.3m</title><text class="label" dy="0.35em" x="5" y="333.58079449141985"/></g><g class="link" style="opacity: 0.8;"><path d="M1,219.12300153913043 A59.626387249954306 59.626387249954306 0.44731229332768785 0 0 26.791025808555013,213.25653471530737 L110.50428020620026,173.09556186464178 A63.952794262357145 63.952794262357145 0.44731229332768785 0 1 138.16666666666666,166.8034324378134 L138.16666666666666,171.12983945021625 A59.626387249954306 59.626387249954306 0.44731229332768785 0 0 112.37564085811164,176.9963062740393 L28.662386460466394,217.1572791247049 A63.952794262357145 63.952794262357145 0.44731229332768785 0 1 1,223.44940855153328 Z" style="fill: rgb(89, 173, 228);"/><title>Wfuel[3] ≥ Wburn[3] → fuel constraints
-0.25
253m</title><text class="label" dy="0.35em" x="5" y="221.28620504533185"/></g><g class="link" style="opacity: 0.8;"><path d="M1,307.1615889828398 A85.36701872215504 85.36701872215504 0.32372876931922034 0 1 28.155576934178033,311.59590401309595 L113.3521460606405,340.1821476686783 A78.0076096446248 78.0076096446248 0.32372876931922034 0 0 138.16666666666666,344.23418463915453 L138.16666666666666,351.5935937166848 A85.36701872215504 85.36701872215504 0.32372876931922034 0 1 111.01108973248863,347.15927868642865 L25.814520606026154,318.5730350308463 A78.0076096446248 78.0076096446248 0.32372876931922034 0 0 1,314.52099806037006 Z" style="fill: rgb(89, 173, 228);"/><title>rho = 1 lbf/ft² → Wing
-0.43
431m</title><text class="label" dy="0.35em" x="5" y="310.84129352160494"/></g><g class="link" style="opacity: 0.8;"><path d="M1,352.6405909224697 A0 0 0 0 1 1,352.6405909224697 L138.16666666666666,352.64059092246976 A0 0 0 0 0 138.16666666666666,352.64059092246976 L138.16666666666666,360 A0 0 0 0 1 138.16666666666666,360 L1,359.99999999999994 A0 0 0 0 0 1,359.99999999999994 Z" style="fill: rgb(89, 173, 228);"/><title>W ≥ S·rho → Wing
-0.43
431m</title><text class="label" dy="0.35em" x="5" y="356.3202954612348"/></g><g class="link" style="opacity: 0.8;"><path d="M1,277.0778932540124 A64.86598286296768 64.86598286296768 0.472912915695606 0 1 30.545250216366927,284.197240522938 L113.88104168474636,326.83482080071053 A53.3185849622976 53.3185849622976 0.472912915695606 0 0 138.16666666666666,332.68678673848444 L138.16666666666666,344.2341846391545 A64.86598286296768 64.86598286296768 0.472912915695606 0 1 108.62141645029972,337.1148373702289 L25.285624981920297,294.47725709245634 A53.3185849622976 53.3185849622976 0.472912915695606 0 0 1,288.62529115468243 Z" style="fill: rgb(89, 173, 228);"/><title>A = 27  → Wing
-0.68
676m</title><text class="label" dy="0.35em" x="5" y="282.8515922043474"/></g><g class="link" style="opacity: 0.8;"><path d="M1,40 A0 0 0 0 0 1,40 L138.16666666666666,40 A0 0 0 0 0 138.16666666666666,40 L138.16666666666666,52.07089650356255 A0 0 0 0 0 138.16666666666666,52.07089650356255 L1,52.07089650356255 A0 0 0 0 0 1,52.07089650356255 Z" style="fill: rgb(89, 173, 228);"/><title>e = 0.9  → WingAero
-0.71
707m</title><text class="label" dy="0.35em" x="5" y="46.035448251781276"/></g><g class="link" style="opacity: 0.8;"><path d="M1,241.9857063796906 A96.88394585286639 96.88394585286639 0.29610986353565494 0 1 29.270889508121183,246.20220503322625 L114.72681191680806,272.27300997332406 A80.32805680670197 80.32805680670197 0.29610986353565494 0 0 138.16666666666666,275.7689776528503 L138.16666666666666,292.32486669901476 A96.88394585286639 96.88394585286639 0.29610986353565494 0 1 109.89577715854549,288.1083680454791 L24.439854749858593,262.0375631053813 A80.32805680670197 80.32805680670197 0.29610986353565494 0 0 1,258.541595425855 Z" style="fill: rgb(89, 173, 228);"/><title>W = 100 lbf → Fuselage
-0.97
969m</title><text class="label" dy="0.35em" x="5" y="250.2636509027728"/></g><g class="link" style="opacity: 0.8;"><path d="M139.16666666666666,275.7689776528503 A84.25467833700293 84.25467833700293 0.35103044723278476 0 1 168.13895212251316,280.90692263251105 L253.0540485854385,312.0025494340227 A67.6987892908385 67.6987892908385 0.35103044723278476 0 0 276.3333333333333,316.1308976923201 L276.3333333333333,332.68678673848456 A84.25467833700293 84.25467833700293 0.35103044723278476 0 1 247.3610478774868,327.5488417588238 L162.44595141456148,296.4532149573122 A67.6987892908385 67.6987892908385 0.35103044723278476 0 0 139.16666666666666,292.32486669901476 Z" style="fill: rgb(89, 173, 228);"/><title>Fuselage → Aircraft
-0.97
969m</title><text class="label" dy="0.35em" x="143.16666666666666" y="284.04692217593254"/></g><g class="link" style="opacity: 0.8;"><path d="M1,126.03267143424569 A50.43934239019814 50.43934239019814 0.472912915695606 0 0 23.974183476347115,120.49671593580413 L107.30997494472656,77.85913565803155 A67.74522543506711 67.74522543506711 0.472912915695606 0 1 138.16666666666666,70.42377794977361 L138.16666666666666,87.72966099464256 A50.43934239019814 50.43934239019814 0.472912915695606 0 0 115.19248319031955,93.2656164930841 L31.856691721940095,135.90319677085668 A67.74522543506711 67.74522543506711 0.472912915695606 0 1 1,143.33855447911463 Z" style="fill: rgb(89, 173, 228);"/><title>CD ≥ 0.074/Re^0.2 + CL²/π/A/e → WingAero
-1
1.01</title><text class="label" dy="0.35em" x="5" y="134.68561295668016"/></g><g class="link" style="opacity: 0.8;"><path d="M1,70.60719433171991 A146.38035222389593 146.38035222389593 0.16460921151447838 0 0 24.986885394456984,68.62849322811076 L111.34392075118905,54.28353045215548 A163.68623646432204 163.68623646432204 0.16460921151447838 0 1 138.16666666666666,52.07089650356255 L138.16666666666666,69.37678074398865 A146.38035222389593 146.38035222389593 0.16460921151447838 0 0 114.17978127220968,71.3554818475978 L27.82274591547761,85.70044462355307 A163.68623646432204 163.68623646432204 0.16460921151447838 0 1 1,87.91307857214602 Z" style="fill: rgb(89, 173, 228);"/><title>D ≥ 0.5·rho·V²·CD·S → WingAero
-1
1.01</title><text class="label" dy="0.35em" x="5" y="79.26013645193296"/></g><g class="link" style="opacity: 0.8;"><path d="M691.8333333333333,214.9097153281993 A0 0 0 0 0 691.8333333333333,214.9097153281993 L829,214.90971532819927 A0 0 0 0 1 829,214.90971532819927 L829,232.21559956862538 A0 0 0 0 0 829,232.21559956862538 L691.8333333333333,232.2155995686254 A0 0 0 0 1 691.8333333333333,232.2155995686254 Z" style="fill: rgb(89, 173, 228);"/><title>Wburn ≥ 0.2·D → Model
-1
1.01</title><text class="label" dy="0.35em" x="695.8333333333333" y="223.56265744841235"/></g><g class="link" style="opacity: 0.8;"><path d="M139.16666666666666,211.49175948968593 A59.02744797768843 59.02744797768843 0.6544426920388214 0 1 175.097688155026,223.6875802314799 L254.95996460183713,284.96098328163674 A35.11214985399376 35.11214985399376 0.6544426920388214 0 0 276.3333333333333,292.2155995686254 L276.3333333333333,316.1308976923201 A59.02744797768843 59.02744797768843 0.6544426920388214 0 1 240.40231184497398,303.93507695052614 L160.54003539816284,242.6616739003693 A35.11214985399376 35.11214985399376 0.6544426920388214 0 0 139.16666666666666,235.40705761338063 Z" style="fill: rgb(89, 173, 228);"/><title>W ≥ W + W → Aircraft
-1.4
1.40</title><text class="label" dy="0.35em" x="143.16666666666666" y="223.44940855153328"/></g><g class="link" style="opacity: 0.8;"><path d="M277.3333333333333,74.32647106693828 A75.29462685297752 75.29462685297752 0.3006918373925549 0 0 299.634176735187,70.94813733655658 L385.0488135717637,44.46153245730402 A99.43642276359851 99.43642276359851 0.3006918373925549 0 1 414.5,40.000000006831755 L414.5,64.14179591745277 A75.29462685297752 75.29462685297752 0.3006918373925549 0 0 392.1991565981463,67.52012964783447 L306.78451976156964,94.00673452708702 A99.43642276359851 99.43642276359851 0.3006918373925549 0 1 277.3333333333333,98.46826697755928 Z" style="fill: rgb(89, 173, 228);"/><title>W + Wfuel ≤ 0.5·rho·CL·S·V² → aircraft performance
-1.4
1.41</title><text class="label" dy="0.35em" x="281.3333333333333" y="86.39736902224878"/></g><g class="link" style="opacity: 0.8;"><path d="M139.16666666666666,332.68678673848444 A0 0 0 0 1 139.16666666666666,332.68678673848444 L276.3333333333333,332.6867867384845 A0 0 0 0 0 276.3333333333333,332.6867867384845 L276.3333333333333,360.00000000000006 A0 0 0 0 1 276.3333333333333,360.00000000000006 L139.16666666666666,360 A0 0 0 0 0 139.16666666666666,360 Z" style="fill: rgb(89, 173, 228);"/><title>Wing → Aircraft
-1.6
1.60</title><text class="label" dy="0.35em" x="143.16666666666666" y="346.3433933692422"/></g><g class="link" style="opacity: 0.8;"><path d="M1,161.874852307272 A69.25007562793371 69.25007562793371 0.2961098635356547 0 0 21.20728222072539,158.86101086974568 L106.66320462941225,132.7902059296479 A107.96192703163481 107.96192703163481 0.2961098635356547 0 1 138.16666666666666,128.0915810341123 L138.16666666666666,166.80343243781337 A69.25007562793371 69.25007562793371 0.2961098635356547 0 0 117.95938444594127,169.81727387533968 L32.5034620372544,195.88807881543747 A107.96192703163481 107.96192703163481 0.2961098635356547 0 1 1,200.58670371097307 Z" style="fill: rgb(89, 173, 228);"/><title>Wfuel[:-1] ≥ Wfuel[1:] + Wburn ... → fuel constraints
-2.3
2.27</title><text class="label" dy="0.35em" x="5" y="181.23077800912253"/></g><g class="link" style="opacity: 0.8;"><path d="M139.16666666666666,128.0915810341123 A67.06215226921036 67.06215226921036 0.6911521897470044 0 1 181.9137846450934,143.48153409023297 L261.5198936346281,209.3376769407796 A24.02389385310642 24.02389385310642 0.6911521897470044 0 0 276.8333333333333,214.8508700924149 L276.8333333333333,257.88912850851887 A67.06215226921036 67.06215226921036 0.6911521897470044 0 1 234.0862153549066,242.49917545239816 L154.48010636537188,176.64303260185153 A24.02389385310642 24.02389385310642 0.6911521897470044 0 0 139.16666666666666,171.12983945021622 ZM276.8333333333333,214.8508700924149 A65.84639560023608 65.84639560023608 0.29742517937136626 0 0 296.1302391571668,211.95983359026428 L383.0903275713019,185.30506327999808 A108.88465401634001 108.88465401634001 0.29742517937136626 0 1 415,180.5243990323084 L415,223.56265744841232 A65.84639560023608 65.84639560023608 0.29742517937136626 0 0 395.70309417616653,226.45369395056298 L308.74300576203143,253.10846426082912 A108.88465401634001 108.88465401634001 0.29742517937136626 0 1 276.8333333333333,257.88912850851887 ZM415,180.5243990323084 A0 0 0 0 0 415,180.5243990323084 L553.1666666666666,180.5243990323084 A0 0 0 0 0 553.1666666666666,180.5243990323084 L553.1666666666666,223.56265744841232 A0 0 0 0 0 553.1666666666666,223.56265744841232 L415,223.56265744841232 A0 0 0 0 0 415,223.56265744841232 ZM553.1666666666666,180.5243990323084 A29.887089184615963 29.887089184615963 0.5675836223072994 0 0 569.2338499865432,175.83817729495837 L651.6289490813664,123.30597122760147 A72.9253476007199 72.9253476007199 0.5675836223072994 0 1 690.8333333333333,111.87145691209534 L690.8333333333333,154.90971532819927 A29.887089184615963 29.887089184615963 0.5675836223072994 0 0 674.7661500134567,159.5959370655493 L592.3710509186335,212.1281431329062 A72.9253476007199 72.9253476007199 0.5675836223072994 0 1 553.1666666666666,223.56265744841232 Z" style="fill: rgb(89, 173, 228);"/><title>fuel constraints → Mission
-2.5
2.52</title><text class="label" dy="0.35em" x="143.16666666666666" y="149.61071024216426"/></g><g class="link" style="opacity: 0.8;"><path d="M139.16666666666666,40 A68.19744853993805 68.19744853993805 0.7325764685604574 0 1 184.7762567270417,57.49579884407474 L262.6447361882791,127.54380414875301 A20.467787545295476 20.467787545295476 0.7325764685604574 0 0 276.3333333333333,132.7947380376658 L276.3333333333333,180.5243990323084 A68.19744853993805 68.19744853993805 0.7325764685604574 0 1 230.72374327295827,163.02860018823367 L152.85526381172087,92.98059488355538 A20.467787545295476 20.467787545295476 0.7325764685604574 0 0 139.16666666666666,87.72966099464259 Z" style="fill: rgb(89, 173, 228);"/><title>WingAero → performance
-2.8
2.79</title><text class="label" dy="0.35em" x="143.16666666666666" y="63.86483049732129"/></g><g class="link" style="opacity: 0.8;"><path d="M277.3333333333333,132.7947380376658 A27.541387895346684 27.541387895346684 0.5703503643180659 0 0 292.20367193585463,128.43526285564616 L373.8591293142423,76.0563105674548 A75.27104888998926 75.27104888998926 0.5703503643180659 0 1 414.5,64.14179591745277 L414.5,111.87145691209535 A27.541387895346684 27.541387895346684 0.5703503643180659 0 0 399.6296613974787,116.23093209411502 L317.974204019091,168.60988438230635 A75.27104888998926 75.27104888998926 0.5703503643180659 0 1 277.3333333333333,180.5243990323084 Z" style="fill: rgb(89, 173, 228);"/><title>performance → aircraft performance
-2.8
2.79</title><text class="label" dy="0.35em" x="281.3333333333333" y="156.6595685349871"/></g><g class="link" style="opacity: 0.8;"><path d="M277.3333333333333,292.2155995686254 A0 0 0 0 0 277.3333333333333,292.2155995686254 L415,292.2155995686254 A0 0 0 0 0 415,292.2155995686254 L415,360 A0 0 0 0 0 415,360 L277.3333333333333,360 A0 0 0 0 0 277.3333333333333,360 ZM415,292.2155995686254 A0 0 0 0 0 415,292.2155995686254 L553.1666666666666,292.2155995686254 A0 0 0 0 0 553.1666666666666,292.2155995686254 L553.1666666666666,360 A0 0 0 0 0 553.1666666666666,360 L415,360 A0 0 0 0 0 415,360 ZM553.1666666666666,292.2155995686254 A0 0 0 0 0 553.1666666666666,292.2155995686254 L691.3333333333333,292.2155995686254 A0 0 0 0 0 691.3333333333333,292.2155995686254 L691.3333333333333,360 A0 0 0 0 0 691.3333333333333,360 L553.1666666666666,360 A0 0 0 0 0 553.1666666666666,360 ZM691.3333333333333,292.2155995686254 A22.144535895423843 22.144535895423843 0.5039086621288886 0 0 702.0258676952765,289.4630769503829 L785.5776295178077,243.39359094505124 A89.92893632679848 89.92893632679848 0.5039086621288886 0 1 829,232.21559956862538 L829,300 A22.144535895423843 22.144535895423843 0.5039086621288886 0 0 818.3074656380568,302.7525226182425 L734.7557038155255,348.82200862357416 A89.92893632679848 89.92893632679848 0.5039086621288886 0 1 691.3333333333333,360 Z" style="fill: rgb(89, 173, 228);"/><title>Aircraft → Model
-4
3.97</title><text class="label" dy="0.35em" x="281.3333333333333" y="326.1077997843127"/></g><g class="link" style="opacity: 0.8;"><path d="M415.5,40 A0 0 0 0 0 415.5,40 L552.6666666666666,40 A0 0 0 0 0 552.6666666666666,40 L552.6666666666666,111.87145691209534 A0 0 0 0 0 552.6666666666666,111.87145691209534 L415.5,111.87145691209534 A0 0 0 0 0 415.5,111.87145691209534 Z" style="fill: rgb(89, 173, 228);"/><title>aircraft performance → flight segment
-4.2
4.21</title><text class="label" dy="0.35em" x="419.5" y="75.93572845604767"/></g><g class="link" style="opacity: 0.8;"><path d="M553.6666666666666,40 A0 0 0 0 0 553.6666666666666,40 L690.8333333333333,40 A0 0 0 0 0 690.8333333333333,40 L690.8333333333333,111.87145691209534 A0 0 0 0 0 690.8333333333333,111.87145691209534 L553.6666666666666,111.87145691209534 A0 0 0 0 0 553.6666666666666,111.87145691209534 Z" style="fill: rgb(89, 173, 228);"/><title>flight segment → Mission
-4.2
4.21</title><text class="label" dy="0.35em" x="557.6666666666666" y="75.93572845604767"/></g><g class="link" style="opacity: 0.8;"><path d="M691.8333333333333,40.00000000000001 A114.90971532819928 114.90971532819928 0.5102790099098917 0 1 747.9576206359661,54.63854772963526 L829,99.99999999999997 A0 0 0.5102790099098917 0 0 829,99.99999999999997 L829,214.90971532819927 A114.90971532819928 114.90971532819928 0.5102790099098917 0 1 772.8757126973671,200.271167598564 L691.8333333333333,154.9097153281993 A0 0 0.5102790099098917 0 0 691.8333333333333,154.9097153281993 Z" style="fill: rgb(89, 173, 228);"/><title>Mission → Model
-6.7
6.73</title><text class="label" dy="0.35em" x="695.8333333333333" y="97.45485766409965"/></g></g><g class="nodes"><g class="node" transform="translate(0,161.874852307272)"><title>Wfuel[:-1] ≥ Wfuel[1:] + Wburn ...</title><line x1="0" x2="0" y1="0" y2="38.711851403701104" style="display: inline; stroke: rgb(0, 0, 0);"/><rect class="node-body" width="1" height="38.711851403701104" style="fill: none;"/><text class="node-value" dy=".35em" text-anchor="middle" transform="translate(0.5,19.355925701850552) rotate(-90)" style="display: none;"/><text class="node-title" dy=".35em" text-anchor="end" transform="translate(-4,19.355925701850552)" style="display: inline;">Wfuel[:-1] ≥ Wfuel[1:] + Wburn ...</text><rect class="node-click-target" x="-5" y="-5" width="10" height="43.711851403701104" style="fill: none; visibility: hidden; pointer-events: all;"/></g><g class="node" transform="translate(138.16666666666666,128.0915810341123)"><title>fuel constraints</title><line x1="0" x2="0" y1="-5" y2="43.03825841610393" style="display: inline; stroke: rgb(0, 0, 0);"/><rect class="node-body" width="1" height="43.03825841610393" style="fill: none;"/><text class="node-value" dy=".35em" text-anchor="middle" transform="translate(0.5,21.519129208051964) rotate(-90)" style="display: none;"/><text class="node-title" dy=".35em" text-anchor="start" transform="translate(-4,-10)" style="display: inline;">fuel constraints</text><rect class="node-click-target" x="-5" y="-5" width="10" height="48.03825841610393" style="fill: none; visibility: hidden; pointer-events: all;"/></g><g class="node" transform="translate(0,219.12300153913043)"><title>Wfuel[3] ≥ Wburn[3]</title><line x1="0" x2="0" y1="0" y2="4.3264070124028535" style="display: inline; stroke: rgb(0, 0, 0);"/><rect class="node-body" width="1" height="4.3264070124028535" style="fill: none;"/><text class="node-value" dy=".35em" text-anchor="middle" transform="translate(0.5,2.1632035062014268) rotate(-90)" style="display: none;"/><text class="node-title" dy=".35em" text-anchor="end" transform="translate(-4,2.1632035062014268)" style="display: inline;">Wfuel[3] ≥ Wburn[3]</text><rect class="node-click-target" x="-5" y="-5" width="10" height="9.326407012402854" style="fill: none; visibility: hidden; pointer-events: all;"/></g><g class="node" transform="translate(690.8333333333333,40)"><title>Mission</title><line x1="0" x2="0" y1="-5" y2="114.9097153281993" style="display: inline; stroke: rgb(0, 0, 0);"/><rect class="node-body" width="1" height="114.9097153281993" style="fill: none;"/><text class="node-value" dy=".35em" text-anchor="middle" transform="translate(0.5,57.45485766409965) rotate(-90)" style="display: none;"/><text class="node-title" dy=".35em" text-anchor="start" transform="translate(-4,-10)" style="display: inline;">Mission</text><rect class="node-click-target" x="-5" y="-5" width="10" height="119.9097153281993" style="fill: none; visibility: hidden; pointer-events: all;"/></g><g class="node" transform="translate(276.3333333333333,40)"><title>Wburn ≥ 0.1·D</title><line x1="0" x2="0" y1="0" y2="1" style="display: inline; stroke: rgb(0, 0, 0);"/><rect class="node-body" width="1" height="1" style="fill: none;"/><text class="node-value" dy=".35em" text-anchor="middle" transform="translate(0.5,3.415877358747821e-9) rotate(0)" style="display: none;"/><text class="node-title" dy=".35em" text-anchor="end" transform="translate(-4,3.415877358747821e-9)" style="display: inline;">Wburn ≥ 0.1·D</text><rect class="node-click-target" x="-5" y="-5" width="10" height="6" style="fill: none; visibility: hidden; pointer-events: all;"/></g><g class="node" transform="translate(414.5,40)"><title>aircraft performance</title><line x1="0" x2="0" y1="-5" y2="71.87145691209534" style="display: inline; stroke: rgb(0, 0, 0);"/><rect class="node-body" width="1" height="71.87145691209534" style="fill: none;"/><text class="node-value" dy=".35em" text-anchor="middle" transform="translate(0.5,35.93572845604767) rotate(-90)" style="display: none;"/><text class="node-title" dy=".35em" text-anchor="start" transform="translate(-4,-10)" style="display: inline;">aircraft performance</text><rect class="node-click-target" x="-5" y="-5" width="10" height="76.87145691209534" style="fill: none; visibility: hidden; pointer-events: all;"/></g><g class="node" transform="translate(276.3333333333333,74.32647106693828)"><title>W + Wfuel ≤ 0.5·rho·CL·S·V²</title><line x1="0" x2="0" y1="0" y2="24.141795910621013" style="display: inline; stroke: rgb(0, 0, 0);"/><rect class="node-body" width="1" height="24.141795910621013" style="fill: none;"/><text class="node-value" dy=".35em" text-anchor="middle" transform="translate(0.5,12.070897955310507) rotate(-90)" style="display: none;"/><text class="node-title" dy=".35em" text-anchor="end" transform="translate(-4,12.070897955310507)" style="display: inline;">W + Wfuel ≤ 0.5·rho·CL·S·V²</text><rect class="node-click-target" x="-5" y="-5" width="10" height="29.141795910621013" style="fill: none; visibility: hidden; pointer-events: all;"/></g><g class="node" transform="translate(0,40)"><title>e = 0.9 </title><line x1="0" x2="0" y1="0" y2="12.070896503562551" style="display: inline; stroke: rgb(0, 0, 0);"/><rect class="node-body" width="1" height="12.070896503562551" style="fill: none;"/><text class="node-value" dy=".35em" text-anchor="middle" transform="translate(0.5,6.0354482517812755) rotate(-90)" style="display: none;"/><text class="node-title" dy=".35em" text-anchor="end" transform="translate(-4,6.0354482517812755)" style="display: inline;">e = 0.9 </text><rect class="node-click-target" x="-5" y="-5" width="10" height="17.07089650356255" style="fill: none; visibility: hidden; pointer-events: all;"/></g><g class="node" transform="translate(138.16666666666666,40)"><title>WingAero</title><line x1="0" x2="0" y1="-5" y2="47.729660994642586" style="display: inline; stroke: rgb(0, 0, 0);"/><rect class="node-body" width="1" height="47.729660994642586" style="fill: none;"/><text class="node-value" dy=".35em" text-anchor="middle" transform="translate(0.5,23.864830497321293) rotate(-90)" style="display: none;"/><text class="node-title" dy=".35em" text-anchor="start" transform="translate(-4,-10)" style="display: inline;">WingAero</text><rect class="node-click-target" x="-5" y="-5" width="10" height="52.729660994642586" style="fill: none; visibility: hidden; pointer-events: all;"/></g><g class="node" transform="translate(0,70.60719433171991)"><title>D ≥ 0.5·rho·V²·CD·S</title><line x1="0" x2="0" y1="0" y2="17.305884240426096" style="display: inline; stroke: rgb(0, 0, 0);"/><rect class="node-body" width="1" height="17.305884240426096" style="fill: none;"/><text class="node-value" dy=".35em" text-anchor="middle" transform="translate(0.5,8.652942120213048) rotate(-90)" style="display: none;"/><text class="node-title" dy=".35em" text-anchor="end" transform="translate(-4,8.652942120213048)" style="display: inline;">D ≥ 0.5·rho·V²·CD·S</text><rect class="node-click-target" x="-5" y="-5" width="10" height="22.305884240426096" style="fill: none; visibility: hidden; pointer-events: all;"/></g><g class="node" transform="translate(0,106.44937640030336)"><title>Re = rho·V·c/mu</title><line x1="0" x2="0" y1="0" y2="1.0469972057849617" style="display: inline; stroke: rgb(0, 0, 0);"/><rect class="node-body" width="1" height="1.0469972057849617" style="fill: none;"/><text class="node-value" dy=".35em" text-anchor="middle" transform="translate(0.5,0.5234986028924808) rotate(-90)" style="display: none;"/><text class="node-title" dy=".35em" text-anchor="end" transform="translate(-4,0.5234986028924808)" style="display: inline;">Re = rho·V·c/mu</text><rect class="node-click-target" x="-5" y="-5" width="10" height="6.046997205784962" style="fill: none; visibility: hidden; pointer-events: all;"/></g><g class="node" transform="translate(0,126.03267143424567)"><title>CD ≥ 0.074/Re^0.2 + CL²/π/A/e</title><line x1="0" x2="0" y1="0" y2="17.305883044868963" style="display: inline; stroke: rgb(0, 0, 0);"/><rect class="node-body" width="1" height="17.305883044868963" style="fill: none;"/><text class="node-value" dy=".35em" text-anchor="middle" transform="translate(0.5,8.652941522434482) rotate(-90)" style="display: none;"/><text class="node-title" dy=".35em" text-anchor="end" transform="translate(-4,8.652941522434482)" style="display: inline;">CD ≥ 0.074/Re^0.2 + CL²/π/A/e</text><rect class="node-click-target" x="-5" y="-5" width="10" height="22.305883044868963" style="fill: none; visibility: hidden; pointer-events: all;"/></g><g class="node" transform="translate(276.3333333333333,132.7947380376658)"><title>performance</title><line x1="0" x2="0" y1="-5" y2="47.729660994642586" style="display: inline; stroke: rgb(0, 0, 0);"/><rect class="node-body" width="1" height="47.729660994642586" style="fill: none;"/><text class="node-value" dy=".35em" text-anchor="middle" transform="translate(0.5,23.864830497321293) rotate(-90)" style="display: none;"/><text class="node-title" dy=".35em" text-anchor="start" transform="translate(-4,-10)" style="display: inline;">performance</text><rect class="node-click-target" x="-5" y="-5" width="10" height="52.729660994642586" style="fill: none; visibility: hidden; pointer-events: all;"/></g><g class="node" transform="translate(552.6666666666666,40)"><title>flight segment</title><line x1="0" x2="0" y1="-5" y2="71.87145691209534" style="display: inline; stroke: rgb(0, 0, 0);"/><rect class="node-body" width="1" height="71.87145691209534" style="fill: none;"/><text class="node-value" dy=".35em" text-anchor="middle" transform="translate(0.5,35.93572845604767) rotate(-90)" style="display: none;"/><text class="node-title" dy=".35em" text-anchor="start" transform="translate(-4,-10)" style="display: inline;">flight segment</text><rect class="node-click-target" x="-5" y="-5" width="10" height="76.87145691209534" style="fill: none; visibility: hidden; pointer-events: all;"/></g><g class="node" transform="translate(829,99.99999999999999)"><title>Model</title><line x1="0" x2="0" y1="0" y2="200" style="display: inline; stroke: rgb(0, 0, 0);"/><rect class="node-body" width="1" height="200" style="fill: none;"/><text class="node-value" dy=".35em" text-anchor="middle" transform="translate(0.5,100) rotate(-90)" style="display: none;"/><text class="node-title" dy=".35em" text-anchor="start" transform="translate(5,100)" style="display: inline;">Model</text><rect class="node-click-target" x="-5" y="-5" width="10" height="205" style="fill: none; visibility: hidden; pointer-events: all;"/></g><g class="node" transform="translate(138.16666666666666,211.49175948968593)"><title>W ≥ W + W</title><line x1="0" x2="0" y1="0" y2="23.91529812369467" style="display: inline; stroke: rgb(0, 0, 0);"/><rect class="node-body" width="1" height="23.91529812369467" style="fill: none;"/><text class="node-value" dy=".35em" text-anchor="middle" transform="translate(0.5,11.957649061847334) rotate(-90)" style="display: none;"/><text class="node-title" dy=".35em" text-anchor="end" transform="translate(-4,11.957649061847334)" style="display: inline;">W ≥ W + W</text><rect class="node-click-target" x="-5" y="-5" width="10" height="28.91529812369467" style="fill: none; visibility: hidden; pointer-events: all;"/></g><g class="node" transform="translate(276.3333333333333,292.2155995686254)"><title>Aircraft</title><line x1="0" x2="0" y1="-5" y2="67.78440043137465" style="display: inline; stroke: rgb(0, 0, 0);"/><rect class="node-body" width="1" height="67.78440043137465" style="fill: none;"/><text class="node-value" dy=".35em" text-anchor="middle" transform="translate(0.5,33.892200215687325) rotate(-90)" style="display: none;"/><text class="node-title" dy=".35em" text-anchor="start" transform="translate(-4,-10)" style="display: inline;">Aircraft</text><rect class="node-click-target" x="-5" y="-5" width="10" height="72.78440043137465" style="fill: none; visibility: hidden; pointer-events: all;"/></g><g class="node" transform="translate(0,241.9857063796906)"><title>W = 100 lbf</title><line x1="0" x2="0" y1="0" y2="16.555889046164395" style="display: inline; stroke: rgb(0, 0, 0);"/><rect class="node-body" width="1" height="16.555889046164395" style="fill: none;"/><text class="node-value" dy=".35em" text-anchor="middle" transform="translate(0.5,8.277944523082198) rotate(-90)" style="display: none;"/><text class="node-title" dy=".35em" text-anchor="end" transform="translate(-4,8.277944523082198)" style="display: inline;">W = 100 lbf</text><rect class="node-click-target" x="-5" y="-5" width="10" height="21.555889046164395" style="fill: none; visibility: hidden; pointer-events: all;"/></g><g class="node" transform="translate(138.16666666666666,275.7689776528503)"><title>Fuselage</title><line x1="0" x2="0" y1="-5" y2="16.555889046164395" style="display: inline; stroke: rgb(0, 0, 0);"/><rect class="node-body" width="1" height="16.555889046164395" style="fill: none;"/><text class="node-value" dy=".35em" text-anchor="middle" transform="translate(0.5,8.277944523082198) rotate(-90)" style="display: none;"/><text class="node-title" dy=".35em" text-anchor="start" transform="translate(-4,-10)" style="display: inline;">Fuselage</text><rect class="node-click-target" x="-5" y="-5" width="10" height="21.555889046164395" style="fill: none; visibility: hidden; pointer-events: all;"/></g><g class="node" transform="translate(0,277.0778932540124)"><title>A = 27 </title><line x1="0" x2="0" y1="0" y2="11.547397900670092" style="display: inline; stroke: rgb(0, 0, 0);"/><rect class="node-body" width="1" height="11.547397900670092" style="fill: none;"/><text class="node-value" dy=".35em" text-anchor="middle" transform="translate(0.5,5.773698950335046) rotate(-90)" style="display: none;"/><text class="node-title" dy=".35em" text-anchor="end" transform="translate(-4,5.773698950335046)" style="display: inline;">A = 27 </text><rect class="node-click-target" x="-5" y="-5" width="10" height="16.54739790067009" style="fill: none; visibility: hidden; pointer-events: all;"/></g><g class="node" transform="translate(138.16666666666666,332.68678673848444)"><title>Wing</title><line x1="0" x2="0" y1="-5" y2="27.313213261515557" style="display: inline; stroke: rgb(0, 0, 0);"/><rect class="node-body" width="1" height="27.313213261515557" style="fill: none;"/><text class="node-value" dy=".35em" text-anchor="middle" transform="translate(0.5,13.656606630757778) rotate(-90)" style="display: none;"/><text class="node-title" dy=".35em" text-anchor="start" transform="translate(-4,-10)" style="display: inline;">Wing</text><rect class="node-click-target" x="-5" y="-5" width="10" height="32.31321326151556" style="fill: none; visibility: hidden; pointer-events: all;"/></g><g class="node" transform="translate(0,307.1615889828398)"><title>rho = 1 lbf/ft²</title><line x1="0" x2="0" y1="0" y2="7.359409077530245" style="display: inline; stroke: rgb(0, 0, 0);"/><rect class="node-body" width="1" height="7.359409077530245" style="fill: none;"/><text class="node-value" dy=".35em" text-anchor="middle" transform="translate(0.5,3.6797045387651224) rotate(-90)" style="display: none;"/><text class="node-title" dy=".35em" text-anchor="end" transform="translate(-4,3.6797045387651224)" style="display: inline;">rho = 1 lbf/ft²</text><rect class="node-click-target" x="-5" y="-5" width="10" height="12.359409077530245" style="fill: none; visibility: hidden; pointer-events: all;"/></g><g class="node" transform="translate(0,333.0572958885274)"><title>c = (S/A)^0.5</title><line x1="0" x2="0" y1="0" y2="1.046997205784976" style="display: inline; stroke: rgb(0, 0, 0);"/><rect class="node-body" width="1" height="1.046997205784976" style="fill: none;"/><text class="node-value" dy=".35em" text-anchor="middle" transform="translate(0.5,0.523498602892488) rotate(-90)" style="display: none;"/><text class="node-title" dy=".35em" text-anchor="end" transform="translate(-4,0.523498602892488)" style="display: inline;">c = (S/A)^0.5</text><rect class="node-click-target" x="-5" y="-5" width="10" height="6.046997205784976" style="fill: none; visibility: hidden; pointer-events: all;"/></g><g class="node" transform="translate(0,352.6405909224697)"><title>W ≥ S·rho</title><line x1="0" x2="0" y1="0" y2="7.359409077530245" style="display: inline; stroke: rgb(0, 0, 0);"/><rect class="node-body" width="1" height="7.359409077530245" style="fill: none;"/><text class="node-value" dy=".35em" text-anchor="middle" transform="translate(0.5,3.6797045387651224) rotate(-90)" style="display: none;"/><text class="node-title" dy=".35em" text-anchor="end" transform="translate(-4,3.6797045387651224)" style="display: inline;">W ≥ S·rho</text><rect class="node-click-target" x="-5" y="-5" width="10" height="12.359409077530245" style="fill: none; visibility: hidden; pointer-events: all;"/></g><g class="node" transform="translate(690.8333333333333,214.9097153281993)"><title>Wburn ≥ 0.2·D</title><line x1="0" x2="0" y1="0" y2="17.30588424042611" style="display: inline; stroke: rgb(0, 0, 0);"/><rect class="node-body" width="1" height="17.30588424042611" style="fill: none;"/><text class="node-value" dy=".35em" text-anchor="middle" transform="translate(0.5,8.652942120213055) rotate(-90)" style="display: none;"/><text class="node-title" dy=".35em" text-anchor="end" transform="translate(-4,8.652942120213055)" style="display: inline;">Wburn ≥ 0.2·D</text><rect class="node-click-target" x="-5" y="-5" width="10" height="22.30588424042611" style="fill: none; visibility: hidden; pointer-events: all;"/></g></g><g class="slice-titles"/></g></svg>