<?xml version="1.0" standalone="no"?><!DOCTYPE svg PUBLIC "-//W3C//DTD SVG 1.1//EN" "http://www.w3.org/Graphics/SVG/1.1/DTD/svg11.dtd"><svg xmlns="http://www.w3.org/2000/svg" width="1000" height="400" viewBox="0 0 1000 400"><g class="sankey" transform="translate(230,0)"><g class="groups"/><g class="links"><g class="link" style="opacity: 0.8;"><path d="M1,358.9999999646942 A0 0 0 0 0 1,358.9999999646942 L125.8,358.99999996469415 A0 0 0 0 1 125.8,358.99999996469415 L125.8,360.99999996469415 A0 0 0 0 0 125.8,360.99999996469415 L1,360.9999999646942 A0 0 0 0 1 1,360.9999999646942 Z" style="fill: rgb(207, 207, 207);"/><title>Poper/mpower ≥ Pavn + Ppay + P ... → AircraftDrag
+4e-09
3.98n</title><text class="label" dy="0.35em" x="5" y="359.9999999646942"/></g><g class="link" style="opacity: 0.8;"><path d="M504.2,187.88593969901095 A212.87435434793784 212.87435434793784 0.10883096254368096 0 1 527.3216149800937,189.14535681480606 L606.0956175282646,197.75241537684732 A210.87435434793784 210.87435434793784 0.10883096254368096 0 0 629,199 L629,201 A212.87435434793784 212.87435434793784 0.10883096254368096 0 1 605.8783850199062,199.74058288420488 L527.1043824717353,191.13352432216362 A210.87435434793784 210.87435434793784 0.10883096254368096 0 0 504.2,189.88593969901095 Z" style="fill: rgb(250, 51, 51);"/><title>SolarMission → Nprop
+0.038
37.7m</title><text class="label" dy="0.35em" x="508.2" y="188.88593969901095"/></g><g class="link" style="opacity: 0.8;"><path d="M1,266.0627345038787 A197.48799999999997 197.48799999999997 0.11745736641126747 0 1 24.143119955278564,267.42346423598457 L102.89125499363253,276.7157851506526 A195.48799999999997 195.48799999999997 0.11745736641126747 0 0 125.8,278.0627345038787 L125.8,280.0627345038787 A197.48799999999997 197.48799999999997 0.11745736641126747 0 1 102.65688004472143,278.7020047717728 L23.908745006367454,269.40968385710477 A195.48799999999997 195.48799999999997 0.11745736641126747 0 0 1,268.0627345038787 Z" style="fill: rgb(250, 51, 51);"/><title>Wcent ≥ W[0,0] + Wpay + Wavn + ... → Aircraft
+0.06
59.8m</title><text class="label" dy="0.35em" x="5" y="267.0627345038787"/></g><g class="link" style="opacity: 0.8;"><path d="M126.8,39.71422541900883 A0 0 0 0 0 126.8,39.71422541900883 L251.6,39.71422541900883 A0 0 0 0 0 251.6,39.71422541900883 L251.6,41.71422541900883 A0 0 0 0 0 251.6,41.71422541900883 L126.8,41.71422541900883 A0 0 0 0 0 126.8,41.71422541900883 Z" style="fill: rgb(250, 51, 51);"/><title>AircraftDrag → AircraftPerf
+0.081
80.6m</title><text class="label" dy="0.35em" x="130.8" y="40.71422541900883"/></g><g class="link" style="opacity: 0.8;"><path d="M252.6,39.71422541900883 A0 0 0 0 0 252.6,39.71422541900883 L377.4,39.71422541900883 A0 0 0 0 0 377.4,39.71422541900883 L377.4,41.71422541900883 A0 0 0 0 0 377.4,41.71422541900883 L252.6,41.71422541900883 A0 0 0 0 0 252.6,41.71422541900883 Z" style="fill: rgb(250, 51, 51);"/><title>AircraftPerf → FlightSegment
+0.081
80.6m</title><text class="label" dy="0.35em" x="256.6" y="40.71422541900883"/></g><g class="link" style="opacity: 0.8;"><path d="M378.4,39.71422541900883 A39.00966077250011 39.00966077250011 1.0811221228710615 0 1 412.8254849519173,60.376144657171565 L470.5394873277794,168.66372417135045 A37.00966077250011 37.00966077250011 1.0811221228710615 0 0 503.2,188.26632021474558 L503.2,190.26632021474558 A39.00966077250011 39.00966077250011 1.0811221228710615 0 1 468.77451504808266,169.60440097658284 L411.06051267222057,61.31682146240395 A37.00966077250011 37.00966077250011 1.0811221228710615 0 0 378.4,41.71422541900883 Z" style="fill: rgb(250, 51, 51);"/><title>FlightSegment → SolarMission
+0.081
80.6m</title><text class="label" dy="0.35em" x="382.4" y="40.71422541900883"/></g><g class="link" style="opacity: 0.8;"><path d="M1,291.5928287194898 A191.84144458085112 191.84144458085112 0.11745736641126747 0 0 23.481414386335185,290.2710048239047 L102.22954942468915,280.9786839092367 A201.13455541914882 201.13455541914882 0.11745736641126747 0 1 125.8,279.5928287194898 L125.8,288.8859395577875 A191.84144458085112 191.84144458085112 0.11745736641126747 0 0 103.31858561366481,290.20776345337254 L24.570450575310833,299.5000843680406 A201.13455541914882 201.13455541914882 0.11745736641126747 0 1 1,300.8859395577875 Z" style="fill: rgb(250, 51, 51);"/><title>Wtotal/mfac ≥ W[0,0] + W[1,0]  ... → Aircraft
+0.52
524m</title><text class="label" dy="0.35em" x="5" y="296.2393841386386"/></g><g class="link" style="opacity: 0.8;"><path d="M126.8,278.53264028826766 A34.489007443813335 34.489007443813335 0.7568449153049764 0 0 150.48122515178312,269.1173483603081 L221.3098775723322,202.22222609141767 A44.842306713333144 44.842306713333144 0.7568449153049764 0 1 252.1,189.9805456337544 L252.1,200.3338449032742 A34.489007443813335 34.489007443813335 0.7568449153049764 0 0 228.41877484821686,209.74913683123378 L157.59012242766778,276.6442591001242 A44.842306713333144 44.842306713333144 0.7568449153049764 0 1 126.8,288.8859395577874 ZM252.1,189.9805456337544 A0 0 0 0 0 252.1,189.9805456337544 L377.9,189.9805456337544 A0 0 0 0 0 377.9,189.9805456337544 L377.9,200.3338449032742 A0 0 0 0 0 377.9,200.3338449032742 L252.1,200.3338449032742 A0 0 0 0 0 252.1,200.3338449032742 ZM377.9,189.9805456337544 A0 0 0 0 0 377.9,189.9805456337544 L503.2,189.9805456337544 A0 0 0 0 0 503.2,189.9805456337544 L503.2,200.3338449032742 A0 0 0 0 0 503.2,200.3338449032742 L377.9,200.3338449032742 A0 0 0 0 0 377.9,200.3338449032742 Z" style="fill: rgb(250, 51, 51);"/><title>Aircraft → SolarMission
+0.58
584m</title><text class="label" dy="0.35em" x="130.8" y="283.70928992302754"/></g><g class="link" style="opacity: 0.8;"><path d="M126.8,348.8859395577875 A0 0 0 0 1 126.8,348.8859395577875 L251.6,348.8859396990109 A0 0 0 0 0 251.6,348.8859396990109 L251.6,360 A0 0 0 0 1 251.6,360 L126.8,359.99999985877656 A0 0 0 0 0 126.8,359.99999985877656 Z" style="fill: rgb(89, 173, 228);"/><title>AircraftDrag → Climb
-0.63
627m</title><text class="label" dy="0.35em" x="130.8" y="354.442969708282"/></g><g class="link" style="opacity: 0.8;"><path d="M252.6,348.8859396990109 A0 0 0 0 0 252.6,348.8859396990109 L377.9,348.8859396990109 A0 0 0 0 0 377.9,348.8859396990109 L377.9,360 A0 0 0 0 0 377.9,360 L252.6,360 A0 0 0 0 0 252.6,360 ZM377.9,348.8859396990109 A32.452630622005586 32.452630622005586 1.0775370939725164 0 0 406.484091930836,331.79960084756124 L464.8267071544958,223.27174637625689 A43.56669092299464 43.56669092299464 1.0775370939725164 0 1 503.2,200.33384490327418 L503.2,211.4479052042632 A32.452630622005586 32.452630622005586 1.0775370939725164 0 0 474.615908069164,228.53424405571297 L416.27329284550416,337.06209852701727 A43.56669092299464 43.56669092299464 1.0775370939725164 0 1 377.9,360 Z" style="fill: rgb(89, 173, 228);"/><title>Climb → SolarMission
-0.63
627m</title><text class="label" dy="0.35em" x="256.6" y="354.44296984950546"/></g><g class="link" style="opacity: 0.8;"><path d="M1,324.8859395577875 A106.50103018580039 106.50103018580039 0.2328863675272661 0 1 25.579045696685885,327.76100801933177 L103.78593416569412,346.3109027898178 A95.38696981419959 95.38696981419959 0.2328863675272661 0 0 125.8,348.8859395577875 L125.8,359.99999992938825 A106.50103018580039 106.50103018580039 0.2328863675272661 0 1 101.22095430331412,357.12493146784396 L23.014065834305892,338.5750366973579 A95.38696981419959 95.38696981419959 0.2328863675272661 0 0 1,335.99999992938825 Z" style="fill: rgb(89, 173, 228);"/><title>T = T/Nprop → AircraftDrag
-0.63
627m</title><text class="label" dy="0.35em" x="5" y="330.44296974358787"/></g><g class="link" style="opacity: 0.8;"><path d="M1,40 A0 0 0 0 0 1,40 L125.8,40 A0 0 0 0 0 125.8,40 L125.8,128.552094725125 A0 0 0 0 0 125.8,128.552094725125 L1,128.552094725125 A0 0 0 0 0 1,128.552094725125 Z" style="fill: rgb(89, 173, 228);"/><title>T = T/Nprop → AircraftDrag
-5
5.00</title><text class="label" dy="0.35em" x="5" y="84.2760473625625"/></g><g class="link" style="opacity: 0.8;"><path d="M1,152.552094725125 A55.95372721842867 55.95372721842867 0.2328863675272661 0 0 13.91338887335026,151.04158542628625 L92.12027734235849,132.4916906558002 A145.9342727815713 145.9342727815713 0.2328863675272661 0 1 125.8,128.552094725125 L125.8,218.53264028826763 A55.95372721842867 55.95372721842867 0.2328863675272661 0 0 112.88661112664974,220.04314958710637 L34.67972265764152,238.59304435759242 A145.9342727815713 145.9342727815713 0.2328863675272661 0 1 1,242.53264028826763 Z" style="fill: rgb(250, 51, 51);"/><title>Poper/mpower ≥ Pavn + Ppay + P ... → AircraftDrag
+5.1
5.08</title><text class="label" dy="0.35em" x="5" y="197.5423675066963"/></g></g><g class="nodes"><g class="node" transform="translate(0,266.53264028826766)"><title>Wcent ≥ W[0,0] + Wpay + Wavn + ...</title><line x1="0" x2="0" y1="0" y2="1.060188431222116" style="display: inline; stroke: rgb(0, 0, 0);"/><rect class="node-body" width="1" height="1.060188431222116" style="fill: none;"/><text class="node-value" dy=".35em" text-anchor="middle" transform="translate(0.5,0.530094215611058) rotate(-90)" style="display: none;"/><text class="node-title" dy=".35em" text-anchor="end" transform="translate(-4,0.530094215611058)" style="display: inline;">Wcent ≥ W[0,0] + Wpay + Wavn + ...</text><rect class="node-click-target" x="-5" y="-5" width="10" height="6.060188431222116" style="fill: none; visibility: hidden; pointer-events: all;"/></g><g class="node" transform="translate(125.8,278.53264028826766)"><title>Aircraft</title><line x1="0" x2="0" y1="-5" y2="10.353299269519823" style="display: inline; stroke: rgb(0, 0, 0);"/><rect class="node-body" width="1" height="10.353299269519823" style="fill: none;"/><text class="node-value" dy=".35em" text-anchor="middle" transform="translate(0.5,5.176649634759912) rotate(-90)" style="display: none;"/><text class="node-title" dy=".35em" text-anchor="start" transform="translate(-4,-10)" style="display: inline;">Aircraft</text><rect class="node-click-target" x="-5" y="-5" width="10" height="15.353299269519823" style="fill: none; visibility: hidden; pointer-events: all;"/></g><g class="node" transform="translate(0,291.5928287194898)"><title>Wtotal/mfac ≥ W[0,0] + W[1,0]  ...</title><line x1="0" x2="0" y1="0" y2="9.293110838297707" style="display: inline; stroke: rgb(0, 0, 0);"/><rect class="node-body" width="1" height="9.293110838297707" style="fill: none;"/><text class="node-value" dy=".35em" text-anchor="middle" transform="translate(0.5,4.646555419148854) rotate(-90)" style="display: none;"/><text class="node-title" dy=".35em" text-anchor="end" transform="translate(-4,4.646555419148854)" style="display: inline;">Wtotal/mfac ≥ W[0,0] + W[1,0]  ...</text><rect class="node-click-target" x="-5" y="-5" width="10" height="14.293110838297707" style="fill: none; visibility: hidden; pointer-events: all;"/></g><g class="node" transform="translate(503.2,188.55209479573674)"><title>SolarMission</title><line x1="0" x2="0" y1="-5" y2="22.8958104085265" style="display: inline; stroke: rgb(0, 0, 0);"/><rect class="node-body" width="1" height="22.8958104085265" style="fill: none;"/><text class="node-value" dy=".35em" text-anchor="middle" transform="translate(0.5,11.44790520426325) rotate(-90)" style="display: none;"/><text class="node-title" dy=".35em" text-anchor="start" transform="translate(-4,-10)" style="display: inline;">SolarMission</text><rect class="node-click-target" x="-5" y="-5" width="10" height="27.8958104085265" style="fill: none; visibility: hidden; pointer-events: all;"/></g><g class="node" transform="translate(0,324.8859395577875)"><title>T = T/Nprop</title><line x1="0" x2="0" y1="0" y2="11.114060371600772" style="display: inline; stroke: rgb(0, 0, 0);"/><rect class="node-body" width="1" height="11.114060371600772" style="fill: none;"/><text class="node-value" dy=".35em" text-anchor="middle" transform="translate(0.5,5.557030185800386) rotate(-90)" style="display: none;"/><text class="node-title" dy=".35em" text-anchor="end" transform="translate(-4,5.557030185800386)" style="display: inline;">T = T/Nprop</text><rect class="node-click-target" x="-5" y="-5" width="10" height="16.11406037160077" style="fill: none; visibility: hidden; pointer-events: all;"/></g><g class="node" transform="translate(125.8,348.8859395577875)"><title>AircraftDrag</title><line x1="0" x2="0" y1="-5" y2="11.11406044221252" style="display: inline; stroke: rgb(0, 0, 0);"/><rect class="node-body" width="1" height="11.11406044221252" style="fill: none;"/><text class="node-value" dy=".35em" text-anchor="middle" transform="translate(0.5,5.55703022110626) rotate(-90)" style="display: none;"/><text class="node-title" dy=".35em" text-anchor="start" transform="translate(-4,-10)" style="display: inline;">AircraftDrag</text><rect class="node-click-target" x="-5" y="-5" width="10" height="16.11406044221252" style="fill: none; visibility: hidden; pointer-events: all;"/></g><g class="node" transform="translate(0,359.9999999293883)"><title>Poper/mpower ≥ Pavn + Ppay + P ...</title><line x1="0" x2="0" y1="0" y2="1" style="display: inline; stroke: rgb(0, 0, 0);"/><rect class="node-body" width="1" height="1" style="fill: none;"/><text class="node-value" dy=".35em" text-anchor="middle" transform="translate(0.5,3.5305873780089314e-8) rotate(0)" style="display: none;"/><text class="node-title" dy=".35em" text-anchor="end" transform="translate(-4,3.5305873780089314e-8)" style="display: inline;">Poper/mpower ≥ Pavn + Ppay + P ...</text><rect class="node-click-target" x="-5" y="-5" width="10" height="6" style="fill: none; visibility: hidden; pointer-events: all;"/></g><g class="node" transform="translate(251.6,348.8859396990109)"><title>Climb</title><line x1="0" x2="0" y1="-5" y2="11.114060300989024" style="display: inline; stroke: rgb(0, 0, 0);"/><rect class="node-body" width="1" height="11.114060300989024" style="fill: none;"/><text class="node-value" dy=".35em" text-anchor="middle" transform="translate(0.5,5.557030150494512) rotate(-90)" style="display: none;"/><text class="node-title" dy=".35em" text-anchor="start" transform="translate(-4,-10)" style="display: inline;">Climb</text><rect class="node-click-target" x="-5" y="-5" width="10" height="16.114060300989024" style="fill: none; visibility: hidden; pointer-events: all;"/></g><g class="node" transform="translate(0,40)"><title>T = T/Nprop</title><line x1="0" x2="0" y1="0" y2="88.55209472512499" style="display: inline; stroke: rgb(0, 0, 0);"/><rect class="node-body" width="1" height="88.55209472512499" style="fill: none;"/><text class="node-value" dy=".35em" text-anchor="middle" transform="translate(0.5,44.276047362562494) rotate(-90)" style="display: none;"/><text class="node-title" dy=".35em" text-anchor="end" transform="translate(-4,44.276047362562494)" style="display: inline;">T = T/Nprop</text><rect class="node-click-target" x="-5" y="-5" width="10" height="93.55209472512499" style="fill: none; visibility: hidden; pointer-events: all;"/></g><g class="node" transform="translate(125.8,40)"><title>AircraftDrag</title><line x1="0" x2="0" y1="-5" y2="178.53264028826763" style="display: inline; stroke: rgb(0, 0, 0);"/><rect class="node-body" width="1" height="178.53264028826763" style="fill: none;"/><text class="node-value" dy=".35em" text-anchor="middle" transform="translate(0.5,89.26632014413381) rotate(-90)" style="display: none;"/><text class="node-title" dy=".35em" text-anchor="start" transform="translate(-4,-10)" style="display: inline;">AircraftDrag</text><rect class="node-click-target" x="-5" y="-5" width="10" height="183.53264028826763" style="fill: none; visibility: hidden; pointer-events: all;"/></g><g class="node" transform="translate(0,152.552094725125)"><title>Poper/mpower ≥ Pavn + Ppay + P ...</title><line x1="0" x2="0" y1="0" y2="89.98054556314264" style="display: inline; stroke: rgb(0, 0, 0);"/><rect class="node-body" width="1" height="89.98054556314264" style="fill: none;"/><text class="node-value" dy=".35em" text-anchor="middle" transform="translate(0.5,44.99027278157132) rotate(-90)" style="display: none;"/><text class="node-title" dy=".35em" text-anchor="end" transform="translate(-4,44.99027278157132)" style="display: inline;">Poper/mpower ≥ Pavn + Ppay + P ...</text><rect class="node-click-target" x="-5" y="-5" width="10" height="94.98054556314264" style="fill: none; visibility: hidden; pointer-events: all;"/></g><g class="node" transform="translate(251.6,40)"><title>AircraftPerf</title><line x1="0" x2="0" y1="-5" y2="1.4284508380176604" style="display: inline; stroke: rgb(0, 0, 0);"/><rect class="node-body" width="1" height="1.4284508380176604" style="fill: none;"/><text class="node-value" dy=".35em" text-anchor="middle" transform="translate(0.5,0.7142254190088302) rotate(-90)" style="display: none;"/><text class="node-title" dy=".35em" text-anchor="start" transform="translate(-4,-10)" style="display: inline;">AircraftPerf</text><rect class="node-click-target" x="-5" y="-5" width="10" height="6.42845083801766" style="fill: none; visibility: hidden; pointer-events: all;"/></g><g class="node" transform="translate(377.4,40)"><title>FlightSegment</title><line x1="0" x2="0" y1="-5" y2="1.4284508380176604" style="display: inline; stroke: rgb(0, 0, 0);"/><rect class="node-body" width="1" height="1.4284508380176604" style="fill: none;"/><text class="node-value" dy=".35em" text-anchor="middle" transform="translate(0.5,0.7142254190088302) rotate(-90)" style="display: none;"/><text class="node-title" dy=".35em" text-anchor="start" transform="translate(-4,-10)" style="display: inline;">FlightSegment</text><rect class="node-click-target" x="-5" y="-5" width="10" height="6.42845083801766" style="fill: none; visibility: hidden; pointer-events: all;"/></g><g class="node" transform="translate(629,199.6661550967258)"><title>Nprop</title><line x1="0" x2="0" y1="0" y2="1" style="display: inline; stroke: rgb(0, 0, 0);"/><rect class="node-body" width="1" height="1" style="fill: none;"/><text class="node-value" dy=".35em" text-anchor="middle" transform="translate(0.5,0.3338449032742119) rotate(0)" style="display: none;"/><text class="node-title" dy=".35em" text-anchor="start" transform="translate(5,0.3338449032742119)" style="display: inline;">Nprop</text><rect class="node-click-target" x="-5" y="-5" width="10" height="6" style="fill: none; visibility: hidden; pointer-events: all;"/></g></g><g class="slice-titles"/></g></svg>