<?xml version="1.0" standalone="no"?><!DOCTYPE svg PUBLIC "-//W3C//DTD SVG 1.1//EN" "http://www.w3.org/Graphics/SVG/1.1/DTD/svg11.dtd"><svg xmlns="http://www.w3.org/2000/svg" width="1000" height="400" viewBox="0 0 1000 400"><g class="sankey" transform="translate(230,0)"><g class="groups"/><g class="links"><g class="link" style="opacity: 0.8;"><path d="M1,142.66520593435735 A232.33183583115604 232.33183583115604 0.12503836338550212 0 1 29.974753161143653,144.47904763072563 L128.5371436867771,156.86775918086448 A230.2318360438439 230.2318360438439 0.12503836338550212 0 0 157.25,158.66520593435735 L157.25,160.76520572166947 A232.33183583115604 232.33183583115604 0.12503836338550212 0 1 128.27524683885636,158.9513640253012 L29.712856313222893,146.56265247516234 A230.2318360438439 230.2318360438439 0.12503836338550212 0 0 1,144.76520572166947 Z" style="fill: rgb(250, 51, 51);"/><title>Wland ≥ fland·Wtotal → Aircraft
+0.18
181m</title><text class="label" dy="0.35em" x="5" y="143.7152058280134"/></g><g class="link" style="opacity: 0.8;"><path d="M1,292.76520483760254 A460.5873693790191 460.5873693790191 0.06267524795832169 0 1 29.84853185309998,293.66954533540917 L128.6048662089339,299.8672404391278 A457.3399743709809 457.3399743709809 0.06267524795832169 0 0 157.25,300.76520483760254 L157.25,304.01259984564075 A460.5873693790191 460.5873693790191 0.06267524795832169 0 1 128.40146814690002,303.1082593478341 L29.645133791066076,296.9105642441155 A457.3399743709809 457.3399743709809 0.06267524795832169 0 0 1,296.01259984564075 Z" style="fill: rgb(250, 51, 51);"/><title>0.5·rho·V²·CL·S ≥ Wtotal → Climb
+0.28
279m</title><text class="label" dy="0.35em" x="5" y="294.38890234162164"/></g><g class="link" style="opacity: 0.8;"><path d="M1,320.01259984564075 A229.10436565601586 229.10436565601586 0.12503836338550212 0 0 29.572246327221844,318.22395538475473 L128.1346368528553,305.8352438346159 A233.4593062189841 233.4593062189841 0.12503836338550212 0 1 157.25,304.01259984564075 L157.25,308.36754040860905 A229.10436565601586 229.10436565601586 0.12503836338550212 0 0 128.67775367277818,310.15618486949506 L30.115363147144702,322.5448964196339 A233.4593062189841 233.4593062189841 0.12503836338550212 0 1 1,324.36754040860905 Z" style="fill: rgb(250, 51, 51);"/><title>T ≥ 0.5·rho·V²·CD·S + Wtotal·h ... → Climb
+0.37
374m</title><text class="label" dy="0.35em" x="5" y="322.1900701271249"/></g><g class="link" style="opacity: 0.8;"><path d="M158.25,300.76520483760254 A996.1988322144967 996.1988322144967 0.009507865077292177 0 0 167.72158138097888,300.7201772394766 L305.45613772717724,299.41057619859265 A1003.8011677855033 1003.8011677855033 0.009507865077292177 0 1 315,299.36520497939443 L315,306.96754055040094 A996.1988322144967 996.1988322144967 0.009507865077292177 0 0 305.5284186190211,307.0125681485269 L167.79386227282276,308.32216918941083 A1003.8011677855033 1003.8011677855033 0.009507865077292177 0 1 158.25,308.36754040860905 ZM315,299.36520497939443 A52.84720641764099 52.84720641764099 0.5966085271920584 0 0 344.6916812279077,290.2356299249583 L437.78702158037254,227.00811545638118 A60.44954198864745 60.44954198864745 0.5966085271920584 0 1 471.75,216.56520526297834 L471.75,224.1675408339848 A52.84720641764098 52.84720641764098 0.5966085271920584 0 0 442.0583187720923,233.29711588842093 L348.96297841962746,296.52463035699805 A60.449541988647454 60.449541988647454 0.5966085271920584 0 1 315,306.96754055040094 Z" style="fill: rgb(250, 51, 51);"/><title>Climb → SolarMission
+0.65
654m</title><text class="label" dy="0.35em" x="162.25" y="304.5663726231058"/></g><g class="link" style="opacity: 0.8;"><path d="M472.75,40 A52.75404570571777 52.75404570571777 0.9387766235647456 0 1 515.3138612953732,61.58824634248646 L595.8216240203005,171.53958132628898 A41.1215878824606 41.1215878824606 0.9387766235647456 0 0 629,188.3675412926759 L629,199.9999991159331 A52.75404570571777 52.75404570571777 0.9387766235647456 0 1 586.4361387046267,178.41175277344664 L505.9283759796994,68.46041778964411 A41.1215878824606 41.1215878824606 0.9387766235647456 0 0 472.75,51.63245782325717 Z" style="fill: rgb(89, 173, 228);"/><title>SolarMission → Wtotal [lbf]
-1
1.00</title><text class="label" dy="0.35em" x="476.75" y="45.816228911628585"/></g><g class="link" style="opacity: 0.8;"><path d="M1,348.367540408609 A0 0 0 0 0 1,348.367540408609 L157.75,348.367540408609 A0 0 0 0 0 157.75,348.367540408609 L157.75,360 A0 0 0 0 0 157.75,360 L1,360 A0 0 0 0 0 1,360 ZM157.75,348.367540408609 A0 0 0 0 0 157.75,348.367540408609 L315,348.36754040860893 A0 0 0 0 1 315,348.36754040860893 L315,359.99999999999994 A0 0 0 0 0 315,359.99999999999994 L157.75,360 A0 0 0 0 1 157.75,360 ZM315,348.36754040860893 A0 0 0 0 1 315,348.36754040860893 L472.25,348.367540408609 A0 0 0 0 0 472.25,348.367540408609 L472.25,360 A0 0 0 0 1 472.25,360 L315,359.99999999999994 A0 0 0 0 0 315,359.99999999999994 ZM472.25,348.367540408609 A41.12158699839367 41.12158699839367 0.9358256987888409 0 0 505.35654224564485,331.63738177765197 L586.5282911109038,221.46277894265694 A52.75404658978471 52.75404658978471 0.9358256987888409 0 1 629,199.99999911593306 L629,211.63245870732408 A41.12158699839367 41.12158699839367 0.9358256987888409 0 0 595.8934577543552,228.3626173382811 L514.7217088890962,338.5372201732762 A52.75404658978471 52.75404658978471 0.9358256987888409 0 1 472.25,360 Z" style="fill: rgb(250, 51, 51);"/><title>[cost function] → Wtotal [lbf]
+1
1.00</title><text class="label" dy="0.35em" x="5" y="354.1837702043045"/></g><g class="link" style="opacity: 0.8;"><path d="M1,40 A0 0 0 0 0 1,40 L157.25,40 A0 0 0 0 0 157.25,40 L157.25,118.66520593435735 A0 0 0 0 0 157.25,118.66520593435735 L1,118.66520593435735 A0 0 0 0 0 1,118.66520593435735 Z" style="fill: rgb(250, 51, 51);"/><title>Wtotal ≤ 0.5·rho·V²·CL·S → SteadyLevelFlight
+6.8
6.76</title><text class="label" dy="0.35em" x="5" y="79.33260296717867"/></g><g class="link" style="opacity: 0.8;"><path d="M158.25,40 A0 0 0 0 0 158.25,40 L314.5,40 A0 0 0 0 0 314.5,40 L314.5,118.66520593435735 A0 0 0 0 0 314.5,118.66520593435735 L158.25,118.66520593435735 A0 0 0 0 0 158.25,118.66520593435735 Z" style="fill: rgb(250, 51, 51);"/><title>SteadyLevelFlight → FlightSegment
+6.8
6.76</title><text class="label" dy="0.35em" x="162.25" y="79.33260296717867"/></g><g class="link" style="opacity: 0.8;"><path d="M315.5,40 A0 0 0 0 0 315.5,40 L471.75,40 A0 0 0 0 0 471.75,40 L471.75,118.66520593435735 A0 0 0 0 0 471.75,118.66520593435735 L315.5,118.66520593435735 A0 0 0 0 0 315.5,118.66520593435735 Z" style="fill: rgb(250, 51, 51);"/><title>FlightSegment → SolarMission
+6.8
6.76</title><text class="label" dy="0.35em" x="319.5" y="79.33260296717867"/></g><g class="link" style="opacity: 0.8;"><path d="M158.25,158.66520593435735 A1048.9499996643106 1048.9499996643106 0.009507865077292177 0 1 168.22312480713597,158.71261785405827 L305.9576811533343,160.02221889494214 A951.0500003356896 951.0500003356896 0.009507865077292177 0 0 315,160.0652057925654 L315,257.9652051211864 A1048.9499996643106 1048.9499996643106 0.009507865077292177 0 1 305.02687519286405,257.91779320148544 L167.29231884666567,256.60819216060156 A951.0500003356896 951.0500003356896 0.009507865077292177 0 0 158.25,256.56520526297834 ZM315,160.0652057925654 A45.71674880578437 45.71674880578437 0.32359230826598195 0 0 329.536758963999,157.69247341573904 L421.3988885513732,126.88366182533153 A158.34954131726843 158.34954131726843 0.32359230826598195 0 1 471.75,118.66520593435735 L471.75,216.56520526297834 A60.44954198864745 60.44954198864745 0.32359230826598195 0 0 452.5285889345237,219.70258027733283 L360.6664593471495,250.51139186774034 A143.61674813440536 143.61674813440536 0.32359230826598195 0 1 315,257.9652051211864 Z" style="fill: rgb(89, 173, 228);"/><title>Aircraft → SolarMission
-8.4
8.42</title><text class="label" dy="0.35em" x="162.25" y="207.61520559866784"/></g><g class="link" style="opacity: 0.8;"><path d="M1,168.76520572166947 A408.96367231703346 408.96367231703346 0.06267524795832169 0 0 26.615121716223317,167.96222579734666 L125.37145607205726,161.76453069362805 A508.9636714329665 508.9636714329665 0.06267524795832169 0 1 157.25,160.76520572166947 L157.25,260.76520483760254 A408.96367231703346 408.96367231703346 0.06267524795832169 0 0 131.6348782837767,261.56818476192535 L32.87854392794274,267.76587986564397 A508.9636714329665 508.9636714329665 0.06267524795832169 0 1 1,268.76520483760254 Z" style="fill: rgb(89, 173, 228);"/><title>Wtotal/mfac ≥ W[0,0] + W[1,0]  ... → Aircraft
-8.6
8.60</title><text class="label" dy="0.35em" x="5" y="218.765205279636"/></g></g><g class="nodes"><g class="node" transform="translate(0,348.367540408609)"><title>[cost function]</title><line x1="0" x2="0" y1="0" y2="11.632459591391012" style="display: inline; stroke: rgb(0, 0, 0);"/><rect class="node-body" width="1" height="11.632459591391012" style="fill: none;"/><text class="node-value" dy=".35em" text-anchor="middle" transform="translate(0.5,5.816229795695506) rotate(-90)" style="display: none;"/><text class="node-title" dy=".35em" text-anchor="end" transform="translate(-4,5.816229795695506)" style="display: inline;">[cost function]</text><rect class="node-click-target" x="-5" y="-5" width="10" height="16.63245959139101" style="fill: none; visibility: hidden; pointer-events: all;"/></g><g class="node" transform="translate(629,188.3675412926759)"><title>Wtotal [lbf]</title><line x1="0" x2="0" y1="0" y2="23.26491741464821" style="display: inline; stroke: rgb(0, 0, 0);"/><rect class="node-body" width="1" height="23.26491741464821" style="fill: none;"/><text class="node-value" dy=".35em" text-anchor="middle" transform="translate(0.5,11.632458707324105) rotate(-90)" style="display: none;"/><text class="node-title" dy=".35em" text-anchor="start" transform="translate(5,11.632458707324105)" style="display: inline;">Wtotal [lbf]</text><rect class="node-click-target" x="-5" y="-5" width="10" height="28.26491741464821" style="fill: none; visibility: hidden; pointer-events: all;"/></g><g class="node" transform="translate(0,142.66520593435735)"><title>Wland ≥ fland·Wtotal</title><line x1="0" x2="0" y1="0" y2="2.0999997873121004" style="display: inline; stroke: rgb(0, 0, 0);"/><rect class="node-body" width="1" height="2.0999997873121004" style="fill: none;"/><text class="node-value" dy=".35em" text-anchor="middle" transform="translate(0.5,1.0499998936560502) rotate(-90)" style="display: none;"/><text class="node-title" dy=".35em" text-anchor="end" transform="translate(-4,1.0499998936560502)" style="display: inline;">Wland ≥ fland·Wtotal</text><rect class="node-click-target" x="-5" y="-5" width="10" height="7.0999997873121" style="fill: none; visibility: hidden; pointer-events: all;"/></g><g class="node" transform="translate(157.25,158.66520593435735)"><title>Aircraft</title><line x1="0" x2="0" y1="-5" y2="102.0999989032452" style="display: inline; stroke: rgb(0, 0, 0);"/><rect class="node-body" width="1" height="102.0999989032452" style="fill: none;"/><text class="node-value" dy=".35em" text-anchor="middle" transform="translate(0.5,51.0499994516226) rotate(-90)" style="display: none;"/><text class="node-title" dy=".35em" text-anchor="start" transform="translate(-4,-10)" style="display: inline;">Aircraft</text><rect class="node-click-target" x="-5" y="-5" width="10" height="107.0999989032452" style="fill: none; visibility: hidden; pointer-events: all;"/></g><g class="node" transform="translate(0,168.76520572166945)"><title>Wtotal/mfac ≥ W[0,0] + W[1,0]  ...</title><line x1="0" x2="0" y1="0" y2="99.9999991159331" style="display: inline; stroke: rgb(0, 0, 0);"/><rect class="node-body" width="1" height="99.9999991159331" style="fill: none;"/><text class="node-value" dy=".35em" text-anchor="middle" transform="translate(0.5,49.99999955796655) rotate(-90)" style="display: none;"/><text class="node-title" dy=".35em" text-anchor="end" transform="translate(-4,49.99999955796655)" style="display: inline;">Wtotal/mfac ≥ W[0,0] + W[1,0]  ...</text><rect class="node-click-target" x="-5" y="-5" width="10" height="104.9999991159331" style="fill: none; visibility: hidden; pointer-events: all;"/></g><g class="node" transform="translate(471.75,40)"><title>SolarMission</title><line x1="0" x2="0" y1="-5" y2="184.16754083398476" style="display: inline; stroke: rgb(0, 0, 0);"/><rect class="node-body" width="1" height="184.16754083398476" style="fill: none;"/><text class="node-value" dy=".35em" text-anchor="middle" transform="translate(0.5,92.08377041699238) rotate(-90)" style="display: none;"/><text class="node-title" dy=".35em" text-anchor="start" transform="translate(-4,-10)" style="display: inline;">SolarMission</text><rect class="node-click-target" x="-5" y="-5" width="10" height="189.16754083398476" style="fill: none; visibility: hidden; pointer-events: all;"/></g><g class="node" transform="translate(0,292.76520483760254)"><title>0.5·rho·V²·CL·S ≥ Wtotal</title><line x1="0" x2="0" y1="0" y2="3.247395008038211" style="display: inline; stroke: rgb(0, 0, 0);"/><rect class="node-body" width="1" height="3.247395008038211" style="fill: none;"/><text class="node-value" dy=".35em" text-anchor="middle" transform="translate(0.5,1.6236975040191055) rotate(-90)" style="display: none;"/><text class="node-title" dy=".35em" text-anchor="end" transform="translate(-4,1.6236975040191055)" style="display: inline;">0.5·rho·V²·CL·S ≥ Wtotal</text><rect class="node-click-target" x="-5" y="-5" width="10" height="8.247395008038211" style="fill: none; visibility: hidden; pointer-events: all;"/></g><g class="node" transform="translate(157.25,300.76520483760254)"><title>Climb</title><line x1="0" x2="0" y1="-5" y2="7.602335571006449" style="display: inline; stroke: rgb(0, 0, 0);"/><rect class="node-body" width="1" height="7.602335571006449" style="fill: none;"/><text class="node-value" dy=".35em" text-anchor="middle" transform="translate(0.5,3.8011677855032246) rotate(-90)" style="display: none;"/><text class="node-title" dy=".35em" text-anchor="start" transform="translate(-4,-10)" style="display: inline;">Climb</text><rect class="node-click-target" x="-5" y="-5" width="10" height="12.60233557100645" style="fill: none; visibility: hidden; pointer-events: all;"/></g><g class="node" transform="translate(0,320.01259984564075)"><title>T ≥ 0.5·rho·V²·CD·S + Wtotal·h ...</title><line x1="0" x2="0" y1="0" y2="4.354940562968238" style="display: inline; stroke: rgb(0, 0, 0);"/><rect class="node-body" width="1" height="4.354940562968238" style="fill: none;"/><text class="node-value" dy=".35em" text-anchor="middle" transform="translate(0.5,2.177470281484119) rotate(-90)" style="display: none;"/><text class="node-title" dy=".35em" text-anchor="end" transform="translate(-4,2.177470281484119)" style="display: inline;">T ≥ 0.5·rho·V²·CD·S + Wtotal·h ...</text><rect class="node-click-target" x="-5" y="-5" width="10" height="9.354940562968238" style="fill: none; visibility: hidden; pointer-events: all;"/></g><g class="node" transform="translate(0,40)"><title>Wtotal ≤ 0.5·rho·V²·CL·S</title><line x1="0" x2="0" y1="0" y2="78.66520593435735" style="display: inline; stroke: rgb(0, 0, 0);"/><rect class="node-body" width="1" height="78.66520593435735" style="fill: none;"/><text class="node-value" dy=".35em" text-anchor="middle" transform="translate(0.5,39.33260296717867) rotate(-90)" style="display: none;"/><text class="node-title" dy=".35em" text-anchor="end" transform="translate(-4,39.33260296717867)" style="display: inline;">Wtotal ≤ 0.5·rho·V²·CL·S</text><rect class="node-click-target" x="-5" y="-5" width="10" height="83.66520593435735" style="fill: none; visibility: hidden; pointer-events: all;"/></g><g class="node" transform="translate(157.25,40)"><title>SteadyLevelFlight</title><line x1="0" x2="0" y1="-5" y2="78.66520593435735" style="display: inline; stroke: rgb(0, 0, 0);"/><rect class="node-body" width="1" height="78.66520593435735" style="fill: none;"/><text class="node-value" dy=".35em" text-anchor="middle" transform="translate(0.5,39.33260296717867) rotate(-90)" style="display: none;"/><text class="node-title" dy=".35em" text-anchor="start" transform="translate(-4,-10)" style="display: inline;">SteadyLevelFlight</text><rect class="node-click-target" x="-5" y="-5" width="10" height="83.66520593435735" style="fill: none; visibility: hidden; pointer-events: all;"/></g><g class="node" transform="translate(314.5,40)"><title>FlightSegment</title><line x1="0" x2="0" y1="-5" y2="78.66520593435735" style="display: inline; stroke: rgb(0, 0, 0);"/><rect class="node-body" width="1" height="78.66520593435735" style="fill: none;"/><text class="node-value" dy=".35em" text-anchor="middle" transform="translate(0.5,39.33260296717867) rotate(-90)" style="display: none;"/><text class="node-title" dy=".35em" text-anchor="start" transform="translate(-4,-10)" style="display: inline;">FlightSegment</text><rect class="node-click-target" x="-5" y="-5" width="10" height="83.66520593435735" style="fill: none; visibility: hidden; pointer-events: all;"/></g></g><g class="slice-titles"/></g></svg>