<?xml version="1.0" standalone="no"?><!DOCTYPE svg PUBLIC "-//W3C//DTD SVG 1.1//EN" "http://www.w3.org/Graphics/SVG/1.1/DTD/svg11.dtd"><svg xmlns="http://www.w3.org/2000/svg" width="1000" height="400" viewBox="0 0 1000 400"><g class="sankey" transform="translate(230,0)"><g class="groups"/><g class="links"><g class="link" style="opacity: 0.8;"><path d="M472.75,136.94166754760073 A69.31951007172059 69.31951007172059 0.4641637618291221 0 1 503.7826253295119,144.27593226414416 L598.8627250645519,191.87734280084828 A67.31951007172059 67.31951007172059 0.4641637618291221 0 0 629,199 L629,201 A69.31951007172059 69.31951007172059 0.4641637618291221 0 1 597.9673746704881,193.66573528345657 L502.8872749354481,146.06432474675245 A67.31951007172059 67.31951007172059 0.4641637618291221 0 0 472.75,138.94166754760073 Z" style="fill: rgb(207, 207, 207);"/><title>SolarMission → b [ft]
+3.4e-07
344n</title><text class="label" dy="0.35em" x="476.75" y="137.94166754760073"/></g><g class="link" style="opacity: 0.8;"><path d="M1,149.83400978487154 A61.11986775733661 61.11986775733661 0.5251838147538797 0 0 31.643793730166326,141.59699501881497 L125.60346215880807,87.15060010216985 A63.11986775733661 63.11986775733661 0.5251838147538797 0 1 157.25,78.64404892943254 L157.25,80.64404892943254 A61.11986775733661 61.11986775733661 0.5251838147538797 0 0 126.60620626983368,88.88106369548913 L32.64653784119192,143.32745861213422 A63.11986775733661 63.11986775733661 0.5251838147538797 0 1 1,151.83400978487154 Z" style="fill: rgb(207, 207, 207);"/><title>TailBoomFlexibility → FlightSegment
-0.0026
2.63m</title><text class="label" dy="0.35em" x="5" y="150.83400978487154"/></g><g class="link" style="opacity: 0.8;"><path d="M1,95.39982030559642 A98.31957519796649 98.31957519796649 0.27461640343308336 0 0 27.662079608540147,91.71571614284197 L125.21728923330386,64.23104536569245 A118.12441344643247 118.12441344643247 0.27461640343308336 0 1 157.25,59.80483987787693 L157.25,79.60967812634291 A98.31957519796649 98.31957519796649 0.27461640343308336 0 0 130.58792039145985,83.29378228909736 L33.03271076669615,110.77845306624688 A118.12441344643247 118.12441344643247 0.27461640343308336 0 1 1,115.2046585540624 Z" style="fill: rgb(250, 51, 51);"/><title>GustL → FlightSegment
+0.76
757m</title><text class="label" dy="0.35em" x="5" y="105.30223942982941"/></g><g class="link" style="opacity: 0.8;"><path d="M1,40 A0 0 0 0 0 1,40 L157.25,40 A0 0 0 0 0 157.25,40 L157.25,59.80483987787693 A0 0 0 0 0 157.25,59.80483987787693 L1,59.80483987787693 A0 0 0 0 0 1,59.80483987787693 Z" style="fill: rgb(250, 51, 51);"/><title>SparLoading → FlightSegment
+0.76
757m</title><text class="label" dy="0.35em" x="5" y="49.902419938938465"/></g><g class="link" style="opacity: 0.8;"><path d="M1,326.0995987017832 A0 0 0 0 0 1,326.0995987017832 L157.25,326.0995987017831 A0 0 0 0 1 157.25,326.0995987017831 L157.25,359.99999999999994 A0 0 0 0 0 157.25,359.99999999999994 L1,360 A0 0 0 0 1 1,360 Z" style="fill: rgb(250, 51, 51);"/><title>BoxSpar → Wing
+1.3
1.30</title><text class="label" dy="0.35em" x="5" y="343.0497993508916"/></g><g class="link" style="opacity: 0.8;"><path d="M315.5,289.8591440398339 A23.203593442535833 23.203593442535833 0.6420124415118711 0 0 329.39450670478,285.23913023302254 L420.6944424225283,216.97630929955815 A85.26192589493509 85.26192589493509 0.6420124415118711 0 1 471.75,200.00000449550043 L471.75,262.0583369478997 A23.203593442535833 23.203593442535833 0.6420124415118711 0 0 457.85549329522,266.678350754711 L366.5555575774717,334.9411716881754 A85.26192589493509 85.26192589493509 0.6420124415118711 0 1 315.5,351.9174764922331 Z" style="fill: rgb(89, 173, 228);"/><title>Aircraft → SolarMission
-2.4
2.37</title><text class="label" dy="0.35em" x="319.5" y="320.8883102660335"/></g><g class="link" style="opacity: 0.8;"><path d="M158.25,40 A0 0 0 0 0 158.25,40 L315,40 A0 0 0 0 0 315,40 L315,102.05834144340014 A0 0 0 0 0 315,102.05834144340014 L158.25,102.05834144340014 A0 0 0 0 0 158.25,102.05834144340014 ZM315,40 A83.11114095022465 83.11114095022465 0.6864806693042556 0 1 367.6774182578169,58.82621771204128 L458.4063361729911,133.17281278206485 A21.052799506824503 21.052799506824503 0.6864806693042556 0 0 471.75,137.9416630521003 L471.75,200.00000449550043 A83.11114095022465 83.11114095022465 0.6864806693042556 0 1 419.0725817421831,181.17378678345915 L328.3436638270089,106.82719171343558 A21.052799506824503 21.052799506824503 0.6864806693042556 0 0 315,102.05834144340014 Z" style="fill: rgb(250, 51, 51);"/><title>FlightSegment → SolarMission
+2.4
2.37</title><text class="label" dy="0.35em" x="162.25" y="71.02917072170007"/></g><g class="link" style="opacity: 0.8;"><path d="M158.25,222.0583414434001 A99.25332159286424 99.25332159286424 0.5028244547123513 0 1 206.0804054661939,234.343426534907 L300.4706354106269,286.2557470775807 A29.112465632698132 29.112465632698132 0.5028244547123513 0 0 314.5,289.85914403983384 L314.5,360 A99.25332159286424 99.25332159286424 0.5028244547123513 0 1 266.6695945338061,347.7149149084931 L172.27936458937307,295.8025943658194 A29.112465632698132 29.112465632698132 0.5028244547123513 0 0 158.25,292.19919740356625 Z" style="fill: rgb(89, 173, 228);"/><title>Wing → Aircraft
-2.7
2.68</title><text class="label" dy="0.35em" x="162.25" y="257.12876942348316"/></g><g class="link" style="opacity: 0.8;"><path d="M1,186.46336101568068 A160.242622951391 160.242622951391 0.2746164034330829 0 1 44.45423137975099,192.467765663252 L142.00944100451477,219.9524364404015 A56.20136569300804 56.20136569300804 0.2746164034330829 0 0 157.25,222.05834144340014 L157.25,326.0995987017831 A160.242622951391 160.242622951391 0.2746164034330829 0 1 113.79576862024902,320.09519405421173 L16.24055899548523,292.61052327706227 A56.20136569300804 56.20136569300804 0.2746164034330829 0 0 1,290.50461827406366 Z" style="fill: rgb(89, 173, 228);"/><title>Planform → Wing
-4
3.98</title><text class="label" dy="0.35em" x="5" y="238.48398964487217"/></g></g><g class="nodes"><g class="node" transform="translate(0,186.46336101568068)"><title>Planform</title><line x1="0" x2="0" y1="0" y2="104.04125725838298" style="display: inline; stroke: rgb(0, 0, 0);"/><rect class="node-body" width="1" height="104.04125725838298" style="fill: none;"/><text class="node-value" dy=".35em" text-anchor="middle" transform="translate(0.5,52.02062862919149) rotate(-90)" style="display: none;"/><text class="node-title" dy=".35em" text-anchor="end" transform="translate(-4,52.02062862919149)" style="display: inline;">Planform</text><rect class="node-click-target" x="-5" y="-5" width="10" height="109.04125725838298" style="fill: none; visibility: hidden; pointer-events: all;"/></g><g class="node" transform="translate(157.25,222.05834144340014)"><title>Wing</title><line x1="0" x2="0" y1="-5" y2="137.94165855659986" style="display: inline; stroke: rgb(0, 0, 0);"/><rect class="node-body" width="1" height="137.94165855659986" style="fill: none;"/><text class="node-value" dy=".35em" text-anchor="middle" transform="translate(0.5,68.97082927829993) rotate(-90)" style="display: none;"/><text class="node-title" dy=".35em" text-anchor="start" transform="translate(-4,-10)" style="display: inline;">Wing</text><rect class="node-click-target" x="-5" y="-5" width="10" height="142.94165855659986" style="fill: none; visibility: hidden; pointer-events: all;"/></g><g class="node" transform="translate(0,326.0995987017832)"><title>BoxSpar</title><line x1="0" x2="0" y1="0" y2="33.90040129821688" style="display: inline; stroke: rgb(0, 0, 0);"/><rect class="node-body" width="1" height="33.90040129821688" style="fill: none;"/><text class="node-value" dy=".35em" text-anchor="middle" transform="translate(0.5,16.95020064910844) rotate(-90)" style="display: none;"/><text class="node-title" dy=".35em" text-anchor="end" transform="translate(-4,16.95020064910844)" style="display: inline;">BoxSpar</text><rect class="node-click-target" x="-5" y="-5" width="10" height="38.90040129821688" style="fill: none; visibility: hidden; pointer-events: all;"/></g><g class="node" transform="translate(314.5,289.8591440398339)"><title>Aircraft</title><line x1="0" x2="0" y1="-5" y2="70.1408559601661" style="display: inline; stroke: rgb(0, 0, 0);"/><rect class="node-body" width="1" height="70.1408559601661" style="fill: none;"/><text class="node-value" dy=".35em" text-anchor="middle" transform="translate(0.5,35.07042798008305) rotate(-90)" style="display: none;"/><text class="node-title" dy=".35em" text-anchor="start" transform="translate(-4,-10)" style="display: inline;">Aircraft</text><rect class="node-click-target" x="-5" y="-5" width="10" height="75.1408559601661" style="fill: none; visibility: hidden; pointer-events: all;"/></g><g class="node" transform="translate(471.75,137.9416630521003)"><title>SolarMission</title><line x1="0" x2="0" y1="-5" y2="124.11667389579935" style="display: inline; stroke: rgb(0, 0, 0);"/><rect class="node-body" width="1" height="124.11667389579935" style="fill: none;"/><text class="node-value" dy=".35em" text-anchor="middle" transform="translate(0.5,62.058336947899676) rotate(-90)" style="display: none;"/><text class="node-title" dy=".35em" text-anchor="start" transform="translate(-4,-10)" style="display: inline;">SolarMission</text><rect class="node-click-target" x="-5" y="-5" width="10" height="129.11667389579935" style="fill: none; visibility: hidden; pointer-events: all;"/></g><g class="node" transform="translate(0,40)"><title>SparLoading</title><line x1="0" x2="0" y1="0" y2="19.804839877876937" style="display: inline; stroke: rgb(0, 0, 0);"/><rect class="node-body" width="1" height="19.804839877876937" style="fill: none;"/><text class="node-value" dy=".35em" text-anchor="middle" transform="translate(0.5,9.902419938938468) rotate(-90)" style="display: none;"/><text class="node-title" dy=".35em" text-anchor="end" transform="translate(-4,9.902419938938468)" style="display: inline;">SparLoading</text><rect class="node-click-target" x="-5" y="-5" width="10" height="24.804839877876937" style="fill: none; visibility: hidden; pointer-events: all;"/></g><g class="node" transform="translate(157.25,40)"><title>FlightSegment</title><line x1="0" x2="0" y1="-5" y2="62.05834144340014" style="display: inline; stroke: rgb(0, 0, 0);"/><rect class="node-body" width="1" height="62.05834144340014" style="fill: none;"/><text class="node-value" dy=".35em" text-anchor="middle" transform="translate(0.5,31.02917072170007) rotate(-90)" style="display: none;"/><text class="node-title" dy=".35em" text-anchor="start" transform="translate(-4,-10)" style="display: inline;">FlightSegment</text><rect class="node-click-target" x="-5" y="-5" width="10" height="67.05834144340014" style="fill: none; visibility: hidden; pointer-events: all;"/></g><g class="node" transform="translate(0,95.39982030559642)"><title>GustL</title><line x1="0" x2="0" y1="0" y2="19.804838248465984" style="display: inline; stroke: rgb(0, 0, 0);"/><rect class="node-body" width="1" height="19.804838248465984" style="fill: none;"/><text class="node-value" dy=".35em" text-anchor="middle" transform="translate(0.5,9.902419124232992) rotate(-90)" style="display: none;"/><text class="node-title" dy=".35em" text-anchor="end" transform="translate(-4,9.902419124232992)" style="display: inline;">GustL</text><rect class="node-click-target" x="-5" y="-5" width="10" height="24.804838248465984" style="fill: none; visibility: hidden; pointer-events: all;"/></g><g class="node" transform="translate(0,150.7996389817819)"><title>TailBoomFlexibility</title><line x1="0" x2="0" y1="0" y2="1" style="display: inline; stroke: rgb(0, 0, 0);"/><rect class="node-body" width="1" height="1" style="fill: none;"/><text class="node-value" dy=".35em" text-anchor="middle" transform="translate(0.5,0.034370803089629476) rotate(0)" style="display: none;"/><text class="node-title" dy=".35em" text-anchor="end" transform="translate(-4,0.034370803089629476)" style="display: inline;">TailBoomFlexibility</text><rect class="node-click-target" x="-5" y="-5" width="10" height="6" style="fill: none; visibility: hidden; pointer-events: all;"/></g><g class="node" transform="translate(629,199.99999550449957)"><title>b [ft]</title><line x1="0" x2="0" y1="0" y2="1" style="display: inline; stroke: rgb(0, 0, 0);"/><rect class="node-body" width="1" height="1" style="fill: none;"/><text class="node-value" dy=".35em" text-anchor="middle" transform="translate(0.5,0.000004495500448342682) rotate(0)" style="display: none;"/><text class="node-title" dy=".35em" text-anchor="start" transform="translate(5,0.000004495500448342682)" style="display: inline;">b [ft]</text><rect class="node-click-target" x="-5" y="-5" width="10" height="6" style="fill: none; visibility: hidden; pointer-events: all;"/></g></g><g class="slice-titles"/></g></svg>