<?xml version="1.0" standalone="no"?><!DOCTYPE svg PUBLIC "-//W3C//DTD SVG 1.1//EN" "http://www.w3.org/Graphics/SVG/1.1/DTD/svg11.dtd"><svg xmlns="http://www.w3.org/2000/svg" width="1000" height="700" viewBox="0 0 1000 700"><g class="sankey" transform="translate(230,0)"><g class="groups"/><g class="links"><g class="link" style="opacity: 0.8;"><path d="M1,263.036300300041 A148.6971460959059 148.6971460959059 0.4168427722468513 0 0 61.20384562102559,250.30362834906347 L253.48640318735173,165.1626421896957 A150.6971460959059 150.6971460959059 0.4168427722468513 0 1 314.5,152.25871379856076 L314.5,154.25871379856076 A148.6971460959059 148.6971460959059 0.4168427722468513 0 0 254.29615437897442,166.99138574953827 L62.013596812648274,252.13237190890604 A150.6971460959059 150.6971460959059 0.4168427722468513 0 1 1,265.036300300041 Z" style="fill: rgb(207, 207, 207);"/><title>Propeller → Aircraft
-0.004
3.99m</title><text class="label" dy="0.35em" x="5" y="264.036300300041"/></g><g class="link" style="opacity: 0.8;"><path d="M1,577.9927581832223 A348.50329868212583 348.50329868212583 0.16872406107738924 0 1 59.52229993576657,582.9415639496665 L254.43606320888895,616.1438708648557 A357.6838252514369 357.6838252514369 0.16872406107738924 0 0 314.5,621.2230416608332 L314.5,623.2230416608332 A359.6838252514369 359.6838252514369 0.16872406107738924 0 1 254.100213877436,618.1154705266945 L59.186450604313634,584.9131636115053 A346.50329868212583 346.50329868212583 0.16872406107738924 0 0 1,579.9927581832223 Z" style="fill: rgb(89, 173, 228);"/><title>SparLoading → FlightSegment
-0.013
12.6m</title><text class="label" dy="0.35em" x="5" y="578.9927581832223"/></g><g class="link" style="opacity: 0.8;"><path d="M1,602.7040606747329 A795.8353780084432 795.8353780084432 0.07265761541585736 0 1 58.77263796967136,604.8037955425477 L256.87254943859455,619.2226446468085 A793.8353780084432 793.8353780084432 0.07265761541585736 0 0 314.5,621.3171027075704 L314.5,623.3171027075704 A795.8353780084432 795.8353780084432 0.07265761541585736 0 1 256.72736203032866,621.2173678397555 L58.627450561405475,606.7985187354948 A793.8353780084432 793.8353780084432 0.07265761541585736 0 0 1,604.7040606747329 Z" style="fill: rgb(89, 173, 228);"/><title>TailBoomBending → FlightSegment
-0.025
25.4m</title><text class="label" dy="0.35em" x="5" y="603.7040606747329"/></g><g class="link" style="opacity: 0.8;"><path d="M1,590.3443835597623 A482.4023101528478 482.4023101528478 0.12046823604174173 0 1 58.973692787055114,593.840607109572 L256.7666613388142,617.7843178182733 A480.4023101528478 480.4023101528478 0.12046823604174173 0 0 314.5,621.2660463149864 L314.5,623.2660463149864 A482.4023101528478 482.4023101528478 0.12046823604174173 0 1 256.52630721294486,619.7698227651766 L58.733338661185826,595.8261120564754 A480.4023101528478 480.4023101528478 0.12046823604174173 0 0 1,592.3443835597623 Z" style="fill: rgb(89, 173, 228);"/><title>SparLoading → FlightSegment
-0.056
55.8m</title><text class="label" dy="0.35em" x="5" y="591.3443835597623"/></g><g class="link" style="opacity: 0.8;"><path d="M1,235.60192125686183 A183.02756219938536 183.02756219938536 0.32894484713679617 0 0 60.12607091033768,225.7886663861599 L254.7278398318496,159.3620636073425 A185.02756219938536 185.02756219938536 0.32894484713679617 0 1 314.5,149.44157620015503 L314.5,151.44157620015503 A183.02756219938536 183.02756219938536 0.32894484713679617 0 0 255.3739290896623,161.25483107085697 L60.772160168150414,227.68143384967436 A185.02756219938536 185.02756219938536 0.32894484713679617 0 1 1,237.60192125686183 Z" style="fill: rgb(89, 173, 228);"/><title>FoamHD → Aircraft
-0.16
163m</title><text class="label" dy="0.35em" x="5" y="236.60192125686183"/></g><g class="link" style="opacity: 0.8;"><path d="M1,628.8969896316387 A999 999 0.020488528653210825 0 0 21.466608142960403,628.6873169532055 L293.9924176665632,623.1028826632579 A1001 1001 0.020488528653210825 0 1 314.5,622.8927902197028 L314.5,624.8927902197028 A999 999 0.020488528653210825 0 0 294.0333918570396,625.102462898136 L21.5075823334368,630.6868971880835 A1001 1001 0.020488528653210825 0 1 1,630.8969896316387 Z" style="fill: rgb(89, 173, 228);"/><title>TailBoomFlexibility → FlightSegment
-0.16
164m</title><text class="label" dy="0.35em" x="5" y="629.8969896316387"/></g><g class="link" style="opacity: 0.8;"><path d="M1,194.2090343339994 A305.81631570497075 305.81631570497075 0.19091546571929818 0 0 59.031033390118985,188.6526362254958 L256.0894509960306,150.56728769335726 A307.81631570497075 307.81631570497075 0.19091546571929818 0 1 314.5,144.97455144445263 L314.5,146.97455144445263 A305.81631570497075 305.81631570497075 0.19091546571929818 0 0 256.46896660988097,152.53094955295623 L59.410549003969386,190.61629808509477 A307.81631570497075 307.81631570497075 0.19091546571929818 0 1 1,196.2090343339994 Z" style="fill: rgb(89, 173, 228);"/><title>Fuselage → Aircraft
-1
1.02</title><text class="label" dy="0.35em" x="5" y="195.2090343339994"/></g><g class="link" style="opacity: 0.8;"><path d="M1,207.8134145590056 A247.77638015902102 247.77638015902102 0.23761871189350647 0 0 59.32381430322011,200.85121016592907 L255.70540785858734,153.28871282264163 A249.77638015902102 249.77638015902102 0.23761871189350647 0 1 314.5,146.27031094707215 L314.5,148.27031094707215 A247.77638015902102 247.77638015902102 0.23761871189350647 0 0 256.1761856967799,155.23251534014867 L59.79459214141266,202.7950126834361 A249.77638015902102 249.77638015902102 0.23761871189350647 0 1 1,209.8134145590056 Z" style="fill: rgb(89, 173, 228);"/><title>CFRPUD → Aircraft
-1
1.04</title><text class="label" dy="0.35em" x="5" y="208.8134145590056"/></g><g class="link" style="opacity: 0.8;"><path d="M1,615.7570186849906 A1001 1001 0.021594152802055344 0 1 22.614067063437957,615.990396487299 L292.92911788573974,621.8285284824483 A999 999 0.021594152802055344 0 0 314.5,622.0614399954414 L314.5,624.0614399954414 A1001 1001 0.021594152802055344 0 1 292.8859329365621,623.8280621931331 L22.570882114260257,617.9899301979838 A999 999 0.021594152802055344 0 0 1,617.7570186849906 Z" style="fill: rgb(89, 173, 228);"/><title>TailBoomBending → FlightSegment
-1.2
1.16</title><text class="label" dy="0.35em" x="5" y="616.7570186849906"/></g><g class="link" style="opacity: 0.8;"><path d="M1,69.95061710540074 A0 0 0 0 0 1,69.95061710540074 L314.5,69.95061710540074 A0 0 0 0 0 314.5,69.95061710540074 L314.5,71.95061710540074 A0 0 0 0 0 314.5,71.95061710540074 L1,71.95061710540074 A0 0 0 0 0 1,71.95061710540074 Z" style="fill: rgb(89, 173, 228);"/><title>SolarCells → Aircraft
-1.5
1.51</title><text class="label" dy="0.35em" x="5" y="70.95061710540074"/></g><g class="link" style="opacity: 0.8;"><path d="M1,221.77711467214684 A209.49162506966636 209.49162506966636 0.2836641815632326 0 0 59.63152452110252,213.40506922281736 L255.1929149316755,156.39389965452642 A211.9054165926814 211.9054165926814 0.2836641815632326 0 1 314.5,147.9253903378267 L314.5,150.33918186084176 A209.49162506966636 209.49162506966636 0.2836641815632326 0 0 255.8684754788975,158.71122731017124 L60.3070850683245,215.72239687846218 A211.9054165926814 211.9054165926814 0.2836641815632326 0 1 1,224.1909061951619 Z" style="fill: rgb(89, 173, 228);"/><title>CFRPFabric → Aircraft
-1.9
1.92</title><text class="label" dy="0.35em" x="5" y="222.98401043365436"/></g><g class="link" style="opacity: 0.8;"><path d="M1,249.0129363185618 A163.12979969574315 163.12979969574315 0.37336536092356765 0 0 60.501756964510925,237.7741253841983 L254.00895312267644,161.9696405323972 A165.84203330952369 165.84203330952369 0.37336536092356765 0 1 314.5,150.5439705394683 L314.5,153.25620415324883 A163.12979969574315 163.12979969574315 0.37336536092356765 0 0 254.99824303548908,164.49501508761233 L61.49104687732356,240.29949993941344 A165.84203330952369 165.84203330952369 0.37336536092356765 0 1 1,251.72516993234234 Z" style="fill: rgb(89, 173, 228);"/><title>Motor → Aircraft
-2.2
2.16</title><text class="label" dy="0.35em" x="5" y="250.36905312545207"/></g><g class="link" style="opacity: 0.8;"><path d="M1,177.70691491903455 A402.50399439676914 402.50399439676914 0.14367202274468882 0 0 58.62982210491226,173.55988244148494 L256.21831324645075,144.97499330184434 A407.0568129774823 407.0568129774823 0.14367202274468882 0 1 314.5,140.78105275187448 L314.5,145.33387133258765 A402.50399439676914 402.50399439676914 0.14367202274468882 0 0 256.87017789508775,149.48090381013725 L59.28168675354926,178.06579294977786 A407.0568129774823 407.0568129774823 0.14367202274468882 0 1 1,182.2597334997477 Z" style="fill: rgb(89, 173, 228);"/><title>Empennage → Aircraft
-3.6
3.62</title><text class="label" dy="0.35em" x="5" y="179.98332420939113"/></g><g class="link" style="opacity: 0.8;"><path d="M1,529.658882414555 A230.84240283907016 230.84240283907016 0.2834606272940188 0 1 65.56196670647932,538.8710359564974 L221.0961088754048,584.178886036875 A333.96719092754296 333.96719092754296 0.2834606272940188 0 0 314.5,597.5064073369393 L314.5,604.264360093952 A340.7251436845557 340.7251436845557 0.2834606272940188 0 1 219.2060457174399,590.6671513462562 L63.67190354851444,545.3593012658786 A224.08445008205743 224.08445008205743 0.2834606272940188 0 0 1,536.4168351715676 Z" style="fill: rgb(89, 173, 228);"/><title>SparLoading → FlightSegment
-5.4
5.37</title><text class="label" dy="0.35em" x="5" y="533.0378587930613"/></g><g class="link" style="opacity: 0.8;"><path d="M1,276.3474306677396 A1006.6270144721591 1006.6270144721591 0.03039333178477288 0 1 31.590038711840993,276.81233305420676 L284.31273337023663,284.49578378257485 A993.3729855278409 993.3729855278409 0.03039333178477288 0 0 314.5,284.95456490506047 L314.5,298.20859384937853 A1006.6270144721591 1006.6270144721591 0.03039333178477288 0 1 283.909961288159,297.7436914629114 L31.187266629763354,290.0602407345433 A993.3729855278409 993.3729855278409 0.03039333178477288 0 0 1,289.6014596120577 Z" style="fill: rgb(89, 173, 228);"/><title>AircraftDrag → Climb
-11
10.5</title><text class="label" dy="0.35em" x="5" y="282.97444513989865"/></g><g class="link" style="opacity: 0.8;"><path d="M1,502.56141747719266 A203.3380833995209 203.3380833995209 0.3463605220365862 0 1 70.02854514396394,514.6367598216449 L206.14638248441298,563.7629839253171 A319.17834671256725 319.17834671256725 0.3463605220365862 0 0 314.5,582.7175631219636 L314.5,597.5064073369392 A333.96719092754296 333.96719092754296 0.3463605220365862 0 1 201.1259141911483,577.6735846072123 L65.00807685069928,528.5473605035401 A188.5492391845452 188.5492391845452 0.3463605220365862 0 0 1,517.3502616921684 Z" style="fill: rgb(89, 173, 228);"/><title>SteadyLevelFlight → FlightSegment
-12
11.8</title><text class="label" dy="0.35em" x="5" y="509.9558395846805"/></g><g class="link" style="opacity: 0.8;"><path d="M315.5,284.95456490506047 A0 0 0 0 0 315.5,284.95456490506047 L629,284.95456490506047 A0 0 0 0 0 629,284.95456490506047 L629,301.68346742398865 A0 0 0 0 0 629,301.68346742398865 L315.5,301.68346742398865 A0 0 0 0 0 315.5,301.68346742398865 Z" style="fill: rgb(89, 173, 228);"/><title>Climb → SolarMission
-13
13.3</title><text class="label" dy="0.35em" x="319.5" y="293.31901616452456"/></g><g class="link" style="opacity: 0.8;"><path d="M1,548.7254558939544 A282.7478379012673 282.7478379012673 0.22449925939325976 0 1 63.94481902200177,555.8208140383206 L238.64837664308178,595.7141022345915 A340.7251436845557 340.7251436845557 0.22449925939325976 0 0 314.5,604.2643600939521 L314.5,622.2150959672931 A358.67587955789674 358.67587955789674 0.22449925939325976 0 1 234.65221586163747,613.2143770153856 L59.94865824055748,573.3210888191147 A264.79710202792626 264.79710202792626 0.22449925939325976 0 0 1,566.6761917672954 Z" style="fill: rgb(89, 173, 228);"/><title>GustL → FlightSegment
-14
14.3</title><text class="label" dy="0.35em" x="5" y="557.7008238306249"/></g><g class="link" style="opacity: 0.8;"><path d="M1,301.9100803344444 A169.2906642363549 169.2906642363549 0.39560505348626873 0 1 66.23896440868415,314.9854875679422 L259.33698945022337,395.6275159124705 A143.14425101459233 143.14425101459233 0.39560505348626873 0 0 314.5,406.68346742398865 L314.5,432.4189988561666 A168.87978244677026 168.87978244677026 0.39560505348626873 0 1 249.41937570160962,419.3753266669365 L56.321350660070394,338.73329832240813 A143.55513280417696 143.55513280417696 0.39560505348626873 0 0 1,327.6456117666223 Z" style="fill: rgb(89, 173, 228);"/><title>FlightState → FlightSegment
-20
20.5</title><text class="label" dy="0.35em" x="5" y="314.77784605053336"/></g><g class="link" style="opacity: 0.8;"><path d="M1,84.20985493318818 A984.7149757091299 984.7149757091299 0.04597886571703813 0 0 46.260126629216224,83.16916694501904 L267.83479240420814,72.97422990540501 A1015.2850242908701 1015.2850242908701 0.04597886571703813 0 1 314.5,71.90123421080149 L314.5,102.47128279254171 A984.7149757091299 984.7149757091299 0.04597886571703813 0 0 269.23987337078376,103.51197078071085 L47.66520759579182,113.70690782032489 A1015.2850242908701 1015.2850242908701 0.04597886571703813 0 1 1,114.7799035149284 Z" style="fill: rgb(89, 173, 228);"/><title>Wing → Aircraft
-24
24.3</title><text class="label" dy="0.35em" x="5" y="99.4948792240583"/></g><g class="link" style="opacity: 0.8;"><path d="M1,127.08852423731511 A583.399987780127 583.399987780127 0.09601498610419479 0 0 56.92911526070325,124.40144298502423 L254.89822175584456,105.33481496494493 A621.7097577394597 621.7097577394597 0.09601498610419479 0 1 314.5,102.47128279254173 L314.5,140.78105275187448 A583.399987780127 583.399987780127 0.09601498610419479 0 0 258.5708847392968,143.4681340041654 L60.60177824415546,162.53476202424469 A621.7097577394597 621.7097577394597 0.09601498610419479 0 1 1,165.39829419664787 Z" style="fill: rgb(89, 173, 228);"/><title>Battery → Aircraft
-30
30.5</title><text class="label" dy="0.35em" x="5" y="146.2434092169815"/></g><g class="link" style="opacity: 0.8;"><path d="M315.5,70 A211.1304967382445 211.1304967382445 0.39655696459926926 0 1 397.0480553864612,86.38450495503852 L589.9213229714588,167.1483746684561 A101.17593183318402 101.17593183318402 0.39655696459926926 0 0 629,175 L629,284.95456490506047 A211.1304967382445 211.1304967382445 0.39655696459926926 0 1 547.4519446135388,268.57005995002197 L354.57867702854116,187.80619023660435 A101.17593183318402 101.17593183318402 0.39655696459926926 0 0 315.5,179.95456490506047 Z" style="fill: rgb(89, 173, 228);"/><title>Aircraft → SolarMission
-87
87.4</title><text class="label" dy="0.35em" x="319.5" y="124.97728245253023"/></g><g class="link" style="opacity: 0.8;"><path d="M1,339.954232489009 A248.45634905684386 248.45634905684386 0.3762432336281858 0 1 92.29008877130609,357.3333713351025 L252.4486562135819,420.6061182492436 A168.87978244677026 168.87978244677026 0.3762432336281858 0 0 314.5,432.4189988561666 L314.5,582.7175631219636 A319.17834671256725 319.17834671256725 0.3762432336281858 0 1 197.2245924047504,560.391529493758 L37.06602496247457,497.11878257961695 A98.15778479104688 98.15778479104688 0.3762432336281858 0 0 1,490.252796754806 Z" style="fill: rgb(89, 173, 228);"/><title>AircraftPerf → FlightSegment
-1.2e+02
120</title><text class="label" dy="0.35em" x="5" y="415.1035146219075"/></g><g class="link" style="opacity: 0.8;"><path d="M315.5,406.6834674239886 A44.49494799770868 44.49494799770868 0.3965569645992688 0 0 332.68594205854293,403.2304954128136 L525.5592096435407,322.466625699396 A267.81148057372 267.81148057372 0.3965569645992688 0 1 629,301.68346742398865 L629,525 A44.49494799770868 44.49494799770868 0.3965569645992688 0 0 611.8140579414571,528.452972011175 L418.94079035645933,609.2168417245925 A267.81148057372 267.81148057372 0.3965569645992688 0 1 315.5,629.9999999999999 Z" style="fill: rgb(89, 173, 228);"/><title>FlightSegment → SolarMission
-1.8e+02
178</title><text class="label" dy="0.35em" x="319.5" y="518.3417337119943"/></g></g><g class="nodes"><g class="node" transform="translate(0,70)"><title>SolarCells</title><line x1="0" x2="0" y1="0" y2="1.9012342108014906" style="display: inline; stroke: rgb(0, 0, 0);"/><rect class="node-body" width="1" height="1.9012342108014906" style="fill: none;"/><text class="node-value" dy=".35em" text-anchor="middle" transform="translate(0.5,0.9506171054007453) rotate(-90)" style="display: none;"/><text class="node-title" dy=".35em" text-anchor="end" transform="translate(-4,0.9506171054007453)" style="display: inline;">SolarCells</text><rect class="node-click-target" x="-5" y="-5" width="10" height="6.901234210801491" style="fill: none; visibility: hidden; pointer-events: all;"/></g><g class="node" transform="translate(314.5,70)"><title>Aircraft</title><line x1="0" x2="0" y1="-5" y2="109.95456490506047" style="display: inline; stroke: rgb(0, 0, 0);"/><rect class="node-body" width="1" height="109.95456490506047" style="fill: none;"/><text class="node-value" dy=".35em" text-anchor="middle" transform="translate(0.5,54.97728245253023) rotate(-90)" style="display: none;"/><text class="node-title" dy=".35em" text-anchor="start" transform="translate(-4,-10)" style="display: inline;">Aircraft</text><rect class="node-click-target" x="-5" y="-5" width="10" height="114.95456490506047" style="fill: none; visibility: hidden; pointer-events: all;"/></g><g class="node" transform="translate(0,84.20985493318818)"><title>Wing</title><line x1="0" x2="0" y1="0" y2="30.570048581740238" style="display: inline; stroke: rgb(0, 0, 0);"/><rect class="node-body" width="1" height="30.570048581740238" style="fill: none;"/><text class="node-value" dy=".35em" text-anchor="middle" transform="translate(0.5,15.285024290870119) rotate(-90)" style="display: none;"/><text class="node-title" dy=".35em" text-anchor="end" transform="translate(-4,15.285024290870119)" style="display: inline;">Wing</text><rect class="node-click-target" x="-5" y="-5" width="10" height="35.57004858174024" style="fill: none; visibility: hidden; pointer-events: all;"/></g><g class="node" transform="translate(0,127.08852423731511)"><title>Battery</title><line x1="0" x2="0" y1="0" y2="38.309769959332726" style="display: inline; stroke: rgb(0, 0, 0);"/><rect class="node-body" width="1" height="38.309769959332726" style="fill: none;"/><text class="node-value" dy=".35em" text-anchor="middle" transform="translate(0.5,19.154884979666363) rotate(-90)" style="display: none;"/><text class="node-title" dy=".35em" text-anchor="end" transform="translate(-4,19.154884979666363)" style="display: inline;">Battery</text><rect class="node-click-target" x="-5" y="-5" width="10" height="43.309769959332726" style="fill: none; visibility: hidden; pointer-events: all;"/></g><g class="node" transform="translate(0,177.70691491903455)"><title>Empennage</title><line x1="0" x2="0" y1="0" y2="4.552818580713165" style="display: inline; stroke: rgb(0, 0, 0);"/><rect class="node-body" width="1" height="4.552818580713165" style="fill: none;"/><text class="node-value" dy=".35em" text-anchor="middle" transform="translate(0.5,2.2764092903565825) rotate(-90)" style="display: none;"/><text class="node-title" dy=".35em" text-anchor="end" transform="translate(-4,2.2764092903565825)" style="display: inline;">Empennage</text><rect class="node-click-target" x="-5" y="-5" width="10" height="9.552818580713165" style="fill: none; visibility: hidden; pointer-events: all;"/></g><g class="node" transform="translate(0,194.56835422213442)"><title>Fuselage</title><line x1="0" x2="0" y1="0" y2="1.281360223729962" style="display: inline; stroke: rgb(0, 0, 0);"/><rect class="node-body" width="1" height="1.281360223729962" style="fill: none;"/><text class="node-value" dy=".35em" text-anchor="middle" transform="translate(0.5,0.640680111864981) rotate(-90)" style="display: none;"/><text class="node-title" dy=".35em" text-anchor="end" transform="translate(-4,0.640680111864981)" style="display: inline;">Fuselage</text><rect class="node-click-target" x="-5" y="-5" width="10" height="6.281360223729962" style="fill: none; visibility: hidden; pointer-events: all;"/></g><g class="node" transform="translate(0,208.15833516825106)"><title>CFRPUD</title><line x1="0" x2="0" y1="0" y2="1.3101587815091023" style="display: inline; stroke: rgb(0, 0, 0);"/><rect class="node-body" width="1" height="1.3101587815091023" style="fill: none;"/><text class="node-value" dy=".35em" text-anchor="middle" transform="translate(0.5,0.6550793907545511) rotate(-90)" style="display: none;"/><text class="node-title" dy=".35em" text-anchor="end" transform="translate(-4,0.6550793907545511)" style="display: inline;">CFRPUD</text><rect class="node-click-target" x="-5" y="-5" width="10" height="6.310158781509102" style="fill: none; visibility: hidden; pointer-events: all;"/></g><g class="node" transform="translate(0,221.77711467214684)"><title>CFRPFabric</title><line x1="0" x2="0" y1="0" y2="2.4137915230150497" style="display: inline; stroke: rgb(0, 0, 0);"/><rect class="node-body" width="1" height="2.4137915230150497" style="fill: none;"/><text class="node-value" dy=".35em" text-anchor="middle" transform="translate(0.5,1.2068957615075249) rotate(-90)" style="display: none;"/><text class="node-title" dy=".35em" text-anchor="end" transform="translate(-4,1.2068957615075249)" style="display: inline;">CFRPFabric</text><rect class="node-click-target" x="-5" y="-5" width="10" height="7.41379152301505" style="fill: none; visibility: hidden; pointer-events: all;"/></g><g class="node" transform="translate(0,236.49952691754856)"><title>FoamHD</title><line x1="0" x2="0" y1="0" y2="1" style="display: inline; stroke: rgb(0, 0, 0);"/><rect class="node-body" width="1" height="1" style="fill: none;"/><text class="node-value" dy=".35em" text-anchor="middle" transform="translate(0.5,0.10239433931326403) rotate(0)" style="display: none;"/><text class="node-title" dy=".35em" text-anchor="end" transform="translate(-4,0.10239433931326403)" style="display: inline;">FoamHD</text><rect class="node-click-target" x="-5" y="-5" width="10" height="6" style="fill: none; visibility: hidden; pointer-events: all;"/></g><g class="node" transform="translate(0,249.0129363185618)"><title>Motor</title><line x1="0" x2="0" y1="0" y2="2.712233613780512" style="display: inline; stroke: rgb(0, 0, 0);"/><rect class="node-body" width="1" height="2.712233613780512" style="fill: none;"/><text class="node-value" dy=".35em" text-anchor="middle" transform="translate(0.5,1.356116806890256) rotate(-90)" style="display: none;"/><text class="node-title" dy=".35em" text-anchor="end" transform="translate(-4,1.356116806890256)" style="display: inline;">Motor</text><rect class="node-click-target" x="-5" y="-5" width="10" height="7.712233613780512" style="fill: none; visibility: hidden; pointer-events: all;"/></g><g class="node" transform="translate(0,264.033790654729)"><title>Propeller</title><line x1="0" x2="0" y1="0" y2="1" style="display: inline; stroke: rgb(0, 0, 0);"/><rect class="node-body" width="1" height="1" style="fill: none;"/><text class="node-value" dy=".35em" text-anchor="middle" transform="translate(0.5,0.0025096453119601847) rotate(0)" style="display: none;"/><text class="node-title" dy=".35em" text-anchor="end" transform="translate(-4,0.0025096453119601847)" style="display: inline;">Propeller</text><rect class="node-click-target" x="-5" y="-5" width="10" height="6" style="fill: none; visibility: hidden; pointer-events: all;"/></g><g class="node" transform="translate(629,175)"><title>SolarMission</title><line x1="0" x2="0" y1="0" y2="350" style="display: inline; stroke: rgb(0, 0, 0);"/><rect class="node-body" width="1" height="350" style="fill: none;"/><text class="node-value" dy=".35em" text-anchor="middle" transform="translate(0.5,175) rotate(-90)" style="display: none;"/><text class="node-title" dy=".35em" text-anchor="start" transform="translate(5,175)" style="display: inline;">SolarMission</text><rect class="node-click-target" x="-5" y="-5" width="10" height="355" style="fill: none; visibility: hidden; pointer-events: all;"/></g><g class="node" transform="translate(0,276.3474306677396)"><title>AircraftDrag</title><line x1="0" x2="0" y1="0" y2="13.254028944318122" style="display: inline; stroke: rgb(0, 0, 0);"/><rect class="node-body" width="1" height="13.254028944318122" style="fill: none;"/><text class="node-value" dy=".35em" text-anchor="middle" transform="translate(0.5,6.627014472159061) rotate(-90)" style="display: none;"/><text class="node-title" dy=".35em" text-anchor="end" transform="translate(-4,6.627014472159061)" style="display: inline;">AircraftDrag</text><rect class="node-click-target" x="-5" y="-5" width="10" height="18.254028944318122" style="fill: none; visibility: hidden; pointer-events: all;"/></g><g class="node" transform="translate(314.5,284.95456490506047)"><title>Climb</title><line x1="0" x2="0" y1="-5" y2="16.72890251892818" style="display: inline; stroke: rgb(0, 0, 0);"/><rect class="node-body" width="1" height="16.72890251892818" style="fill: none;"/><text class="node-value" dy=".35em" text-anchor="middle" transform="translate(0.5,8.36445125946409) rotate(-90)" style="display: none;"/><text class="node-title" dy=".35em" text-anchor="start" transform="translate(-4,-10)" style="display: inline;">Climb</text><rect class="node-click-target" x="-5" y="-5" width="10" height="21.72890251892818" style="fill: none; visibility: hidden; pointer-events: all;"/></g><g class="node" transform="translate(0,301.9100803344444)"><title>FlightState</title><line x1="0" x2="0" y1="0" y2="25.735531432177936" style="display: inline; stroke: rgb(0, 0, 0);"/><rect class="node-body" width="1" height="25.735531432177936" style="fill: none;"/><text class="node-value" dy=".35em" text-anchor="middle" transform="translate(0.5,12.867765716088968) rotate(-90)" style="display: none;"/><text class="node-title" dy=".35em" text-anchor="end" transform="translate(-4,12.867765716088968)" style="display: inline;">FlightState</text><rect class="node-click-target" x="-5" y="-5" width="10" height="30.735531432177936" style="fill: none; visibility: hidden; pointer-events: all;"/></g><g class="node" transform="translate(314.5,406.68346742398865)"><title>FlightSegment</title><line x1="0" x2="0" y1="-5" y2="223.31653257601135" style="display: inline; stroke: rgb(0, 0, 0);"/><rect class="node-body" width="1" height="223.31653257601135" style="fill: none;"/><text class="node-value" dy=".35em" text-anchor="middle" transform="translate(0.5,111.65826628800568) rotate(-90)" style="display: none;"/><text class="node-title" dy=".35em" text-anchor="start" transform="translate(-4,-10)" style="display: inline;">FlightSegment</text><rect class="node-click-target" x="-5" y="-5" width="10" height="228.31653257601135" style="fill: none; visibility: hidden; pointer-events: all;"/></g><g class="node" transform="translate(0,339.95423248900903)"><title>AircraftPerf</title><line x1="0" x2="0" y1="0" y2="150.29856426579698" style="display: inline; stroke: rgb(0, 0, 0);"/><rect class="node-body" width="1" height="150.29856426579698" style="fill: none;"/><text class="node-value" dy=".35em" text-anchor="middle" transform="translate(0.5,75.14928213289849) rotate(-90)" style="display: none;"/><text class="node-title" dy=".35em" text-anchor="end" transform="translate(-4,75.14928213289849)" style="display: inline;">AircraftPerf</text><rect class="node-click-target" x="-5" y="-5" width="10" height="155.29856426579698" style="fill: none; visibility: hidden; pointer-events: all;"/></g><g class="node" transform="translate(0,502.56141747719266)"><title>SteadyLevelFlight</title><line x1="0" x2="0" y1="0" y2="14.788844214975711" style="display: inline; stroke: rgb(0, 0, 0);"/><rect class="node-body" width="1" height="14.788844214975711" style="fill: none;"/><text class="node-value" dy=".35em" text-anchor="middle" transform="translate(0.5,7.3944221074878556) rotate(-90)" style="display: none;"/><text class="node-title" dy=".35em" text-anchor="end" transform="translate(-4,7.3944221074878556)" style="display: inline;">SteadyLevelFlight</text><rect class="node-click-target" x="-5" y="-5" width="10" height="19.78884421497571" style="fill: none; visibility: hidden; pointer-events: all;"/></g><g class="node" transform="translate(0,529.658882414555)"><title>SparLoading</title><line x1="0" x2="0" y1="0" y2="6.757952757012731" style="display: inline; stroke: rgb(0, 0, 0);"/><rect class="node-body" width="1" height="6.757952757012731" style="fill: none;"/><text class="node-value" dy=".35em" text-anchor="middle" transform="translate(0.5,3.3789763785063656) rotate(-90)" style="display: none;"/><text class="node-title" dy=".35em" text-anchor="end" transform="translate(-4,3.3789763785063656)" style="display: inline;">SparLoading</text><rect class="node-click-target" x="-5" y="-5" width="10" height="11.757952757012731" style="fill: none; visibility: hidden; pointer-events: all;"/></g><g class="node" transform="translate(0,548.7254558939544)"><title>GustL</title><line x1="0" x2="0" y1="0" y2="17.950735873341046" style="display: inline; stroke: rgb(0, 0, 0);"/><rect class="node-body" width="1" height="17.950735873341046" style="fill: none;"/><text class="node-value" dy=".35em" text-anchor="middle" transform="translate(0.5,8.975367936670523) rotate(-90)" style="display: none;"/><text class="node-title" dy=".35em" text-anchor="end" transform="translate(-4,8.975367936670523)" style="display: inline;">GustL</text><rect class="node-click-target" x="-5" y="-5" width="10" height="22.950735873341046" style="fill: none; visibility: hidden; pointer-events: all;"/></g><g class="node" transform="translate(0,578.9848124896822)"><title>SparLoading</title><line x1="0" x2="0" y1="0" y2="1" style="display: inline; stroke: rgb(0, 0, 0);"/><rect class="node-body" width="1" height="1" style="fill: none;"/><text class="node-value" dy=".35em" text-anchor="middle" transform="translate(0.5,0.007945693540136745) rotate(0)" style="display: none;"/><text class="node-title" dy=".35em" text-anchor="end" transform="translate(-4,0.007945693540136745)" style="display: inline;">SparLoading</text><rect class="node-click-target" x="-5" y="-5" width="10" height="6" style="fill: none; visibility: hidden; pointer-events: all;"/></g><g class="node" transform="translate(0,591.3093245991492)"><title>SparLoading</title><line x1="0" x2="0" y1="0" y2="1" style="display: inline; stroke: rgb(0, 0, 0);"/><rect class="node-body" width="1" height="1" style="fill: none;"/><text class="node-value" dy=".35em" text-anchor="middle" transform="translate(0.5,0.03505896061301428) rotate(0)" style="display: none;"/><text class="node-title" dy=".35em" text-anchor="end" transform="translate(-4,0.03505896061301428)" style="display: inline;">SparLoading</text><rect class="node-click-target" x="-5" y="-5" width="10" height="6" style="fill: none; visibility: hidden; pointer-events: all;"/></g><g class="node" transform="translate(0,603.6880632427619)"><title>TailBoomBending</title><line x1="0" x2="0" y1="0" y2="1" style="display: inline; stroke: rgb(0, 0, 0);"/><rect class="node-body" width="1" height="1" style="fill: none;"/><text class="node-value" dy=".35em" text-anchor="middle" transform="translate(0.5,0.015997431971015885) rotate(0)" style="display: none;"/><text class="node-title" dy=".35em" text-anchor="end" transform="translate(-4,0.015997431971015885)" style="display: inline;">TailBoomBending</text><rect class="node-click-target" x="-5" y="-5" width="10" height="6" style="fill: none; visibility: hidden; pointer-events: all;"/></g><g class="node" transform="translate(0,616.0286788290906)"><title>TailBoomBending</title><line x1="0" x2="0" y1="0" y2="1.4566797118000068" style="display: inline; stroke: rgb(0, 0, 0);"/><rect class="node-body" width="1" height="1.4566797118000068" style="fill: none;"/><text class="node-value" dy=".35em" text-anchor="middle" transform="translate(0.5,0.7283398559000034) rotate(-90)" style="display: none;"/><text class="node-title" dy=".35em" text-anchor="end" transform="translate(-4,0.7283398559000034)" style="display: inline;">TailBoomBending</text><rect class="node-click-target" x="-5" y="-5" width="10" height="6.456679711800007" style="fill: none; visibility: hidden; pointer-events: all;"/></g><g class="node" transform="translate(0,629.7939792632774)"><title>TailBoomFlexibility</title><line x1="0" x2="0" y1="0" y2="1" style="display: inline; stroke: rgb(0, 0, 0);"/><rect class="node-body" width="1" height="1" style="fill: none;"/><text class="node-value" dy=".35em" text-anchor="middle" transform="translate(0.5,0.10301036836125377) rotate(0)" style="display: none;"/><text class="node-title" dy=".35em" text-anchor="end" transform="translate(-4,0.10301036836125377)" style="display: inline;">TailBoomFlexibility</text><rect class="node-click-target" x="-5" y="-5" width="10" height="6" style="fill: none; visibility: hidden; pointer-events: all;"/></g></g><g class="slice-titles"/></g></svg>