<?xml version="1.0" standalone="no"?><!DOCTYPE svg PUBLIC "-//W3C//DTD SVG 1.1//EN" "http://www.w3.org/Graphics/SVG/1.1/DTD/svg11.dtd"><svg xmlns="http://www.w3.org/2000/svg" width="1000" height="400" viewBox="0 0 1000 400"><g class="sankey" transform="translate(100,0)"><g class="groups"/><g class="links"><g class="link" style="opacity: 0.8;"><path d="M1,204.75284195995033 A0 0 0 0 0 1,204.75284195995033 L126.5,204.75284195995033 A0 0 0 0 0 126.5,204.75284195995033 L126.5,206.75284195995033 A0 0 0 0 0 126.5,206.75284195995033 L1,206.75284195995033 A0 0 0 0 0 1,206.75284195995033 Z" style="fill: rgb(207, 207, 207);"/><title>tshear ≥ tmin → BoxSpar
+1.6e-10
159p</title><text class="label" dy="0.35em" x="5" y="205.75284195995033"/></g><g class="link" style="opacity: 0.8;"><path d="M127.5,204.75284195995033 A0 0 0 0 0 127.5,204.75284195995033 L253,204.75284195995033 A0 0 0 0 0 253,204.75284195995033 L253,206.75284195995033 A0 0 0 0 0 253,206.75284195995033 L127.5,206.75284195995033 A0 0 0 0 0 127.5,206.75284195995033 Z" style="fill: rgb(207, 207, 207);"/><title>BoxSpar → Wing
+1.6e-10
159p</title><text class="label" dy="0.35em" x="131.5" y="205.75284195995033"/></g><g class="link" style="opacity: 0.8;"><path d="M254,204.75284195995033 A82.25125000000008 82.25125000000008 0.2859756106578075 0 0 277.20254903552416,201.41236337182158 L356.2332638175201,178.1745467565107 A84.25125000000008 84.25125000000008 0.2859756106578075 0 1 380,174.75284195995036 L380,176.75284195995036 A82.25125000000008 82.25125000000008 0.2859756106578075 0 0 356.79745096447584,180.0933205480791 L277.7667361824799,203.33113716339 A84.25125000000008 84.25125000000008 0.2859756106578075 0 1 254,206.75284195995033 ZM380,174.75284195995036 A0 0 0 0 0 380,174.75284195995036 L506,174.75284195995036 A0 0 0 0 0 506,174.75284195995036 L506,176.75284195995036 A0 0 0 0 0 506,176.75284195995036 L380,176.75284195995036 A0 0 0 0 0 380,176.75284195995036 Z" style="fill: rgb(207, 207, 207);"/><title>Wing → Aircraft
+1.6e-10
159p</title><text class="label" dy="0.35em" x="258" y="205.75284195995033"/></g><g class="link" style="opacity: 0.8;"><path d="M1,39.63594699373343 A0 0 0 0 0 1,39.63594699373343 L126.5,39.63594699373343 A0 0 0 0 0 126.5,39.63594699373343 L126.5,41.63594699373343 A0 0 0 0 0 126.5,41.63594699373343 L1,41.63594699373343 A0 0 0 0 0 1,41.63594699373343 Z" style="fill: rgb(207, 207, 207);"/><title>tshear ≥ tmin → BoxSpar
+0.0013
1.29m</title><text class="label" dy="0.35em" x="5" y="40.63594699373343"/></g><g class="link" style="opacity: 0.8;"><path d="M127.5,39.63594699373343 A0 0 0 0 0 127.5,39.63594699373343 L253,39.63594699373343 A0 0 0 0 0 253,39.63594699373343 L253,41.63594699373343 A0 0 0 0 0 253,41.63594699373343 L127.5,41.63594699373343 A0 0 0 0 0 127.5,41.63594699373343 Z" style="fill: rgb(207, 207, 207);"/><title>BoxSpar → HorizontalTail
+0.0013
1.29m</title><text class="label" dy="0.35em" x="131.5" y="40.63594699373343"/></g><g class="link" style="opacity: 0.8;"><path d="M254,39.63594699373343 A0 0 0 0 0 254,39.63594699373343 L379.5,39.63594699373343 A0 0 0 0 0 379.5,39.63594699373343 L379.5,41.63594699373343 A0 0 0 0 0 379.5,41.63594699373343 L254,41.63594699373343 A0 0 0 0 0 254,41.63594699373343 Z" style="fill: rgb(207, 207, 207);"/><title>HorizontalTail → Empennage
+0.0013
1.29m</title><text class="label" dy="0.35em" x="258" y="40.63594699373343"/></g><g class="link" style="opacity: 0.8;"><path d="M1,71.27189398746685 A0 0 0 0 0 1,71.27189398746685 L126.5,71.27189398746685 A0 0 0 0 0 126.5,71.27189398746685 L126.5,78.37408293686568 A0 0 0 0 0 126.5,78.37408293686568 L1,78.37408293686568 A0 0 0 0 0 1,78.37408293686568 Z" style="fill: rgb(207, 207, 207);"/><title>tshear ≥ tmin → BoxSpar
+0.0072
7.21m</title><text class="label" dy="0.35em" x="5" y="74.82298846216626"/></g><g class="link" style="opacity: 0.8;"><path d="M127.5,71.27189398746685 A0 0 0 0 0 127.5,71.27189398746685 L253,71.27189398746685 A0 0 0 0 0 253,71.27189398746685 L253,78.37408293686568 A0 0 0 0 0 253,78.37408293686568 L127.5,78.37408293686568 A0 0 0 0 0 127.5,78.37408293686568 Z" style="fill: rgb(207, 207, 207);"/><title>BoxSpar → VerticalTail
+0.0072
7.21m</title><text class="label" dy="0.35em" x="131.5" y="74.82298846216626"/></g><g class="link" style="opacity: 0.8;"><path d="M254,71.27189398746685 A79.70015552530057 79.70015552530057 0.2889032879681268 0 0 276.7066648293557,67.96887298358928 L354.09616532165006,44.967258328827256 A89.16719342181628 89.16719342181628 0.2889032879681268 0 1 379.5,41.271893987466854 L379.5,48.37408293686566 A82.06500447241746 82.06500447241746 0.2889032879681268 0 0 356.11958701971133,51.7751105969642 L278.730086527417,74.77672525172622 A86.8023444746994 86.8023444746994 0.2889032879681268 0 1 254,78.37408293686568 Z" style="fill: rgb(207, 207, 207);"/><title>VerticalTail → Empennage
+0.0072
7.21m</title><text class="label" dy="0.35em" x="258" y="74.82298846216626"/></g><g class="link" style="opacity: 0.8;"><path d="M1,108.37408293686565 A0 0 0 0 0 1,108.37408293686565 L126.5,108.37408293686565 A0 0 0 0 0 126.5,108.37408293686565 L126.5,175.75284188170053 A0 0 0 0 0 126.5,175.75284188170053 L1,175.75284188170053 A0 0 0 0 0 1,175.75284188170053 Z" style="fill: rgb(250, 51, 51);"/><title>tshear ≥ tmin → TailBoom
+0.068
68.4m</title><text class="label" dy="0.35em" x="5" y="142.0634624092831"/></g><g class="link" style="opacity: 0.8;"><path d="M127.5,108.37408293686565 A0 0 0 0 0 127.5,108.37408293686565 L253.5,108.37408293686565 A0 0 0 0 0 253.5,108.37408293686565 L253.5,175.75284188170053 A0 0 0 0 0 253.5,175.75284188170053 L127.5,175.75284188170053 A0 0 0 0 0 127.5,175.75284188170053 ZM253.5,108.37408293686565 A14.686245527582564 14.686245527582564 0.5450402941437118 0 0 261.1141213953189,106.24613996471572 L336.9531894358689,60.264776797223384 A82.06500447241746 82.06500447241746 0.5450402941437118 0 1 379.5,48.37408293686566 L379.5,115.75284188170055 A14.686245527582564 14.686245527582564 0.5450402941437118 0 0 371.8858786046811,117.88078485385046 L296.0468105641311,163.86214802134282 A82.06500447241746 82.06500447241746 0.5450402941437118 0 1 253.5,175.75284188170053 Z" style="fill: rgb(250, 51, 51);"/><title>TailBoom → Empennage
+0.068
68.4m</title><text class="label" dy="0.35em" x="131.5" y="142.0634624092831"/></g><g class="link" style="opacity: 0.8;"><path d="M380.5,40 A86.25204594085028 86.25204594085028 0.5479820351270177 0 1 425.4343662291449,52.62923588467523 L500.5302737440931,98.46268081854805 A10.499204059149726 10.499204059149726 0.5479820351270177 0 0 506,99.99999999999999 L506,175.75284188170053 A86.25204594085028 86.25204594085028 0.5479820351270177 0 1 461.0656337708551,163.12360599702532 L385.9697262559069,117.29016106315248 A10.499204059149726 10.499204059149726 0.5479820351270177 0 0 380.5,115.75284188170056 Z" style="fill: rgb(250, 51, 51);"/><title>Empennage → Aircraft
+0.077
76.9m</title><text class="label" dy="0.35em" x="384.5" y="77.87642094085028"/></g><g class="link" style="opacity: 0.8;"><path d="M1,235.75284203820013 A0 0 0 0 0 1,235.75284203820013 L126.5,235.75284203820013 A0 0 0 0 0 126.5,235.75284203820013 L126.5,360 A0 0 0 0 0 126.5,360 L1,360 A0 0 0 0 0 1,360 Z" style="fill: rgb(250, 51, 51);"/><title>t ≥ nply·tmin → Fuselage
+0.13
126m</title><text class="label" dy="0.35em" x="5" y="297.87642101910006"/></g><g class="link" style="opacity: 0.8;"><path d="M127.5,235.75284203820013 A0 0 0 0 0 127.5,235.75284203820013 L253.5,235.75284203820013 A0 0 0 0 0 253.5,235.75284203820013 L253.5,360 A0 0 0 0 0 253.5,360 L127.5,360 A0 0 0 0 0 127.5,360 ZM253.5,235.75284203820013 A0 0 0 0 0 253.5,235.75284203820013 L380,235.75284203820013 A0 0 0 0 0 380,235.75284203820013 L380,360 A0 0 0 0 0 380,360 L253.5,360 A0 0 0 0 0 253.5,360 ZM380,235.75284203820013 A0 0 0.6011344297647836 0 0 380,235.75284203820013 L435.728491797542,197.53404762294787 A124.24715796179986 124.24715796179986 0.6011344297647836 0 1 506,175.75284203820016 L506,300 A0 0 0.6011344297647836 0 0 506,300 L450.271508202458,338.2187944152523 A124.24715796179986 124.24715796179986 0.6011344297647836 0 1 380,360 Z" style="fill: rgb(250, 51, 51);"/><title>Fuselage → Aircraft
+0.13
126m</title><text class="label" dy="0.35em" x="131.5" y="297.87642101910006"/></g><g class="link" style="opacity: 0.8;"><path d="M507,100 A0 0 0 0 0 507,100 L632.5,100 A0 0 0 0 0 632.5,100 L632.5,300 A0 0 0 0 0 632.5,300 L507,300 A0 0 0 0 0 507,300 Z" style="fill: rgb(250, 51, 51);"/><title>Aircraft → SolarMission
+0.2
203m</title><text class="label" dy="0.35em" x="511" y="200"/></g><g class="link" style="opacity: 0.8;"><path d="M633.5,100 A0 0 0 0 0 633.5,100 L759,100 A0 0 0 0 0 759,100 L759,300 A0 0 0 0 0 759,300 L633.5,300 A0 0 0 0 0 633.5,300 Z" style="fill: rgb(250, 51, 51);"/><title>SolarMission → CFRPFabric.tmin [mm]
+0.2
203m</title><text class="label" dy="0.35em" x="637.5" y="200"/></g></g><g class="nodes"><g class="node" transform="translate(0,205.75284188170053)"><title>tshear ≥ tmin</title><line x1="0" x2="0" y1="0" y2="1" style="display: inline; stroke: rgb(0, 0, 0);"/><rect class="node-body" width="1" height="1" style="fill: none;"/><text class="node-value" dy=".35em" text-anchor="middle" transform="translate(0.5,7.82497977525054e-8) rotate(0)" style="display: none;"/><text class="node-title" dy=".35em" text-anchor="end" transform="translate(-4,7.82497977525054e-8)" style="display: inline;">tshear ≥ tmin</text><rect class="node-click-target" x="-5" y="-5" width="10" height="6" style="fill: none; visibility: hidden; pointer-events: all;"/></g><g class="node" transform="translate(126.5,205.75284188170053)"><title>BoxSpar</title><line x1="0" x2="0" y1="-5" y2="1" style="display: inline; stroke: rgb(0, 0, 0);"/><rect class="node-body" width="1" height="1" style="fill: none;"/><text class="node-value" dy=".35em" text-anchor="middle" transform="translate(0.5,7.82497977525054e-8) rotate(0)" style="display: none;"/><text class="node-title" dy=".35em" text-anchor="start" transform="translate(-4,-10)" style="display: inline;">BoxSpar</text><rect class="node-click-target" x="-5" y="-5" width="10" height="6" style="fill: none; visibility: hidden; pointer-events: all;"/></g><g class="node" transform="translate(253,205.75284188170053)"><title>Wing</title><line x1="0" x2="0" y1="-5" y2="1" style="display: inline; stroke: rgb(0, 0, 0);"/><rect class="node-body" width="1" height="1" style="fill: none;"/><text class="node-value" dy=".35em" text-anchor="middle" transform="translate(0.5,7.82497977525054e-8) rotate(0)" style="display: none;"/><text class="node-title" dy=".35em" text-anchor="start" transform="translate(-4,-10)" style="display: inline;">Wing</text><rect class="node-click-target" x="-5" y="-5" width="10" height="6" style="fill: none; visibility: hidden; pointer-events: all;"/></g><g class="node" transform="translate(506,100)"><title>Aircraft</title><line x1="0" x2="0" y1="-5" y2="200" style="display: inline; stroke: rgb(0, 0, 0);"/><rect class="node-body" width="1" height="200" style="fill: none;"/><text class="node-value" dy=".35em" text-anchor="middle" transform="translate(0.5,100) rotate(-90)" style="display: none;"/><text class="node-title" dy=".35em" text-anchor="start" transform="translate(-4,-10)" style="display: inline;">Aircraft</text><rect class="node-click-target" x="-5" y="-5" width="10" height="205" style="fill: none; visibility: hidden; pointer-events: all;"/></g><g class="node" transform="translate(0,40)"><title>tshear ≥ tmin</title><line x1="0" x2="0" y1="0" y2="1.2718939874668536" style="display: inline; stroke: rgb(0, 0, 0);"/><rect class="node-body" width="1" height="1.2718939874668536" style="fill: none;"/><text class="node-value" dy=".35em" text-anchor="middle" transform="translate(0.5,0.6359469937334268) rotate(-90)" style="display: none;"/><text class="node-title" dy=".35em" text-anchor="end" transform="translate(-4,0.6359469937334268)" style="display: inline;">tshear ≥ tmin</text><rect class="node-click-target" x="-5" y="-5" width="10" height="6.271893987466854" style="fill: none; visibility: hidden; pointer-events: all;"/></g><g class="node" transform="translate(126.5,40)"><title>BoxSpar</title><line x1="0" x2="0" y1="-5" y2="1.2718939874668536" style="display: inline; stroke: rgb(0, 0, 0);"/><rect class="node-body" width="1" height="1.2718939874668536" style="fill: none;"/><text class="node-value" dy=".35em" text-anchor="middle" transform="translate(0.5,0.6359469937334268) rotate(-90)" style="display: none;"/><text class="node-title" dy=".35em" text-anchor="start" transform="translate(-4,-10)" style="display: inline;">BoxSpar</text><rect class="node-click-target" x="-5" y="-5" width="10" height="6.271893987466854" style="fill: none; visibility: hidden; pointer-events: all;"/></g><g class="node" transform="translate(253,40)"><title>HorizontalTail</title><line x1="0" x2="0" y1="-5" y2="1.2718939874668536" style="display: inline; stroke: rgb(0, 0, 0);"/><rect class="node-body" width="1" height="1.2718939874668536" style="fill: none;"/><text class="node-value" dy=".35em" text-anchor="middle" transform="translate(0.5,0.6359469937334268) rotate(-90)" style="display: none;"/><text class="node-title" dy=".35em" text-anchor="start" transform="translate(-4,-10)" style="display: inline;">HorizontalTail</text><rect class="node-click-target" x="-5" y="-5" width="10" height="6.271893987466854" style="fill: none; visibility: hidden; pointer-events: all;"/></g><g class="node" transform="translate(379.5,40)"><title>Empennage</title><line x1="0" x2="0" y1="-5" y2="75.75284188170056" style="display: inline; stroke: rgb(0, 0, 0);"/><rect class="node-body" width="1" height="75.75284188170056" style="fill: none;"/><text class="node-value" dy=".35em" text-anchor="middle" transform="translate(0.5,37.87642094085028) rotate(-90)" style="display: none;"/><text class="node-title" dy=".35em" text-anchor="start" transform="translate(-4,-10)" style="display: inline;">Empennage</text><rect class="node-click-target" x="-5" y="-5" width="10" height="80.75284188170056" style="fill: none; visibility: hidden; pointer-events: all;"/></g><g class="node" transform="translate(0,71.27189398746685)"><title>tshear ≥ tmin</title><line x1="0" x2="0" y1="0" y2="7.102188949398808" style="display: inline; stroke: rgb(0, 0, 0);"/><rect class="node-body" width="1" height="7.102188949398808" style="fill: none;"/><text class="node-value" dy=".35em" text-anchor="middle" transform="translate(0.5,3.551094474699404) rotate(-90)" style="display: none;"/><text class="node-title" dy=".35em" text-anchor="end" transform="translate(-4,3.551094474699404)" style="display: inline;">tshear ≥ tmin</text><rect class="node-click-target" x="-5" y="-5" width="10" height="12.102188949398808" style="fill: none; visibility: hidden; pointer-events: all;"/></g><g class="node" transform="translate(126.5,71.27189398746685)"><title>BoxSpar</title><line x1="0" x2="0" y1="-5" y2="7.102188949398808" style="display: inline; stroke: rgb(0, 0, 0);"/><rect class="node-body" width="1" height="7.102188949398808" style="fill: none;"/><text class="node-value" dy=".35em" text-anchor="middle" transform="translate(0.5,3.551094474699404) rotate(-90)" style="display: none;"/><text class="node-title" dy=".35em" text-anchor="start" transform="translate(-4,-10)" style="display: inline;">BoxSpar</text><rect class="node-click-target" x="-5" y="-5" width="10" height="12.102188949398808" style="fill: none; visibility: hidden; pointer-events: all;"/></g><g class="node" transform="translate(253,71.27189398746685)"><title>VerticalTail</title><line x1="0" x2="0" y1="-5" y2="7.102188949398808" style="display: inline; stroke: rgb(0, 0, 0);"/><rect class="node-body" width="1" height="7.102188949398808" style="fill: none;"/><text class="node-value" dy=".35em" text-anchor="middle" transform="translate(0.5,3.551094474699404) rotate(-90)" style="display: none;"/><text class="node-title" dy=".35em" text-anchor="start" transform="translate(-4,-10)" style="display: inline;">VerticalTail</text><rect class="node-click-target" x="-5" y="-5" width="10" height="12.102188949398808" style="fill: none; visibility: hidden; pointer-events: all;"/></g><g class="node" transform="translate(0,108.37408293686566)"><title>tshear ≥ tmin</title><line x1="0" x2="0" y1="0" y2="67.37875894483487" style="display: inline; stroke: rgb(0, 0, 0);"/><rect class="node-body" width="1" height="67.37875894483487" style="fill: none;"/><text class="node-value" dy=".35em" text-anchor="middle" transform="translate(0.5,33.689379472417436) rotate(-90)" style="display: none;"/><text class="node-title" dy=".35em" text-anchor="end" transform="translate(-4,33.689379472417436)" style="display: inline;">tshear ≥ tmin</text><rect class="node-click-target" x="-5" y="-5" width="10" height="72.37875894483487" style="fill: none; visibility: hidden; pointer-events: all;"/></g><g class="node" transform="translate(126.5,108.37408293686566)"><title>TailBoom</title><line x1="0" x2="0" y1="-5" y2="67.37875894483487" style="display: inline; stroke: rgb(0, 0, 0);"/><rect class="node-body" width="1" height="67.37875894483487" style="fill: none;"/><text class="node-value" dy=".35em" text-anchor="middle" transform="translate(0.5,33.689379472417436) rotate(-90)" style="display: none;"/><text class="node-title" dy=".35em" text-anchor="start" transform="translate(-4,-10)" style="display: inline;">TailBoom</text><rect class="node-click-target" x="-5" y="-5" width="10" height="72.37875894483487" style="fill: none; visibility: hidden; pointer-events: all;"/></g><g class="node" transform="translate(0,235.75284203820013)"><title>t ≥ nply·tmin</title><line x1="0" x2="0" y1="0" y2="124.24715796179987" style="display: inline; stroke: rgb(0, 0, 0);"/><rect class="node-body" width="1" height="124.24715796179987" style="fill: none;"/><text class="node-value" dy=".35em" text-anchor="middle" transform="translate(0.5,62.123578980899936) rotate(-90)" style="display: none;"/><text class="node-title" dy=".35em" text-anchor="end" transform="translate(-4,62.123578980899936)" style="display: inline;">t ≥ nply·tmin</text><rect class="node-click-target" x="-5" y="-5" width="10" height="129.24715796179987" style="fill: none; visibility: hidden; pointer-events: all;"/></g><g class="node" transform="translate(126.5,235.75284203820013)"><title>Fuselage</title><line x1="0" x2="0" y1="-5" y2="124.24715796179987" style="display: inline; stroke: rgb(0, 0, 0);"/><rect class="node-body" width="1" height="124.24715796179987" style="fill: none;"/><text class="node-value" dy=".35em" text-anchor="middle" transform="translate(0.5,62.123578980899936) rotate(-90)" style="display: none;"/><text class="node-title" dy=".35em" text-anchor="start" transform="translate(-4,-10)" style="display: inline;">Fuselage</text><rect class="node-click-target" x="-5" y="-5" width="10" height="129.24715796179987" style="fill: none; visibility: hidden; pointer-events: all;"/></g><g class="node" transform="translate(632.5,100)"><title>SolarMission</title><line x1="0" x2="0" y1="-5" y2="200" style="display: inline; stroke: rgb(0, 0, 0);"/><rect class="node-body" width="1" height="200" style="fill: none;"/><text class="node-value" dy=".35em" text-anchor="middle" transform="translate(0.5,100) rotate(-90)" style="display: none;"/><text class="node-title" dy=".35em" text-anchor="start" transform="translate(-4,-10)" style="display: inline;">SolarMission</text><rect class="node-click-target" x="-5" y="-5" width="10" height="205" style="fill: none; visibility: hidden; pointer-events: all;"/></g><g class="node" transform="translate(759,100)"><title>CFRPFabric.tmin [mm]</title><line x1="0" x2="0" y1="0" y2="200" style="display: inline; stroke: rgb(0, 0, 0);"/><rect class="node-body" width="1" height="200" style="fill: none;"/><text class="node-value" dy=".35em" text-anchor="middle" transform="translate(0.5,100) rotate(-90)" style="display: none;"/><text class="node-title" dy=".35em" text-anchor="start" transform="translate(5,100)" style="display: inline;">CFRPFabric.tmin [mm]</text><rect class="node-click-target" x="-5" y="-5" width="10" height="205" style="fill: none; visibility: hidden; pointer-events: all;"/></g></g><g class="slice-titles"/></g></svg>