<?xml version="1.0" encoding="utf-8"?>
<svg width="300" height="300" version="1.1">
	<g transform="scale(3.00)">
		<g transform="translate(0,-952.36218)">
			<g transform="matrix(0.35423407,0,0,0.42994087,-35.858031,688.41834)">
				<g class="plane" transform="matrix({{plane.scalex * plane.scale}}, 0, 0, {{plane.scaley * plane.scale}}, {{plane.x + 126.01282195 * (1-plane.scalex * plane.scale)}}, {{plane.y + 662.03094 * (1-plane.scaley * plane.scale)}})">
					<path d="m 232.14732,750.54867 0,-126.8125 c 0,-13.41493 20,-12.7923 20,0 l 0,126.8125 z" style="font-size:medium;font-style:normal;font-variant:normal;font-weight:normal;font-stretch:normal;text-indent:0;text-align:start;text-decoration:none;line-height:normal;letter-spacing:normal;word-spacing:normal;text-transform:none;direction:ltr;block-progression:tb;writing-mode:lr-tb;text-anchor:start;baseline-shift:baseline;color:#000000;fill:#000000;fill-opacity:1;stroke:none;stroke-width:1;marker:none;visibility:visible;display:inline;overflow:visible;enable-background:accumulate;font-family:Sans;-inkscape-font-specification:Sans" transform="matrix({{fuse.scalex * fuse.scale}}, 0, 0, {{fuse.scaley * fuse.scale}}, {{fuse.x + 242.14732 * (1-fuse.scalex * fuse.scale)}}, {{fuse.y + 687.14242 * (1-fuse.scaley * fuse.scale)}})" class="fuse"></path>
					<path d="m 303.49107,650.87477 a 5.0005,3.6595115 0 0 0 -4.90625,3.70488 l 0,14.63658 a 5.0005,3.6595115 0 1 0 10,0 l 0,-14.63658 a 5.0005,3.6595115 0 0 0 -5.09375,-3.70488 z" style="font-size:medium;font-style:normal;font-variant:normal;font-weight:normal;font-stretch:normal;text-indent:0;text-align:start;text-decoration:none;line-height:normal;letter-spacing:normal;word-spacing:normal;text-transform:none;direction:ltr;block-progression:tb;writing-mode:lr-tb;text-anchor:start;baseline-shift:baseline;color:#000000;fill:#000000;fill-opacity:1;stroke:none;stroke-width:1;marker:none;visibility:visible;display:inline;overflow:visible;enable-background:accumulate;font-family:Sans;-inkscape-font-specification:Sans" transform="matrix({{engine2.scalex * engine2.scale}}, 0, 0, {{engine2.scaley * engine2.scale}}, {{engine2.x + 303.58482 * (1-engine2.scalex * engine2.scale)}}, {{engine2.y + 660.0455 * (1-engine2.scaley * engine2.scale)}})" class="engine2"></path>
					<path d="m 182.05357,650.87478 a 5.0005,3.7433229 0 0 0 -4.90625,3.78974 l 0,14.97179 a 5.0005,3.7433229 0 1 0 10,0 l 0,-14.97179 a 5.0005,3.7433229 0 0 0 -5.09375,-3.78974 z" style="font-size:medium;font-style:normal;font-variant:normal;font-weight:normal;font-stretch:normal;text-indent:0;text-align:start;text-decoration:none;line-height:normal;letter-spacing:normal;word-spacing:normal;text-transform:none;direction:ltr;block-progression:tb;writing-mode:lr-tb;text-anchor:start;baseline-shift:baseline;color:#000000;fill:#000000;fill-opacity:1;stroke:none;stroke-width:1;marker:none;visibility:visible;display:inline;overflow:visible;enable-background:accumulate;font-family:Sans;-inkscape-font-specification:Sans" transform="matrix({{engine1.scalex * engine1.scale}}, 0, 0, {{engine1.scaley * engine1.scale}}, {{engine1.x + 182.14732 * (1-engine1.scalex * engine1.scale)}}, {{engine1.y + 660.255545 * (1-engine1.scaley * engine1.scale)}})" class="engine1"></path>
					<path d="m 239.64285,741.66071 -27.5,7.14286 0,10.71428 60,0 0,-10.71428 -27.5,-7.14286 -5,0 z" style="fill:#ffffff;fill-opacity:1;stroke:#000000;stroke-width:1;stroke-miterlimit:4;stroke-opacity:1;stroke-dasharray:none"></path>
					<path d="m 239.64285,741.66071 -27.5,7.14286 0,10.71428 60,0 0,-10.71428 -27.5,-7.14286 -5,0 z" style="fill:#000000;fill-opacity:1;stroke:#000000;stroke-width:2;stroke-miterlimit:4;stroke-opacity:1;stroke-dasharray:none"></path>
					<g transform="translate(116.42857,10)">
						<g class="wing" transform="matrix({{wing.scalex * wing.scale}}, 0, 0, {{wing.scaley * wing.scale}}, {{wing.x + 126.01282195 * (1-wing.scalex * wing.scale)}}, {{wing.y + 662.03094 * (1-wing.scaley * wing.scale)}})">
							<path style="fill:#000000;fill-opacity:1;stroke:none" d="m 5.6979239,661.98376 0,11.62951 239.9543361,0 0,-11.62951 z" transform="matrix({{wingrect.scalex * wingrect.scale}}, 0, 0, {{wingrect.scaley * wingrect.scale}}, {{wingrect.x + 125.67509195 * (1-wingrect.scalex * wingrect.scale)}}, {{wingrect.y + 667.798515 * (1-wingrect.scaley * wingrect.scale)}})" class="wingrect"></path>
							<path style="fill:#000000;fill-opacity:1;stroke:none" d="m 116.35246,650.44861 -109.9790744,11.62951 239.9543344,0 -109.97907,-11.62951 z" transform="matrix({{wingtaper.scalex * wingtaper.scale}}, 0, 0, {{wingtaper.scaley * wingtaper.scale}}, {{wingtaper.x + 126.3505528 * (1-wingtaper.scalex * wingtaper.scale)}}, {{wingtaper.y + 656.263365 * (1-wingtaper.scaley * wingtaper.scale)}})" class="wingtaper"></path>
						</g>
					</g>
				</g>
			</g>
			<g transform="matrix(0.33791059,0,0,0.33791059,-39.058658,848.18441)">
				<g class="airfoil" transform="matrix({{airfoil.scalex * airfoil.scale}}, 0, 0, {{airfoil.scaley * airfoil.scale}}, {{airfoil.x + 263.55751 * (1-airfoil.scalex * airfoil.scale)}}, {{airfoil.y + 555.132635 * (1-airfoil.scaley * airfoil.scale)}})">
					<path d="m 116.59001,559.39951 c 0.16625,-9.0575 20.87875,-15.98625 45.98625,-19.4375 42.72125,-4.05625 87.9375,-5.07375 135.115,0.2375 16.51085,1.7946 34.20674,3.82764 51.79946,6.65278 21.25232,3.41282 42.35407,7.98155 61.03429,14.68222 -28.6475,-2.54375 -65.85625,2.9375 -112.59625,8.76875 -49.39875,4.5325 -90.3825,4.37125 -135.3525,0 -31.0175,-2.06125 -46.1475,-5.23625 -45.98625,-10.90375 z" style="fill:#cccccc;stroke:#646464;stroke-width:2;stroke-linecap:butt;stroke-linejoin:miter;stroke-miterlimit:4;stroke-opacity:1;stroke-dasharray:none"></path>
					<path d="m 162.57626,539.96201 0,30.10625 c 44.24875,4.74 89.445,4.74 135.58875,0 l 0,-29.86875 c -45.43375,-4.61 -82.8075,-5.17625 -135.58875,-0.2375 z" style="fill:#000000;fill-opacity:1;stroke:#000000;stroke-width:0.85749996;stroke-linecap:butt;stroke-linejoin:miter;stroke-miterlimit:4;stroke-opacity:1;stroke-dasharray:none"></path>
					<path d="m 162.57626,539.96201 0,30.10625 c 44.24874,4.74 89.445,4.74 135.58875,0 l 0,-29.86875 c -45.43376,-4.61 -82.80751,-5.17625 -135.58875,-0.2375 z" style="fill:#ffffff;fill-opacity:1;stroke:#000000;stroke-width:0.85749996;stroke-linecap:butt;stroke-linejoin:miter;stroke-miterlimit:4;stroke-opacity:1;stroke-dasharray:none" transform="matrix({{shearinner.scalex * shearinner.scale}}, 0, 0, {{shearinner.scaley * shearinner.scale}}, {{shearinner.x + 230.370635 * (1-shearinner.scalex * shearinner.scale)}}, {{shearinner.y + 555.015135 * (1-shearinner.scaley * shearinner.scale)}})" class="shearinner"></path>
				</g>
			</g>
		</g>
	</g>
</svg>