<?xml version="1.0" encoding="UTF-8" standalone="no"?>
<!-- Created with Inkscape (http://www.inkscape.org/) -->

<svg
   xmlns:dc="http://purl.org/dc/elements/1.1/"
   xmlns:cc="http://creativecommons.org/ns#"
   xmlns:rdf="http://www.w3.org/1999/02/22-rdf-syntax-ns#"
   xmlns:svg="http://www.w3.org/2000/svg"
   xmlns="http://www.w3.org/2000/svg"
   xmlns:sodipodi="http://sodipodi.sourceforge.net/DTD/sodipodi-0.dtd"
   xmlns:inkscape="http://www.inkscape.org/namespaces/inkscape"
   id="svg2"
   version="1.1"
   inkscape:version="0.48.4 r9939"
   width="144.85"
   height="49.9875"
   xml:space="preserve"
   sodipodi:docname="GPkit_logo.eps"><metadata
     id="metadata8"><rdf:RDF><cc:Work
         rdf:about=""><dc:format>image/svg+xml</dc:format><dc:type
           rdf:resource="http://purl.org/dc/dcmitype/StillImage" /><dc:title></dc:title></cc:Work></rdf:RDF></metadata><defs
     id="defs6" /><sodipodi:namedview
     pagecolor="#ffffff"
     bordercolor="#666666"
     borderopacity="1"
     objecttolerance="10"
     gridtolerance="10"
     guidetolerance="10"
     inkscape:pageopacity="0"
     inkscape:pageshadow="2"
     inkscape:window-width="640"
     inkscape:window-height="480"
     id="namedview4"
     showgrid="false"
     inkscape:zoom="2.2298929"
     inkscape:cx="72.425003"
     inkscape:cy="24.99375"
     inkscape:window-x="0"
     inkscape:window-y="25"
     inkscape:window-maximized="0"
     inkscape:current-layer="g10" /><g
     id="g10"
     inkscape:groupmode="layer"
     inkscape:label="ink_ext_XXXXXX"
     transform="matrix(1.25,0,0,-1.25,0,49.9875)"><g
       id="g12"
       transform="scale(0.1,0.1)"><path
         d="m 560.484,399.738 c -46.558,0.379 -116.546,-0.144 -116.546,-0.144 l -73.766,-94.242 175.621,0 c 31.812,-0.606 57.703,-1.664 57.703,-32.383 0,-34.106 -25.801,-36.114 -58.203,-36.114 l -79.199,0 -3.75,0.333 -90.918,0 -0.039,0.078 -128.059,0 -55.555,-71.075 101.407,0 0,-40.781 C 268.184,103.809 238.789,90 205.781,90 c -1.14,0 -2.273,0.0156 -3.41,0.0508 -62.039,1.8086 -112.3905,42.6872 -112.3905,105.1442 0,63.594 45.8005,110.024 109.3945,110.024 39.004,0 43.398,0 96.953,0 l 75.059,94.375 c -57.5,0 -97.028,0.324 -165.528,0 C 92.4609,399.063 0,308.598 0,195.195 0,81.7969 92.3828,0 205.781,0 c 67.793,0 127.793,32.4023 165,82.8125 l 0.157,0 -0.235,-74.14062 95.391,0 0,132.79312 80.39,0 c 71.606,1.074 90.211,14.851 114.539,37.301 21.743,20.05 39.657,52.527 39.082,92.019 -1.007,69.879 -41.812,128.153 -139.621,128.953"
         style="fill:#100f0d;fill-opacity:1;fill-rule:nonzero;stroke:none"
         id="path14" /><path
         d="m 754.867,145.391 123.41,125.625 30.446,0 L 783.648,143.18 924.215,8.69531 l -31.543,0 -137.805,132.26569 0,-132.26569 -24.347,0 0,390.71069 24.347,0 0,-254.015"
         style="fill:#59ade4;fill-opacity:1;fill-rule:nonzero;stroke:none"
         id="path16" /><path
         d="m 943.574,8.69531 0,262.32069 24.352,0 0,-262.32069 -24.352,0 z m -7.75,348.09769 c 0,5.531 1.848,10.234 5.539,14.109 3.688,3.875 8.481,5.813 14.391,5.813 5.891,0 10.691,-1.938 14.387,-5.813 3.683,-3.875 5.535,-8.578 5.535,-14.109 0,-5.531 -1.852,-10.238 -5.535,-14.117 -3.696,-3.871 -8.496,-5.809 -14.387,-5.809 -5.91,0 -10.703,1.938 -14.391,5.809 -3.691,3.879 -5.539,8.586 -5.539,14.117"
         style="fill:#59ade4;fill-opacity:1;fill-rule:nonzero;stroke:none"
         id="path18" /><path
         d="m 1137.26,7.10938 c -8.85,-1.88282 -17.53,-2.83594 -26.01,-2.83594 -13.28,0 -24.35,2.21094 -33.2,6.62106 -8.86,4.418 -15.97,10.4961 -21.31,18.2266 -5.35,7.7344 -9.23,17.1133 -11.62,28.1523 -2.41,11.0469 -3.6,23.1954 -3.6,36.4532 l 0,156.2534 -48.141,0 0,21.036 48.141,0 0,67.515 24.35,0 0,-67.515 92.42,0 0,-21.036 -92.42,0 0,-154.7456 c 0,-23.1289 3.13,-40.5664 9.41,-52.3086 6.27,-11.7539 19,-17.6211 38.18,-17.6211 7.75,0 15.04,0.6328 21.87,1.9297 6.82,1.289 13.74,3.2304 20.74,5.8125 l 2.77,-19.6797 C 1153.31,11.0859 1146.12,9 1137.26,7.10938"
         style="fill:#59ade4;fill-opacity:1;fill-rule:nonzero;stroke:none"
         id="path20" /></g></g></svg>