<?xml version="1.0" encoding="utf-8" standalone="no"?>
<!DOCTYPE svg PUBLIC "-//W3C//DTD SVG 1.1//EN"
  "http://www.w3.org/Graphics/SVG/1.1/DTD/svg11.dtd">
  <svg width="1100" height="400" viewBox="0 0 1100 400" xmlns="http://www.w3.org/2000/svg" xmlns:xlink="http://www.w3.org/1999/xlink"><g class="sankey" transform="translate(60,0)"><g class="groups"></g><g class="links"><g class="link" style="opacity: 0.8;"><path d="M225.75,44.97584830511352 A531.3077199987885 531.3077199987885 0.07775118160874128 0 1 267.018194284583,46.58098244009774 L408.3871514509719,57.59478857554958 A529.3077199987885 529.3077199987885 0.07775118160874128 0 0 449.5,59.19388050909548 L449.5,61.19388050909548 A531.3077199987885 531.3077199987885 0.07775118160874128 0 1 408.231805715417,59.58874637411126 L266.8628485490281,48.57494023865942 A529.3077199987885 529.3077199987885 0.07775118160874128 0 0 225.75,46.97584830511352 Z" style="fill: rgb(207, 207, 207);"></path><title>Aircraft → CFRPUD
850µ</title></g><g class="link" style="opacity: 0.8;"><path d="M225.75,47.421981356092715 A269.35291724529003 269.35291724529003 0.15490810681703593 0 1 267.3082749712021,50.64729046955809 L408.25030364302813,72.65668522442853 A267.35291724529003 267.35291724529003 0.15490810681703593 0 0 449.5,75.85804576405664 L449.5,77.85804576405664 A269.35291724529003 269.35291724529003 0.15490810681703593 0 1 407.9417250287979,74.63273665059127 L266.99969635697187,52.62334189572083 A267.35291724529003 267.35291724529003 0.15490810681703593 0 0 225.75,49.421981356092715 Z" style="fill: rgb(207, 207, 207);"></path><title>Aircraft → FoamHD
850µ</title></g><g class="link" style="opacity: 0.8;"><path d="M450.5,141.43660690317327 A134.2667530672036 134.2667530672036 0.32368525904126355 0 1 493.20523190570253,148.409117574699 L632.180893284341,195.03328326143125 A132.2667530672036 132.2667530672036 0.32368525904126355 0 0 674.25,201.9019333641677 L674.25,203.9019333641677 A134.2667530672036 134.2667530672036 0.32368525904126355 0 1 631.5447680942975,196.92942269264196 L492.56910671565896,150.3052570059097 A132.2667530672036 132.2667530672036 0.32368525904126355 0 0 450.5,143.43660690317327 Z" style="fill: rgb(207, 207, 207);"></path><title>AircraftDrag → TailBoomAero
850µ</title></g><g class="link" style="opacity: 0.8;"><path d="M450.5,350.69080366380905 A999 999 0.025936573868432955 0 0 476.4077323526667,350.3548059209959 L648.290400315296,345.8957584860499 A1001 1001 0.025936573868432955 0 1 674.25,345.5590880750829 L674.25,347.5590880750829 A999 999 0.025936573868432955 0 0 648.3422676473333,347.8950858178961 L476.459599684704,352.3541332528421 A1001 1001 0.025936573868432955 0 1 450.5,352.69080366380905 Z" style="fill: rgb(207, 207, 207);"></path><title>TailBoomBending → Beam
850µ</title></g><g class="link" style="opacity: 0.8;"><path d="M225.75,343.8531034006842 A226.34020115940237 226.34020115940237 0.1836669696398192 0 0 267.0878885841245,340.04619329744094 L407.7968392426391,313.9080325867235 A228.34020115940237 228.34020115940237 0.1836669696398192 0 1 449.5,310.06748365057524 L449.5,312.06748365057524 A226.34020115940237 226.34020115940237 0.1836669696398192 0 0 408.1621114158755,315.8743937538185 L267.4531607573609,342.0125544645359 A228.34020115940237 228.34020115940237 0.1836669696398192 0 1 225.75,345.8531034006842 Z" style="fill: rgb(207, 207, 207);"></path><title>FlightSegment → SparLoading
850µ</title></g><g class="link" style="opacity: 0.8;"><path d="M225.75,44.97431331486933 A1001 1001 0.038320259361777964 0 1 264.0991924170575,45.70917874256027 L411.2274293460135,51.349932251762155 A999 999 0.038320259361777964 0 0 449.5,52.0833294168603 L449.5,54.0833294168603 A1001 1001 0.038320259361777964 0 1 411.1508075829425,53.34846398916936 L264.0225706539865,47.707710479967474 A999 999 0.038320259361777964 0 0 225.75,46.97431331486933 Z" style="fill: rgb(207, 207, 207);"></path><title>Aircraft → CFRPFabric
850µ</title></g><g class="link" style="opacity: 0.8;"><path d="M225.75,356.04035900595403 A999 999 0.02721252228000548 0 0 252.93195466482143,355.6704914076353 L422.2636270075212,351.06141173780003 A1001 1001 0.02721252228000548 0 1 449.5,350.69080366380905 L449.5,352.69080366380905 A999 999 0.02721252228000548 0 0 422.31804533517857,353.06067126212776 L252.98637299247872,357.66975093196305 A1001 1001 0.02721252228000548 0 1 225.75,358.04035900595403 Z" style="fill: rgb(207, 207, 207);"></path><title>FlightSegment → TailBoomBending
850µ</title></g><g class="link" style="opacity: 0.8;"><path d="M225.75,48.337408890133794 A159.37161409800225 159.37161409800225 0.2683027311130719 0 1 267.99866185506875,54.0393709690773 L407.7815286947877,92.4701150792478 A157.37161409800225 157.37161409800225 0.2683027311130719 0 0 449.5,98.10052160407065 L449.5,100.10052160407065 A159.37161409800225 159.37161409800225 0.2683027311130719 0 1 407.25133814493125,94.39855952512714 L267.4684713052123,55.96781541495663 A157.37161409800225 157.37161409800225 0.2683027311130719 0 0 225.75,50.337408890133794 Z" style="fill: rgb(207, 207, 207);"></path><title>Aircraft → Propeller
1.10m</title></g><g class="link" style="opacity: 0.8;"><path d="M675.25,296.73879530655665 A221.89852414514763 221.89852414514763 0.18920087673408514 0 1 716.9833635170912,300.69860928908776 L857.6427846675608,327.63366250013087 A219.89852414514763 219.89852414514763 0.18920087673408514 0 0 899,331.55778616883237 L899,333.55778616883237 A221.89852414514763 221.89852414514763 0.18920087673408514 0 1 857.2666364829088,329.59797218630126 L716.6072153324392,302.66291897525815 A219.89852414514763 219.89852414514763 0.18920087673408514 0 0 675.25,298.73879530655665 Z" style="fill: rgb(207, 207, 207);"></path><title>AircraftDrag.1 → TailBoomAero.1
1.65m</title></g><g class="link" style="opacity: 0.8;"><path d="M450.5,140.81947861776763 A839.5537427368796 839.5537427368796 0.04908932696507895 0 1 491.6965778710252,141.83083786099266 L633.1515613564571,148.780350917355 A837.5537427368796 837.5537427368796 0.04908932696507895 0 0 674.25,149.78930088243206 L674.25,151.78930088243206 A839.5537427368796 839.5537427368796 0.04908932696507895 0 1 633.0534221289748,150.77794163920703 L491.5984386435429,143.82842858284468 A837.5537427368796 837.5537427368796 0.04908932696507895 0 0 450.5,142.81947861776763 Z" style="fill: rgb(207, 207, 207);"></path><title>AircraftDrag → FuselageAero
4.04m</title></g><g class="link" style="opacity: 0.8;"><path d="M450.5,141.41999524556857 A222.51334047921176 222.51334047921176 0.18865809654994914 0 1 492.2303678140733,145.3680981106534 L632.8947141268494,172.2249531807248 A220.51334047921176 220.51334047921176 0.18865809654994914 0 0 674.25,176.137569608398 L674.25,178.137569608398 A222.51334047921176 222.51334047921176 0.18865809654994914 0 1 632.5196321859268,174.18946674331318 L491.85528587315054,147.33261167324176 A220.51334047921176 220.51334047921176 0.18865809654994914 0 0 450.5,143.41999524556857 Z" style="fill: rgb(207, 207, 207);"></path><title>AircraftDrag → TailAero
4.57m</title></g><g class="link" style="opacity: 0.8;"><path d="M450.5,141.42998010062757 A165.93196214675072 165.93196214675072 0.2569262827465968 0 1 492.66479378637285,146.87659641535734 L632.5934240788397,183.64046298836539 A163.93196214675072 163.93196214675072 0.2569262827465968 0 0 674.25,189.0214305125395 L674.25,191.0214305125395 A165.93196214675072 165.93196214675072 0.2569262827465968 0 1 632.0852062136271,185.57481419780973 L492.15657592116037,148.81094762480168 A163.93196214675072 163.93196214675072 0.2569262827465968 0 0 450.5,143.42998010062757 Z" style="fill: rgb(207, 207, 207);"></path><title>AircraftDrag → TailAero.1
6.49m</title></g><g class="link" style="opacity: 0.8;"><path d="M225.75,343.8676583341897 A284.5069428175563 284.5069428175563 0.1454118941195306 0 0 266.97505291479195,340.86505921947014 L407.98514710699646,320.21476118808374 A286.5069428175563 286.5069428175563 0.1454118941195306 0 1 449.5,317.19105468607177 L449.5,319.19105468607177 A284.5069428175563 284.5069428175563 0.1454118941195306 0 0 408.27494708520805,322.1936538007913 L267.26485289300354,342.8439518321777 A286.5069428175563 286.5069428175563 0.1454118941195306 0 1 225.75,345.8676583341897 Z" style="fill: rgb(89, 173, 228);"></path><title>FlightSegment → SparLoading.1
15.3m</title></g><g class="link" style="opacity: 0.8;"><path d="M225.75,343.89800639779486 A385.71312595476576 385.71312595476576 0.10688270607656047 0 0 266.8976136698577,341.69692643777114 L408.1390276918123,326.5429118532083 A387.71312595476576 387.71312595476576 0.10688270607656047 0 1 449.5,324.3304188516679 L449.5,326.3304188516679 A385.71312595476576 385.71312595476576 0.10688270607656047 0 0 408.3523863301423,328.5314988116916 L267.1109723081877,343.68551339625446 A387.71312595476576 387.71312595476576 0.10688270607656047 0 1 225.75,345.89800639779486 Z" style="fill: rgb(89, 173, 228);"></path><title>FlightSegment → SparLoading.2
18.3m</title></g><g class="link" style="opacity: 0.8;"><path d="M675.25,39.01771463923671 A0 0 0 0 0 675.25,39.01771463923671 L899,39.01771463923671 A0 0 0 0 0 899,39.01771463923671 L899,41.01771463923671 A0 0 0 0 0 899,41.01771463923671 L675.25,41.01771463923671 A0 0 0 0 0 675.25,41.01771463923671 Z" style="fill: rgb(89, 173, 228);"></path><title>HorizontalTail → BoxSpar
19.6m</title></g><g class="link" style="opacity: 0.8;"><path d="M675.25,39.053166250829655 A373.63930656240785 373.63930656240785 0.11096428796507185 0 1 716.6255873683722,41.3511309478869 L857.8458860507337,57.08617616792166 A371.63930656240785 371.63930656240785 0.11096428796507185 0 0 899,59.37184042090519 L899,61.37184042090519 A373.63930656240785 373.63930656240785 0.11096428796507185 0 1 857.6244126316278,59.07387572384794 L716.4041139492663,43.338830503813185 A371.63930656240785 371.63930656240785 0.11096428796507185 0 0 675.25,41.053166250829655 Z" style="fill: rgb(89, 173, 228);"></path><title>HorizontalTail → Planform
19.6m</title></g><g class="link" style="opacity: 0.8;"><path d="M675.25,66.07137044669733 A226.7351616864939 226.7351616864939 0.18501480953027727 0 1 716.9604475604573,69.94094010672593 L857.6574746202067,96.27311599680694 A224.7351616864939 224.7351616864939 0.18501480953027727 0 0 899,100.1085527095569 L899,102.1085527095569 A226.7351616864939 226.7351616864939 0.18501480953027727 0 1 857.2895524395427,98.2389830495283 L716.5925253797933,71.9068071594473 A224.7351616864939 224.7351616864939 0.18501480953027727 0 0 675.25,68.07137044669733 Z" style="fill: rgb(89, 173, 228);"></path><title>VerticalTail → BoxSpar.1
25.9m</title></g><g class="link" style="opacity: 0.8;"><path d="M675.25,66.1187122703233 A147.30977720120973 147.30977720120973 0.2922131652009228 0 1 717.6858626571997,72.36336968776315 L857.140281892924,114.31469394635997 A145.30977720120973 145.30977720120973 0.2922131652009228 0 0 899,120.47456870325841 L899,122.47456870325841 A147.30977720120973 147.30977720120973 0.2922131652009228 0 1 856.5641373428003,116.22991128581856 L717.109718107076,74.27858702722175 A145.30977720120973 145.30977720120973 0.2922131652009228 0 0 675.25,68.1187122703233 Z" style="fill: rgb(89, 173, 228);"></path><title>VerticalTail → Planform.1
26.6m</title></g><g class="link" style="opacity: 0.8;"><path d="M675.25,39.10003548683198 A191.89135496947088 191.89135496947088 0.22021508288617953 0 1 717.1666548713577,43.73411781672027 L857.5202241623854,75.15160051849283 A189.89135496947088 189.89135496947088 0.22021508288617953 0 0 899,79.73738382698305 L899,81.73738382698305 A191.89135496947088 191.89135496947088 0.22021508288617953 0 1 857.0833451286423,77.10330149709476 L716.7297758376146,45.68581879532219 A189.89135496947088 189.89135496947088 0.22021508288617953 0 0 675.25,41.10003548683198 Z" style="fill: rgb(89, 173, 228);"></path><title>HorizontalTail → WingSecondStruct
32.3m</title></g><g class="link" style="opacity: 0.8;"><path d="M675.25,66.18110298924641 A112.76571363383314 112.76571363383314 0.3952425462630238 0 1 718.668413535459,74.8749782737377 L856.3516505582504,132.31595190091272 A110.76571363383314 110.76571363383314 0.3952425462630238 0 0 899,140.85563359225705 L899,142.85563359225705 A112.76571363383314 112.76571363383314 0.3952425462630238 0 1 855.581586464541,134.16175830776578 L717.8983494417496,76.72078468059073 A110.76571363383314 110.76571363383314 0.3952425462630238 0 0 675.25,68.18110298924641 Z" style="fill: rgb(89, 173, 228);"></path><title>VerticalTail → WingSecondStruct.1
42.5m</title></g><g class="link" style="opacity: 0.8;"><path d="M675.25,278.5937993344263 A167.61931440977148 167.61931440977148 0.25095932885911276 0 0 716.8754660255642,273.3430629850555 L856.8778672726045,237.451480597494 A169.61931440977148 169.61931440977148 0.25095932885911276 0 1 899,232.13809351639986 L899,234.13809351639986 A167.61931440977148 167.61931440977148 0.25095932885911276 0 0 857.3745339744358,239.38882986577065 L717.3721327273955,275.28041225333214 A169.61931440977148 169.61931440977148 0.25095932885911276 0 1 675.25,280.5937993344263 Z" style="fill: rgb(89, 173, 228);"></path><title>AircraftDrag.1 → FuselageAero.1
68.5m</title></g><g class="link" style="opacity: 0.8;"><path d="M675.25,296.442764520595 A999 999 0.030025510122081434 0 0 705.2409778372842,295.99248348723887 L868.9489801650436,291.07558953960597 A1001 1001 0.030025510122081434 0 1 899,290.6244070427196 L899,292.6244070427196 A999 999 0.030025510122081434 0 0 869.0090221627158,293.07468807607574 L705.3010198349564,297.99158202370865 A1001 1001 0.030025510122081434 0 1 675.25,298.442764520595 Z" style="fill: rgb(89, 173, 228);"></path><title>AircraftDrag.1 → TailAero.2
84.1m</title></g><g class="link" style="opacity: 0.8;"><path d="M450.5,66.40197774435585 A278.13590118883224 278.13590118883224 0.14879826471821156 0 0 491.7335872079122,63.328561849486135 L632.7199132245622,42.19382963502994 A280.13590118883224 280.13590118883224 0.14879826471821156 0 1 674.25,39.09831363814728 L674.25,41.09831363814728 A278.13590118883224 278.13590118883224 0.14879826471821156 0 0 633.0164127920879,44.171729533016986 L492.0300867754377,65.30646174747318 A280.13590118883224 280.13590118883224 0.14879826471821156 0 1 450.5,68.40197774435585 Z" style="fill: rgb(89, 173, 228);"></path><title>Empennage → HorizontalTail
109m</title></g><g class="link" style="opacity: 0.8;"><path d="M675.25,296.6280086592451 A521.0678311172722 521.0678311172722 0.0792907729012764 0 1 716.522592339719,298.26513434333106 L857.8858230905762,309.49748340082476 A519.0678311172722 519.0678311172722 0.0792907729012764 0 0 899,311.12832535144526 L899,313.12832535144526 A521.0678311172722 521.0678311172722 0.0792907729012764 0 1 857.727407660281,311.4911996673593 L716.3641769094238,300.2588506098656 A519.0678311172722 519.0678311172722 0.0792907729012764 0 0 675.25,298.6280086592451 Z" style="fill: rgb(89, 173, 228);"></path><title>AircraftDrag.1 → TailAero.3
121m</title></g><g class="link" style="opacity: 0.8;"><path d="M450.5,67.73470269826096 A999 999 0.007184359709108357 0 0 457.6771136078784,67.70892110445168 L667.05851779631,66.20462389882913 A1001 1001 0.007184359709108357 0 1 674.25,66.17879069021741 L674.25,68.17879069021741 A999 999 0.007184359709108357 0 0 667.0728863921216,68.2045722840267 L457.69148220369,69.70886948964925 A1001 1001 0.007184359709108357 0 1 450.5,69.73470269826096 Z" style="fill: rgb(89, 173, 228);"></path><title>Empennage → VerticalTail
145m</title></g><g class="link" style="opacity: 0.8;"><path d="M225.75,47.583211902390474 A217.60176814376962 217.60176814376962 0.1930848022197471 0 1 267.5050115049931,51.62691179887339 L408.1287630558589,79.12175857320636 A215.60176814376962 215.60176814376962 0.1930848022197471 0 0 449.5,83.12829241234537 L449.5,85.12829241234537 A217.60176814376962 217.60176814376962 0.1930848022197471 0 1 407.7449884950069,81.08459251586245 L267.1212369441411,53.58974574152949 A215.60176814376962 215.60176814376962 0.1930848022197471 0 0 225.75,49.583211902390474 Z" style="fill: rgb(89, 173, 228);"></path><title>Aircraft → Fuselage
178m</title></g><g class="link" style="opacity: 0.8;"><path d="M450.5,141.60569746685997 A114.39644943070418 114.39644943070418 0.38862215426174673 0 1 493.84637879007926,150.1360093079712 L631.6614485551887,206.56372409036905 A112.39644943070418 112.39644943070418 0.38862215426174673 0 0 674.25,214.94489997693688 L674.25,216.94489997693688 A114.39644943070418 114.39644943070418 0.38862215426174673 0 1 630.9036212099207,208.41458813582565 L493.0885514448113,151.9868733534278 A112.39644943070418 112.39644943070418 0.38862215426174673 0 0 450.5,143.60569746685997 Z" style="fill: rgb(89, 173, 228);"></path><title>AircraftDrag → WingAero
186m</title></g><g class="link" style="opacity: 0.8;"><path d="M225.75,48.613977633539406 A141.57457311443693 141.57457311443693 0.3052232128927912 0 1 268.29401980517093,55.15756863145513 L407.5569923521574,99.03495565255606 A139.57457311443693 139.57457311443693 0.3052232128927912 0 0 449.5,105.48610644946724 L449.5,107.48610644946724 A141.57457311443693 141.57457311443693 0.3052232128927912 0 1 406.95598019482907,100.94251545155153 L267.6930076478426,57.06512843045058 A139.57457311443693 139.57457311443693 0.3052232128927912 0 0 225.75,50.613977633539406 Z" style="fill: rgb(89, 173, 228);"></path><title>Aircraft → SolarCells
305m</title></g><g class="link" style="opacity: 0.8;"><path d="M450.5,358.0837214512784 A1001 1001 0.002866408618199534 0 1 453.36927109768277,358.08783370579516 L671.3864617117033,358.7127617714197 A999 999 0.002866408618199534 0 0 674.25,358.71686580964376 L674.25,360.71686580964376 A1001 1001 0.002866408618199534 0 1 671.3807289023173,360.712753555127 L453.36353828829675,360.08782548950245 A999 999 0.002866408618199534 0 0 450.5,360.0837214512784 Z" style="fill: rgb(89, 173, 228);"></path><title>TailBoomBending.1 → Beam.1
314m</title></g><g class="link" style="opacity: 0.8;"><path d="M225.75,48.04004514570892 A183.45645288118888 183.45645288118888 0.2309038773850396 0 1 267.7353861416496,52.908991592980506 L407.9723288689948,85.87827544325187 A181.45645288118888 181.45645288118888 0.2309038773850396 0 0 449.5,90.6941417576548 L449.5,92.6941417576548 A183.45645288118888 183.45645288118888 0.2309038773850396 0 1 407.5146138583504,87.82519531038322 L267.2776711310052,54.85591146011186 A181.45645288118888 181.45645288118888 0.2309038773850396 0 0 225.75,50.04004514570892 Z" style="fill: rgb(89, 173, 228);"></path><title>Aircraft → Motor
328m</title></g><g class="link" style="opacity: 0.8;"><path d="M450.5,141.11949948895077 A348.06492186042607 348.06492186042607 0.11924427999663978 0 1 491.90646019196345,143.59117071494117 L633.0814635836967,160.505728934203 A346.06492186042607 346.06492186042607 0.11924427999663978 0 0 674.25,162.9631978026977 L674.25,164.9631978026977 A348.06492186042607 348.06492186042607 0.11924427999663978 0 1 632.8435398080366,162.4915265767073 L491.66853641630314,145.57696835744545 A346.06492186042607 346.06492186042607 0.11924427999663978 0 0 450.5,143.11949948895077 Z" style="fill: rgb(89, 173, 228);"></path><title>AircraftDrag → MotorPerf
328m</title></g><g class="link" style="opacity: 0.8;"><path d="M450.5,125.75107810246058 A946.0455698369362 946.0455698369362 0.0434554556069362 0 0 491.5979036918732,124.85797349017102 L633.0652127477525,118.70657458148249 A948.0455698369362 948.0455698369362 0.0434554556069362 0 1 674.25,117.81158188971607 L674.25,119.81158188971607 A946.0455698369362 946.0455698369362 0.0434554556069362 0 0 633.1520963081267,120.70468650200563 L491.68478725224753,126.85608541069416 A948.0455698369362 948.0455698369362 0.0434554556069362 0 1 450.5,127.75107810246058 Z" style="fill: rgb(89, 173, 228);"></path><title>Wing → WingSecondStruct.2
361m</title></g><g class="link" style="opacity: 0.8;"><path d="M450.5,67.05210569419589 A521.5885621225076 521.5885621225076 0.07890612909216133 0 0 491.61383972980957,65.42919659090119 L632.9785117222143,54.251449687802996 A523.5885621225076 523.5885621225076 0.07890612909216133 0 1 674.25,52.622317637069834 L674.25,54.622317637069834 A521.5885621225076 521.5885621225076 0.07890612909216133 0 0 633.1361602701904,56.24522674036454 L491.7714882777858,67.42297364346273 A523.5885621225076 523.5885621225076 0.07890612909216133 0 1 450.5,69.05210569419589 Z" style="fill: rgb(89, 173, 228);"></path><title>Empennage → TailBoom
611m</title></g><g class="link" style="opacity: 0.8;"><path d="M225.75,356.64083287061504 A1001 1001 0.00816100115297802 0 1 233.91907147409194,356.67416695648427 L441.3472503470351,358.36702614616206 A999 999 0.00816100115297802 0 0 449.5,358.4002936304611 L449.5,360.4002936304611 A1001 1001 0.00816100115297802 0 1 441.33092852590806,360.36695954459185 L233.90274965296487,358.67410035491406 A999 999 0.00816100115297802 0 0 225.75,358.64083287061504 Z" style="fill: rgb(89, 173, 228);"></path><title>FlightSegment → TailBoomBending.1
664m</title></g><g class="link" style="opacity: 0.8;"><path d="M225.75,318.270854116221 A200.41106335138656 200.41106335138656 0.2685697634787556 0 0 278.9296255912437,311.0863979792878 L405.7877602428327,276.1726342837544 A164.73257105155523 164.73257105155523 0.2685697634787556 0 1 449.5,270.26720216213016 L449.5,272.4546624483679 A162.54511076531753 162.54511076531753 0.2685697634787556 0 0 406.36820883220963,278.2816771801786 L279.5100741806206,313.195440875712 A202.59852363762425 202.59852363762425 0.2685697634787556 0 1 225.75,320.45831440245877 Z" style="fill: rgb(89, 173, 228);"></path><title>FlightSegment → FlightState
1.21</title></g><g class="link" style="opacity: 0.8;"><path d="M225.75,45.97661580023562 A356.53803305505755 356.53803305505755 0.11644030502234304 0 1 267.17164755407254,48.39091888414948 L408.3623593958045,64.90591465778314 A354.0934349943226 354.0934349943226 0.11644030502234304 0 0 449.5,67.30366410620856 L449.5,69.74826216694355 A356.53803305505755 356.53803305505755 0.11644030502234304 0 1 408.07835244592746,67.3339590830297 L266.8876406041955,50.81896330939603 A354.0934349943226 354.0934349943226 0.11644030502234304 0 0 225.75,48.421213860970624 Z" style="fill: rgb(89, 173, 228);"></path><title>Aircraft → Empennage
1.35</title></g><g class="link" style="opacity: 0.8;"><path d="M450.5,113.87069774258175 A225.42447074685853 225.42447074685853 0.18313979143050396 0 0 491.5537973811857,110.10086315767187 L632.2673872251992,84.0385740656691 A230.5245523929767 230.5245523929767 0.18313979143050396 0 1 674.25,80.18344943167223 L674.25,85.28353107779039 A225.42447074685853 225.42447074685853 0.18313979143050396 0 0 633.1962026188144,89.05336566270027 L492.4826127748009,115.11565475470304 A230.5245523929767 230.5245523929767 0.18313979143050396 0 1 450.5,118.97077938869991 Z" style="fill: rgb(89, 173, 228);"></path><title>Wing → BoxSpar.2
2.82</title></g><g class="link" style="opacity: 0.8;"><path d="M450.5,135.91562378869017 A997.0498979165617 997.0498979165617 0.019071852563649072 0 0 469.51443589833264,135.7342980334211 L655.1230430993057,132.19396878404976 A1002.9501020834383 1002.9501020834383 0.019071852563649072 0 1 674.25,132.01157000427207 L674.25,137.91177417114875 A997.0498979165617 997.0498979165617 0.019071852563649072 0 0 655.2355641016675,138.0930999264178 L469.62695690069427,141.63342917578916 A1002.9501020834383 1002.9501020834383 0.019071852563649072 0 1 450.5,141.81582795556685 Z" style="fill: rgb(89, 173, 228);"></path><title>AircraftDrag → ActuatorProp
3.27</title></g><g class="link" style="opacity: 0.8;"><path d="M225.75,40 A0 0 0 0 0 225.75,40 L449.5,40 A0 0 0 0 0 449.5,40 L449.5,45.97354581974723 A0 0 0 0 0 449.5,45.97354581974723 L225.75,45.97354581974723 A0 0 0 0 0 225.75,45.97354581974723 Z" style="fill: rgb(89, 173, 228);"></path><title>Aircraft → Battery
3.31</title></g><g class="link" style="opacity: 0.8;"><path d="M675.25,297.74028339069855 A148.0291255186548 148.0291255186548 0.29626240235714496 0 1 718.4667312590328,304.189268560849 L857.8625338040796,346.7392400638977 A140.90707394170462 140.90707394170462 0.29626240235714496 0 0 899,352.8779484230498 L899,360 A148.0291255186548 148.0291255186548 0.29626240235714496 0 1 855.7832687409672,353.5510148298496 L716.3874661959204,311.00104332680087 A140.90707394170462 140.90707394170462 0.29626240235714496 0 0 675.25,304.86233496764874 Z" style="fill: rgb(89, 173, 228);"></path><title>AircraftDrag.1 → WingAero.1
3.94</title></g><g class="link" style="opacity: 0.8;"><path d="M450.5,118.9707793886999 A360.20186299537886 360.20186299537886 0.1136513103735215 0 0 491.3493417887076,116.6469869435729 L632.5553027330599,100.52928922504557 A367.65604964366605 367.65604964366605 0.1136513103735215 0 1 674.25,98.15740712687287 L674.25,105.61159377516009 A360.20186299537886 360.20186299537886 0.1136513103735215 0 0 633.4006582112924,107.93538622028709 L492.19469726694007,124.05308393881441 A367.65604964366605 367.65604964366605 0.1136513103735215 0 1 450.5,126.42496603698712 Z" style="fill: rgb(89, 173, 228);"></path><title>Wing → Planform.2
4.13</title></g><g class="link" style="opacity: 0.8;"><path d="M225.75,136.45579355527667 A995.8181661832854 995.8181661832854 0.002440787213810802 0 0 228.18057783396117,136.45282729215444 L447.0490082532877,135.91861496483338 A1004.1818338167146 1004.1818338167146 0.002440787213810802 0 1 449.5,135.91562378869017 L449.5,144.27929142211943 A995.8181661832854 995.8181661832854 0.002440787213810802 0 0 447.0694221660388,144.28225768524166 L228.20099174671228,144.81647001256272 A1004.1818338167146 1004.1818338167146 0.002440787213810802 0 1 225.75,144.81946118870593 Z" style="fill: rgb(89, 173, 228);"></path><title>Climb → AircraftDrag
4.63</title></g><g class="link" style="opacity: 0.8;"><path d="M1,136.45579355527667 A0 0 0 0 0 1,136.45579355527667 L224.75,136.45579355527667 A0 0 0 0 0 224.75,136.45579355527667 L224.75,146.50097558019218 A0 0 0 0 0 224.75,146.50097558019218 L1,146.50097558019218 A0 0 0 0 0 1,146.50097558019218 Z" style="fill: rgb(89, 173, 228);"></path><title>Mission → Climb
5.56</title></g><g class="link" style="opacity: 0.8;"><path d="M225.75,344.9145670230167 A598.5727630877499 598.5727630877499 0.06814988997224214 0 0 266.51109898114623,343.52509700394666 L407.91322141267324,333.8736114793627 A610.6977875755653 610.6977875755653 0.06814988997224214 0 1 449.5,332.4559955788807 L449.5,344.58102006669594 A598.5727630877499 598.5727630877499 0.06814988997224214 0 0 408.73890101885377,345.97049008576596 L267.33677858732676,355.6219756103499 A610.6977875755653 610.6977875755653 0.06814988997224214 0 1 225.75,357.03959151083194 Z" style="fill: rgb(89, 173, 228);"></path><title>FlightSegment → SteadyLevelFlight
6.71</title></g><g class="link" style="opacity: 0.8;"><path d="M225.75,49.889552824662935 A134.43735230267788 134.43735230267788 0.3416120487118395 0 1 270.7873767289805,57.65790184900831 L409.466249059698,106.96540767807716 A119.50144235856044 119.50144235856044 0.3416120487118395 0 0 449.5,113.87069774258175 L449.5,128.80660768669918 A134.43735230267788 134.43735230267788 0.3416120487118395 0 1 404.4626232710195,121.03825866235383 L265.783750940302,71.73075283328498 A119.50144235856044 119.50144235856044 0.3416120487118395 0 0 225.75,64.82546276878037 Z" style="fill: rgb(89, 173, 228);"></path><title>Aircraft → Wing
8.27</title></g><g class="link" style="opacity: 0.8;"><path d="M675.25,279.6556355035837 A282.3818043628743 282.3818043628743 0.14249628476888043 0 0 715.3523216018052,276.7935750540473 L856.3824328570618,256.56017472991795 A300.09298780440497 300.09298780440497 0.14249628476888043 0 1 899,253.51860385563282 L899,271.2297872971635 A282.3818043628743 282.3818043628743 0.14249628476888043 0 0 858.8976783981948,274.0918477466999 L717.8675671429382,294.3252480708293 A300.09298780440497 300.09298780440497 0.14249628476888043 0 1 675.25,297.3668189451144 Z" style="fill: rgb(89, 173, 228);"></path><title>AircraftDrag.1 → MotorPerf.1
9.81</title></g><g class="link" style="opacity: 0.8;"><path d="M225.75,320.4583144024587 A202.59852363762425 202.59852363762425 0.22603220510304234 0 0 271.1548475584258,315.3048757842927 L404.23728507050816,284.7009851513892 A201.96432129291418 201.96432129291418 0.22603220510304234 0 1 449.5,279.5636785503588 L449.5,303.95770005346213 A177.5702997898108 177.5702997898108 0.22603220510304234 0 0 409.70428852047644,308.47450315718515 L276.62185100839406,339.0783937900886 A226.99254514072763 226.99254514072763 0.22603220510304234 0 1 225.75,344.85233590556203 Z" style="fill: rgb(89, 173, 228);"></path><title>FlightSegment → GustL
13.5</title></g><g class="link" style="opacity: 0.8;"><path d="M1,100 A115.93225947236166 115.93225947236166 0.32130227413298407 0 0 37.611692532810636,94.06716214543562 L176.62547824467597,47.798464497289245 A152.38805302763834 152.38805302763834 0.32130227413298407 0 1 224.75,40 L224.75,76.45579355527667 A115.93225947236166 115.93225947236166 0.32130227413298407 0 0 188.13830746718938,82.38863140984105 L49.12452175532401,128.65732905798743 A152.38805302763834 152.38805302763834 0.32130227413298407 0 1 1,136.45579355527667 Z" style="fill: rgb(89, 173, 228);"></path><title>Mission → Aircraft
20.2</title></g><g class="link" style="opacity: 0.8;"><path d="M675.25,228.98709909458393 A97.20616005157117 97.20616005157117 0.3557535907514613 0 0 709.1066011150209,222.90046556126256 L847.5387810259232,171.464255609189 A147.75102412225615 147.75102412225615 0.3557535907514613 0 1 899,162.21271910648193 L899,212.7575831771669 A97.20616005157117 97.20616005157117 0.3557535907514613 0 0 865.1433988849791,218.84421671048827 L726.7112189740768,270.2804266625618 A147.75102412225615 147.75102412225615 0.3557535907514613 0 1 675.25,279.5319631652689 Z" style="fill: rgb(89, 173, 228);"></path><title>AircraftDrag.1 → ActuatorProp.1
28.0</title></g><g class="link" style="opacity: 0.8;"><path d="M450.5,151.38830752411042 A160.7633151722028 160.7633151722028 0.40966117603146635 0 1 514.5317973507813,164.69053483519141 L651.9190048438024,224.34796688308177 A56.065969735908396 56.065969735908396 0.40966117603146635 0 0 674.25,228.98709909458393 L674.25,333.68444453087835 A160.7633151722028 160.7633151722028 0.40966117603146635 0 1 610.2182026492187,320.3822172197973 L472.83099515619756,260.724785171907 A56.065969735908396 56.065969735908396 0.40966117603146635 0 0 450.5,256.08565296040484 Z" style="fill: rgb(89, 173, 228);"></path><title>AircraftPerf → AircraftDrag.1
58.0</title></g><g class="link" style="opacity: 0.8;"><path d="M225.75,206.5009755801922 A88.64118481535778 88.64118481535778 0.2961330318820139 0 0 251.61760301075253,202.64261190183433 L391.01529183036996,160.111778100308 A200.41106335138656 200.41106335138656 0.2961330318820139 0 1 449.5,151.38830752411042 L449.5,263.1581860601392 A88.64118481535778 88.64118481535778 0.2961330318820139 0 0 423.63239698924747,267.0165497384971 L284.23470816963004,309.5473835400234 A200.41106335138656 200.41106335138656 0.2961330318820139 0 1 225.75,318.270854116221 Z" style="fill: rgb(89, 173, 228);"></path><title>FlightSegment → AircraftPerf
61.9</title></g><g class="link" style="opacity: 0.8;"><path d="M1,146.50097558019218 A210.9096684599039 210.9096684599039 0.32130227413298407 0 1 67.6057917700802,157.2942860067077 L206.61957748194556,203.56298365485407 A57.4106440400961 57.4106440400961 0.32130227413298407 0 0 224.75,206.50097558019218 L224.75,360 A210.9096684599039 210.9096684599039 0.32130227413298407 0 1 158.1442082299198,349.2066895734845 L19.130422518054438,302.9379919253381 A57.4106440400961 57.4106440400961 0.32130227413298407 0 0 1,300 Z" style="fill: rgb(89, 173, 228);"></path><title>Mission → FlightSegment
85.0</title></g></g><g class="nodes"><g class="node" transform="translate(674.25,177.13344406076257)"><title>TailAero</title><text dy=".35em" text-anchor="start" transform="translate(4,0.004125547635425164)" style="display: inline;">TailAero</text><line x1="0" x2="0" y1="0" y2="1" style="display: inline; stroke: rgb(0, 0, 0);"></line><rect x="-5" y="-5" width="10" height="6" style="fill: none; visibility: hidden; pointer-events: all;"></rect></g><g class="node" transform="translate(899,162.21271910648193)"><title>ActuatorProp.1</title><text dy=".35em" text-anchor="start" transform="translate(4,25.27243203534249)" style="display: inline;">ActuatorProp.1</text><line x1="0" x2="0" y1="0" y2="50.54486407068498" style="display: inline; stroke: rgb(0, 0, 0);"></line><rect x="-5" y="-5" width="10" height="55.54486407068498" style="fill: none; visibility: hidden; pointer-events: all;"></rect></g><g class="node" transform="translate(224.75,206.5009755801922)"><title>FlightSegment</title><text dy=".35em" text-anchor="start" transform="translate(-4,-10)" style="display: inline;">FlightSegment</text><line x1="0" x2="0" y1="-5" y2="153.4990244198078" style="display: inline; stroke: rgb(0, 0, 0);"></line><rect x="-5" y="-5" width="10" height="158.4990244198078" style="fill: none; visibility: hidden; pointer-events: all;"></rect></g><g class="node" transform="translate(674.25,150.78565022023128)"><title>FuselageAero</title><text dy=".35em" text-anchor="start" transform="translate(4,0.003650662200783472)" style="display: inline;">FuselageAero</text><line x1="0" x2="0" y1="0" y2="1" style="display: inline; stroke: rgb(0, 0, 0);"></line><rect x="-5" y="-5" width="10" height="6" style="fill: none; visibility: hidden; pointer-events: all;"></rect></g><g class="node" transform="translate(449.5,76.85727826893454)"><title>FoamHD</title><text dy=".35em" text-anchor="start" transform="translate(4,0.0007674951220977277)" style="display: inline;">FoamHD</text><line x1="0" x2="0" y1="0" y2="1" style="display: inline; stroke: rgb(0, 0, 0);"></line><rect x="-5" y="-5" width="10" height="6" style="fill: none; visibility: hidden; pointer-events: all;"></rect></g><g class="node" transform="translate(674.25,53.07050332537707)"><title>TailBoom</title><text dy=".35em" text-anchor="start" transform="translate(4,0.5518143116927696)" style="display: inline;">TailBoom</text><line x1="0" x2="0" y1="0" y2="1.1036286233855392" style="display: inline; stroke: rgb(0, 0, 0);"></line><rect x="-5" y="-5" width="10" height="6.103628623385539" style="fill: none; visibility: hidden; pointer-events: all;"></rect></g><g class="node" transform="translate(449.5,279.5636785503588)"><title>GustL</title><text dy=".35em" text-anchor="start" transform="translate(4,12.197010751551687)" style="display: inline;">GustL</text><line x1="0" x2="0" y1="0" y2="24.394021503103374" style="display: inline; stroke: rgb(0, 0, 0);"></line><rect x="-5" y="-5" width="10" height="29.394021503103374" style="fill: none; visibility: hidden; pointer-events: all;"></rect></g><g class="node" transform="translate(449.5,351.69003616868696)"><title>TailBoomBending</title><text dy=".35em" text-anchor="start" transform="translate(4,0.0007674951220906223)" style="display: inline;">TailBoomBending</text><line x1="0" x2="0" y1="0" y2="1" style="display: inline; stroke: rgb(0, 0, 0);"></line><rect x="-5" y="-5" width="10" height="6" style="fill: none; visibility: hidden; pointer-events: all;"></rect></g><g class="node" transform="translate(899,141.81722224810773)"><title>WingSecondStruct.1</title><text dy=".35em" text-anchor="start" transform="translate(4,0.03841134414933833)" style="display: inline;">WingSecondStruct.1</text><line x1="0" x2="0" y1="0" y2="1" style="display: inline; stroke: rgb(0, 0, 0);"></line><rect x="-5" y="-5" width="10" height="6" style="fill: none; visibility: hidden; pointer-events: all;"></rect></g><g class="node" transform="translate(674.25,190.01557120511592)"><title>TailAero.1</title><text dy=".35em" text-anchor="start" transform="translate(4,0.005859307423591531)" style="display: inline;">TailAero.1</text><line x1="0" x2="0" y1="0" y2="1" style="display: inline; stroke: rgb(0, 0, 0);"></line><rect x="-5" y="-5" width="10" height="6" style="fill: none; visibility: hidden; pointer-events: all;"></rect></g><g class="node" transform="translate(449.5,318.17726724768835)"><title>SparLoading.1</title><text dy=".35em" text-anchor="start" transform="translate(4,0.013787438383417339)" style="display: inline;">SparLoading.1</text><line x1="0" x2="0" y1="0" y2="1" style="display: inline; stroke: rgb(0, 0, 0);"></line><rect x="-5" y="-5" width="10" height="6" style="fill: none; visibility: hidden; pointer-events: all;"></rect></g><g class="node" transform="translate(899,312.01902678827565)"><title>TailAero.3</title><text dy=".35em" text-anchor="start" transform="translate(4,0.1092985631696024)" style="display: inline;">TailAero.3</text><line x1="0" x2="0" y1="0" y2="1" style="display: inline; stroke: rgb(0, 0, 0);"></line><rect x="-5" y="-5" width="10" height="6" style="fill: none; visibility: hidden; pointer-events: all;"></rect></g><g class="node" transform="translate(899,291.54846146723906)"><title>TailAero.2</title><text dy=".35em" text-anchor="start" transform="translate(4,0.07594557548051739)" style="display: inline;">TailAero.2</text><line x1="0" x2="0" y1="0" y2="1" style="display: inline; stroke: rgb(0, 0, 0);"></line><rect x="-5" y="-5" width="10" height="6" style="fill: none; visibility: hidden; pointer-events: all;"></rect></g><g class="node" transform="translate(449.5,135.91562378869017)"><title>AircraftDrag</title><text dy=".35em" text-anchor="start" transform="translate(4,4.181833816714629)" style="display: inline;">AircraftDrag</text><line x1="0" x2="0" y1="0" y2="8.363667633429259" style="display: inline; stroke: rgb(0, 0, 0);"></line><rect x="-5" y="-5" width="10" height="13.363667633429259" style="fill: none; visibility: hidden; pointer-events: all;"></rect></g><g class="node" transform="translate(674.25,132.01157000427207)"><title>ActuatorProp</title><text dy=".35em" text-anchor="start" transform="translate(4,2.9501020834383382)" style="display: inline;">ActuatorProp</text><line x1="0" x2="0" y1="0" y2="5.9002041668766765" style="display: inline; stroke: rgb(0, 0, 0);"></line><rect x="-5" y="-5" width="10" height="10.900204166876676" style="fill: none; visibility: hidden; pointer-events: all;"></rect></g><g class="node" transform="translate(899,101.08519026070468)"><title>BoxSpar.1</title><text dy=".35em" text-anchor="start" transform="translate(4,0.023362448852218165)" style="display: inline;">BoxSpar.1</text><line x1="0" x2="0" y1="0" y2="1" style="display: inline; stroke: rgb(0, 0, 0);"></line><rect x="-5" y="-5" width="10" height="6" style="fill: none; visibility: hidden; pointer-events: all;"></rect></g><g class="node" transform="translate(674.25,80.18344943167223)"><title>BoxSpar.2</title><text dy=".35em" text-anchor="start" transform="translate(4,2.5500408230590708)" style="display: inline;">BoxSpar.2</text><line x1="0" x2="0" y1="0" y2="5.1000816461181415" style="display: inline; stroke: rgb(0, 0, 0);"></line><rect x="-5" y="-5" width="10" height="10.100081646118142" style="fill: none; visibility: hidden; pointer-events: all;"></rect></g><g class="node" transform="translate(674.25,346.5583205799608)"><title>Beam</title><text dy=".35em" text-anchor="start" transform="translate(4,0.0007674951220906223)" style="display: inline;">Beam</text><line x1="0" x2="0" y1="0" y2="1" style="display: inline; stroke: rgb(0, 0, 0);"></line><rect x="-5" y="-5" width="10" height="6" style="fill: none; visibility: hidden; pointer-events: all;"></rect></g><g class="node" transform="translate(224.75,40)"><title>Aircraft</title><text dy=".35em" text-anchor="start" transform="translate(-4,-10)" style="display: inline;">Aircraft</text><line x1="0" x2="0" y1="-5" y2="36.45579355527667" style="display: inline; stroke: rgb(0, 0, 0);"></line><rect x="-5" y="-5" width="10" height="41.45579355527667" style="fill: none; visibility: hidden; pointer-events: all;"></rect></g><g class="node" transform="translate(449.5,60.19311301397338)"><title>CFRPUD</title><text dy=".35em" text-anchor="start" transform="translate(4,0.0007674951220977277)" style="display: inline;">CFRPUD</text><line x1="0" x2="0" y1="0" y2="1" style="display: inline; stroke: rgb(0, 0, 0);"></line><rect x="-5" y="-5" width="10" height="6" style="fill: none; visibility: hidden; pointer-events: all;"></rect></g><g class="node" transform="translate(674.25,67.0480079978451)"><title>VerticalTail</title><text dy=".35em" text-anchor="start" transform="translate(4,0.1307826923723141)" style="display: inline;">VerticalTail</text><line x1="0" x2="0" y1="0" y2="1" style="display: inline; stroke: rgb(0, 0, 0);"></line><rect x="-5" y="-5" width="10" height="6" style="fill: none; visibility: hidden; pointer-events: all;"></rect></g><g class="node" transform="translate(449.5,99.09952805178857)"><title>Propeller</title><text dy=".35em" text-anchor="start" transform="translate(4,0.0009935522820825327)" style="display: inline;">Propeller</text><line x1="0" x2="0" y1="0" y2="1" style="display: inline; stroke: rgb(0, 0, 0);"></line><rect x="-5" y="-5" width="10" height="6" style="fill: none; visibility: hidden; pointer-events: all;"></rect></g><g class="node" transform="translate(674.25,359.4337316192875)"><title>Beam.1</title><text dy=".35em" text-anchor="start" transform="translate(4,0.2831341903562361)" style="display: inline;">Beam.1</text><line x1="0" x2="0" y1="0" y2="1" style="display: inline; stroke: rgb(0, 0, 0);"></line><rect x="-5" y="-5" width="10" height="6" style="fill: none; visibility: hidden; pointer-events: all;"></rect></g><g class="node" transform="translate(674.25,228.98709909458393)"><title>AircraftDrag.1</title><text dy=".35em" text-anchor="start" transform="translate(4,52.348672718147185)" style="display: inline;">AircraftDrag.1</text><line x1="0" x2="0" y1="0" y2="104.69734543629437" style="display: inline; stroke: rgb(0, 0, 0);"></line><rect x="-5" y="-5" width="10" height="109.69734543629437" style="fill: none; visibility: hidden; pointer-events: all;"></rect></g><g class="node" transform="translate(449.5,67.30366410620856)"><title>Empennage</title><text dy=".35em" text-anchor="start" transform="translate(4,1.2222990303675019)" style="display: inline;">Empennage</text><line x1="0" x2="0" y1="0" y2="2.4445980607350037" style="display: inline; stroke: rgb(0, 0, 0);"></line><rect x="-5" y="-5" width="10" height="7.444598060735004" style="fill: none; visibility: hidden; pointer-events: all;"></rect></g><g class="node" transform="translate(899,60.354103448548955)"><title>Planform</title><text dy=".35em" text-anchor="start" transform="translate(4,0.017736972356232172)" style="display: inline;">Planform</text><line x1="0" x2="0" y1="0" y2="1" style="display: inline; stroke: rgb(0, 0, 0);"></line><rect x="-5" y="-5" width="10" height="6" style="fill: none; visibility: hidden; pointer-events: all;"></rect></g><g class="node" transform="translate(449.5,83.96782936116972)"><title>Fuselage</title><text dy=".35em" text-anchor="start" transform="translate(4,0.16046305117566106)" style="display: inline;">Fuselage</text><line x1="0" x2="0" y1="0" y2="1" style="display: inline; stroke: rgb(0, 0, 0);"></line><rect x="-5" y="-5" width="10" height="6" style="fill: none; visibility: hidden; pointer-events: all;"></rect></g><g class="node" transform="translate(899,253.51860385563282)"><title>MotorPerf.1</title><text dy=".35em" text-anchor="start" transform="translate(4,8.855591720765347)" style="display: inline;">MotorPerf.1</text><line x1="0" x2="0" y1="0" y2="17.711183441530693" style="display: inline; stroke: rgb(0, 0, 0);"></line><rect x="-5" y="-5" width="10" height="22.711183441530693" style="fill: none; visibility: hidden; pointer-events: all;"></rect></g><g class="node" transform="translate(449.5,332.4559955788807)"><title>SteadyLevelFlight</title><text dy=".35em" text-anchor="start" transform="translate(4,6.0625122439076335)" style="display: inline;">SteadyLevelFlight</text><line x1="0" x2="0" y1="0" y2="12.125024487815267" style="display: inline; stroke: rgb(0, 0, 0);"></line><rect x="-5" y="-5" width="10" height="17.125024487815267" style="fill: none; visibility: hidden; pointer-events: all;"></rect></g><g class="node" transform="translate(449.5,311.06671615545315)"><title>SparLoading</title><text dy=".35em" text-anchor="start" transform="translate(4,0.0007674951220906223)" style="display: inline;">SparLoading</text><line x1="0" x2="0" y1="0" y2="1" style="display: inline; stroke: rgb(0, 0, 0);"></line><rect x="-5" y="-5" width="10" height="6" style="fill: none; visibility: hidden; pointer-events: all;"></rect></g><g class="node" transform="translate(899,332.5562980846904)"><title>TailBoomAero.1</title><text dy=".35em" text-anchor="start" transform="translate(4,0.001488084141925583)" style="display: inline;">TailBoomAero.1</text><line x1="0" x2="0" y1="0" y2="1" style="display: inline; stroke: rgb(0, 0, 0);"></line><rect x="-5" y="-5" width="10" height="6" style="fill: none; visibility: hidden; pointer-events: all;"></rect></g><g class="node" transform="translate(449.5,53.082561921738204)"><title>CFRPFabric</title><text dy=".35em" text-anchor="start" transform="translate(4,0.0007674951220977277)" style="display: inline;">CFRPFabric</text><line x1="0" x2="0" y1="0" y2="1" style="display: inline; stroke: rgb(0, 0, 0);"></line><rect x="-5" y="-5" width="10" height="6" style="fill: none; visibility: hidden; pointer-events: all;"></rect></g><g class="node" transform="translate(449.5,106.21053125834372)"><title>SolarCells</title><text dy=".35em" text-anchor="start" transform="translate(4,0.27557519112352225)" style="display: inline;">SolarCells</text><line x1="0" x2="0" y1="0" y2="1" style="display: inline; stroke: rgb(0, 0, 0);"></line><rect x="-5" y="-5" width="10" height="6" style="fill: none; visibility: hidden; pointer-events: all;"></rect></g><g class="node" transform="translate(449.5,270.26720216213016)"><title>FlightState</title><text dy=".35em" text-anchor="start" transform="translate(4,1.0937301431188473)" style="display: inline;">FlightState</text><line x1="0" x2="0" y1="0" y2="2.1874602862376946" style="display: inline; stroke: rgb(0, 0, 0);"></line><rect x="-5" y="-5" width="10" height="7.187460286237695" style="fill: none; visibility: hidden; pointer-events: all;"></rect></g><g class="node" transform="translate(674.25,202.9011658690456)"><title>TailBoomAero</title><text dy=".35em" text-anchor="start" transform="translate(4,0.0007674951221048332)" style="display: inline;">TailBoomAero</text><line x1="0" x2="0" y1="0" y2="1" style="display: inline; stroke: rgb(0, 0, 0);"></line><rect x="-5" y="-5" width="10" height="6" style="fill: none; visibility: hidden; pointer-events: all;"></rect></g><g class="node" transform="translate(674.25,98.15740712687287)"><title>Planform.2</title><text dy=".35em" text-anchor="start" transform="translate(4,3.7270933241436026)" style="display: inline;">Planform.2</text><line x1="0" x2="0" y1="0" y2="7.454186648287205" style="display: inline; stroke: rgb(0, 0, 0);"></line><rect x="-5" y="-5" width="10" height="12.454186648287205" style="fill: none; visibility: hidden; pointer-events: all;"></rect></g><g class="node" transform="translate(899,121.45058932848465)"><title>Planform.1</title><text dy=".35em" text-anchor="start" transform="translate(4,0.023979374773766438)" style="display: inline;">Planform.1</text><line x1="0" x2="0" y1="0" y2="1" style="display: inline; stroke: rgb(0, 0, 0);"></line><rect x="-5" y="-5" width="10" height="6" style="fill: none; visibility: hidden; pointer-events: all;"></rect></g><g class="node" transform="translate(449.5,358.80058726092216)"><title>TailBoomBending.1</title><text dy=".35em" text-anchor="start" transform="translate(4,0.5997063695388931)" style="display: inline;">TailBoomBending.1</text><line x1="0" x2="0" y1="0" y2="1.1994127390777862" style="display: inline; stroke: rgb(0, 0, 0);"></line><rect x="-5" y="-5" width="10" height="6.199412739077786" style="fill: none; visibility: hidden; pointer-events: all;"></rect></g><g class="node" transform="translate(224.75,136.45579355527667)"><title>Climb</title><text dy=".35em" text-anchor="start" transform="translate(-4,-10)" style="display: inline;">Climb</text><line x1="0" x2="0" y1="-5" y2="10.045182024915533" style="display: inline; stroke: rgb(0, 0, 0);"></line><rect x="-5" y="-5" width="10" height="15.045182024915533" style="fill: none; visibility: hidden; pointer-events: all;"></rect></g><g class="node" transform="translate(899,233.07625734724246)"><title>FuselageAero.1</title><text dy=".35em" text-anchor="start" transform="translate(4,0.06183616915741652)" style="display: inline;">FuselageAero.1</text><line x1="0" x2="0" y1="0" y2="1" style="display: inline; stroke: rgb(0, 0, 0);"></line><rect x="-5" y="-5" width="10" height="6" style="fill: none; visibility: hidden; pointer-events: all;"></rect></g><g class="node" transform="translate(449.5,113.87069774258175)"><title>Wing</title><text dy=".35em" text-anchor="start" transform="translate(4,7.467954972058713)" style="display: inline;">Wing</text><line x1="0" x2="0" y1="0" y2="14.935909944117427" style="display: inline; stroke: rgb(0, 0, 0);"></line><rect x="-5" y="-5" width="10" height="19.935909944117427" style="fill: none; visibility: hidden; pointer-events: all;"></rect></g><g class="node" transform="translate(899,80.70825156333696)"><title>WingSecondStruct</title><text dy=".35em" text-anchor="start" transform="translate(4,0.02913226364609045)" style="display: inline;">WingSecondStruct</text><line x1="0" x2="0" y1="0" y2="1" style="display: inline; stroke: rgb(0, 0, 0);"></line><rect x="-5" y="-5" width="10" height="6" style="fill: none; visibility: hidden; pointer-events: all;"></rect></g><g class="node" transform="translate(899,40)"><title>BoxSpar</title><text dy=".35em" text-anchor="start" transform="translate(4,0.01771463923671135)" style="display: inline;">BoxSpar</text><line x1="0" x2="0" y1="0" y2="1" style="display: inline; stroke: rgb(0, 0, 0);"></line><rect x="-5" y="-5" width="10" height="6" style="fill: none; visibility: hidden; pointer-events: all;"></rect></g><g class="node" transform="translate(449.5,151.38830752411042)"><title>AircraftPerf</title><text dy=".35em" text-anchor="start" transform="translate(4,55.88493926801439)" style="display: inline;">AircraftPerf</text><line x1="0" x2="0" y1="0" y2="111.76987853602878" style="display: inline; stroke: rgb(0, 0, 0);"></line><rect x="-5" y="-5" width="10" height="116.76987853602878" style="fill: none; visibility: hidden; pointer-events: all;"></rect></g><g class="node" transform="translate(449.5,40)"><title>Battery</title><text dy=".35em" text-anchor="start" transform="translate(4,2.986772909873615)" style="display: inline;">Battery</text><line x1="0" x2="0" y1="0" y2="5.97354581974723" style="display: inline; stroke: rgb(0, 0, 0);"></line><rect x="-5" y="-5" width="10" height="10.97354581974723" style="fill: none; visibility: hidden; pointer-events: all;"></rect></g><g class="node" transform="translate(674.25,118.48546982424259)"><title>WingSecondStruct.2</title><text dy=".35em" text-anchor="start" transform="translate(4,0.32611206547348814)" style="display: inline;">WingSecondStruct.2</text><line x1="0" x2="0" y1="0" y2="1" style="display: inline; stroke: rgb(0, 0, 0);"></line><rect x="-5" y="-5" width="10" height="6" style="fill: none; visibility: hidden; pointer-events: all;"></rect></g><g class="node" transform="translate(0,100)"><title>Mission</title><text dy=".35em" text-anchor="end" transform="translate(-4,100)" style="display: inline;">Mission</text><line x1="0" x2="0" y1="0" y2="200" style="display: inline; stroke: rgb(0, 0, 0);"></line><rect x="-5" y="-5" width="10" height="205" style="fill: none; visibility: hidden; pointer-events: all;"></rect></g><g class="node" transform="translate(674.25,215.7765769083723)"><title>WingAero</title><text dy=".35em" text-anchor="start" transform="translate(4,0.16832306856456114)" style="display: inline;">WingAero</text><line x1="0" x2="0" y1="0" y2="1" style="display: inline; stroke: rgb(0, 0, 0);"></line><rect x="-5" y="-5" width="10" height="6" style="fill: none; visibility: hidden; pointer-events: all;"></rect></g><g class="node" transform="translate(899,352.8779484230498)"><title>WingAero.1</title><text dy=".35em" text-anchor="start" transform="translate(4,3.561025788475092)" style="display: inline;">WingAero.1</text><line x1="0" x2="0" y1="0" y2="7.122051576950184" style="display: inline; stroke: rgb(0, 0, 0);"></line><rect x="-5" y="-5" width="10" height="12.122051576950184" style="fill: none; visibility: hidden; pointer-events: all;"></rect></g><g class="node" transform="translate(674.25,40)"><title>HorizontalTail</title><text dy=".35em" text-anchor="start" transform="translate(-4,-10)" style="display: inline;">HorizontalTail</text><line x1="0" x2="0" y1="-5" y2="1" style="display: inline; stroke: rgb(0, 0, 0);"></line><rect x="-5" y="-5" width="10" height="6" style="fill: none; visibility: hidden; pointer-events: all;"></rect></g><g class="node" transform="translate(449.5,325.31385822644614)"><title>SparLoading.2</title><text dy=".35em" text-anchor="start" transform="translate(4,0.016560625221785585)" style="display: inline;">SparLoading.2</text><line x1="0" x2="0" y1="0" y2="1" style="display: inline; stroke: rgb(0, 0, 0);"></line><rect x="-5" y="-5" width="10" height="6" style="fill: none; visibility: hidden; pointer-events: all;"></rect></g><g class="node" transform="translate(449.5,91.39777156551202)"><title>Motor</title><text dy=".35em" text-anchor="start" transform="translate(4,0.29637019214278837)" style="display: inline;">Motor</text><line x1="0" x2="0" y1="0" y2="1" style="display: inline; stroke: rgb(0, 0, 0);"></line><rect x="-5" y="-5" width="10" height="6" style="fill: none; visibility: hidden; pointer-events: all;"></rect></g><g class="node" transform="translate(674.25,163.66682759371534)"><title>MotorPerf</title><text dy=".35em" text-anchor="start" transform="translate(4,0.296370208982367)" style="display: inline;">MotorPerf</text><line x1="0" x2="0" y1="0" y2="1" style="display: inline; stroke: rgb(0, 0, 0);"></line><rect x="-5" y="-5" width="10" height="6" style="fill: none; visibility: hidden; pointer-events: all;"></rect></g></g><g class="slice-titles"></g></g></svg>
