<?xml version="1.0" encoding="utf-8" standalone="no"?>
<!DOCTYPE svg PUBLIC "-//W3C//DTD SVG 1.1//EN"
  "http://www.w3.org/Graphics/SVG/1.1/DTD/svg11.dtd">
<svg width="950" height="400" viewBox="0 0 950 400" xmlns="http://www.w3.org/2000/svg" xmlns:xlink="http://www.w3.org/1999/xlink"><g class="sankey" transform="translate(120,0)"><g class="groups"></g><g class="links"><g class="link" style="opacity: 0.8;"><path d="M556.0140063907461,39 A0 0 0 0 0 556.0140063907461,39 L724.9999999999999,39 A0 0 0 0 0 724.9999999999999,39 L724.9999999999999,41 A0 0 0 0 0 724.9999999999999,41 L556.0140063907461,41 A0 0 0 0 0 556.0140063907461,41 Z" style="fill: rgb(207, 207, 207);"></path><title>WingAero → Ⓐ ❶≤❷
0.000001y</title></g><g class="link" style="opacity: 0.8;"><path d="M0,39 A30.48761789785833 30.48761789785833 1.3127433175599794 0 1 29.47813261331006,61.70722313165802 L57.0417760534496,166.1395509312972 A28.48761789785833 28.48761789785833 1.3127433175599794 0 0 84.58613130756619,187.35717108985753 L84.58613130756619,189.35717108985753 A30.48761789785833 30.48761789785833 1.3127433175599794 0 1 55.10799869425613,166.6499479581995 L27.54435525411659,62.21762015856033 A28.48761789785833 28.48761789785833 1.3127433175599794 0 0 0,41 Z" style="fill: rgb(207, 207, 207);"></path><title>CL [-] ❶ → Mission
0.000001y</title></g><g class="link" style="opacity: 0.8;"><path d="M192.45791926729612,296.36502067971355 A99.8870295599033 99.8870295599033 0.3844396683204989 0 1 229.91952718967187,303.6559023382533 L349.05643469336627,351.85510089176057 A97.8870295599033 97.8870295599033 0.3844396683204989 0 0 385.76796308915226,359 L385.76796308915226,361 A99.8870295599033 99.8870295599033 0.3844396683204989 0 1 348.30635516677654,353.7091183414602 L229.16944766308208,305.509919787953 A97.8870295599033 97.8870295599033 0.3844396683204989 0 0 192.45791926729612,298.36502067971355 Z" style="fill: rgb(207, 207, 207);"></path><title>FlightSegment → Ⓑ ❶=❸
0.000001y</title></g><g class="link" style="opacity: 0.8;"><path d="M0,358.9999999999716 A28.48761789785832 28.48761789785832 1.3127433175599792 0 0 27.54435525411658,337.7823798414113 L55.10799869425614,233.35005204177213 A30.48761789785832 30.48761789785832 1.3127433175599792 0 1 84.58613130756619,210.6428289101141 L84.58613130756619,212.6428289101141 A28.48761789785832 28.48761789785832 1.3127433175599792 0 0 57.04177605344961,233.86044906867443 L29.478132613310052,338.2927768683136 A30.48761789785832 30.48761789785832 1.3127433175599792 0 1 0,360.9999999999716 Z" style="fill: rgb(207, 207, 207);"></path><title>cl [-] ❸ → Mission
1.41p</title></g><g class="link" style="opacity: 0.8;"><path d="M385.76796308915226,166.4788446498606 A265.1739757066964 265.1739757066964 0.11829106842679016 0 0 417.0625735905744,164.6257468576583 L524.4833651067555,151.85922467043926 A267.1739757066964 267.1739757066964 0.11829106842679016 0 1 556.0140063907461,149.99215041024257 L556.0140063907461,151.99215041024257 A265.1739757066964 265.1739757066964 0.11829106842679016 0 0 524.7193958893239,153.84524820244488 L417.2986043731429,166.61177038966392 A267.1739757066964 267.1739757066964 0.11829106842679016 0 1 385.76796308915226,168.4788446498606 Z" style="fill: rgb(207, 207, 207);"></path><title>GustL → Ⓒ
2.08p</title></g><g class="link" style="opacity: 0.8;"><path d="M385.76796308915226,166.4800377421794 A1238.9818561847133 1238.9818561847133 0.02527950726709416 0 1 417.08547808313506,166.87590449801206 L524.7470450264838,169.59811576618466 A1236.9818561847133 1236.9818561847133 0.02527950726709416 0 0 556.0140063907461,169.99334350256137 L556.0140063907461,171.99334350256137 A1238.9818561847133 1238.9818561847133 0.02527950726709416 0 1 524.6964913967632,171.59747674672872 L417.03492445341453,168.87526547855612 A1236.9818561847133 1236.9818561847133 0.02527950726709416 0 0 385.76796308915226,168.4800377421794 Z" style="fill: rgb(89, 173, 228);"></path><title>GustL → Ⓓ
59.5µ</title></g><g class="link" style="opacity: 0.8;"><path d="M385.76796308915226,166.49461556743225 A189.42474411273227 189.42474411273227 0.16819207832297445 0 1 417.47770569202436,169.1675835005691 L524.6390642148341,187.36317534578154 A187.42474411273227 187.42474411273227 0.16819207832297445 0 0 556.0140063907461,190.00792132781422 L556.0140063907461,192.00792132781422 A189.42474411273227 189.42474411273227 0.16819207832297445 0 1 524.304263787874,189.33495339467737 L417.14290526506426,171.13936154946492 A187.42474411273227 187.42474411273227 0.16819207832297445 0 0 385.76796308915226,168.49461556743225 Z" style="fill: rgb(89, 173, 228);"></path><title>GustL → Ⓔ
667µ</title></g><g class="link" style="opacity: 0.8;"><path d="M385.76796308915226,166.68931736381123 A78.97812176481497 78.97812176481497 0.4382910614026936 0 1 419.2856997521884,174.15446795216548 L523.3450550853271,222.9265160436242 A76.97812176481497 76.97812176481497 0.4382910614026936 0 0 556.0140063907461,230.2026231241932 L556.0140063907461,232.2026231241932 A78.97812176481497 78.97812176481497 0.4382910614026936 0 1 522.49626972771,224.73747253583895 L418.4369143945713,175.96542444438023 A76.97812176481497 76.97812176481497 0.4382910614026936 0 0 385.76796308915226,168.68931736381123 Z" style="fill: rgb(89, 173, 228);"></path><title>GustL → Ⓖ
2.86m</title></g><g class="link" style="opacity: 0.8;"><path d="M385.76796308915226,166.56998185525578 A107.44028015733184 107.44028015733184 0.30685388256159074 0 1 418.2214792322291,171.58866716932712 L524.1646122044541,205.15802509061203 A105.44028015733184 105.44028015733184 0.30685388256159074 0 0 556.0140063907461,210.08328761563774 L556.0140063907461,212.08328761563774 A107.44028015733184 107.44028015733184 0.30685388256159074 0 1 523.5604902476692,207.0646023015664 L417.61735727544436,173.4952443802815 A105.44028015733184 105.44028015733184 0.30685388256159074 0 0 385.76796308915226,168.56998185525578 Z" style="fill: rgb(89, 173, 228);"></path><title>GustL → Ⓕ
3.09m</title></g><g class="link" style="opacity: 0.8;"><path d="M192.45791926729612,187.49108442376436 A270.60709695159517 270.60709695159517 0.13183261197812612 0 0 228.02951228489638,185.14293455643744 L349.93346792731177,168.97826253159195 A272.60709695159517 272.60709695159517 0.13183261197812612 0 1 385.76796308915226,166.61275798366887 L385.76796308915226,168.61275798366887 A270.60709695159517 270.60709695159517 0.13183261197812612 0 0 350.196370071552,170.9609078509958 L228.2924144291366,187.12557987584128 A272.60709695159517 272.60709695159517 0.13183261197812612 0 1 192.45791926729612,189.49108442376436 Z" style="fill: rgb(89, 173, 228);"></path><title>FlightSegment → GustL
6.67m</title></g><g class="link" style="opacity: 0.8;"><path d="M556.0140063907461,128.3571710899143 A46.79518435895185 46.79518435895185 1.1372121154428112 0 1 598.4790339888737,155.49247980636633 L678.049514310362,327.36348775637543 A51.73802438988189 51.73802438988189 1.1372121154428112 0 0 724.9999999999999,357.36502067971355 L724.9999999999999,360 A54.37300371016834 54.37300371016834 1.1372121154428112 0 1 675.6583607955441,328.47051119195 L596.0878804740557,156.59950324194088 A44.1602050386654 44.1602050386654 1.1372121154428112 0 0 556.0140063907461,130.99215041020074 Z" style="fill: rgb(89, 173, 228);"></path><title>WingAero → Ⓘ
65.7m</title></g><g class="link" style="opacity: 0.8;"><path d="M84.58613130756619,188.35717108985753 A21.57718636397609 21.57718636397609 0.8282903922490796 0 0 100.48369559779424,181.36910467959424 L159.40402903206603,117.16442394868916 A44.86284418414757 44.86284418414757 0.8282903922490796 0 1 192.45791926729612,102.63497932028646 L192.45791926729612,125.92063714045794 A21.57718636397609 21.57718636397609 0.8282903922490796 0 0 176.56035497706807,132.9087035507212 L117.6400215427963,197.1133842816263 A44.86284418414757 44.86284418414757 0.8282903922490796 0 1 84.58613130756619,211.642828910029 Z" style="fill: rgb(89, 173, 228);"></path><title>Mission → FlightSegment
580m</title></g><g class="link" style="opacity: 0.8;"><path d="M0,188.3571710898575 A0 0 0 0 1 0,188.3571710898575 L84.58613130756619,188.35717108985753 A0 0 0 0 0 84.58613130756619,188.35717108985753 L84.58613130756619,211.64282891008574 A0 0 0 0 1 84.58613130756619,211.64282891008574 L0,211.6428289100857 A0 0 0 0 0 0,211.6428289100857 Z" style="fill: rgb(89, 173, 228);"></path><title>CLstall [-] ❷ → Mission
580m</title></g><g class="link" style="opacity: 0.8;"><path d="M385.76796308915226,39.99999999999999 A0 0 0 0 0 385.76796308915226,39.99999999999999 L556.0140063907461,39.99999999999999 A0 0 0 0 0 556.0140063907461,39.99999999999999 L556.0140063907461,125.72219176962778 A0 0 0 0 0 556.0140063907461,125.72219176962778 L385.76796308915226,125.72219176962778 A0 0 0 0 0 385.76796308915226,125.72219176962778 Z" style="fill: rgb(250, 51, 51);"></path><title>AircraftPerf → WingAero
2.14</title></g><g class="link" style="opacity: 0.8;"><path d="M192.45791926729612,102.63497932028648 A56.02593367508937 56.02593367508937 0.38443966832049936 0 0 213.4698721711768,98.545574979863 L332.60677967487123,50.346376426355754 A141.74812544471718 141.74812544471718 0.38443966832049936 0 1 385.76796308915226,39.99999999999999 L385.76796308915226,125.72219176962778 A56.02593367508937 56.02593367508937 0.38443966832049936 0 0 364.7560101852716,129.81159611005125 L245.61910268157715,178.01079466355853 A141.74812544471718 141.74812544471718 0.38443966832049936 0 1 192.45791926729612,188.35717108991426 Z" style="fill: rgb(250, 51, 51);"></path><title>FlightSegment → AircraftPerf
2.14</title></g><g class="link" style="opacity: 0.8;"><path d="M556.0140063907461,40.00000000000001 A135.15235544886613 135.15235544886613 0.8289069177788703 0 1 655.6474086180992,83.8323448050915 L717.3290057468445,151.12917639139818 A10.405676397388255 10.405676397388255 0.8289069177788703 0 0 724.9999999999999,154.50392479489963 L724.9999999999999,242.86109588481392 A98.76284748730254 98.76284748730254 0.8289069177788703 0 1 652.1926968927738,210.83052438187065 L590.5110997640286,143.53369279556398 A46.79518435895185 46.79518435895185 0.8289069177788703 0 0 556.0140063907461,128.3571710899143 Z" style="fill: rgb(250, 51, 51);"></path><title>WingAero → Ⓗ
2.20</title></g><g class="link" style="opacity: 0.8;"><path d="M192.45791926729612,188.62499775761447 A325.9771084126444 325.9771084126444 0.13183261197812546 0 1 235.30795965475437,191.45361205669795 L357.2119152971702,207.61828408154352 A217.2370854905453 217.2370854905453 0.13183261197812546 0 0 385.76796308915226,209.50332419771 L385.76796308915226,318.2433471198091 A325.9771084126444 325.9771084126444 0.13183261197812546 0 1 342.917922701694,315.4147328207256 L221.01396705927817,299.25006079588 A217.2370854905453 217.2370854905453 0.13183261197812546 0 0 192.45791926729612,297.36502067971355 Z" style="fill: rgb(89, 173, 228);"></path><title>FlightSegment → SteadyLevelFlight
2.71</title></g><g class="link" style="opacity: 0.8;"><path d="M385.76796308915226,209.50332419771 A164.75002709988104 164.75002709988104 0.2949269887194026 0 1 433.65585214812614,216.6166756447248 L539.7335789245207,248.84165368652583 A56.01000417778196 56.01000417778196 0.2949269887194026 0 0 556.0140063907461,251.25997707790097 L556.0140063907461,360.00000000000006 A164.75002709988104 164.75002709988104 0.2949269887194026 0 1 508.1261173317722,352.88664855298526 L402.0483905553777,320.66167051118424 A56.01000417778196 56.01000417778196 0.2949269887194026 0 0 385.76796308915226,318.2433471198091 Z" style="fill: rgb(89, 173, 228);"></path><title>SteadyLevelFlight → Ⓙ
2.71</title></g></g><g class="nodes"><g class="node" transform="translate(0,188.3571710898575)"><title>CLstall [-] ❷</title><text dy=".35em" text-anchor="end" transform="translate(-4, 11.642828941345215)">CLstall [-] ❷</text><line x1="0" x2="0" y1="0" y2="23.28565782022822" style="stroke: rgb(0, 0, 0);"></line><rect x="-5" y="-5" width="10" style="fill: none; visibility: hidden; pointer-events: all;" height="28.28565782022822"></rect></g><g class="node" transform="translate(0,40)"><title>CL [-] ❶</title><text dy=".35em" text-anchor="end" transform="translate(-4, 2.006543955181317e-29)">CL [-] ❶</text><line x1="0" x2="0" y1="0" y2="1" style="stroke: rgb(0, 0, 0);"></line><rect x="-5" y="-5" width="10" style="fill: none; visibility: hidden; pointer-events: all;" height="6"></rect></g><g class="node" transform="translate(0,359.9999999999432)"><title>cl [-] ❸</title><text dy=".35em" text-anchor="end" transform="translate(-4, 2.837308860081933e-11)">cl [-] ❸</text><line x1="0" x2="0" y1="0" y2="1" style="stroke: rgb(0, 0, 0);"></line><rect x="-5" y="-5" width="10" style="fill: none; visibility: hidden; pointer-events: all;" height="6"></rect></g><g class="node" transform="translate(385.76796308915226,360)"><title>Ⓑ ❶=❸</title><text dy=".35em" text-anchor="start" transform="translate(4, 2.006543955181317e-29)">Ⓑ ❶=❸</text><line x1="0" x2="0" y1="0" y2="1" style="stroke: rgb(0, 0, 0);"></line><rect x="-5" y="-5" width="10" style="fill: none; visibility: hidden; pointer-events: all;" height="6"></rect></g><g class="node" transform="translate(724.9999999999999,40)"><title>Ⓐ ❶≤❷</title><text dy=".35em" text-anchor="start" transform="translate(4, 2.006543955181317e-29)">Ⓐ ❶≤❷</text><line x1="0" x2="0" y1="0" y2="1" style="stroke: rgb(0, 0, 0);"></line><rect x="-5" y="-5" width="10" style="fill: none; visibility: hidden; pointer-events: all;" height="6"></rect></g><g class="node" transform="translate(385.76796308915226,209.50332419770996)"><title>SteadyLevelFlight</title><text dy=".35em" text-anchor="start" transform="translate(-4, -10)">SteadyLevelFlight</text><line x1="0" x2="0" y1="-5" y2="108.74002292209907" style="stroke: rgb(0, 0, 0);"></line><rect x="-5" y="-5" width="10" style="fill: none; visibility: hidden; pointer-events: all;" height="113.74002292209907"></rect></g><g class="node" transform="translate(556.0140063907461,251.25997707790097)"><title>Ⓙ</title><text dy=".35em" text-anchor="start" transform="translate(4, 54.37001037597656)">Ⓙ</text><line x1="0" x2="0" y1="0" y2="108.74002292209907" style="stroke: rgb(0, 0, 0);"></line><rect x="-5" y="-5" width="10" style="fill: none; visibility: hidden; pointer-events: all;" height="113.74002292209907"></rect></g><g class="node" transform="translate(385.76796308915226,167.47884464981877)"><title>GustL</title><text dy=".35em" text-anchor="start" transform="translate(-4, -10)">GustL</text><line x1="0" x2="0" y1="-5" y2="1" style="stroke: rgb(0, 0, 0);"></line><rect x="-5" y="-5" width="10" style="fill: none; visibility: hidden; pointer-events: all;" height="6"></rect></g><g class="node" transform="translate(556.0140063907461,211.02130606079007)"><title>Ⓕ</title><text dy=".35em" text-anchor="start" transform="translate(4, 0.061981551349163055)">Ⓕ</text><line x1="0" x2="0" y1="0" y2="1" style="stroke: rgb(0, 0, 0);"></line><rect x="-5" y="-5" width="10" style="fill: none; visibility: hidden; pointer-events: all;" height="6"></rect></g><g class="node" transform="translate(84.58613130756619,188.35717108985753)"><title>Mission</title><text dy=".35em" text-anchor="start" transform="translate(-4, -10)">Mission</text><line x1="0" x2="0" y1="-5" y2="23.285657820284964" style="stroke: rgb(0, 0, 0);"></line><rect x="-5" y="-5" width="10" style="fill: none; visibility: hidden; pointer-events: all;" height="28.285657820284964"></rect></g><g class="node" transform="translate(192.45791926729612,102.63497932028646)"><title>FlightSegment</title><text dy=".35em" text-anchor="start" transform="translate(-4, -10)">FlightSegment</text><line x1="0" x2="0" y1="-5" y2="194.73004135942708" style="stroke: rgb(0, 0, 0);"></line><rect x="-5" y="-5" width="10" style="fill: none; visibility: hidden; pointer-events: all;" height="199.73004135942708"></rect></g><g class="node" transform="translate(556.0140063907461,190.99453659483834)"><title>Ⓔ</title><text dy=".35em" text-anchor="start" transform="translate(4, 0.013384733349084854)">Ⓔ</text><line x1="0" x2="0" y1="0" y2="1" style="stroke: rgb(0, 0, 0);"></line><rect x="-5" y="-5" width="10" style="fill: none; visibility: hidden; pointer-events: all;" height="6"></rect></g><g class="node" transform="translate(556.0140063907461,40)"><title>WingAero</title><text dy=".35em" text-anchor="start" transform="translate(-4, -10)">WingAero</text><line x1="0" x2="0" y1="-5" y2="90.99215041020074" style="stroke: rgb(0, 0, 0);"></line><rect x="-5" y="-5" width="10" style="fill: none; visibility: hidden; pointer-events: all;" height="95.99215041020074"></rect></g><g class="node" transform="translate(724.9999999999999,357.36502067971355)"><title>Ⓘ</title><text dy=".35em" text-anchor="start" transform="translate(4, 1.3174896240234375)">Ⓘ</text><line x1="0" x2="0" y1="0" y2="2.634979320286452" style="stroke: rgb(0, 0, 0);"></line><rect x="-5" y="-5" width="10" style="fill: none; visibility: hidden; pointer-events: all;" height="7.634979320286452"></rect></g><g class="node" transform="translate(385.76796308915226,40)"><title>AircraftPerf</title><text dy=".35em" text-anchor="start" transform="translate(-4, -10)">AircraftPerf</text><line x1="0" x2="0" y1="-5" y2="85.7221917696278" style="stroke: rgb(0, 0, 0);"></line><rect x="-5" y="-5" width="10" style="fill: none; visibility: hidden; pointer-events: all;" height="90.7221917696278"></rect></g><g class="node" transform="translate(556.0140063907461,170.9921504102844)"><title>Ⓓ</title><text dy=".35em" text-anchor="start" transform="translate(4, 0.0011930923210456967)">Ⓓ</text><line x1="0" x2="0" y1="0" y2="1" style="stroke: rgb(0, 0, 0);"></line><rect x="-5" y="-5" width="10" style="fill: none; visibility: hidden; pointer-events: all;" height="6"></rect></g><g class="node" transform="translate(556.0140063907461,231.14526917048542)"><title>Ⓖ</title><text dy=".35em" text-anchor="start" transform="translate(4, 0.05735395848751068)">Ⓖ</text><line x1="0" x2="0" y1="0" y2="1" style="stroke: rgb(0, 0, 0);"></line><rect x="-5" y="-5" width="10" style="fill: none; visibility: hidden; pointer-events: all;" height="6"></rect></g><g class="node" transform="translate(556.0140063907461,150.99215041020074)"><title>Ⓒ</title><text dy=".35em" text-anchor="start" transform="translate(4, 4.183130578039318e-11)">Ⓒ</text><line x1="0" x2="0" y1="0" y2="1" style="stroke: rgb(0, 0, 0);"></line><rect x="-5" y="-5" width="10" style="fill: none; visibility: hidden; pointer-events: all;" height="6"></rect></g><g class="node" transform="translate(724.9999999999999,154.50392479489963)"><title>Ⓗ</title><text dy=".35em" text-anchor="start" transform="translate(4, 44.178585052490234)">Ⓗ</text><line x1="0" x2="0" y1="0" y2="88.35717108991427" style="stroke: rgb(0, 0, 0);"></line><rect x="-5" y="-5" width="10" style="fill: none; visibility: hidden; pointer-events: all;" height="93.35717108991427"></rect></g></g><g class="slice-titles"></g></g></svg>
