<?xml version="1.0" encoding="utf-8" standalone="no"?>
<!DOCTYPE svg PUBLIC "-//W3C//DTD SVG 1.1//EN"
  "http://www.w3.org/Graphics/SVG/1.1/DTD/svg11.dtd">
<svg width="900" height="400" viewBox="0 0 900 400" xmlns="http://www.w3.org/2000/svg" xmlns:xlink="http://www.w3.org/1999/xlink"><g class="sankey" transform="translate(120,0)"><g class="groups"></g><g class="links"><g class="link" style="opacity: 0.8;"><path d="M225.3572075208266,122.12119731111488 A48.27734330942135 48.27734330942135 0.8205507813075572 0 1 260.6731208350201,137.48215953451617 L344.5707143892938,227.4957042643939 A46.27734330942135 46.27734330942135 0.8205507813075572 0 0 378.42358475649473,242.22030329254025 L378.42358475649473,244.22030329254025 A48.27734330942135 48.27734330942135 0.8205507813075572 0 1 343.10767144230124,228.85934106913896 L259.2100778880275,138.84579633926123 A46.27734330942135 46.27734330942135 0.8205507813075572 0 0 225.3572075208266,124.12119731111488 Z" style="fill: rgb(207, 207, 207);"></path><title>Aircraft → Ⓡ
990f</title></g><g class="link" style="opacity: 0.8;"><path d="M0,199 A1606.149349991373 1606.149349991373 0.012818328647816069 0 0 20.587586425349983,198.86804896882776 L91.47896878971126,197.95929015825462 A1608.149349991373 1608.149349991373 0.012818328647816069 0 1 112.09219117030472,197.82717481978284 L112.09219117030472,199.82717481978284 A1606.149349991373 1606.149349991373 0.012818328647816069 0 0 91.50460474495473,199.95912585095508 L20.61322238059345,200.86788466152822 A1608.149349991373 1608.149349991373 0.012818328647816069 0 1 0,201 Z" style="fill: rgb(207, 207, 207);"></path><title>b [ft] → Mission
1.81p</title></g><g class="link" style="opacity: 0.8;"><path d="M378.42358475649473,358.99999999992457 A0 0 0 0 1 378.42358475649473,358.99999999992457 L517.7107927200855,358.9999999999247 A0 0 0 0 0 517.7107927200855,358.9999999999247 L517.7107927200855,360.9999999999247 A0 0 0 0 1 517.7107927200855,360.9999999999247 L378.42358475649473,360.99999999992457 A0 0 0 0 0 378.42358475649473,360.99999999992457 Z" style="fill: rgb(207, 207, 207);"></path><title>SparLoading → Ⓗ
2.76p</title></g><g class="link" style="opacity: 0.8;"><path d="M378.42358475649473,358.99999999977314 A412.3285074531321 412.3285074531321 0.062037535323794746 0 0 403.9870242571034,358.2067991965399 L492.0233577205552,352.7382246951961 A414.3285074531321 414.3285074531321 0.062037535323794746 0 1 517.7107927200855,351.9411764703614 L517.7107927200855,353.9411764703614 A412.3285074531321 412.3285074531321 0.062037535323794746 0 0 492.14735321947677,354.73437727359465 L404.111019756025,360.20295177493847 A414.3285074531321 414.3285074531321 0.062037535323794746 0 1 378.42358475649473,360.99999999977314 Z" style="fill: rgb(207, 207, 207);"></path><title>SparLoading → Ⓖ
2.79p</title></g><g class="link" style="opacity: 0.8;"><path d="M378.42358475649473,301.19656401283316 A148.63015286030895 148.63015286030895 0.17342525605644665 0 0 404.0707922587271,298.9670364470094 L491.718470757447,283.6124695315749 A150.63015286030895 150.63015286030895 0.17342525605644665 0 1 517.7107927200855,281.3529409528621 L517.7107927200855,283.3529409528621 A148.63015286030895 148.63015286030895 0.17342525605644665 0 0 492.0635852178531,285.5824685186859 L404.4159067191332,300.9370354341204 A150.63015286030895 150.63015286030895 0.17342525605644665 0 1 378.42358475649473,303.19656401283316 Z" style="fill: rgb(207, 207, 207);"></path><title>GustL → Ⓜ
2.81p</title></g><g class="link" style="opacity: 0.8;"><path d="M378.42358475649473,358.99999999961636 A207.25248902068284 207.25248902068284 0.12377233779620234 0 0 404.010263307492,357.41451388896814 L491.8772010567594,346.48313909553843 A209.25248902068284 209.25248902068284 0.12377233779620234 0 1 517.7107927200855,344.8823529407929 L517.7107927200855,346.8823529407929 A207.25248902068284 207.25248902068284 0.12377233779620234 0 0 492.1241141690882,348.4678390514411 L404.2571764198208,359.3992138448708 A209.25248902068284 209.25248902068284 0.12377233779620234 0 1 378.42358475649473,360.99999999961636 Z" style="fill: rgb(207, 207, 207);"></path><title>SparLoading → Ⓕ
2.96p</title></g><g class="link" style="opacity: 0.8;"><path d="M378.42358475649473,301.19656401299085 A228.5426379729073 228.5426379729073 0.11215252562532263 0 0 404.0015193451785,299.7607437136012 L491.9090230097321,289.8601497921153 A230.5426379729073 230.5426379729073 0.11215252562532263 0 1 517.7107927200855,288.4117644824315 L517.7107927200855,290.4117644824315 A228.5426379729073 228.5426379729073 0.11215252562532263 0 0 492.1328581314017,291.8475847818212 L404.2253544668481,301.7481787033071 A230.5426379729073 230.5426379729073 0.11215252562532263 0 1 378.42358475649473,303.19656401299085 Z" style="fill: rgb(207, 207, 207);"></path><title>GustL → Ⓝ
2.96p</title></g><g class="link" style="opacity: 0.8;"><path d="M378.42358475649473,301.19656401315723 A508.0934654519261 508.0934654519261 0.050337670995995065 0 0 403.9890266313273,300.5529757084152 L492.04471801443276,296.1167096628721 A510.0934654519261 510.0934654519261 0.050337670995995065 0 1 517.7107927200855,295.4705880120097 L517.7107927200855,297.4705880120097 A508.0934654519261 508.0934654519261 0.050337670995995065 0 0 492.1453508452529,298.11417631675175 L404.08965946214744,302.55044236229486 A510.0934654519261 510.0934654519261 0.050337670995995065 0 1 378.42358475649473,303.19656401315723 Z" style="fill: rgb(207, 207, 207);"></path><title>GustL → Ⓞ
3.13p</title></g><g class="link" style="opacity: 0.8;"><path d="M378.42358475649473,358.9999999994477 A139.59969856280833 139.59969856280833 0.1849106275486072 0 0 404.0902018124749,356.6202001675764 L491.67645829336277,340.23742387016927 A141.59969856280833 141.59969856280833 0.1849106275486072 0 1 517.7107927200855,337.8235294112125 L517.7107927200855,339.8235294112125 A139.59969856280833 139.59969856280833 0.1849106275486072 0 0 492.0441756641053,342.20332924308383 L404.4579191832174,358.58610554049096 A141.59969856280833 141.59969856280833 0.1849106275486072 0 1 378.42358475649473,360.9999999994477 Z" style="fill: rgb(207, 207, 207);"></path><title>SparLoading → Ⓔ
3.22p</title></g><g class="link" style="opacity: 0.8;"><path d="M378.42358475649473,301.19656401333697 A2184.5996661329086 2184.5996661329086 0.011723173612060878 0 1 404.03343930034777,301.34668011807906 L492.1243839864107,302.3794328680847 A2182.5996661329086 2182.5996661329086 0.011723173612060878 0 0 517.7107927200855,302.52941154160123 L517.7107927200855,304.52941154160123 A2184.5996661329086 2184.5996661329086 0.011723173612060878 0 1 492.10093817623243,304.37929543685914 L404.0099934901695,303.3465426868535 A2182.5996661329086 2182.5996661329086 0.011723173612060878 0 0 378.42358475649473,303.19656401333697 Z" style="fill: rgb(207, 207, 207);"></path><title>GustL → Ⓟ
3.45p</title></g><g class="link" style="opacity: 0.8;"><path d="M378.42358475649473,358.9999999886201 A106.30271509857668 106.30271509857668 0.24517587364316484 0 0 404.2261177847989,355.8209801625289 L491.42280580653716,334.00353639565554 A108.30271509857668 108.30271509857668 0.24517587364316484 0 1 517.7107927200855,330.76470587097316 L517.7107927200855,332.76470587097316 A106.30271509857668 106.30271509857668 0.24517587364316484 0 0 491.9082596917813,335.9437256970644 L404.71157167004304,357.76116946393773 A108.30271509857668 108.30271509857668 0.24517587364316484 0 1 378.42358475649473,360.9999999886201 Z" style="fill: rgb(207, 207, 207);"></path><title>SparLoading → Ⓓ
393p</title></g><g class="link" style="opacity: 0.8;"><path d="M378.42358475649473,358.999999956212 A86.74805443180246 86.74805443180246 0.30431586452324333 0 0 404.416819016046,355.0141151457471 L491.11827737164276,327.78366277852535 A88.74805443180246 88.74805443180246 0.30431586452324333 0 1 517.7107927200855,323.70588230915325 L517.7107927200855,325.70588230915325 A86.74805443180246 86.74805443180246 0.30431586452324333 0 0 491.7175584605342,329.69176711961813 L405.01610010493744,356.9222194868399 A88.74805443180246 88.74805443180246 0.30431586452324333 0 1 378.42358475649473,360.999999956212 Z" style="fill: rgb(207, 207, 207);"></path><title>SparLoading → Ⓒ
794p</title></g><g class="link" style="opacity: 0.8;"><path d="M378.42358475649473,358.9999999016609 A74.06455516375692 74.06455516375692 0.36210814287853177 0 0 404.6606907338734,354.1970690441314 L490.7651938362316,321.57968538246945 A76.06455516375692 76.06455516375692 0.36210814287853177 0 1 517.7107927200855,316.6470587251904 L517.7107927200855,318.6470587251904 A74.06455516375692 74.06455516375692 0.36210814287853177 0 0 491.4736867427068,323.44998958271987 L405.3691836403486,356.0673732443818 A76.06455516375692 76.06455516375692 0.36210814287853177 0 1 378.42358475649473,360.9999999016609 Z" style="fill: rgb(207, 207, 207);"></path><title>SparLoading → Ⓑ
1.20n</title></g><g class="link" style="opacity: 0.8;"><path d="M378.42358475649473,358.99999982288386 A65.30743383784204 65.30743383784204 0.41836359115488486 0 0 404.9557564480768,353.3675589034539 L490.36608958660173,315.3931660758784 A67.30743383784204 67.30743383784204 0.41836359115488486 0 1 517.7107927200855,309.5882351170016 L517.7107927200855,311.5882351170016 A65.30743383784204 65.30743383784204 0.41836359115488486 0 0 491.1786210285034,317.22067603643154 L405.76828788997847,355.19506886400706 A67.30743383784204 67.30743383784204 0.41836359115488486 0 1 378.42358475649473,360.99999982288386 Z" style="fill: rgb(207, 207, 207);"></path><title>SparLoading → Ⓐ
1.68n</title></g><g class="link" style="opacity: 0.8;"><path d="M225.3572075208266,358.9999998884947 A0 0 0 0 0 225.3572075208266,358.9999998884947 L378.42358475649473,358.9999998884947 A0 0 0 0 0 378.42358475649473,358.9999998884947 L378.42358475649473,360.9999998884947 A0 0 0 0 0 378.42358475649473,360.9999998884947 L225.3572075208266,360.9999998884947 A0 0 0 0 0 225.3572075208266,360.9999998884947 Z" style="fill: rgb(207, 207, 207);"></path><title>FlightSegment → SparLoading
4.08n</title></g><g class="link" style="opacity: 0.8;"><path d="M517.7107927200855,168.71594191106877 A112.72160722698166 112.72160722698166 0.5114781467982972 0 1 572.8842723208605,183.14183262620654 L682.9041348932852,244.8960866133408 A86.00352210471134 86.00352210471134 0.5114781467982972 0 0 725,255.90264907745836 L725,257.90264907745836 A88.00352210471134 88.00352210471134 0.5114781467982972 0 1 681.9252013780866,246.6401305270141 L571.9053388056619,184.88587653987983 A110.72160722698166 110.72160722698166 0.5114781467982972 0 0 517.7107927200855,170.71594191106877 Z" style="fill: rgb(89, 173, 228);"></path><title>Planform.2 → Ⓥ
860µ</title></g><g class="link" style="opacity: 0.8;"><path d="M517.7107927200855,168.76572790360794 A112.6718212344425 112.6718212344425 0.5946397110548332 0 1 580.8307126080674,188.10580205475136 L681.2283509463293,256.0043584076908 A78.13431046909427 78.13431046909427 0.5946397110548332 0 0 725,269.4160823122549 L725,271.4160823122549 A80.13431046909427 80.13431046909427 0.5946397110548332 0 1 680.1079302555756,257.6610591880767 L579.7102919173137,189.7625028351372 A110.6718212344425 110.6718212344425 0.5946397110548332 0 0 517.7107927200855,170.76572790360794 Z" style="fill: rgb(89, 173, 228);"></path><title>Planform.2 → Ⓦ
963µ</title></g><g class="link" style="opacity: 0.8;"><path d="M517.7107927200855,168.6610711146609 A112.77647802338953 112.77647802338953 0.42802500415739564 0 1 564.5214653136843,178.8349423159284 L684.5366021904481,233.5897819113182 A97.48459573393575 97.48459573393575 0.42802500415739564 0 0 725,242.38413103879316 L725,244.38413103879316 A99.48459573393575 99.48459573393575 0.42802500415739564 0 1 683.7064526164581,235.40935650028246 L563.6913157396943,180.65451690489266 A110.77647802338953 110.77647802338953 0.42802500415739564 0 0 517.7107927200855,170.6610711146609 Z" style="fill: rgb(89, 173, 228);"></path><title>Planform.2 → Ⓤ
1.15m</title></g><g class="link" style="opacity: 0.8;"><path d="M517.7107927200855,168.58127300586494 A116.99850595336885 116.99850595336885 0.3470067977006943 0 1 557.500176153108,175.554984656584 L685.8907856530491,221.98618430545793 A114.99850595336885 114.99850595336885 0.3470067977006943 0 0 725,228.8406856877399 L725,230.8406856877399 A116.99850595336885 116.99850595336885 0.3470067977006943 0 1 685.2106165669775,223.86697403702084 L556.8200070670364,177.4357743881469 A114.99850595336885 114.99850595336885 0.3470067977006943 0 0 517.7107927200855,170.58127300586494 Z" style="fill: rgb(89, 173, 228);"></path><title>Planform.2 → Ⓣ
1.77m</title></g><g class="link" style="opacity: 0.8;"><path d="M378.42358475649473,301.12764317793733 A111.20913236231166 111.20913236231166 0.23387548899483268 0 0 404.1962161560194,298.1000369257818 L491.47466284966976,277.30725171892436 A113.20913236231166 113.20913236231166 0.23387548899483268 0 1 517.7107927200855,274.2251965885545 L517.7107927200855,276.2251965885545 A111.20913236231166 111.20913236231166 0.23387548899483268 0 0 491.9381613205608,279.25280284071005 L404.65971462691044,300.0455880475675 A113.20913236231166 113.20913236231166 0.23387548899483268 0 1 378.42358475649473,303.12764317793733 Z" style="fill: rgb(250, 51, 51);"></path><title>GustL → Ⓛ
2.52m</title></g><g class="link" style="opacity: 0.8;"><path d="M378.42358475649473,300.930660451915 A89.7841230546291 89.7841230546291 0.2932459508692098 0 0 404.3766844420685,297.0978338936125 L491.17957078299105,270.88759560712236 A91.7841230546291 91.7841230546291 0.2932459508692098 0 1 517.7107927200855,266.96939033312043 L517.7107927200855,268.96939033312043 A89.7841230546291 89.7841230546291 0.2932459508692098 0 0 491.7576930345117,272.8022168914229 L404.95480669358915,299.01245517791307 A91.7841230546291 91.7841230546291 0.2932459508692098 0 1 378.42358475649473,302.930660451915 Z" style="fill: rgb(250, 51, 51);"></path><title>GustL → Ⓚ
4.69m</title></g><g class="link" style="opacity: 0.8;"><path d="M517.7107927200855,41.10634247926661 A166.63210111568966 166.63210111568966 0.2358970320884819 0 1 556.655258937337,45.72120477981418 L686.5229643193198,76.93781174057862 A164.63210111568966 164.63210111568966 0.2358970320884819 0 0 725,81.49728420603861 L725,83.49728420603861 A166.63210111568966 166.63210111568966 0.2358970320884819 0 1 686.0555337827485,78.88242190549106 L556.1878284007656,47.6658149447266 A164.63210111568966 164.63210111568966 0.2358970320884819 0 0 517.7107927200855,43.10634247926661 Z" style="fill: rgb(250, 51, 51);"></path><title>BoxSpar.2 → ⓑ
5.12m</title></g><g class="link" style="opacity: 0.8;"><path d="M378.42358475649473,300.6272399641649 A76.09724372894782 76.09724372894782 0.3513082340975717 0 0 404.6106578087248,295.9794728470164 L490.83546680168047,264.3770667960778 A78.09724372894782 78.09724372894782 0.3513082340975717 0 1 517.7107927200855,259.6071463159586 L517.7107927200855,261.6071463159586 A76.09724372894782 76.09724372894782 0.3513082340975717 0 0 491.5237196678554,266.2549134331071 L405.29891067489973,297.85731948404566 A78.09724372894782 78.09724372894782 0.3513082340975717 0 1 378.42358475649473,302.6272399641649 Z" style="fill: rgb(250, 51, 51);"></path><title>GustL → Ⓙ
6.42m</title></g><g class="link" style="opacity: 0.8;"><path d="M378.42358475649473,300.2378102118719 A66.74021708637562 66.74021708637562 0.407866738755571 0 0 404.89622295257294,294.76304834845274 L490.44485059567825,257.79771675130263 A68.74021708637562 68.74021708637562 0.407866738755571 0 1 517.7107927200855,252.15889303425377 L517.7107927200855,254.15889303425377 A66.74021708637562 66.74021708637562 0.407866738755571 0 0 491.23815452400726,259.6336548976729 L405.68952688090195,296.598986494823 A68.74021708637562 68.74021708637562 0.407866738755571 0 1 378.42358475649473,302.2378102118719 Z" style="fill: rgb(250, 51, 51);"></path><title>GustL → Ⓘ
7.84m</title></g><g class="link" style="opacity: 0.8;"><path d="M517.7107927200855,40.72337500496178 A244.39928395768794 244.39928395768794 0.15830149398614202 0 1 556.2381808450829,43.77923070470775 L686.7878942072672,64.61982086544904 A242.39928395768794 242.39928395768794 0.15830149398614202 0 0 725,67.65066948947646 L725,69.65066948947646 A244.39928395768794 244.39928395768794 0.15830149398614202 0 1 686.4726118750026,66.5948137897305 L555.9228985128183,45.75422362898919 A242.39928395768794 242.39928395768794 0.15830149398614202 0 0 517.7107927200855,42.72337500496178 Z" style="fill: rgb(250, 51, 51);"></path><title>BoxSpar.2 → ⓐ
8.91m</title></g><g class="link" style="opacity: 0.8;"><path d="M517.7107927200855,40.14893121330815 A481.73992665636 481.73992665636 0.07946788289450257 0 1 555.9533638950822,41.669259472434454 L686.9161973598864,52.09856201812969 A479.73992665636 479.73992665636 0.07946788289450257 0 0 725,53.61257845556549 L725,55.61257845556549 A481.73992665636 481.73992665636 0.07946788289450257 0 1 686.7574288250032,54.09225019643919 L555.7945953601991,43.66294765074395 A479.73992665636 479.73992665636 0.07946788289450257 0 0 517.7107927200855,42.14893121330815 Z" style="fill: rgb(250, 51, 51);"></path><title>BoxSpar.2 → Ⓩ
12.1m</title></g><g class="link" style="opacity: 0.8;"><path d="M517.7107927200855,39.40884007403579 A0 0 0 0 0 517.7107927200855,39.40884007403579 L725,39.40884007403579 A0 0 0 0 0 725,39.40884007403579 L725,41.40884007403579 A0 0 0 0 0 725,41.40884007403579 L517.7107927200855,41.40884007403579 A0 0 0 0 0 517.7107927200855,41.40884007403579 Z" style="fill: rgb(250, 51, 51);"></path><title>BoxSpar.2 → Ⓨ
15.0m</title></g><g class="link" style="opacity: 0.8;"><path d="M225.3572075208266,358.41358729833667 A68.46962409542691 68.46962409542691 0.4432252832351353 0 0 254.72077041302674,351.79758555475644 L348.20231121434927,307.41940690961434 A70.46962409542691 70.46962409542691 0.4432252832351353 0 1 378.42358475649473,300.61015153477837 L378.42358475649473,302.61015153477837 A68.46962409542691 68.46962409542691 0.4432252832351353 0 0 349.06002186429464,309.2261532783586 L255.57848106297206,353.6043319235007 A70.46962409542691 70.46962409542691 0.4432252832351353 0 1 225.3572075208266,360.41358729833667 Z" style="fill: rgb(250, 51, 51);"></path><title>FlightSegment → GustL
21.5m</title></g><g class="link" style="opacity: 0.8;"><path d="M112.09219117030472,198.41358740984194 A34.940041841039545 34.940041841039545 1.1822264675187013 0 0 144.4275170681437,176.71111418747773 L191.17097794949177,62.53115525914946 A36.940041841039545 36.940041841039545 1.1822264675187013 0 1 225.3572075208266,39.58641259010857 L225.3572075208266,41.58641259010857 A34.940041841039545 34.940041841039545 1.1822264675187013 0 0 193.02188162298762,63.28888581247277 L146.27842074163954,177.46884474080105 A36.940041841039545 36.940041841039545 1.1822264675187013 0 1 112.09219117030472,200.41358740984194 Z" style="fill: rgb(89, 173, 228);"></path><title>Mission → Aircraft
21.5m</title></g><g class="link" style="opacity: 0.8;"><path d="M112.09219117030472,199.58641259010858 A36.940041841039545 36.940041841039545 1.182226467518701 0 1 146.27842074163954,222.53115525914944 L193.02188162298762,336.71111418747773 A34.940041841039545 34.940041841039545 1.182226467518701 0 0 225.3572075208266,358.4135874098419 L225.3572075208266,360.4135874098419 A36.940041841039545 36.940041841039545 1.182226467518701 0 1 191.17097794949177,337.46884474080105 L144.4275170681437,223.28888581247276 A34.940041841039545 34.940041841039545 1.182226467518701 0 0 112.09219117030472,201.58641259010858 Z" style="fill: rgb(250, 51, 51);"></path><title>Mission → FlightSegment
21.5m</title></g><g class="link" style="opacity: 0.8;"><path d="M378.42358475649473,40 A0 0 0 0 0 378.42358475649473,40 L517.7107927200855,40 A0 0 0 0 0 517.7107927200855,40 L517.7107927200855,42.246117227154386 A0 0 0 0 0 517.7107927200855,42.246117227154386 L378.42358475649473,42.246117227154386 A0 0 0 0 0 378.42358475649473,42.246117227154386 Z" style="fill: rgb(250, 51, 51);"></path><title>Wing → BoxSpar.2
41.1m</title></g><g class="link" style="opacity: 0.8;"><path d="M225.3572075208266,82.14701124562546 A88.25152937491077 88.25152937491077 0.4767207550116215 0 1 265.85301244146234,91.9866651115258 L357.6496881259595,139.3950486854539 A45.27205107576006 45.27205107576006 0.4767207550116215 0 0 378.42358475649473,144.44268146349253 L378.42358475649473,185.41686752895492 A86.24623714122245 86.24623714122245 0.4767207550116215 0 1 338.8479443211602,175.800794847644 L247.051268636663,128.39241127371594 A47.27734330944838 47.27734330944838 0.4767207550116215 0 0 225.3572075208266,123.12119731108785 Z" style="fill: rgb(250, 51, 51);"></path><title>Aircraft → Ⓠ
750m</title></g><g class="link" style="opacity: 0.8;"><path d="M225.3572075208266,40 A0 0 0 0 0 225.3572075208266,40 L378.42358475649473,40 A0 0 0 0 0 378.42358475649473,40 L378.42358475649473,82.14701124562546 A0 0 0 0 0 378.42358475649473,82.14701124562546 L225.3572075208266,82.14701124562546 A0 0 0 0 0 225.3572075208266,82.14701124562546 Z" style="fill: rgb(89, 173, 228);"></path><title>Aircraft → Wing
772m</title></g><g class="link" style="opacity: 0.8;"><path d="M378.42358475649473,42.246117227154386 A435.5250716895187 435.5250716895187 0.06203753532379608 0 1 405.42515903498196,43.08394151154877 L493.4614924984331,48.55251601289271 A391.1319432167389 391.1319432167389 0.06203753532379608 0 0 517.7107927200855,49.304940756566154 L517.7107927200855,93.69806922934602 A435.5250716895187 435.5250716895187 0.06203753532379608 0 1 490.70921844159824,92.86024494495163 L402.6728849781471,87.3916704436077 A391.1319432167389 391.1319432167389 0.06203753532379608 0 0 378.42358475649473,86.63924569993425 Z" style="fill: rgb(89, 173, 228);"></path><title>Wing → Planform.2
813m</title></g><g class="link" style="opacity: 0.8;"><path d="M517.7107927200855,169.79203378922085 A111.64551534882958 111.64551534882958 0.6188577573092451 0 1 582.4769294711612,190.49763145694243 L704.3763628309107,277.3127020240921 A35.551550788954735 35.551550788954735 0.6188577573092451 0 0 725,283.90603544012515 L725,360 A111.64551534882958 111.64551534882958 0.6188577573092451 0 1 660.2338632489243,339.2944023322784 L538.3344298891748,252.47933176512873 A35.551550788954735 35.551550788954735 0.6188577573092451 0 0 517.7107927200855,245.8859983490957 Z" style="fill: rgb(250, 51, 51);"></path><title>Planform.2 → Ⓧ
1.39</title></g><g class="link" style="opacity: 0.8;"><path d="M517.7107927200855,49.304940756566154 A236.27483820266764 236.27483820266764 0.28150630298819235 0 1 583.3486457322244,58.60517372848641 L701.4871931307707,92.76917459250441 A84.63842712360308 84.63842712360308 0.28150630298819235 0 0 725,96.10070619618374 L725,216.32863102616824 A204.86635195358758 204.86635195358758 0.28150630298819235 0 1 668.0875179136578,208.26469660230262 L549.9489705151116,174.1006957382846 A116.04691337268314 116.04691337268314 0.28150630298819235 0 0 517.7107927200855,169.53286558655066 Z" style="fill: rgb(89, 173, 228);"></path><title>Planform.2 → Ⓢ
2.20</title></g></g><g class="nodes"><g class="node" transform="translate(0,199.99999999995052)"><title>b [ft]</title><text dy=".35em" text-anchor="end" transform="translate(-4, 4.9484572689495465e-11)">b [ft]</text><line x1="0" x2="0" y1="0" y2="1" style="stroke: rgb(0, 0, 0);"></line><rect x="-5" y="-5" width="10" style="fill: none; visibility: hidden; pointer-events: all;" height="6"></rect></g><g class="node" transform="translate(517.7107927200855,49.304940756566154)"><title>Planform.2</title><text dy=".35em" text-anchor="end" transform="translate(-4, 98.29052734375)">Planform.2</text><line x1="0" x2="0" y1="0" y2="196.58105759252953" style="stroke: rgb(0, 0, 0);"></line><rect x="-5" y="-5" width="10" style="fill: none; visibility: hidden; pointer-events: all;" height="201.58105759252953"></rect></g><g class="node" transform="translate(725,283.90603544012515)"><title>Ⓧ</title><text dy=".35em" text-anchor="start" transform="translate(4, 38.04698181152344)">Ⓧ</text><line x1="0" x2="0" y1="0" y2="76.09396455987483" style="stroke: rgb(0, 0, 0);"></line><rect x="-5" y="-5" width="10" style="fill: none; visibility: hidden; pointer-events: all;" height="81.09396455987483"></rect></g><g class="node" transform="translate(378.42358475649473,359.9999997769894)"><title>SparLoading</title><text dy=".35em" text-anchor="start" transform="translate(-4, -10)">SparLoading</text><line x1="0" x2="0" y1="-5" y2="1" style="stroke: rgb(0, 0, 0);"></line><rect x="-5" y="-5" width="10" style="fill: none; visibility: hidden; pointer-events: all;" height="6"></rect></g><g class="node" transform="translate(517.7107927200855,310.58823507110714)"><title>Ⓐ</title><text dy=".35em" text-anchor="start" transform="translate(4, 4.58944704462283e-8)">Ⓐ</text><line x1="0" x2="0" y1="0" y2="1" style="stroke: rgb(0, 0, 0);"></line><rect x="-5" y="-5" width="10" style="fill: none; visibility: hidden; pointer-events: all;" height="6"></rect></g><g class="node" transform="translate(517.7107927200855,40)"><title>BoxSpar.2</title><text dy=".35em" text-anchor="start" transform="translate(-4, -10)">BoxSpar.2</text><line x1="0" x2="0" y1="-5" y2="2.2461172271543832" style="stroke: rgb(0, 0, 0);"></line><rect x="-5" y="-5" width="10" style="fill: none; visibility: hidden; pointer-events: all;" height="7.246117227154383"></rect></g><g class="node" transform="translate(725,54.28132739032891)"><title>Ⓩ</title><text dy=".35em" text-anchor="start" transform="translate(4, 0.3312510848045349)">Ⓩ</text><line x1="0" x2="0" y1="0" y2="1" style="stroke: rgb(0, 0, 0);"></line><rect x="-5" y="-5" width="10" style="fill: none; visibility: hidden; pointer-events: all;" height="6"></rect></g><g class="node" transform="translate(378.42358475649473,301.0237390561256)"><title>GustL</title><text dy=".35em" text-anchor="start" transform="translate(-4, -10)">GustL</text><line x1="0" x2="0" y1="-5" y2="1.172824957305534" style="stroke: rgb(0, 0, 0);"></line><rect x="-5" y="-5" width="10" style="fill: none; visibility: hidden; pointer-events: all;" height="6.172824957305534"></rect></g><g class="node" transform="translate(517.7107927200855,267.84132844191714)"><title>Ⓚ</title><text dy=".35em" text-anchor="start" transform="translate(4, 0.128061905503273)">Ⓚ</text><line x1="0" x2="0" y1="0" y2="1" style="stroke: rgb(0, 0, 0);"></line><rect x="-5" y="-5" width="10" style="fill: none; visibility: hidden; pointer-events: all;" height="6"></rect></g><g class="node" transform="translate(725,256.87916897053213)"><title>Ⓥ</title><text dy=".35em" text-anchor="start" transform="translate(4, 0.023480108007788658)">Ⓥ</text><line x1="0" x2="0" y1="0" y2="1" style="stroke: rgb(0, 0, 0);"></line><rect x="-5" y="-5" width="10" style="fill: none; visibility: hidden; pointer-events: all;" height="6"></rect></g><g class="node" transform="translate(725,270.38977642664196)"><title>Ⓦ</title><text dy=".35em" text-anchor="start" transform="translate(4, 0.02630588412284851)">Ⓦ</text><line x1="0" x2="0" y1="0" y2="1" style="stroke: rgb(0, 0, 0);"></line><rect x="-5" y="-5" width="10" style="fill: none; visibility: hidden; pointer-events: all;" height="6"></rect></g><g class="node" transform="translate(517.7107927200855,324.7058822874847)"><title>Ⓒ</title><text dy=".35em" text-anchor="start" transform="translate(4, 2.1668524752271878e-8)">Ⓒ</text><line x1="0" x2="0" y1="0" y2="1" style="stroke: rgb(0, 0, 0);"></line><rect x="-5" y="-5" width="10" style="fill: none; visibility: hidden; pointer-events: all;" height="6"></rect></g><g class="node" transform="translate(225.3572075208266,358.8271748196839)"><title>FlightSegment</title><text dy=".35em" text-anchor="start" transform="translate(-4, -10)">FlightSegment</text><line x1="0" x2="0" y1="-5" y2="1.1728251803161185" style="stroke: rgb(0, 0, 0);"></line><rect x="-5" y="-5" width="10" style="fill: none; visibility: hidden; pointer-events: all;" height="6.172825180316119"></rect></g><g class="node" transform="translate(725,96.10070619618374)"><title>Ⓢ</title><text dy=".35em" text-anchor="start" transform="translate(4, 60.11396408081055)">Ⓢ</text><line x1="0" x2="0" y1="0" y2="120.22792482998452" style="stroke: rgb(0, 0, 0);"></line><rect x="-5" y="-5" width="10" style="fill: none; visibility: hidden; pointer-events: all;" height="125.22792482998452"></rect></g><g class="node" transform="translate(517.7107927200855,303.52941154150705)"><title>Ⓟ</title><text dy=".35em" text-anchor="start" transform="translate(4, 9.416638996340154e-11)">Ⓟ</text><line x1="0" x2="0" y1="0" y2="1" style="stroke: rgb(0, 0, 0);"></line><rect x="-5" y="-5" width="10" style="fill: none; visibility: hidden; pointer-events: all;" height="6"></rect></g><g class="node" transform="translate(517.7107927200855,352.94117647028537)"><title>Ⓖ</title><text dy=".35em" text-anchor="start" transform="translate(4, 7.604580853914911e-11)">Ⓖ</text><line x1="0" x2="0" y1="0" y2="1" style="stroke: rgb(0, 0, 0);"></line><rect x="-5" y="-5" width="10" style="fill: none; visibility: hidden; pointer-events: all;" height="6"></rect></g><g class="node" transform="translate(517.7107927200855,317.64705869230784)"><title>Ⓑ</title><text dy=".35em" text-anchor="start" transform="translate(4, 3.288254291078374e-8)">Ⓑ</text><line x1="0" x2="0" y1="0" y2="1" style="stroke: rgb(0, 0, 0);"></line><rect x="-5" y="-5" width="10" style="fill: none; visibility: hidden; pointer-events: all;" height="6"></rect></g><g class="node" transform="translate(725,82.35750945815084)"><title>ⓑ</title><text dy=".35em" text-anchor="start" transform="translate(4, 0.13977473974227905)">ⓑ</text><line x1="0" x2="0" y1="0" y2="1" style="stroke: rgb(0, 0, 0);"></line><rect x="-5" y="-5" width="10" style="fill: none; visibility: hidden; pointer-events: all;" height="6"></rect></g><g class="node" transform="translate(517.7107927200855,331.7647058602335)"><title>Ⓓ</title><text dy=".35em" text-anchor="start" transform="translate(4, 1.0739676703508394e-8)">Ⓓ</text><line x1="0" x2="0" y1="0" y2="1" style="stroke: rgb(0, 0, 0);"></line><rect x="-5" y="-5" width="10" style="fill: none; visibility: hidden; pointer-events: all;" height="6"></rect></g><g class="node" transform="translate(517.7107927200855,289.4117644823507)"><title>Ⓝ</title><text dy=".35em" text-anchor="start" transform="translate(4, 8.085250524647591e-11)">Ⓝ</text><line x1="0" x2="0" y1="0" y2="1" style="stroke: rgb(0, 0, 0);"></line><rect x="-5" y="-5" width="10" style="fill: none; visibility: hidden; pointer-events: all;" height="6"></rect></g><g class="node" transform="translate(378.42358475649473,40)"><title>Wing</title><text dy=".35em" text-anchor="start" transform="translate(-4, -10)">Wing</text><line x1="0" x2="0" y1="-5" y2="46.63924569993424" style="stroke: rgb(0, 0, 0);"></line><rect x="-5" y="-5" width="10" style="fill: none; visibility: hidden; pointer-events: all;" height="51.63924569993424"></rect></g><g class="node" transform="translate(112.09219117030472,198.82717481973336)"><title>Mission</title><text dy=".35em" text-anchor="start" transform="translate(-4, -10)">Mission</text><line x1="0" x2="0" y1="-5" y2="2.3456503605332677" style="stroke: rgb(0, 0, 0);"></line><rect x="-5" y="-5" width="10" style="fill: none; visibility: hidden; pointer-events: all;" height="7.345650360533268"></rect></g><g class="node" transform="translate(225.3572075208266,40)"><title>Aircraft</title><text dy=".35em" text-anchor="start" transform="translate(-4, -10)">Aircraft</text><line x1="0" x2="0" y1="-5" y2="83.12119731114194" style="stroke: rgb(0, 0, 0);"></line><rect x="-5" y="-5" width="10" style="fill: none; visibility: hidden; pointer-events: all;" height="88.12119731114194"></rect></g><g class="node" transform="translate(517.7107927200855,359.99999999984925)"><title>Ⓗ</title><text dy=".35em" text-anchor="start" transform="translate(4, 7.540874175093748e-11)">Ⓗ</text><line x1="0" x2="0" y1="0" y2="1" style="stroke: rgb(0, 0, 0);"></line><rect x="-5" y="-5" width="10" style="fill: none; visibility: hidden; pointer-events: all;" height="6"></rect></g><g class="node" transform="translate(517.7107927200855,260.43178771941183)"><title>Ⓙ</title><text dy=".35em" text-anchor="start" transform="translate(4, 0.1753586083650589)">Ⓙ</text><line x1="0" x2="0" y1="0" y2="1" style="stroke: rgb(0, 0, 0);"></line><rect x="-5" y="-5" width="10" style="fill: none; visibility: hidden; pointer-events: all;" height="6"></rect></g><g class="node" transform="translate(725,229.7922782684256)"><title>Ⓣ</title><text dy=".35em" text-anchor="start" transform="translate(4, 0.0484074205160141)">Ⓣ</text><line x1="0" x2="0" y1="0" y2="1" style="stroke: rgb(0, 0, 0);"></line><rect x="-5" y="-5" width="10" style="fill: none; visibility: hidden; pointer-events: all;" height="6"></rect></g><g class="node" transform="translate(517.7107927200855,296.4705880119242)"><title>Ⓞ</title><text dy=".35em" text-anchor="start" transform="translate(4, 8.554023461782023e-11)">Ⓞ</text><line x1="0" x2="0" y1="0" y2="1" style="stroke: rgb(0, 0, 0);"></line><rect x="-5" y="-5" width="10" style="fill: none; visibility: hidden; pointer-events: all;" height="6"></rect></g><g class="node" transform="translate(725,243.35274034931152)"><title>Ⓤ</title><text dy=".35em" text-anchor="start" transform="translate(4, 0.031390685588121414)">Ⓤ</text><line x1="0" x2="0" y1="0" y2="1" style="stroke: rgb(0, 0, 0);"></line><rect x="-5" y="-5" width="10" style="fill: none; visibility: hidden; pointer-events: all;" height="6"></rect></g><g class="node" transform="translate(725,68.4074767630594)"><title>ⓐ</title><text dy=".35em" text-anchor="start" transform="translate(4, 0.24319273233413696)">ⓐ</text><line x1="0" x2="0" y1="0" y2="1" style="stroke: rgb(0, 0, 0);"></line><rect x="-5" y="-5" width="10" style="fill: none; visibility: hidden; pointer-events: all;" height="6"></rect></g><g class="node" transform="translate(378.42358475649473,243.22030329251322)"><title>Ⓡ</title><text dy=".35em" text-anchor="start" transform="translate(4, 2.7033864730130475e-11)">Ⓡ</text><line x1="0" x2="0" y1="0" y2="1" style="stroke: rgb(0, 0, 0);"></line><rect x="-5" y="-5" width="10" style="fill: none; visibility: hidden; pointer-events: all;" height="6"></rect></g><g class="node" transform="translate(517.7107927200855,275.15627575373543)"><title>Ⓛ</title><text dy=".35em" text-anchor="start" transform="translate(4, 0.06892083585262299)">Ⓛ</text><line x1="0" x2="0" y1="0" y2="1" style="stroke: rgb(0, 0, 0);"></line><rect x="-5" y="-5" width="10" style="fill: none; visibility: hidden; pointer-events: all;" height="6"></rect></g><g class="node" transform="translate(517.7107927200855,252.94482187850747)"><title>Ⓘ</title><text dy=".35em" text-anchor="start" transform="translate(4, 0.2140711545944214)">Ⓘ</text><line x1="0" x2="0" y1="0" y2="1" style="stroke: rgb(0, 0, 0);"></line><rect x="-5" y="-5" width="10" style="fill: none; visibility: hidden; pointer-events: all;" height="6"></rect></g><g class="node" transform="translate(378.42358475649473,144.44268146349253)"><title>Ⓠ</title><text dy=".35em" text-anchor="start" transform="translate(4, 20.487092971801758)">Ⓠ</text><line x1="0" x2="0" y1="0" y2="40.97418606546239" style="stroke: rgb(0, 0, 0);"></line><rect x="-5" y="-5" width="10" style="fill: none; visibility: hidden; pointer-events: all;" height="45.97418606546239"></rect></g><g class="node" transform="translate(517.7107927200855,345.8823529407121)"><title>Ⓕ</title><text dy=".35em" text-anchor="start" transform="translate(4, 8.075331375811956e-11)">Ⓕ</text><line x1="0" x2="0" y1="0" y2="1" style="stroke: rgb(0, 0, 0);"></line><rect x="-5" y="-5" width="10" style="fill: none; visibility: hidden; pointer-events: all;" height="6"></rect></g><g class="node" transform="translate(517.7107927200855,338.82352941112464)"><title>Ⓔ</title><text dy=".35em" text-anchor="start" transform="translate(4, 8.786476407562915e-11)">Ⓔ</text><line x1="0" x2="0" y1="0" y2="1" style="stroke: rgb(0, 0, 0);"></line><rect x="-5" y="-5" width="10" style="fill: none; visibility: hidden; pointer-events: all;" height="6"></rect></g><g class="node" transform="translate(725,40)"><title>Ⓨ</title><text dy=".35em" text-anchor="start" transform="translate(4, 0.4088400602340698)">Ⓨ</text><line x1="0" x2="0" y1="0" y2="1" style="stroke: rgb(0, 0, 0);"></line><rect x="-5" y="-5" width="10" style="fill: none; visibility: hidden; pointer-events: all;" height="6"></rect></g><g class="node" transform="translate(517.7107927200855,282.35294095278533)"><title>Ⓜ</title><text dy=".35em" text-anchor="start" transform="translate(4, 7.681031505279989e-11)">Ⓜ</text><line x1="0" x2="0" y1="0" y2="1" style="stroke: rgb(0, 0, 0);"></line><rect x="-5" y="-5" width="10" style="fill: none; visibility: hidden; pointer-events: all;" height="6"></rect></g></g><g class="slice-titles"></g></g></svg>
