<?xml version="1.0" encoding="utf-8" standalone="no"?>
<!DOCTYPE svg PUBLIC "-//W3C//DTD SVG 1.1//EN"
  "http://www.w3.org/Graphics/SVG/1.1/DTD/svg11.dtd">
<svg width="900" height="400" viewBox="0 0 900 400" xmlns="http://www.w3.org/2000/svg" xmlns:xlink="http://www.w3.org/1999/xlink"><g class="sankey" transform="translate(120,0)"><g class="groups"></g><g class="links"><g class="link" style="opacity: 0.8;"><path d="M479.5062625855073,99.00000003123759 A158.66793777433978 158.66793777433978 0.29392235842722103 0 0 525.473727392083,92.19550965889113 L678.4531180099484,45.89026060350969 A160.66793777433978 160.66793777433978 0.29392235842722103 0 1 725,39.0000000312376 L725,41.0000000312376 A158.66793777433978 158.66793777433978 0.29392235842722103 0 0 679.0325351934243,47.804490403584055 L526.0531445755589,94.10973945896549 A160.66793777433978 160.66793777433978 0.29392235842722103 0 1 479.5062625855073,101.00000003123759 Z" style="fill: rgb(207, 207, 207);"></path><title>GustL → Ⓐ
2.08p</title></g><g class="link" style="opacity: 0.8;"><path d="M479.5062625855073,99.89094366208604 A304.83587554867955 304.83587554867955 0.14900984619797386 0 0 524.7618991302975,96.51292318183208 L679.4474454073368,73.29112702244178 A306.83587554867955 306.83587554867955 0.14900984619797386 0 1 725,69.89094366208604 L725,71.89094366208604 A304.83587554867955 304.83587554867955 0.14900984619797386 0 0 679.7443634552099,75.26896414234001 L525.0588171781706,98.4907603017303 A306.83587554867955 306.83587554867955 0.14900984619797386 0 1 479.5062625855073,101.89094366208604 Z" style="fill: rgb(250, 51, 51);"></path><title>GustL → Ⓑ
59.2µ</title></g><g class="link" style="opacity: 0.8;"><path d="M479.5062625855073,101.78188726169688 A0 0 0 0 0 479.5062625855073,101.78188726169688 L725,101.78188726169688 A0 0 0 0 0 725,101.78188726169688 L725,121.77202952915852 A0 0 0 0 0 725,121.77202952915852 L479.5062625855073,121.77202952915852 A0 0 0 0 0 479.5062625855073,121.77202952915852 Z" style="fill: rgb(250, 51, 51);"></path><title>GustL → Ⓒ
664µ</title></g><g class="link" style="opacity: 0.8;"><path d="M479.5062625855073,214.34168344734303 A202.4970960506684 202.4970960506684 0.2939223584272206 0 1 538.1714111133796,223.02579165365586 L691.1508017312451,269.3310407090373 A116.83877949801139 116.83877949801139 0.2939223584272206 0 0 725,274.341683447343 L725,359.99999999999994 A202.4970960506684 202.4970960506684 0.2939223584272206 0 1 666.3348514721276,351.3158917936871 L513.3554608542621,305.01064273830565 A116.83877949801139 116.83877949801139 0.2939223584272206 0 0 479.5062625855073,300 Z" style="fill: rgb(250, 51, 51);"></path><title>GustL → Ⓔ
2.85m</title></g><g class="link" style="opacity: 0.8;"><path d="M479.5062625855073,121.77202952915852 A352.1207025077718 352.1207025077718 0.14900984619797386 0 1 531.7817583876514,125.67403398467647 L686.4673046646907,148.89583014406676 A259.5510485895873 259.5510485895873 0.14900984619797386 0 0 725,151.77202952915852 L725,244.341683447343 A352.1207025077718 352.1207025077718 0.14900984619797386 0 1 672.7245041978559,240.43967899182505 L518.0389579208166,217.21788283243475 A259.5510485895873 259.5510485895873 0.14900984619797386 0 0 479.5062625855073,214.341683447343 Z" style="fill: rgb(250, 51, 51);"></path><title>GustL → Ⓓ
3.08m</title></g><g class="link" style="opacity: 0.8;"><path d="M159.83542086183576,100 A0 0 0 0 0 159.83542086183576,100 L319.6708417236715,100 A0 0 0 0 0 319.6708417236715,100 L319.6708417236715,300 A0 0 0 0 0 319.6708417236715,300 L159.83542086183576,300 A0 0 0 0 0 159.83542086183576,300 Z" style="fill: rgb(250, 51, 51);"></path><title>Mission → FlightSegment
6.65m</title></g><g class="link" style="opacity: 0.8;"><path d="M0,100 A0 0 0 0 0 0,100 L159.83542086183576,100 A0 0 0 0 0 159.83542086183576,100 L159.83542086183576,300 A0 0 0 0 0 159.83542086183576,300 L0,300 A0 0 0 0 0 0,300 Z" style="fill: rgb(250, 51, 51);"></path><title>vgust [m/s] → Mission
6.65m</title></g><g class="link" style="opacity: 0.8;"><path d="M319.6708417236715,100 A0 0 0 0 0 319.6708417236715,100 L479.5062625855073,100 A0 0 0 0 0 479.5062625855073,100 L479.5062625855073,300 A0 0 0 0 0 479.5062625855073,300 L319.6708417236715,300 A0 0 0 0 0 319.6708417236715,300 Z" style="fill: rgb(250, 51, 51);"></path><title>FlightSegment → GustL
6.65m</title></g></g><g class="nodes"><g class="node" transform="translate(0,100)"><title>vgust [m/s]</title><text dy=".35em" text-anchor="end" transform="translate(-4, 100)">vgust [m/s]</text><line x1="0" x2="0" y1="0" y2="200" style="stroke: rgb(0, 0, 0);"></line><rect x="-5" y="-5" width="10" style="fill: none; visibility: hidden; pointer-events: all;" height="205"></rect></g><g class="node" transform="translate(159.83542086183576,100)"><title>Mission</title><text dy=".35em" text-anchor="start" transform="translate(-4, -10)">Mission</text><line x1="0" x2="0" y1="-5" y2="200" style="stroke: rgb(0, 0, 0);"></line><rect x="-5" y="-5" width="10" style="fill: none; visibility: hidden; pointer-events: all;" height="205"></rect></g><g class="node" transform="translate(319.6708417236715,100)"><title>FlightSegment</title><text dy=".35em" text-anchor="start" transform="translate(-4, -10)">FlightSegment</text><line x1="0" x2="0" y1="-5" y2="200" style="stroke: rgb(0, 0, 0);"></line><rect x="-5" y="-5" width="10" style="fill: none; visibility: hidden; pointer-events: all;" height="205"></rect></g><g class="node" transform="translate(479.5062625855073,100)"><title>GustL</title><text dy=".35em" text-anchor="start" transform="translate(-4, -10)">GustL</text><line x1="0" x2="0" y1="-5" y2="200" style="stroke: rgb(0, 0, 0);"></line><rect x="-5" y="-5" width="10" style="fill: none; visibility: hidden; pointer-events: all;" height="205"></rect></g><g class="node" transform="translate(725,274.341683447343)"><title>Ⓔ</title><text dy=".35em" text-anchor="start" transform="translate(4, 42.829158782958984)">Ⓔ</text><line x1="0" x2="0" y1="0" y2="85.658316552657" style="stroke: rgb(0, 0, 0);"></line><rect x="-5" y="-5" width="10" style="fill: none; visibility: hidden; pointer-events: all;" height="90.658316552657"></rect></g><g class="node" transform="translate(725,70.0000000624752)"><title>Ⓑ</title><text dy=".35em" text-anchor="start" transform="translate(4, 0.8909435272216797)">Ⓑ</text><line x1="0" x2="0" y1="0" y2="1.7818871992216905" style="stroke: rgb(0, 0, 0);"></line><rect x="-5" y="-5" width="10" style="fill: none; visibility: hidden; pointer-events: all;" height="6.781887199221691"></rect></g><g class="node" transform="translate(725,151.77202952915852)"><title>Ⓓ</title><text dy=".35em" text-anchor="start" transform="translate(4, 46.284828186035156)">Ⓓ</text><line x1="0" x2="0" y1="0" y2="92.56965391818447" style="stroke: rgb(0, 0, 0);"></line><rect x="-5" y="-5" width="10" style="fill: none; visibility: hidden; pointer-events: all;" height="97.56965391818447"></rect></g><g class="node" transform="translate(725,40)"><title>Ⓐ</title><text dy=".35em" text-anchor="start" transform="translate(4, 3.123759739764864e-8)">Ⓐ</text><line x1="0" x2="0" y1="0" y2="1" style="stroke: rgb(0, 0, 0);"></line><rect x="-5" y="-5" width="10" style="fill: none; visibility: hidden; pointer-events: all;" height="6"></rect></g><g class="node" transform="translate(725,101.78188726169688)"><title>Ⓒ</title><text dy=".35em" text-anchor="start" transform="translate(4, 9.995071411132812)">Ⓒ</text><line x1="0" x2="0" y1="0" y2="19.990142267461643" style="stroke: rgb(0, 0, 0);"></line><rect x="-5" y="-5" width="10" style="fill: none; visibility: hidden; pointer-events: all;" height="24.990142267461643"></rect></g></g><g class="slice-titles"></g></g></svg>
