<?xml version="1.0" encoding="utf-8" standalone="no"?>
<!DOCTYPE svg PUBLIC "-//W3C//DTD SVG 1.1//EN"
  "http://www.w3.org/Graphics/SVG/1.1/DTD/svg11.dtd">
<svg width="900" height="400" viewBox="0 0 900 400" xmlns="http://www.w3.org/2000/svg" xmlns:xlink="http://www.w3.org/1999/xlink"><g class="sankey" transform="translate(120,0)"><g class="groups"></g><g class="links"><g class="link" style="opacity: 0.8;"><path d="M435.40000000000003,210.3698127032277 A82.54414999999996 82.54414999999996 0.33274755048793603 0 0 462.3623120471774,205.84213806768602 L551.5844057505788,175.0071904403348 A84.54414999999996 84.54414999999996 0.33274755048793603 0 1 579.2,170.36981270322767 L579.2,172.36981270322767 A82.54414999999996 82.54414999999996 0.33274755048793603 0 0 552.2376879528226,176.89748733876934 L463.0155942494214,207.73243496612056 A84.54414999999996 84.54414999999996 0.33274755048793603 0 1 435.40000000000003,212.3698127032277 Z" style="fill: rgb(207, 207, 207);"></path><title>Climb → Ⓐ
7.50m</title></g><g class="link" style="opacity: 0.8;"><path d="M435.40000000000003,210.5840347365059 A106.89220000000002 106.89220000000002 0.2521355729428969 0 0 462.06667255988646,207.2043025624823 L552.0343822867743,184.0270031835976 A108.89220000000002 108.89220000000002 0.2521355729428969 0 1 579.2,180.5840347365059 L579.2,182.5840347365059 A106.89220000000002 106.89220000000002 0.2521355729428969 0 0 552.5333274401136,185.96376691052953 L462.5656177132257,209.14106628941423 A108.89220000000002 108.89220000000002 0.2521355729428969 0 1 435.40000000000003,212.5840347365059 Z" style="fill: rgb(250, 51, 51);"></path><title>Climb → Ⓑ
11.7m</title></g><g class="link" style="opacity: 0.8;"><path d="M435.40000000000003,210.9222557364363 A157.08830000000023 157.08830000000023 0.1693571031095662 0 0 461.8770263570986,208.67484527203513 L552.3858762733698,193.19827954077948 A159.08830000000023 159.08830000000023 0.1693571031095662 0 1 579.2,190.92225573643634 L579.2,192.92225573643634 A157.08830000000023 157.08830000000023 0.1693571031095662 0 0 552.7229736429015,195.16966620083753 L462.21412372663025,210.64623193209317 A159.08830000000023 159.08830000000023 0.1693571031095662 0 1 435.40000000000003,212.9222557364363 Z" style="fill: rgb(250, 51, 51);"></path><title>Climb → Ⓒ
18.6m</title></g><g class="link" style="opacity: 0.8;"><path d="M435.40000000000003,214.17821043025177 A312.67659999999825 312.67659999999825 0.08506709142592173 0 1 461.96642092860867,215.3088564096547 L552.8035081350221,223.05479649814248 A310.67659999999825 310.67659999999825 0.08506709142592173 0 0 579.2,224.17821043025182 L579.2,226.17821043025182 A312.67659999999825 312.67659999999825 0.08506709142592173 0 1 552.6335790713914,225.04756445084888 L461.796491864978,217.3016243623611 A310.67659999999825 310.67659999999825 0.08506709142592173 0 0 435.40000000000003,216.17821043025177 Z" style="fill: rgb(250, 51, 51);"></path><title>Climb → Ⓕ
33.3m</title></g><g class="link" style="opacity: 0.8;"><path d="M435.40000000000003,211.51659521694955 A310.67660000000177 310.67660000000177 0.08506709142591995 0 0 461.7964918649778,210.39318128484024 L552.6335790713916,202.64724119635252 A312.67660000000177 312.67660000000177 0.08506709142591995 0 1 579.2,201.5165952169496 L579.2,203.5165952169496 A310.67660000000177 310.67660000000177 0.08506709142591995 0 0 552.8035081350223,204.64000914905893 L461.96642092860844,212.38594923754664 A312.67660000000177 312.67660000000177 0.08506709142591995 0 1 435.40000000000003,213.51659521694955 Z" style="fill: rgb(250, 51, 51);"></path><title>Climb → Ⓓ
34.6m</title></g><g class="link" style="opacity: 0.8;"><path d="M435.40000000000003,214.94614089045962 A159.08829999999958 159.08829999999958 0.16935710310956664 0 1 462.2141237266302,217.22216469480279 L552.7229736429016,232.69873042605846 A157.08829999999958 157.08829999999958 0.16935710310956664 0 0 579.2,234.94614089045967 L579.2,236.94614089045967 A159.08829999999958 159.08829999999958 0.16935710310956664 0 1 552.38587627337,234.6701170861165 L461.87702635709854,219.19355135486083 A157.08829999999958 157.08829999999958 0.16935710310956664 0 0 435.40000000000003,216.94614089045962 Z" style="fill: rgb(250, 51, 51);"></path><title>Climb → Ⓖ
35.3m</title></g><g class="link" style="opacity: 0.8;"><path d="M435.40000000000003,215.77225904035092 A108.89219999999983 108.89219999999983 0.25213557294289757 0 1 462.5656177132258,219.2152274874426 L552.5333274401136,242.39252686632736 A106.89219999999983 106.89219999999983 0.25213557294289757 0 0 579.2,245.77225904035097 L579.2,247.77225904035097 A108.89219999999983 108.89219999999983 0.25213557294289757 0 1 552.0343822867743,244.3292905932593 L462.0666725598865,221.15199121437453 A106.89219999999983 106.89219999999983 0.25213557294289757 0 0 435.40000000000003,217.77225904035092 Z" style="fill: rgb(250, 51, 51);"></path><title>Climb → Ⓗ
38.5m</title></g><g class="link" style="opacity: 0.8;"><path d="M435.40000000000003,216.70114946967942 A84.5441499999999 84.5441499999999 0.33274755048793625 0 1 463.0155942494214,221.33852720678655 L552.2376879528226,252.1734748341378 A82.5441499999999 82.5441499999999 0.33274755048793625 0 0 579.2,256.7011494696795 L579.2,258.7011494696795 A84.5441499999999 84.5441499999999 0.33274755048793625 0 1 551.5844057505788,254.06377173257235 L462.3623120471774,223.2288241052211 A82.5441499999999 82.5441499999999 0.33274755048793625 0 0 435.40000000000003,218.70114946967942 Z" style="fill: rgb(250, 51, 51);"></path><title>Climb → Ⓘ
44.5m</title></g><g class="link" style="opacity: 0.8;"><path d="M435.40000000000003,217.8525446883085 A70.53531999999994 70.53531999999994 0.41064443260663497 0 1 463.5577186288484,223.7165862942563 L551.8406819066238,262.15477557126275 A68.53531999999994 68.53531999999994 0.41064443260663497 0 0 579.2,267.85254468830857 L579.2,269.85254468830857 A70.53531999999994 70.53531999999994 0.41064443260663497 0 1 551.0422813711516,263.98850308236075 L462.75931809337635,225.55031380535436 A68.53531999999994 68.53531999999994 0.41064443260663497 0 0 435.40000000000003,219.8525446883085 Z" style="fill: rgb(250, 51, 51);"></path><title>Climb → Ⓙ
58.4m</title></g><g class="link" style="opacity: 0.8;"><path d="M435.40000000000003,212.85435445915164 A0 0 0 0 1 435.40000000000003,212.85435445915164 L579.2,212.8543544591517 A0 0 0 0 0 579.2,212.8543544591517 L579.2,214.8543544591517 A0 0 0 0 1 579.2,214.8543544591517 L435.40000000000003,214.85435445915164 A0 0 0 0 0 435.40000000000003,214.85435445915164 Z" style="fill: rgb(250, 51, 51);"></path><title>Climb → Ⓔ
85.1m</title></g><g class="link" style="opacity: 0.8;"><path d="M435.40000000000003,40 A0 0 0 0 0 435.40000000000003,40 L579.2,40 A0 0 0 0 0 579.2,40 L579.2,42.38274847738424 A0 0 0 0 0 579.2,42.38274847738424 L435.40000000000003,42.38274847738424 A0 0 0 0 0 435.40000000000003,42.38274847738424 Z" style="fill: rgb(250, 51, 51);"></path><title>Aircraft → Ⓛ
107m</title></g><g class="link" style="opacity: 0.8;"><path d="M290.6,208.90322429248795 A1004.1099308534119 1004.1099308534119 0.019106625656629017 0 1 309.7839852895409,209.08650048090178 L415.3730589754549,211.10419692009322 A995.8900691465881 995.8900691465881 0.019106625656629017 0 0 434.40000000000003,211.2859727698722 L434.40000000000003,219.50583447669615 A1004.1099308534119 1004.1099308534119 0.019106625656629017 0 1 415.21601471045915,219.32255828828232 L309.62694102454515,217.30486184909088 A995.8900691465881 995.8900691465881 0.019106625656629017 0 0 290.6,217.1230859993119 Z" style="fill: rgb(250, 51, 51);"></path><title>Mission → Climb
367m</title></g><g class="link" style="opacity: 0.8;"><path d="M145.8,188.81627524637184 A39.947948861004036 39.947948861004036 0.6659572469171259 0 0 170.48032711797651,180.28042710389772 L253.9186330685469,114.72337622461298 A57.75439744597989 57.75439744597989 0.6659572469171259 0 1 289.6,102.38274847738427 L289.6,120.18919706236014 A39.947948861004036 39.947948861004036 0.6659572469171259 0 0 264.9196728820235,128.72504520483426 L181.48136693145312,194.282096084119 A57.75439744597989 57.75439744597989 0.6659572469171259 0 1 145.8,206.62272383134768 Z" style="fill: rgb(89, 173, 228);"></path><title>Wtotal [lbf] → Mission
796m</title></g><g class="link" style="opacity: 0.8;"><path d="M1,188.81627524637184 A0 0 0 0 0 1,188.81627524637184 L144.8,188.81627524637184 A0 0 0 0 0 144.8,188.81627524637184 L144.8,211.18372475362816 A0 0 0 0 0 144.8,211.18372475362816 L1,211.18372475362816 A0 0 0 0 0 1,211.18372475362816 Z" style="fill: rgb(89, 173, 228);"></path><title>(objective) → Wtotal [lbf]
1.00</title></g><g class="link" style="opacity: 0.8;"><path d="M580.2,279.5058344766962 A3.6172363647808723 3.6172363647808723 0.8569947839814256 0 0 582.9341909376869,278.25684616373843 L660.4220057506593,188.79557504406142 A84.11140188808471 84.11140188808471 0.8569947839814256 0 1 724,159.7529172383481 L724,240.2470827616519 A3.6172363647808723 3.6172363647808723 0.8569947839814256 0 0 721.2658090623131,241.4960710746097 L643.7779942493407,330.9573421942867 A84.11140188808471 84.11140188808471 0.8569947839814256 0 1 580.2,360.00000000000006 Z" style="fill: rgb(250, 51, 51);"></path><title>SteadyLevelFlight → Ⓚ
3.60</title></g><g class="link" style="opacity: 0.8;"><path d="M435.40000000000003,279.5058344766962 A0 0 0 0 0 435.40000000000003,279.5058344766962 L579.2,279.5058344766962 A0 0 0 0 0 579.2,279.5058344766962 L579.2,360.00000000000006 A0 0 0 0 0 579.2,360.00000000000006 L435.40000000000003,360.00000000000006 A0 0 0 0 0 435.40000000000003,360.00000000000006 Z" style="fill: rgb(250, 51, 51);"></path><title>FlightSegment → SteadyLevelFlight
3.60</title></g><g class="link" style="opacity: 0.8;"><path d="M290.6,217.12308599931194 A99.32602984387293 99.32602984387293 0.5027111398856023 0 1 338.4555814236061,229.41174725270787 L425.3267508449913,277.17594772123897 A18.83186432056909 18.83186432056909 0.5027111398856023 0 0 434.40000000000003,279.5058344766962 L434.40000000000003,360.00000000000006 A99.32602984387293 99.32602984387293 0.5027111398856023 0 1 386.544418576394,347.7113387466041 L299.67324915500876,299.947138278073 A18.83186432056909 18.83186432056909 0.5027111398856023 0 0 290.6,297.6172515226158 Z" style="fill: rgb(250, 51, 51);"></path><title>Mission → FlightSegment
3.60</title></g><g class="link" style="opacity: 0.8;"><path d="M290.6,102.38274847738427 A5.8187091746691735 5.8187091746691735 0.5027111398856023 0 0 293.403471669273,101.66285515141593 L380.27464109065824,53.89865468288481 A112.33918498977283 112.33918498977283 0.5027111398856023 0 1 434.40000000000003,40.00000000000001 L434.40000000000003,146.52047581510368 A5.8187091746691735 5.8187091746691735 0.5027111398856023 0 0 431.59652833072704,147.240369141072 L344.7253589093418,195.00456960960312 A112.33918498977283 112.33918498977283 0.5027111398856023 0 1 290.6,208.90322429248795 Z" style="fill: rgb(89, 173, 228);"></path><title>Mission → Aircraft
4.76</title></g><g class="link" style="opacity: 0.8;"><path d="M435.40000000000003,42.382748477384254 A366.128212146244 366.128212146244 0.08506709142592128 0 1 466.5079121293888,43.70667675026793 L557.3449993358022,51.452616838755645 A257.22498785375603 257.22498785375603 0.08506709142592128 0 0 579.2,52.382748477384254 L579.2,161.28597276987216 A366.128212146244 366.128212146244 0.08506709142592128 0 1 548.0920878706113,159.96204449698848 L457.2550006641979,152.21610440850077 A257.22498785375603 257.22498785375603 0.08506709142592128 0 0 435.40000000000003,151.28597276987216 Z" style="fill: rgb(89, 173, 228);"></path><title>Aircraft → Ⓜ
4.87</title></g></g><g class="nodes"><g class="node" transform="translate(144.8,188.81627524637184)"><title>Wtotal [lbf]</title><text dy=".35em" text-anchor="start" transform="translate(-4,-10)" style="display: inline;">Wtotal [lbf]</text><line x1="0" x2="0" y1="-5" y2="22.367449507256282" style="display: inline; stroke: rgb(0, 0, 0);"></line><rect x="-5" y="-5" width="10" height="27.367449507256282" style="fill: none; visibility: hidden; pointer-events: all;"></rect></g><g class="node" transform="translate(579.2,40)"><title>Ⓛ</title><text dy=".35em" text-anchor="start" transform="translate(4,1.1913742386921236)" style="display: inline;">Ⓛ</text><line x1="0" x2="0" y1="0" y2="2.382748477384247" style="display: inline; stroke: rgb(0, 0, 0);"></line><rect x="-5" y="-5" width="10" height="7.382748477384247" style="fill: none; visibility: hidden; pointer-events: all;"></rect></g><g class="node" transform="translate(724,159.7529172383481)"><title>Ⓚ</title><text dy=".35em" text-anchor="start" transform="translate(4,40.247082761651924)" style="display: inline;">Ⓚ</text><line x1="0" x2="0" y1="0" y2="80.49416552330385" style="display: inline; stroke: rgb(0, 0, 0);"></line><rect x="-5" y="-5" width="10" height="85.49416552330385" style="fill: none; visibility: hidden; pointer-events: all;"></rect></g><g class="node" transform="translate(579.2,52.38274847738425)"><title>Ⓜ</title><text dy=".35em" text-anchor="start" transform="translate(4,54.45161214624396)" style="display: inline;">Ⓜ</text><line x1="0" x2="0" y1="0" y2="108.90322429248792" style="display: inline; stroke: rgb(0, 0, 0);"></line><rect x="-5" y="-5" width="10" height="113.90322429248792" style="fill: none; visibility: hidden; pointer-events: all;"></rect></g><g class="node" transform="translate(579.2,279.5058344766962)"><title>SteadyLevelFlight</title><text dy=".35em" text-anchor="start" transform="translate(4,40.24708276165191)" style="display: inline;">SteadyLevelFlight</text><line x1="0" x2="0" y1="0" y2="80.49416552330382" style="display: inline; stroke: rgb(0, 0, 0);"></line><rect x="-5" y="-5" width="10" height="85.49416552330382" style="fill: none; visibility: hidden; pointer-events: all;"></rect></g><g class="node" transform="translate(434.40000000000003,279.5058344766962)"><title>FlightSegment</title><text dy=".35em" text-anchor="start" transform="translate(-4,-10)" style="display: inline;">FlightSegment</text><line x1="0" x2="0" y1="-5" y2="80.49416552330382" style="display: inline; stroke: rgb(0, 0, 0);"></line><rect x="-5" y="-5" width="10" height="85.49416552330382" style="fill: none; visibility: hidden; pointer-events: all;"></rect></g><g class="node" transform="translate(0,188.81627524637184)"><title>(objective)</title><text dy=".35em" text-anchor="end" transform="translate(-4,11.183724753628141)" style="display: inline;">(objective)</text><line x1="0" x2="0" y1="0" y2="22.367449507256282" style="display: inline; stroke: rgb(0, 0, 0);"></line><rect x="-5" y="-5" width="10" height="27.367449507256282" style="fill: none; visibility: hidden; pointer-events: all;"></rect></g><g class="node" transform="translate(289.6,102.38274847738427)"><title>Mission</title><text dy=".35em" text-anchor="start" transform="translate(-4,-10)" style="display: inline;">Mission</text><line x1="0" x2="0" y1="-5" y2="195.23450304523146" style="display: inline; stroke: rgb(0, 0, 0);"></line><rect x="-5" y="-5" width="10" height="200.23450304523146" style="fill: none; visibility: hidden; pointer-events: all;"></rect></g><g class="node" transform="translate(579.2,235.55080773965543)"><title>Ⓖ</title><text dy=".35em" text-anchor="start" transform="translate(4,0.39533315080426235)" style="display: inline;">Ⓖ</text><line x1="0" x2="0" y1="0" y2="1" style="display: inline; stroke: rgb(0, 0, 0);"></line><rect x="-5" y="-5" width="10" height="6" style="fill: none; visibility: hidden; pointer-events: all;"></rect></g><g class="node" transform="translate(434.40000000000003,40)"><title>Aircraft</title><text dy=".35em" text-anchor="start" transform="translate(-4,-10)" style="display: inline;">Aircraft</text><line x1="0" x2="0" y1="-5" y2="111.28597276987216" style="display: inline; stroke: rgb(0, 0, 0);"></line><rect x="-5" y="-5" width="10" height="116.28597276987216" style="fill: none; visibility: hidden; pointer-events: all;"></rect></g><g class="node" transform="translate(579.2,181.45365263658317)"><title>Ⓑ</title><text dy=".35em" text-anchor="start" transform="translate(4,0.1303820999227412)" style="display: inline;">Ⓑ</text><line x1="0" x2="0" y1="0" y2="1" style="display: inline; stroke: rgb(0, 0, 0);"></line><rect x="-5" y="-5" width="10" height="6" style="fill: none; visibility: hidden; pointer-events: all;"></rect></g><g class="node" transform="translate(579.2,171.28597276987216)"><title>Ⓐ</title><text dy=".35em" text-anchor="start" transform="translate(4,0.08383993335549178)" style="display: inline;">Ⓐ</text><line x1="0" x2="0" y1="0" y2="1" style="display: inline; stroke: rgb(0, 0, 0);"></line><rect x="-5" y="-5" width="10" height="6" style="fill: none; visibility: hidden; pointer-events: all;"></rect></g><g class="node" transform="translate(579.2,202.13009463644403)"><title>Ⓓ</title><text dy=".35em" text-anchor="start" transform="translate(4,0.386500580505583)" style="display: inline;">Ⓓ</text><line x1="0" x2="0" y1="0" y2="1" style="display: inline; stroke: rgb(0, 0, 0);"></line><rect x="-5" y="-5" width="10" height="6" style="fill: none; visibility: hidden; pointer-events: all;"></rect></g><g class="node" transform="translate(579.2,191.71441683642868)"><title>Ⓒ</title><text dy=".35em" text-anchor="start" transform="translate(4,0.20783890000765837)" style="display: inline;">Ⓒ</text><line x1="0" x2="0" y1="0" y2="1" style="display: inline; stroke: rgb(0, 0, 0);"></line><rect x="-5" y="-5" width="10" height="6" style="fill: none; visibility: hidden; pointer-events: all;"></rect></g><g class="node" transform="translate(434.40000000000003,211.2859727698722)"><title>Climb</title><text dy=".35em" text-anchor="start" transform="translate(-4,-10)" style="display: inline;">Climb</text><line x1="0" x2="0" y1="-5" y2="8.219861706823963" style="display: inline; stroke: rgb(0, 0, 0);"></line><rect x="-5" y="-5" width="10" height="13.219861706823963" style="fill: none; visibility: hidden; pointer-events: all;"></rect></g><g class="node" transform="translate(579.2,212.9030957974552)"><title>Ⓔ</title><text dy=".35em" text-anchor="start" transform="translate(4,0.9512586616964995)" style="display: inline;">Ⓔ</text><line x1="0" x2="0" y1="0" y2="1.902517323392999" style="display: inline; stroke: rgb(0, 0, 0);"></line><rect x="-5" y="-5" width="10" height="6.902517323392999" style="fill: none; visibility: hidden; pointer-events: all;"></rect></g><g class="node" transform="translate(579.2,246.34147404126395)"><title>Ⓗ</title><text dy=".35em" text-anchor="start" transform="translate(4,0.43078499908702383)" style="display: inline;">Ⓗ</text><line x1="0" x2="0" y1="0" y2="1" style="display: inline; stroke: rgb(0, 0, 0);"></line><rect x="-5" y="-5" width="10" height="6" style="fill: none; visibility: hidden; pointer-events: all;"></rect></g><g class="node" transform="translate(579.2,224.8056131208482)"><title>Ⓕ</title><text dy=".35em" text-anchor="start" transform="translate(4,0.37259730940361635)" style="display: inline;">Ⓕ</text><line x1="0" x2="0" y1="0" y2="1" style="display: inline; stroke: rgb(0, 0, 0);"></line><rect x="-5" y="-5" width="10" height="6" style="fill: none; visibility: hidden; pointer-events: all;"></rect></g><g class="node" transform="translate(579.2,268.19925489992096)"><title>Ⓙ</title><text dy=".35em" text-anchor="start" transform="translate(4,0.6532897883876103)" style="display: inline;">Ⓙ</text><line x1="0" x2="0" y1="0" y2="1.3065795767752206" style="display: inline; stroke: rgb(0, 0, 0);"></line><rect x="-5" y="-5" width="10" height="6.306579576775221" style="fill: none; visibility: hidden; pointer-events: all;"></rect></g><g class="node" transform="translate(579.2,257.203044039438)"><title>Ⓘ</title><text dy=".35em" text-anchor="start" transform="translate(4,0.49810543024148046)" style="display: inline;">Ⓘ</text><line x1="0" x2="0" y1="0" y2="1" style="display: inline; stroke: rgb(0, 0, 0);"></line><rect x="-5" y="-5" width="10" height="6" style="fill: none; visibility: hidden; pointer-events: all;"></rect></g></g><g class="slice-titles"></g></g></svg>