<?xml version="1.0" encoding="utf-8" standalone="no"?>
<!DOCTYPE svg PUBLIC "-//W3C//DTD SVG 1.1//EN"
  "http://www.w3.org/Graphics/SVG/1.1/DTD/svg11.dtd">
<svg width="950" height="400" viewBox="0 0 950 400" xmlns="http://www.w3.org/2000/svg" xmlns:xlink="http://www.w3.org/1999/xlink"><g class="sankey" transform="translate(120,0)"><g class="groups"></g><g class="links"><g class="link" style="opacity: 0.8;"><path d="M483.6666666666667,106.59766294811114 A999 999 0.01710236265902898 0 0 500.7510940949507,106.45156735027533 L586.2147028471348,104.9897951981609 A1001 1001 0.01710236265902898 0 1 603.3333333333334,104.84340711664575 L603.3333333333334,106.84340711664575 A999 999 0.01710236265902898 0 0 586.2489059050494,106.98950271448156 L500.7852971528652,108.45127486659598 A1001 1001 0.01710236265902898 0 1 483.6666666666667,108.59766294811114 Z" style="fill: rgb(207, 207, 207);"></path><title>TailBoom → ⓑ ❹≥❶
1.79µ</title></g><g class="link" style="opacity: 0.8;"><path d="M483.6666666666667,90.07834674390988 A165.5246604642891 165.5246604642891 0.13312880828222418 0 0 505.6377331175348,88.61369195080721 L581.0967950622634,78.50814515696737 A167.5246604642891 167.5246604642891 0.13312880828222418 0 1 603.3333333333334,77.02579324503064 L603.3333333333334,79.02579324503064 A165.5246604642891 165.5246604642891 0.13312880828222418 0 0 581.3622668824652,80.49044803813331 L505.90320493773663,90.59599483197314 A167.5246604642891 167.5246604642891 0.13312880828222418 0 1 483.6666666666667,92.07834674390988 Z" style="fill: rgb(207, 207, 207);"></path><title>TailBoom → Ⓩ ❸≥❶
1.79µ</title></g><g class="link" style="opacity: 0.8;"><path d="M1,318.99699392446377 A109.40081724116537 109.40081724116537 0.20296609648745845 0 0 23.052516192209907,316.751322815564 L98.21099962516105,301.28371596034805 A111.40081724116537 111.40081724116537 0.20296609648745845 0 1 120.66666666666667,298.9969908416971 L120.66666666666667,300.9969908416971 A109.40081724116537 109.40081724116537 0.20296609648745845 0 0 98.61415047445676,303.24266195059687 L23.455667041505613,318.7102688058128 A111.40081724116537 111.40081724116537 0.20296609648745845 0 1 1,320.99699392446377 Z" style="fill: rgb(207, 207, 207);"></path><title>tshear_(1,) [in] ❸ → Mission
1.79µ</title></g><g class="link" style="opacity: 0.8;"><path d="M483.6666666666667,90.07634680390808 A116.66200092667567 116.66200092667567 0.18999832734744593 0 0 505.69913162400496,87.97696171730188 L580.9231538711464,73.51002045590569 A118.66200092667567 118.66200092667567 0.18999832734744593 0 1 603.3333333333334,71.37464447132191 L603.3333333333334,73.37464447132191 A116.66200092667567 116.66200092667567 0.18999832734744593 0 0 581.300868375995,75.47402955792812 L506.0768461288536,89.9409708193243 A118.66200092667567 118.66200092667567 0.18999832734744593 0 1 483.6666666666667,92.07634680390808 Z" style="fill: rgb(207, 207, 207);"></path><title>TailBoom → Ⓑ ❷≥❶
1.79µ</title></g><g class="link" style="opacity: 0.8;"><path d="M1,278.9949878189285 A111.40081724116477 111.40081724116477 0.22897781588341082 0 1 26.28599570380054,281.9026693174723 L79.12862619575203,294.2184579473339 A183.00136206860796 183.00136206860796 0.22897781588341082 0 0 120.66666666666667,298.9949909016953 L120.66666666666667,300.9949909016953 A185.00136206860796 185.00136206860796 0.22897781588341082 0 1 78.67466191918733,296.1662557899252 L25.832031427235844,283.8504671600636 A109.40081724116477 109.40081724116477 0.22897781588341082 0 0 1,280.9949878189285 Z" style="fill: rgb(207, 207, 207);"></path><title>tshear_(0,) [in] ❷ → Mission
1.79µ</title></g><g class="link" style="opacity: 0.8;"><path d="M1,358.9990000299991 A43.80027364682839 43.80027364682839 0.5712258961569023 0 0 24.68121915672914,352.04521645736924 L95.9041200576172,306.27029673460873 A45.80027364682839 45.80027364682839 0.5712258961569023 0 1 120.66666666666667,298.99899078169886 L120.66666666666667,300.99899078169886 A43.80027364682839 43.80027364682839 0.5712258961569023 0 0 96.98544750993753,307.9527743543287 L25.76254660904947,353.7276940770892 A45.80027364682839 45.80027364682839 0.5712258961569023 0 1 1,360.9990000299991 Z" style="fill: rgb(207, 207, 207);"></path><title>tshear_(2,) [in] ❹ → Mission
1.79µ</title></g><g class="link" style="opacity: 0.8;"><path d="M604.3333333333334,41.00538710690542 A37.22672332945182 37.22672332945182 0.8868237629927118 0 1 633.1866002497775,54.70939974868387 L696.6968704223217,132.61193409325557 A35.22672332945182 35.22672332945182 0.8868237629927118 0 0 724,145.5797007581588 L724,147.5797007581588 A37.22672332945182 37.22672332945182 0.8868237629927118 0 1 695.1467330835559,133.87568811638033 L631.6364629110117,55.97315377180862 A35.22672332945182 35.22672332945182 0.8868237629927118 0 0 604.3333333333334,43.00538710690542 Z" style="fill: rgb(207, 207, 207);"></path><title>BoxSpar → Ⓦ
865µ</title></g><g class="link" style="opacity: 0.8;"><path d="M604.3333333333334,147.0916427959011 A42.855323199371036 42.855323199371036 1.3163437562002391 0 1 645.808768148072,179.15961073779974 L684.4601676597446,327.76726874872315 A40.855323199371036 40.855323199371036 1.3163437562002391 0 0 724,358.3386679776658 L724,360.3386679776658 A42.855323199371036 42.855323199371036 1.3163437562002391 0 1 682.5245651852614,328.27070003576716 L643.8731656735888,179.6630420248437 A40.855323199371036 40.855323199371036 1.3163437562002391 0 0 604.3333333333334,149.0916427959011 Z" style="fill: rgb(207, 207, 207);"></path><title>BoxSpar.1 → Ⓨ
1.19m</title></g><g class="link" style="opacity: 0.8;"><path d="M604.3333333333334,39.761664380332114 A0 0 0 0 0 604.3333333333334,39.761664380332114 L724,39.761664380332114 A0 0 0 0 0 724,39.761664380332114 L724,41.761664380332114 A0 0 0 0 0 724,41.761664380332114 L604.3333333333334,41.761664380332114 A0 0 0 0 0 604.3333333333334,41.761664380332114 Z" style="fill: rgb(207, 207, 207);"></path><title>BoxSpar → Ⓥ
1.37m</title></g><g class="link" style="opacity: 0.8;"><path d="M483.6666666666667,358.1076025388114 A0 0 0 0 0 483.6666666666667,358.1076025388114 L603.3333333333334,358.10760253881136 A0 0 0 0 1 603.3333333333334,358.10760253881136 L603.3333333333334,360.10760253881136 A0 0 0 0 0 603.3333333333334,360.10760253881136 L483.6666666666667,360.1076025388114 A0 0 0 0 1 483.6666666666667,360.1076025388114 Z" style="fill: rgb(207, 207, 207);"></path><title>BoxSpar.2 → Ⓤ
1.60m</title></g><g class="link" style="opacity: 0.8;"><path d="M604.3333333333334,144.96336122514202 A44.983604770130114 44.983604770130114 0.9297145272268666 0 1 640.3854093191504,163.0439454357114 L696.0262580570354,237.60687795745412 A34.90394705700087 34.90394705700087 0.9297145272268666 0 0 724,251.63607275565334 L724,254.1030223040782 A37.370896605425706 37.370896605425706 0.9297145272268666 0 1 694.0491232091842,239.08226870836927 L638.4082744712993,164.51933618662656 A42.51665522170528 42.51665522170528 0.9297145272268666 0 0 604.3333333333334,147.43031077356687 Z" style="fill: rgb(207, 207, 207);"></path><title>BoxSpar.1 → Ⓧ
2.21m</title></g><g class="link" style="opacity: 0.8;"><path d="M363,40 A0 0 0 0 0 363,40 L482.6666666666667,40 A0 0 0 0 0 482.6666666666667,40 L482.6666666666667,42.48744545314662 A0 0 0 0 0 482.6666666666667,42.48744545314662 L363,42.48744545314662 A0 0 0 0 0 363,42.48744545314662 Z" style="fill: rgb(207, 207, 207);"></path><title>Empennage → HorizontalTail
2.23m</title></g><g class="link" style="opacity: 0.8;"><path d="M483.6666666666667,40 A0 0 0 0 0 483.6666666666667,40 L603.3333333333334,40 A0 0 0 0 0 603.3333333333334,40 L603.3333333333334,42.48744545314662 A0 0 0 0 0 603.3333333333334,42.48744545314662 L483.6666666666667,42.48744545314662 A0 0 0 0 0 483.6666666666667,42.48744545314662 Z" style="fill: rgb(207, 207, 207);"></path><title>HorizontalTail → BoxSpar
2.23m</title></g><g class="link" style="opacity: 0.8;"><path d="M483.6666666666667,355.20409111406616 A379.57903866619944 379.57903866619944 0.05779499207992855 0 0 505.592223261031,354.57032100624764 L581.2338462978888,350.19373994193313 A382.59015262975623 382.59015262975623 0.05779499207992855 0 1 603.3333333333334,349.55494228035917 L603.3333333333334,352.56605624391597 A379.57903866619944 379.57903866619944 0.05779499207992855 0 0 581.4077767389691,353.1998263517345 L505.7661537021113,357.576407416049 A382.59015262975623 382.59015262975623 0.05779499207992855 0 1 483.6666666666667,358.21520507762295 Z" style="fill: rgb(207, 207, 207);"></path><title>BoxSpar.2 → Ⓣ
2.70m</title></g><g class="link" style="opacity: 0.8;"><path d="M483.6666666666667,351.81603760334394 A190.11932955621282 190.11932955621282 0.11534504683027569 0 0 505.5473956023341,350.5527197919197 L581.0626751849936,341.8035709150377 A193.50738306693503 193.50738306693503 0.11534504683027569 0 1 603.3333333333334,340.51773993593 L603.3333333333334,343.90579344665224 A190.11932955621282 190.11932955621282 0.11534504683027569 0 0 581.4526043976659,345.1691112580765 L505.93732481500643,353.9182601349585 A193.50738306693503 193.50738306693503 0.11534504683027569 0 1 483.6666666666667,355.20409111406616 Z" style="fill: rgb(207, 207, 207);"></path><title>BoxSpar.2 → Ⓢ
3.04m</title></g><g class="link" style="opacity: 0.8;"><path d="M483.6666666666667,348.0898539788926 A127.42476627058436 127.42476627058436 0.17241152695524886 0 0 505.5274836019479,346.2006433968668 L580.8332574810815,333.0868627797993 A131.15094989503567 131.15094989503567 0.17241152695524886 0 1 603.3333333333334,331.1424074777718 L603.3333333333334,334.86859110222315 A127.42476627058436 127.42476627058436 0.17241152695524886 0 0 581.4725163980522,336.757801684249 L506.16674251891857,349.8715823013165 A131.15094989503567 131.15094989503567 0.17241152695524886 0 1 483.6666666666667,351.81603760334394 Z" style="fill: rgb(207, 207, 207);"></path><title>BoxSpar.2 → Ⓡ
3.34m</title></g><g class="link" style="opacity: 0.8;"><path d="M363,99.76417073548123 A46.69240498489061 46.69240498489061 0.5712753832414187 0 1 388.24683345771274,107.17836186546808 L459.4688975757364,152.9577243880281 A42.90279139179729 42.90279139179729 0.5712753832414187 0 0 482.6666666666667,159.77017055548663 L482.6666666666667,163.55978414857992 A46.69240498489061 46.69240498489061 0.5712753832414187 0 1 457.41983320895395,156.1455930185931 L386.1977690909303,110.36623049603307 A42.90279139179729 42.90279139179729 0.5712753832414187 0 0 363,103.55378432857455 Z" style="fill: rgb(207, 207, 207);"></path><title>Empennage → VerticalTail
3.40m</title></g><g class="link" style="opacity: 0.8;"><path d="M483.6666666666667,159.77017055548663 A145.3957308467639 145.3957308467639 0.15085890450118944 0 0 505.51780389255214,158.11881820889272 L580.9126651716116,146.65775463809456 A149.1853444398572 149.1853444398572 0.15085890450118944 0 1 603.3333333333334,144.96336122514202 L603.3333333333334,148.75297481823532 A145.3957308467639 145.3957308467639 0.15085890450118944 0 0 581.482196107448,150.40432716482923 L506.0873348283884,161.8653907356274 A149.1853444398572 149.1853444398572 0.15085890450118944 0 1 483.6666666666667,163.55978414857992 Z" style="fill: rgb(207, 207, 207);"></path><title>VerticalTail → BoxSpar.1
3.40m</title></g><g class="link" style="opacity: 0.8;"><path d="M483.6666666666667,344.0304830672045 A105.39965619491957 105.39965619491957 0.2319017571560993 0 0 507.8905418204628,341.20904775050326 L580.2404860011133,324.1235884764836 A100.47848058679962 100.47848058679962 0.2319017571560993 0 1 603.3333333333334,321.4338877323768 L603.3333333333334,325.4932586440649 A96.41910967511147 96.41910967511147 0.2319017571560993 0 0 581.1734462945116,328.0742943994298 L508.82350211386097,345.1597536734495 A109.45902710660772 109.45902710660772 0.2319017571560993 0 1 483.6666666666667,348.0898539788926 Z" style="fill: rgb(207, 207, 207);"></path><title>BoxSpar.2 → Ⓠ
3.64m</title></g><g class="link" style="opacity: 0.8;"><path d="M483.6666666666667,339.6424509641342 A101.01162409184928 101.01162409184928 0.29731516791432355 0 0 513.258448878308,335.21071415329106 L579.1709602020096,315.0153221827218 A82.47832234140061 82.47832234140061 0.29731516791432355 0 1 603.3333333333334,311.3967067955996 L603.3333333333334,315.78473889866984 A78.09029023833033 78.09029023833033 0.29731516791432355 0 0 580.4564527529826,319.21083581504 L514.543941429281,339.4062277856093 A105.39965619491957 105.39965619491957 0.29731516791432355 0 1 483.6666666666667,344.03048306720444 Z" style="fill: rgb(207, 207, 207);"></path><title>BoxSpar.2 → Ⓟ
3.94m</title></g><g class="link" style="opacity: 0.8;"><path d="M483.6666666666667,334.9317779788651 A96.30095110658021 96.30095110658021 0.3643139437052545 0 0 517.9794995661961,328.6113952325755 L578.102269390449,305.68441675233197 A70.8124409967918 70.8124409967918 0.3643139437052545 0 1 603.3333333333334,301.0368849766236 L603.3333333333334,305.74755796189265 A66.10176801152274 66.10176801152274 0.3643139437052545 0 0 579.780721504686,310.0859208673315 L519.657951680433,333.012899347575 A101.01162409184928 101.01162409184928 0.3643139437052545 0 1 483.6666666666667,339.6424509641342 Z" style="fill: rgb(207, 207, 207);"></path><title>BoxSpar.2 → Ⓞ
4.23m</title></g><g class="link" style="opacity: 0.8;"><path d="M483.6666666666667,329.9056766713351 A91.27484979905017 91.27484979905017 0.4313369668580438 0 0 521.8273749119734,321.54559366358535 L577.0924944897115,296.1103643798033 A62.76426026100388 62.76426026100388 0.4313369668580438 0 1 603.3333333333334,290.3616348353866 L603.3333333333334,295.3877361429166 A57.73815895347385 57.73815895347385 0.4313369668580438 0 0 579.193835505668,300.67611298087786 L523.9287159279298,326.1113422646599 A96.30095110658021 96.30095110658021 0.4313369668580438 0 1 483.6666666666667,334.93177797886506 Z" style="fill: rgb(207, 207, 207);"></path><title>BoxSpar.2 → Ⓝ
4.51m</title></g><g class="link" style="opacity: 0.8;"><path d="M483.6666666666667,324.5720927799832 A85.94126590769832 85.94126590769832 0.49632026157005615 0 0 524.5912981196773,314.20248641640876 L576.2020340394068,286.253512432314 A56.97542346149 56.97542346149 0.49632026157005615 0 1 603.3333333333334,279.37890211032783 L603.3333333333334,284.7124860016797 A51.64183957013814 51.64183957013814 0.49632026157005615 0 0 578.741849490947,290.9435502358083 L527.1311135712174,318.89252421990307 A91.27484979905017 91.27484979905017 0.49632026157005615 0 1 483.6666666666667,329.9056766713351 Z" style="fill: rgb(207, 207, 207);"></path><title>BoxSpar.2 → Ⓜ
4.79m</title></g><g class="link" style="opacity: 0.8;"><path d="M483.6666666666667,318.9393319469811 A80.30850507469617 80.30850507469617 0.5570005747148503 0 0 526.1211582837215,306.8002637840707 L575.4784647953755,276.06157133673514 A52.69131171121941 52.69131171121941 0.5570005747148503 0 1 603.3333333333334,268.0969924436188 L603.3333333333334,273.72975327662095 A47.058550878217275 47.058550878217275 0.5570005747148503 0 0 578.4561817550317,280.84290967552465 L529.0988752433776,311.5816021228602 A85.94126590769832 85.94126590769832 0.5570005747148503 0 1 483.6666666666667,324.5720927799833 Z" style="fill: rgb(207, 207, 207);"></path><title>BoxSpar.2 → Ⓛ
5.06m</title></g><g class="link" style="opacity: 0.8;"><path d="M483.6666666666667,313.0157867262375 A74.38495985395255 74.38495985395255 0.6114397948553061 0 0 526.3671290399634,299.5388950207726 L574.9414179566359,265.48520296901575 A49.4592181932248 49.4592181932248 0.6114397948553061 0 1 603.3333333333334,256.5242983891682 L603.3333333333334,262.4478436099119 A43.53567297248118 43.53567297248118 0.6114397948553061 0 0 578.3418112661368,270.3355342281046 L529.7675223494643,304.3892262798615 A80.30850507469617 80.30850507469617 0.6114397948553061 0 1 483.6666666666667,318.93933194698116 Z" style="fill: rgb(207, 207, 207);"></path><title>BoxSpar.2 → Ⓚ
5.32m</title></g><g class="link" style="opacity: 0.8;"><path d="M483.6666666666667,306.8097482746344 A68.17892140234946 68.17892140234946 0.658511908299733 0 0 525.3881162376514,292.55379015587613 L574.5775502675641,254.49478215012016 A46.991135103502145 46.991135103502145 0.658511908299733 0 1 603.3333333333334,244.6691111038582 L603.3333333333334,250.8751495554613 A40.78509665189904 40.78509665189904 0.658511908299733 0 0 578.37527711581,259.40316111357527 L529.1858430858973,297.46216911933124 A74.38495985395255 74.38495985395255 0.658511908299733 0 1 483.6666666666667,313.01578672623754 Z" style="fill: rgb(207, 207, 207);"></path><title>BoxSpar.2 → Ⓙ
5.57m</title></g><g class="link" style="opacity: 0.8;"><path d="M483.6666666666667,300.32927264166204 A61.698445769377116 61.698445769377116 0.6980519943608823 0 0 523.3218957929374,285.8977393301527 L574.349488986822,243.0874351523768 A45.09514099406913 45.09514099406913 0.6980519943608823 0 1 603.3333333333334,232.53948663717892 L603.3333333333334,239.01996227015127 A38.61466536109679 38.61466536109679 0.6980519943608823 0 0 578.5146627260976,248.05209950671102 L527.487069532213,290.86240368448694 A68.17892140234946 68.17892140234946 0.6980519943608823 0 1 483.6666666666667,306.8097482746344 Z" style="fill: rgb(207, 207, 207);"></path><title>BoxSpar.2 → Ⓘ
5.82m</title></g><g class="link" style="opacity: 0.8;"><path d="M483.6666666666667,293.5820871721635 A54.95126029987854 54.95126029987854 0.7306346634278669 0 0 520.3379745547925,279.5558337301865 L574.2115437314039,231.2818224595856 A43.63845013916439 43.63845013916439 0.7306346634278669 0 1 603.3333333333334,220.14315233397343 L603.3333333333334,226.890337803472 A36.891264669665816 36.891264669665816 0.7306346634278669 0 0 578.7142269161027,236.30679568320016 L524.8406577394912,284.5808069538011 A61.698445769377116 61.698445769377116 0.7306346634278669 0 1 483.6666666666667,300.3292726416621 Z" style="fill: rgb(207, 207, 207);"></path><title>BoxSpar.2 → Ⓗ
6.06m</title></g><g class="link" style="opacity: 0.8;"><path d="M483.6666666666667,286.57553033667017 A47.94470346438524 47.94470346438524 0.7572073850934836 0 0 516.5996233068058,273.4749792830775 L574.1222536895369,219.1074552897412 A42.52629263445448 42.52629263445448 0.7572073850934836 0 1 603.3333333333334,207.4874466647732 L603.3333333333334,214.4940035002665 A35.51973579896118 35.51973579896118 0.7572073850934836 0 0 578.9350195591054,224.1995200353739 L521.4123891763743,278.5670440287102 A54.95126029987854 54.95126029987854 0.7572073850934836 0 1 483.6666666666667,293.5820871721634 Z" style="fill: rgb(207, 207, 207);"></path><title>BoxSpar.2 → Ⓖ
6.29m</title></g><g class="link" style="opacity: 0.8;"><path d="M483.6666666666667,279.3165093897866 A40.68568251750163 40.68568251750163 0.7787926070765617 0 0 512.2451263536168,267.589355906687 L574.0499517345277,206.59569464340092 A41.689243570810774 41.689243570810774 0.7787926070765617 0 1 603.3333333333334,194.57927688418266 L603.3333333333334,201.83829783106626 A34.430222623927165 34.430222623927165 0.7787926070765617 0 0 579.1488372554477,211.76239103005327 L517.3440118745368,272.75605229333934 A47.94470346438524 47.94470346438524 0.7787926070765617 0 1 483.6666666666667,286.5755303366702 Z" style="fill: rgb(207, 207, 207);"></path><title>BoxSpar.2 → Ⓕ
6.51m</title></g><g class="link" style="opacity: 0.8;"><path d="M483.6666666666667,271.81147585662313 A33.18064898433818 33.18064898433818 0.7963243587939595 0 0 507.3838762560567,261.8353401469651 L573.9731026280647,193.77484607129188 A41.07530042516122 41.07530042516122 0.7963243587939595 0 1 603.3333333333334,181.4250945173123 L603.3333333333334,188.93012805047573 A33.57026689199776 33.57026689199776 0.7963243587939595 0 0 579.337628601184,199.02340677091573 L512.748402229176,267.0839008465889 A40.68568251750163 40.68568251750163 0.7963243587939595 0 1 483.6666666666667,279.3165093897866 Z" style="fill: rgb(207, 207, 207);"></path><title>BoxSpar.2 → Ⓔ
6.74m</title></g><g class="link" style="opacity: 0.8;"><path d="M483.6666666666667,264.06640770474763 A25.43558083246267 25.43558083246267 0.8105889887908393 0 0 502.0996580037611,256.15776621294987 L573.8783546101723,180.6684827152808 A40.64475909147429 40.64475909147429 0.8105889887908393 0 1 603.3333333333334,168.03087753172986 L603.3333333333334,175.77594568360536 A32.89969093959878 32.89969093959878 0.8105889887908393 0 0 579.4911524892174,186.0053901199659 L507.7124558828061,261.494673617635 A33.18064898433818 33.18064898433818 0.8105889887908393 0 1 483.6666666666667,271.8114758566232 Z" style="fill: rgb(207, 207, 207);"></path><title>BoxSpar.2 → Ⓓ
6.95m</title></g><g class="link" style="opacity: 0.8;"><path d="M483.6666666666667,256.08680265866695 A17.455975786382005 17.455975786382005 0.8222219311329251 0 0 496.45595965535534,250.51127616952255 L573.7582027910688,167.2954809238525 A40.366794558656025 40.366794558656025 0.8222219311329251 0 1 603.3333333333334,154.40212365194228 L603.3333333333334,162.38172869802295 A32.38718951257536 32.38718951257536 0.8222219311329251 0 0 579.6045392042964,172.72635997192612 L502.30229606858296,255.94215521759617 A25.43558083246267 25.43558083246267 0.8222219311329251 0 1 483.6666666666667,264.06640770474763 Z" style="fill: rgb(207, 207, 207);"></path><title>BoxSpar.2 → Ⓒ
7.16m</title></g><g class="link" style="opacity: 0.8;"><path d="M483.6666666666667,121.11346067814237 A230.82358767219378 230.82358767219378 0.09751456416107218 0 1 506.1396723579957,122.21005245942997 L581.7031457105721,129.6020368456075 A222.1668777948495 222.1668777948495 0.09751456416107218 0 0 603.3333333333334,130.65750251409085 L603.3333333333334,139.31421239143512 A230.82358767219378 230.82358767219378 0.09751456416107218 0 1 580.8603276420043,138.21762061014752 L505.29685428942804,130.82563622396998 A222.1668777948495 222.1668777948495 0.09751456416107218 0 0 483.6666666666667,129.77017055548663 Z" style="fill: rgb(207, 207, 207);"></path><title>TailBoom → ⓓ
7.77m</title></g><g class="link" style="opacity: 0.8;"><path d="M483.6666666666667,107.59866291811203 A558.8373133100115 558.8373133100115 0.03986248508556001 0 1 505.9374115387735,108.0426053233522 L581.6011792205461,111.06034971987465 A545.3225155499811 545.3225155499811 0.03986248508556001 0 0 603.3333333333334,111.49355592035357 L603.3333333333334,125.00835368038392 A558.8373133100115 558.8373133100115 0.03986248508556001 0 1 581.0625884612266,124.56441127514374 L505.3988207794539,121.5466668786213 A545.3225155499811 545.3225155499811 0.03986248508556001 0 0 483.6666666666667,121.11346067814237 Z" style="fill: rgb(250, 51, 51);"></path><title>TailBoom → ⓒ
12.1m</title></g><g class="link" style="opacity: 0.8;"><path d="M483.6666666666667,91.07934671391077 A282.9908850551938 282.9908850551938 0.07570383321822294 0 0 505.06970403485843,90.26881358942404 L580.6810658453942,84.53378352365897 A299.5082013193933 299.5082013193933 0.07570383321822294 0 1 603.3333333333334,83.67594204873846 L603.3333333333334,100.19325831293791 A282.9908850551938 282.9908850551938 0.07570383321822294 0 0 581.9302959651416,101.00379143742464 L506.3189341546058,106.73882150318971 A299.5082013193933 299.5082013193933 0.07570383321822294 0 1 483.6666666666667,107.59666297811022 Z" style="fill: rgb(250, 51, 51);"></path><title>TailBoom → ⓐ
14.8m</title></g><g class="link" style="opacity: 0.8;"><path d="M483.6666666666667,72.48744545314662 A82.56983034416346 82.56983034416346 0.24609082720944464 0 0 503.7818690243053,69.99979488185889 L578.6898499301924,51.184258161985454 A101.157731724924 101.157731724924 0.24609082720944464 0 1 603.3333333333334,48.13659428685354 L603.3333333333334,66.7244956676141 A82.56983034416346 82.56983034416346 0.24609082720944464 0 0 583.2181309756947,69.21214623890182 L508.3101500698078,88.02768295877524 A101.157731724924 101.157731724924 0.24609082720944464 0 1 483.6666666666667,91.07534683390716 Z" style="fill: rgb(250, 51, 51);"></path><title>TailBoom → Ⓐ
16.7m</title></g><g class="link" style="opacity: 0.8;"><path d="M363,163.55678423857728 A92.35735567223023 92.35735567223023 0.3012324504407078 0 1 390.4021860799389,167.71549284177794 L464.9151619791469,190.8657167829915 A59.8303371621432 59.8303371621432 0.3012324504407078 0 0 482.6666666666667,193.55978414857995 L482.6666666666667,226.08680265866698 A92.35735567223023 92.35735567223023 0.3012324504407078 0 1 455.2644805867278,221.92809405546632 L380.7515046875198,198.77787011425275 A59.8303371621432 59.8303371621432 0.3012324504407078 0 0 363,196.0838027486643 Z" style="fill: rgb(250, 51, 51);"></path><title>Fuselage → ⓔ
29.2m</title></g><g class="link" style="opacity: 0.8;"><path d="M242.33333333333334,163.55678423857725 A0 0 0 0 1 242.33333333333334,163.55678423857725 L362,163.55678423857728 A0 0 0 0 0 362,163.55678423857728 L362,196.0838027486643 A0 0 0 0 1 362,196.0838027486643 L242.33333333333334,196.08380274866428 A0 0 0 0 0 242.33333333333334,196.08380274866428 Z" style="fill: rgb(250, 51, 51);"></path><title>Aircraft → Fuselage
29.2m</title></g><g class="link" style="opacity: 0.8;"><path d="M363,42.48744545314661 A104.73891819672289 104.73891819672289 0.3012034768850773 0 1 394.0728652995577,47.202776296209 L468.5860712906439,70.35070444052468 A47.46219291438826 47.46219291438826 0.3012034768850773 0 0 482.6666666666667,72.48744545314662 L482.6666666666667,129.76417073548123 A104.73891819672289 104.73891819672289 0.3012034768850773 0 1 451.593801367109,125.04883989241884 L377.0805953760228,101.90091174810317 A47.46219291438826 47.46219291438826 0.3012034768850773 0 0 363,99.76417073548123 Z" style="fill: rgb(250, 51, 51);"></path><title>Empennage → TailBoom
51.4m</title></g><g class="link" style="opacity: 0.8;"><path d="M242.33333333333334,100.00299991000271 A13.02204572929167 13.02204572929167 0.5712506017373806 0 0 249.37415173840495,97.93543048779978 L320.5966349018198,52.15829279045741 A76.57583005786623 76.57583005786623 0.5712506017373806 0 1 362,40 L362,103.55378432857455 A13.02204572929167 13.02204572929167 0.5712506017373806 0 0 354.9591815949284,105.6213537507775 L283.7366984315135,151.39849144811987 A76.57583005786623 76.57583005786623 0.5712506017373806 0 1 242.33333333333334,163.55678423857728 Z" style="fill: rgb(250, 51, 51);"></path><title>Aircraft → Empennage
57.0m</title></g><g class="link" style="opacity: 0.8;"><path d="M363,256.086802658667 A0 0 0 0 0 363,256.086802658667 L482.6666666666667,256.08680265866695 A0 0 0 0 1 482.6666666666667,256.08680265866695 L482.6666666666667,359.99999999999994 A0 0 0 0 0 482.6666666666667,359.99999999999994 L363,360 A0 0 0 0 1 363,360 Z" style="fill: rgb(250, 51, 51);"></path><title>Wing → BoxSpar.2
93.3m</title></g><g class="link" style="opacity: 0.8;"><path d="M242.33333333333334,196.08380274866425 A103.913197341333 103.913197341333 0.6014027960576045 0 1 301.1273886955437,214.31612920410956 L362,256.086802658667 A0 0 0.6014027960576045 0 0 362,256.086802658667 L362,360 A103.913197341333 103.913197341333 0.6014027960576045 0 1 303.2059446377897,341.76767354455467 L242.33333333333334,299.9970000899973 A0 0 0.6014027960576045 0 0 242.33333333333334,299.99700008999724 Z" style="fill: rgb(250, 51, 51);"></path><title>Aircraft → Wing
93.3m</title></g><g class="link" style="opacity: 0.8;"><path d="M1,40 A199.9939816833941 199.9939816833941 0.7072733724661867 0 1 130.94880555408898,87.97128388913922 L120.66666666666667,100.00000924830024 A0 0 0.7072733724661867 0 0 120.66666666666667,100.00000924830024 L120.66666666666667,299.9939909316944 A199.9939816833941 199.9939816833941 0.7072733724661867 0 1 -9.282138887422306,252.02270704255514 L1,239.9939816833941 A0 0 0.7072733724661867 0 0 1,239.9939816833941 Z" style="fill: rgb(250, 51, 51);"></path><title>tmin [mm] ❶ → Mission
179m</title></g><g class="link" style="opacity: 0.8;"><path d="M121.66666666666667,100.00000924830024 A0 0 0 0 1 121.66666666666667,100.00000924830024 L241.33333333333334,100.0029999100027 A0 0 0 0 0 241.33333333333334,100.0029999100027 L241.33333333333334,299.9970000899973 A0 0 0 0 1 241.33333333333334,299.9970000899973 L121.66666666666667,299.9940094282948 A0 0 0 0 0 121.66666666666667,299.9940094282948 Z" style="fill: rgb(250, 51, 51);"></path><title>Mission → Aircraft
179m</title></g></g><g class="nodes"><g class="node" transform="translate(0,279.9939878489276)"><title>tshear_(0,) [in] ❷</title><text dy=".35em" text-anchor="end" transform="translate(-4,0.000999970000890471)" style="display: inline;">tshear_(0,) [in] ❷</text><line x1="0" x2="0" y1="0" y2="1" style="display: inline; stroke: rgb(0, 0, 0);"></line><rect x="-5" y="-5" width="10" height="6" style="fill: none; visibility: hidden; pointer-events: all;"></rect></g><g class="node" transform="translate(0,40)"><title>tmin [mm] ❶</title><text dy=".35em" text-anchor="end" transform="translate(-4,99.99699084169706)" style="display: inline;">tmin [mm] ❶</text><line x1="0" x2="0" y1="0" y2="199.9939816833941" style="display: inline; stroke: rgb(0, 0, 0);"></line><rect x="-5" y="-5" width="10" height="204.9939816833941" style="fill: none; visibility: hidden; pointer-events: all;"></rect></g><g class="node" transform="translate(0,319.99599395446285)"><title>tshear_(1,) [in] ❸</title><text dy=".35em" text-anchor="end" transform="translate(-4,0.000999970000890471)" style="display: inline;">tshear_(1,) [in] ❸</text><line x1="0" x2="0" y1="0" y2="1" style="display: inline; stroke: rgb(0, 0, 0);"></line><rect x="-5" y="-5" width="10" height="6" style="fill: none; visibility: hidden; pointer-events: all;"></rect></g><g class="node" transform="translate(603.3333333333334,78.02479327502974)"><title>Ⓩ ❸≥❶</title><text dy=".35em" text-anchor="start" transform="translate(4,0.0009999700008975765)" style="display: inline;">Ⓩ ❸≥❶</text><line x1="0" x2="0" y1="0" y2="1" style="display: inline; stroke: rgb(0, 0, 0);"></line><rect x="-5" y="-5" width="10" height="6" style="fill: none; visibility: hidden; pointer-events: all;"></rect></g><g class="node" transform="translate(0,359.99800005999816)"><title>tshear_(2,) [in] ❹</title><text dy=".35em" text-anchor="end" transform="translate(-4,0.000999970000890471)" style="display: inline;">tshear_(2,) [in] ❹</text><line x1="0" x2="0" y1="0" y2="1" style="display: inline; stroke: rgb(0, 0, 0);"></line><rect x="-5" y="-5" width="10" height="6" style="fill: none; visibility: hidden; pointer-events: all;"></rect></g><g class="node" transform="translate(603.3333333333334,105.84240714664485)"><title>ⓑ ❹≥❶</title><text dy=".35em" text-anchor="start" transform="translate(4,0.0009999700008975765)" style="display: inline;">ⓑ ❹≥❶</text><line x1="0" x2="0" y1="0" y2="1" style="display: inline; stroke: rgb(0, 0, 0);"></line><rect x="-5" y="-5" width="10" height="6" style="fill: none; visibility: hidden; pointer-events: all;"></rect></g><g class="node" transform="translate(603.3333333333334,72.37364450132101)"><title>Ⓑ ❷≥❶</title><text dy=".35em" text-anchor="start" transform="translate(4,0.0009999700008975765)" style="display: inline;">Ⓑ ❷≥❶</text><line x1="0" x2="0" y1="0" y2="1" style="display: inline; stroke: rgb(0, 0, 0);"></line><rect x="-5" y="-5" width="10" height="6" style="fill: none; visibility: hidden; pointer-events: all;"></rect></g><g class="node" transform="translate(603.3333333333334,279.37890211032783)"><title>Ⓜ</title><text dy=".35em" text-anchor="start" transform="translate(4,2.666791945675925)" style="display: inline;">Ⓜ</text><line x1="0" x2="0" y1="0" y2="5.33358389135185" style="display: inline; stroke: rgb(0, 0, 0);"></line><rect x="-5" y="-5" width="10" height="10.33358389135185" style="fill: none; visibility: hidden; pointer-events: all;"></rect></g><g class="node" transform="translate(603.3333333333334,144.96336122514202)"><title>BoxSpar.1</title><text dy=".35em" text-anchor="start" transform="translate(4,1.8948067965466606)" style="display: inline;">BoxSpar.1</text><line x1="0" x2="0" y1="0" y2="3.7896135930933212" style="display: inline; stroke: rgb(0, 0, 0);"></line><rect x="-5" y="-5" width="10" height="8.789613593093321" style="fill: none; visibility: hidden; pointer-events: all;"></rect></g><g class="node" transform="translate(482.6666666666667,256.08680265866695)"><title>BoxSpar.2</title><text dy=".35em" text-anchor="start" transform="translate(-4,-10)" style="display: inline;">BoxSpar.2</text><line x1="0" x2="0" y1="-5" y2="103.91319734133299" style="display: inline; stroke: rgb(0, 0, 0);"></line><rect x="-5" y="-5" width="10" height="108.91319734133299" style="fill: none; visibility: hidden; pointer-events: all;"></rect></g><g class="node" transform="translate(241.33333333333334,100.0029999100027)"><title>Aircraft</title><text dy=".35em" text-anchor="start" transform="translate(-4,-10)" style="display: inline;">Aircraft</text><line x1="0" x2="0" y1="-5" y2="199.9940001799946" style="display: inline; stroke: rgb(0, 0, 0);"></line><rect x="-5" y="-5" width="10" height="204.9940001799946" style="fill: none; visibility: hidden; pointer-events: all;"></rect></g><g class="node" transform="translate(603.3333333333334,48.13659428685354)"><title>Ⓐ</title><text dy=".35em" text-anchor="start" transform="translate(4,9.293950690380278)" style="display: inline;">Ⓐ</text><line x1="0" x2="0" y1="0" y2="18.587901380760556" style="display: inline; stroke: rgb(0, 0, 0);"></line><rect x="-5" y="-5" width="10" height="23.587901380760556" style="fill: none; visibility: hidden; pointer-events: all;"></rect></g><g class="node" transform="translate(603.3333333333334,168.03087753172986)"><title>Ⓓ</title><text dy=".35em" text-anchor="start" transform="translate(4,3.8725340759377502)" style="display: inline;">Ⓓ</text><line x1="0" x2="0" y1="0" y2="7.7450681518755005" style="display: inline; stroke: rgb(0, 0, 0);"></line><rect x="-5" y="-5" width="10" height="12.7450681518755" style="fill: none; visibility: hidden; pointer-events: all;"></rect></g><g class="node" transform="translate(603.3333333333334,154.40212365194228)"><title>Ⓒ</title><text dy=".35em" text-anchor="start" transform="translate(4,3.989802523040325)" style="display: inline;">Ⓒ</text><line x1="0" x2="0" y1="0" y2="7.97960504608065" style="display: inline; stroke: rgb(0, 0, 0);"></line><rect x="-5" y="-5" width="10" height="12.97960504608065" style="fill: none; visibility: hidden; pointer-events: all;"></rect></g><g class="node" transform="translate(603.3333333333334,194.57927688418266)"><title>Ⓕ</title><text dy=".35em" text-anchor="start" transform="translate(4,3.6295104734417976)" style="display: inline;">Ⓕ</text><line x1="0" x2="0" y1="0" y2="7.259020946883595" style="display: inline; stroke: rgb(0, 0, 0);"></line><rect x="-5" y="-5" width="10" height="12.259020946883595" style="fill: none; visibility: hidden; pointer-events: all;"></rect></g><g class="node" transform="translate(603.3333333333334,181.4250945173123)"><title>Ⓔ</title><text dy=".35em" text-anchor="start" transform="translate(4,3.7525167665817207)" style="display: inline;">Ⓔ</text><line x1="0" x2="0" y1="0" y2="7.5050335331634415" style="display: inline; stroke: rgb(0, 0, 0);"></line><rect x="-5" y="-5" width="10" height="12.505033533163441" style="fill: none; visibility: hidden; pointer-events: all;"></rect></g><g class="node" transform="translate(603.3333333333334,220.14315233397343)"><title>Ⓗ</title><text dy=".35em" text-anchor="start" transform="translate(4,3.3735927347492805)" style="display: inline;">Ⓗ</text><line x1="0" x2="0" y1="0" y2="6.747185469498561" style="display: inline; stroke: rgb(0, 0, 0);"></line><rect x="-5" y="-5" width="10" height="11.747185469498561" style="fill: none; visibility: hidden; pointer-events: all;"></rect></g><g class="node" transform="translate(603.3333333333334,207.4874466647732)"><title>Ⓖ</title><text dy=".35em" text-anchor="start" transform="translate(4,3.5032784177466567)" style="display: inline;">Ⓖ</text><line x1="0" x2="0" y1="0" y2="7.006556835493313" style="display: inline; stroke: rgb(0, 0, 0);"></line><rect x="-5" y="-5" width="10" height="12.006556835493313" style="fill: none; visibility: hidden; pointer-events: all;"></rect></g><g class="node" transform="translate(603.3333333333334,244.6691111038582)"><title>Ⓙ</title><text dy=".35em" text-anchor="start" transform="translate(4,3.103019225801546)" style="display: inline;">Ⓙ</text><line x1="0" x2="0" y1="0" y2="6.206038451603092" style="display: inline; stroke: rgb(0, 0, 0);"></line><rect x="-5" y="-5" width="10" height="11.206038451603092" style="fill: none; visibility: hidden; pointer-events: all;"></rect></g><g class="node" transform="translate(603.3333333333334,232.53948663717892)"><title>Ⓘ</title><text dy=".35em" text-anchor="start" transform="translate(4,3.2402378164861716)" style="display: inline;">Ⓘ</text><line x1="0" x2="0" y1="0" y2="6.480475632972343" style="display: inline; stroke: rgb(0, 0, 0);"></line><rect x="-5" y="-5" width="10" height="11.480475632972343" style="fill: none; visibility: hidden; pointer-events: all;"></rect></g><g class="node" transform="translate(603.3333333333334,268.0969924436188)"><title>Ⓛ</title><text dy=".35em" text-anchor="start" transform="translate(4,2.8163804165010617)" style="display: inline;">Ⓛ</text><line x1="0" x2="0" y1="0" y2="5.6327608330021235" style="display: inline; stroke: rgb(0, 0, 0);"></line><rect x="-5" y="-5" width="10" height="10.632760833002123" style="fill: none; visibility: hidden; pointer-events: all;"></rect></g><g class="node" transform="translate(603.3333333333334,256.5242983891682)"><title>Ⓚ</title><text dy=".35em" text-anchor="start" transform="translate(4,2.96177261037181)" style="display: inline;">Ⓚ</text><line x1="0" x2="0" y1="0" y2="5.92354522074362" style="display: inline; stroke: rgb(0, 0, 0);"></line><rect x="-5" y="-5" width="10" height="10.92354522074362" style="fill: none; visibility: hidden; pointer-events: all;"></rect></g><g class="node" transform="translate(603.3333333333334,290.3616348353866)"><title>Ⓝ</title><text dy=".35em" text-anchor="start" transform="translate(4,2.5130506537650206)" style="display: inline;">Ⓝ</text><line x1="0" x2="0" y1="0" y2="5.026101307530041" style="display: inline; stroke: rgb(0, 0, 0);"></line><rect x="-5" y="-5" width="10" height="10.026101307530041" style="fill: none; visibility: hidden; pointer-events: all;"></rect></g><g class="node" transform="translate(482.6666666666667,72.48744545314662)"><title>TailBoom</title><text dy=".35em" text-anchor="start" transform="translate(-4,-10)" style="display: inline;">TailBoom</text><line x1="0" x2="0" y1="-5" y2="57.28272510234001" style="display: inline; stroke: rgb(0, 0, 0);"></line><rect x="-5" y="-5" width="10" height="62.28272510234001" style="fill: none; visibility: hidden; pointer-events: all;"></rect></g><g class="node" transform="translate(603.3333333333334,311.3967067955996)"><title>Ⓟ</title><text dy=".35em" text-anchor="start" transform="translate(4,2.1940160515351295)" style="display: inline;">Ⓟ</text><line x1="0" x2="0" y1="0" y2="4.388032103070259" style="display: inline; stroke: rgb(0, 0, 0);"></line><rect x="-5" y="-5" width="10" height="9.388032103070259" style="fill: none; visibility: hidden; pointer-events: all;"></rect></g><g class="node" transform="translate(603.3333333333334,301.0368849766236)"><title>Ⓞ</title><text dy=".35em" text-anchor="start" transform="translate(4,2.3553364926345353)" style="display: inline;">Ⓞ</text><line x1="0" x2="0" y1="0" y2="4.7106729852690705" style="display: inline; stroke: rgb(0, 0, 0);"></line><rect x="-5" y="-5" width="10" height="9.71067298526907" style="fill: none; visibility: hidden; pointer-events: all;"></rect></g><g class="node" transform="translate(603.3333333333334,331.1424074777718)"><title>Ⓡ</title><text dy=".35em" text-anchor="start" transform="translate(4,1.8630918122256617)" style="display: inline;">Ⓡ</text><line x1="0" x2="0" y1="0" y2="3.7261836244513233" style="display: inline; stroke: rgb(0, 0, 0);"></line><rect x="-5" y="-5" width="10" height="8.726183624451323" style="fill: none; visibility: hidden; pointer-events: all;"></rect></g><g class="node" transform="translate(603.3333333333334,321.4338877323768)"><title>Ⓠ</title><text dy=".35em" text-anchor="start" transform="translate(4,2.02968545584406)" style="display: inline;">Ⓠ</text><line x1="0" x2="0" y1="0" y2="4.05937091168812" style="display: inline; stroke: rgb(0, 0, 0);"></line><rect x="-5" y="-5" width="10" height="9.05937091168812" style="fill: none; visibility: hidden; pointer-events: all;"></rect></g><g class="node" transform="translate(603.3333333333334,349.55494228035917)"><title>Ⓣ</title><text dy=".35em" text-anchor="start" transform="translate(4,1.5055569817783692)" style="display: inline;">Ⓣ</text><line x1="0" x2="0" y1="0" y2="3.0111139635567383" style="display: inline; stroke: rgb(0, 0, 0);"></line><rect x="-5" y="-5" width="10" height="8.011113963556738" style="fill: none; visibility: hidden; pointer-events: all;"></rect></g><g class="node" transform="translate(603.3333333333334,340.51773993593)"><title>Ⓢ</title><text dy=".35em" text-anchor="start" transform="translate(4,1.694026755361108)" style="display: inline;">Ⓢ</text><line x1="0" x2="0" y1="0" y2="3.388053510722216" style="display: inline; stroke: rgb(0, 0, 0);"></line><rect x="-5" y="-5" width="10" height="8.388053510722216" style="fill: none; visibility: hidden; pointer-events: all;"></rect></g><g class="node" transform="translate(724,40)"><title>Ⓥ</title><text dy=".35em" text-anchor="start" transform="translate(4,0.7616643803321139)" style="display: inline;">Ⓥ</text><line x1="0" x2="0" y1="0" y2="1.5233287606642278" style="display: inline; stroke: rgb(0, 0, 0);"></line><rect x="-5" y="-5" width="10" height="6.523328760664228" style="fill: none; visibility: hidden; pointer-events: all;"></rect></g><g class="node" transform="translate(603.3333333333334,358.21520507762284)"><title>Ⓤ</title><text dy=".35em" text-anchor="start" transform="translate(4,0.8923974611885228)" style="display: inline;">Ⓤ</text><line x1="0" x2="0" y1="0" y2="1.7847949223770456" style="display: inline; stroke: rgb(0, 0, 0);"></line><rect x="-5" y="-5" width="10" height="6.784794922377046" style="fill: none; visibility: hidden; pointer-events: all;"></rect></g><g class="node" transform="translate(724,251.63607275565334)"><title>Ⓧ</title><text dy=".35em" text-anchor="start" transform="translate(4,1.2334747742124108)" style="display: inline;">Ⓧ</text><line x1="0" x2="0" y1="0" y2="2.4669495484248216" style="display: inline; stroke: rgb(0, 0, 0);"></line><rect x="-5" y="-5" width="10" height="7.466949548424822" style="fill: none; visibility: hidden; pointer-events: all;"></rect></g><g class="node" transform="translate(724,146.0976424119176)"><title>Ⓦ</title><text dy=".35em" text-anchor="start" transform="translate(4,0.48205834624118893)" style="display: inline;">Ⓦ</text><line x1="0" x2="0" y1="0" y2="1" style="display: inline; stroke: rgb(0, 0, 0);"></line><rect x="-5" y="-5" width="10" height="6" style="fill: none; visibility: hidden; pointer-events: all;"></rect></g><g class="node" transform="translate(724,358.67733595533156)"><title>Ⓨ</title><text dy=".35em" text-anchor="start" transform="translate(4,0.6613320223342498)" style="display: inline;">Ⓨ</text><line x1="0" x2="0" y1="0" y2="1.3226640446684996" style="display: inline; stroke: rgb(0, 0, 0);"></line><rect x="-5" y="-5" width="10" height="6.3226640446685" style="fill: none; visibility: hidden; pointer-events: all;"></rect></g><g class="node" transform="translate(603.3333333333334,83.67594204873846)"><title>ⓐ</title><text dy=".35em" text-anchor="start" transform="translate(4,8.258658132099733)" style="display: inline;">ⓐ</text><line x1="0" x2="0" y1="0" y2="16.517316264199465" style="display: inline; stroke: rgb(0, 0, 0);"></line><rect x="-5" y="-5" width="10" height="21.517316264199465" style="fill: none; visibility: hidden; pointer-events: all;"></rect></g><g class="node" transform="translate(603.3333333333334,130.65750251409085)"><title>ⓓ</title><text dy=".35em" text-anchor="start" transform="translate(4,4.328354938672135)" style="display: inline;">ⓓ</text><line x1="0" x2="0" y1="0" y2="8.65670987734427" style="display: inline; stroke: rgb(0, 0, 0);"></line><rect x="-5" y="-5" width="10" height="13.65670987734427" style="fill: none; visibility: hidden; pointer-events: all;"></rect></g><g class="node" transform="translate(603.3333333333334,111.49355592035357)"><title>ⓒ</title><text dy=".35em" text-anchor="start" transform="translate(4,6.757398880015174)" style="display: inline;">ⓒ</text><line x1="0" x2="0" y1="0" y2="13.514797760030348" style="display: inline; stroke: rgb(0, 0, 0);"></line><rect x="-5" y="-5" width="10" height="18.514797760030348" style="fill: none; visibility: hidden; pointer-events: all;"></rect></g><g class="node" transform="translate(482.6666666666667,193.55978414857995)"><title>ⓔ</title><text dy=".35em" text-anchor="start" transform="translate(4,16.263509255043502)" style="display: inline;">ⓔ</text><line x1="0" x2="0" y1="0" y2="32.527018510087004" style="display: inline; stroke: rgb(0, 0, 0);"></line><rect x="-5" y="-5" width="10" height="37.527018510087004" style="fill: none; visibility: hidden; pointer-events: all;"></rect></g><g class="node" transform="translate(362,256.086802658667)"><title>Wing</title><text dy=".35em" text-anchor="start" transform="translate(-4,-10)" style="display: inline;">Wing</text><line x1="0" x2="0" y1="-5" y2="103.91319734133299" style="display: inline; stroke: rgb(0, 0, 0);"></line><rect x="-5" y="-5" width="10" height="108.91319734133299" style="fill: none; visibility: hidden; pointer-events: all;"></rect></g><g class="node" transform="translate(603.3333333333334,40)"><title>BoxSpar</title><text dy=".35em" text-anchor="start" transform="translate(-4,-10)" style="display: inline;">BoxSpar</text><line x1="0" x2="0" y1="-5" y2="2.487445453146613" style="display: inline; stroke: rgb(0, 0, 0);"></line><rect x="-5" y="-5" width="10" height="7.487445453146613" style="fill: none; visibility: hidden; pointer-events: all;"></rect></g><g class="node" transform="translate(482.6666666666667,40)"><title>HorizontalTail</title><text dy=".35em" text-anchor="start" transform="translate(-4,-10)" style="display: inline;">HorizontalTail</text><line x1="0" x2="0" y1="-5" y2="2.487445453146613" style="display: inline; stroke: rgb(0, 0, 0);"></line><rect x="-5" y="-5" width="10" height="7.487445453146613" style="fill: none; visibility: hidden; pointer-events: all;"></rect></g><g class="node" transform="translate(120.66666666666667,100.00000924830024)"><title>Mission</title><text dy=".35em" text-anchor="start" transform="translate(-4,-10)" style="display: inline;">Mission</text><line x1="0" x2="0" y1="-5" y2="199.99998150339954" style="display: inline; stroke: rgb(0, 0, 0);"></line><rect x="-5" y="-5" width="10" height="204.99998150339954" style="fill: none; visibility: hidden; pointer-events: all;"></rect></g><g class="node" transform="translate(482.6666666666667,159.77017055548663)"><title>VerticalTail</title><text dy=".35em" text-anchor="start" transform="translate(-4,-10)" style="display: inline;">VerticalTail</text><line x1="0" x2="0" y1="-5" y2="3.7896135930933212" style="display: inline; stroke: rgb(0, 0, 0);"></line><rect x="-5" y="-5" width="10" height="8.789613593093321" style="fill: none; visibility: hidden; pointer-events: all;"></rect></g><g class="node" transform="translate(362,40)"><title>Empennage</title><text dy=".35em" text-anchor="start" transform="translate(-4,-10)" style="display: inline;">Empennage</text><line x1="0" x2="0" y1="-5" y2="63.55378432857455" style="display: inline; stroke: rgb(0, 0, 0);"></line><rect x="-5" y="-5" width="10" height="68.55378432857455" style="fill: none; visibility: hidden; pointer-events: all;"></rect></g><g class="node" transform="translate(362,163.55678423857728)"><title>Fuselage</title><text dy=".35em" text-anchor="start" transform="translate(-4,-10)" style="display: inline;">Fuselage</text><line x1="0" x2="0" y1="-5" y2="32.52701851008703" style="display: inline; stroke: rgb(0, 0, 0);"></line><rect x="-5" y="-5" width="10" height="37.52701851008703" style="fill: none; visibility: hidden; pointer-events: all;"></rect></g></g><g class="slice-titles"></g></g></svg>
