<?xml version="1.0" encoding="utf-8" standalone="no"?>
<!DOCTYPE svg PUBLIC "-//W3C//DTD SVG 1.1//EN"
  "http://www.w3.org/Graphics/SVG/1.1/DTD/svg11.dtd">
<svg width="900" height="400" viewBox="0 0 900 400" xmlns="http://www.w3.org/2000/svg" xmlns:xlink="http://www.w3.org/1999/xlink"><g class="sankey" transform="translate(120,0)"><g class="groups"></g><g class="links"><g class="link" style="opacity: 0.8;"><path d="M102.99158099121303,184.421903860124 A29.059637273275726 29.059637273275726 0.6914169331770355 0 0 121.52085852793918,177.74816376389552 L198.74397418913287,113.82896807474152 A60.21582955302729 60.21582955302729 0.6914169331770355 0 1 237.13935426217762,100 L237.13935426217762,131.15619227975156 A29.059637273275726 29.059637273275726 0.6914169331770355 0 0 218.61007672545145,137.82993237598006 L141.38696106425778,201.74912806513404 A60.21582955302729 60.21582955302729 0.6914169331770355 0 1 102.99158099121303,215.57809613987556 Z" style="fill: rgb(89, 173, 228);"></path><title>Wtotal [lbf] → Mission
1.00</title></g><g class="link" style="opacity: 0.8;"><path d="M0,184.421903860124 A0 0 0 0 0 0,184.421903860124 L102.99158099121303,184.421903860124 A0 0 0 0 0 102.99158099121303,184.421903860124 L102.99158099121303,215.578096139876 A0 0 0 0 0 102.99158099121303,215.578096139876 L0,215.578096139876 A0 0 0 0 0 0,215.578096139876 Z" style="fill: rgb(89, 173, 228);"></path><title>(objective) → Wtotal [lbf]
1.00</title></g><g class="link" style="opacity: 0.8;"><path d="M237.13935426217762,215.5780961398758 A155.58730180094102 155.58730180094102 0.3503386934389814 0 1 290.5393974153131,225.02901002548484 L417.04374349323535,271.25526233667597 A71.1653979408168 71.1653979408168 0.3503386934389814 0 0 441.4688429522626,275.5780961398758 L441.4688429522626,360 A155.58730180094102 155.58730180094102 0.3503386934389814 0 1 388.06879979912713,350.549086114391 L261.56445372120487,304.32283380319984 A71.1653979408168 71.1653979408168 0.3503386934389814 0 0 237.13935426217762,300 Z" style="fill: rgb(250, 51, 51);"></path><title>Mission → FlightSegment
2.71</title></g><g class="link" style="opacity: 0.8;"><path d="M441.4688429522626,275.5780961398758 A0 0 0 0 0 441.4688429522626,275.5780961398758 L544.4604239434757,275.5780961398758 A0 0 0 0 0 544.4604239434757,275.5780961398758 L544.4604239434757,360 A0 0 0 0 0 544.4604239434757,360 L441.4688429522626,360 A0 0 0 0 0 441.4688429522626,360 Z" style="fill: rgb(250, 51, 51);"></path><title>FlightSegment → SteadyLevelFlight
2.71</title></g><g class="link" style="opacity: 0.8;"><path d="M544.4604239434757,275.5780961398758 A16.96534560691334 16.96534560691334 0.711784132583987 0 0 555.5419459547342,271.458871405662 L658.7752933148562,182.40610423932924 A101.38724946703755 101.38724946703755 0.711784132583987 0 1 725,157.7890480699379 L725,242.2109519300621 A16.96534560691334 16.96534560691334 0.711784132583987 0 0 713.9184779887415,246.33017666427588 L610.6851306286195,335.38294383060867 A101.38724946703755 101.38724946703755 0.711784132583987 0 1 544.4604239434757,360 Z" style="fill: rgb(250, 51, 51);"></path><title>SteadyLevelFlight → Ⓐ
2.71</title></g><g class="link" style="opacity: 0.8;"><path d="M237.13935426217762,100.00000000000001 A55.58730180094099 55.58730180094099 0.3503386934389816 0 0 256.2178026996623,96.62343394111824 L382.72214877758455,50.397181629927125 A171.16539794081677 171.16539794081677 0.3503386934389816 0 1 441.4688429522626,40 L441.4688429522626,155.57809613987578 A55.58730180094099 55.58730180094099 0.3503386934389816 0 0 422.39039451477794,158.95466219875757 L295.8860484368557,205.18091450994868 A171.16539794081677 171.16539794081677 0.3503386934389816 0 1 237.13935426217762,215.5780961398758 Z" style="fill: rgb(89, 173, 228);"></path><title>Mission → Aircraft
3.71</title></g><g class="link" style="opacity: 0.8;"><path d="M441.4688429522626,40 A0 0 0 0 0 441.4688429522626,40 L544.4604239434757,40 A0 0 0 0 0 544.4604239434757,40 L544.4604239434757,155.57809613987578 A0 0 0 0 0 544.4604239434757,155.57809613987578 L441.4688429522626,155.57809613987578 A0 0 0 0 0 441.4688429522626,155.57809613987578 Z" style="fill: rgb(89, 173, 228);"></path><title>Aircraft → Ⓑ
3.71</title></g></g><g class="nodes"><g class="node" transform="translate(102.99158099121303,184.421903860124)"><title>Wtotal [lbf]</title><text dy=".35em" text-anchor="start" transform="translate(-4, -10)">Wtotal [lbf]</text><line x1="0" x2="0" y1="-5" y2="31.15619227975201" style="stroke: rgb(0, 0, 0);"></line><rect x="-5" y="-5" width="10" style="fill: none; visibility: hidden; pointer-events: all;" height="36.156192279752005"></rect></g><g class="node" transform="translate(237.13935426217762,100)"><title>Mission</title><text dy=".35em" text-anchor="start" transform="translate(-4, -10)">Mission</text><line x1="0" x2="0" y1="-5" y2="200" style="stroke: rgb(0, 0, 0);"></line><rect x="-5" y="-5" width="10" style="fill: none; visibility: hidden; pointer-events: all;" height="205"></rect></g><g class="node" transform="translate(441.4688429522626,40)"><title>Aircraft</title><text dy=".35em" text-anchor="start" transform="translate(-4, -10)">Aircraft</text><line x1="0" x2="0" y1="-5" y2="115.57809613987578" style="stroke: rgb(0, 0, 0);"></line><rect x="-5" y="-5" width="10" style="fill: none; visibility: hidden; pointer-events: all;" height="120.57809613987578"></rect></g><g class="node" transform="translate(441.4688429522626,275.5780961398758)"><title>FlightSegment</title><text dy=".35em" text-anchor="start" transform="translate(-4, -10)">FlightSegment</text><line x1="0" x2="0" y1="-5" y2="84.42190386012422" style="stroke: rgb(0, 0, 0);"></line><rect x="-5" y="-5" width="10" style="fill: none; visibility: hidden; pointer-events: all;" height="89.42190386012422"></rect></g><g class="node" transform="translate(0,184.421903860124)"><title>(objective)</title><text dy=".35em" text-anchor="end" transform="translate(-4, 15.578096389770508)">(objective)</text><line x1="0" x2="0" y1="0" y2="31.15619227975201" style="stroke: rgb(0, 0, 0);"></line><rect x="-5" y="-5" width="10" style="fill: none; visibility: hidden; pointer-events: all;" height="36.156192279752005"></rect></g><g class="node" transform="translate(544.4604239434757,40)"><title>Ⓑ</title><text dy=".35em" text-anchor="start" transform="translate(4, 57.78904724121094)">Ⓑ</text><line x1="0" x2="0" y1="0" y2="115.57809613987578" style="stroke: rgb(0, 0, 0);"></line><rect x="-5" y="-5" width="10" style="fill: none; visibility: hidden; pointer-events: all;" height="120.57809613987578"></rect></g><g class="node" transform="translate(544.4604239434757,275.5780961398758)"><title>SteadyLevelFlight</title><text dy=".35em" text-anchor="start" transform="translate(-4, -10)">SteadyLevelFlight</text><line x1="0" x2="0" y1="-5" y2="84.42190386012422" style="stroke: rgb(0, 0, 0);"></line><rect x="-5" y="-5" width="10" style="fill: none; visibility: hidden; pointer-events: all;" height="89.42190386012422"></rect></g><g class="node" transform="translate(725,157.7890480699379)"><title>Ⓐ</title><text dy=".35em" text-anchor="start" transform="translate(4, 42.21095275878906)">Ⓐ</text><line x1="0" x2="0" y1="0" y2="84.42190386012422" style="stroke: rgb(0, 0, 0);"></line><rect x="-5" y="-5" width="10" style="fill: none; visibility: hidden; pointer-events: all;" height="89.42190386012422"></rect></g></g><g class="slice-titles"></g></g></svg>
