<?xml version="1.0" encoding="utf-8" standalone="no"?>
<!DOCTYPE svg PUBLIC "-//W3C//DTD SVG 1.1//EN"
  "http://www.w3.org/Graphics/SVG/1.1/DTD/svg11.dtd">
  <svg width="1100" height="400" viewBox="0 0 1100 400" xmlns="http://www.w3.org/2000/svg" xmlns:xlink="http://www.w3.org/1999/xlink"><g class="sankey" transform="translate(60,0)"><g class="groups"></g><g class="links"><g class="link" style="opacity: 0.8;"><path d="M721.1775622664314,131.29052512270593 A56.22106791847949 56.22106791847949 1.123138760477838 0 1 771.8588034300082,163.17601677897918 L851.1216858543542,328.2487981335439 A54.22106791847949 54.22106791847949 1.123138760477838 0 0 900,359.00000000000006 L900,361.00000000000006 A56.22106791847949 56.22106791847949 1.123138760477838 0 1 849.3187588364233,329.1145083437268 L770.0558764120773,164.04172698916207 A54.22106791847949 54.22106791847949 1.123138760477838 0 0 721.1775622664314,133.29052512270593 Z" style="fill: rgb(207, 207, 207);"></path><title>VerticalTail → WingSkin.1
  0.000001y</title></g><g class="link" style="opacity: 0.8;"><path d="M522.8856558075574,60.830045510302114 A272.4503991437388 272.4503991437388 0.13435965710723763 0 0 559.3819579485978,58.37453506561346 L684.4133485917267,41.473535820726056 A274.4503991437388 274.4503991437388 0.13435965710723763 0 1 721.1775622664314,39.0000000000247 L721.1775622664314,41.0000000000247 A272.4503991437388 272.4503991437388 0.13435965710723763 0 0 684.6812601253911,43.455510444713354 L559.6498694822621,60.356509689600756 A274.4503991437388 274.4503991437388 0.13435965710723763 0 1 522.8856558075574,62.830045510302114 Z" style="fill: rgb(207, 207, 207);"></path><title>Empennage → HorizontalBoomBending
  9.48p</title></g><g class="link" style="opacity: 0.8;"><path d="M522.8856558075574,278.89449534837934 A131.86883350184124 131.86883350184124 0.2892946243777601 0 1 560.5046997673074,284.37425977899625 L684.1290707709863,321.1704058496906 A129.86883350184124 129.86883350184124 0.2892946243777601 0 0 721.1775622664314,326.5670609619781 L721.1775622664314,328.5670609619781 A131.86883350184124 131.86883350184124 0.2892946243777601 0 1 683.5585183066814,323.0872965313612 L559.9341473030025,286.2911504606668 A129.86883350184124 129.86883350184124 0.2892946243777601 0 0 522.8856558075574,280.89449534837934 Z" style="fill: rgb(207, 207, 207);"></path><title>SparLoading → Beam
  13.4n</title></g><g class="link" style="opacity: 0.8;"><path d="M282.0735694801245,319.7972908657717 A217.7998358979692 217.7998358979692 0.2062136043696987 0 0 326.6692189602847,315.18281226193045 L477.88049592261393,283.55134755698936 A219.7998358979692 219.7998358979692 0.2062136043696987 0 1 522.8856558075574,278.89449538032324 L522.8856558075574,280.89449538032324 A217.7998358979692 217.7998358979692 0.2062136043696987 0 0 478.29000632739724,285.50897398416447 L327.078729365068,317.14043868910557 A219.7998358979692 219.7998358979692 0.2062136043696987 0 1 282.0735694801245,321.7972908657717 Z" style="fill: rgb(207, 207, 207);"></path><title>FlightSegment → SparLoading
  25.7n</title></g><g class="link" style="opacity: 0.8;"><path d="M522.8856558075574,292.5802880963835 A126.05201465410407 126.05201465410407 0.30396420399822266 0 1 560.6136570079973,298.3588296827405 L684.0481711128674,337.078402482481 A124.05201465410407 124.05201465410407 0.30396420399822266 0 0 721.1775622664314,342.7652590354458 L721.1775622664314,344.7652590354458 A126.05201465410407 126.05201465410407 0.30396420399822266 0 1 683.4495610659916,338.9867174490888 L560.0150469611215,300.2671446493483 A124.05201465410407 124.05201465410407 0.30396420399822266 0 0 522.8856558075574,294.5802880963835 Z" style="fill: rgb(89, 173, 228);"></path><title>SparLoading.1 → Beam.2
  2.40m</title></g><g class="link" style="opacity: 0.8;"><path d="M282.0735694801245,319.8115613938079 A322.61066905004265 322.61066905004265 0.13794010885122132 0 0 326.433531041116,316.74719195498517 L478.2506880808268,295.67167564084133 A324.61066905004265 324.61066905004265 0.13794010885122132 0 1 522.8856558075574,292.5883088796557 L522.8856558075574,294.5883088796557 A322.61066905004265 322.61066905004265 0.13794010885122132 0 0 478.52569424656593,297.6526783184784 L326.7085372068551,318.72819463262226 A324.61066905004265 324.61066905004265 0.13794010885122132 0 1 282.0735694801245,321.8115613938079 Z" style="fill: rgb(89, 173, 228);"></path><title>FlightSegment → SparLoading.1
  5.48m</title></g><g class="link" style="opacity: 0.8;"><path d="M522.8856558075574,306.300393775096 A120.85745062173885 120.85745062173885 0.3184566045911832 0 1 560.7262614897727,312.377132025857 L683.9631588661201,353.00555071039827 A118.85745062173885 118.85745062173885 0.3184566045911832 0 0 721.1775622664314,358.9817285369653 L721.1775622664314,360.9817285369653 A120.85745062173885 120.85745062173885 0.3184566045911832 0 1 683.3369565842162,354.9049902862043 L560.1000592078688,314.276571601663 A118.85745062173885 118.85745062173885 0.3184566045911832 0 0 522.8856558075574,308.300393775096 Z" style="fill: rgb(89, 173, 228);"></path><title>SparLoading.2 → Beam.3
  7.01m</title></g><g class="link" style="opacity: 0.8;"><path d="M721.1775622664314,55.21217254943545 A297.6636571817448 297.6636571817448 0.11064570051440259 0 0 754.0456058766086,53.39196132526257 L866.91111623808,40.85266539920799 A299.6636571817448 299.6636571817448 0.11064570051440259 0 1 900,39.02022418873845 L900,41.02022418873845 A297.6636571817448 297.6636571817448 0.11064570051440259 0 0 867.1319563898228,42.84043541291133 L754.2664460283514,55.37973133896591 A299.6636571817448 299.6636571817448 0.11064570051440259 0 1 721.1775622664314,57.21217254943545 Z" style="fill: rgb(89, 173, 228);"></path><title>HorizontalTail → BoxSpar
  7.76m</title></g><g class="link" style="opacity: 0.8;"><path d="M721.1775622664314,130.60394894321396 A63.867016728453635 63.867016728453635 0.6287043339060999 0 1 758.7375842715961,142.81595068992428 L863.6161726545879,219.07654395328964 A61.867016728453635 61.867016728453635 0.6287043339060999 0 0 900,230.90612602949514 L900,232.90612602949514 A63.867016728453635 63.867016728453635 0.6287043339060999 0 1 862.4399779948353,220.69412428278483 L757.5613896118435,144.43353101941946 A61.867016728453635 61.867016728453635 0.6287043339060999 0 0 721.1775622664314,132.60394894321396 Z" style="fill: rgb(89, 173, 228);"></path><title>VerticalTail → BoxSpar.1
  13.4m</title></g><g class="link" style="opacity: 0.8;"><path d="M282.0735694801245,319.8675527557381 A643.2905409940462 643.2905409940462 0.06883520913673613 0 0 326.31964731768466,318.34410715409757 L478.5020162462723,307.8520252298889 A645.2905409940462 645.2905409940462 0.06883520913673613 0 1 522.8856558075574,306.3238432128822 L522.8856558075574,308.3238432128822 A643.2905409940462 643.2905409940462 0.06883520913673613 0 0 478.6395779699973,309.8472888145227 L326.4572090414096,320.33937073873136 A645.2905409940462 645.2905409940462 0.06883520913673613 0 1 282.0735694801245,321.8675527557381 Z" style="fill: rgb(89, 173, 228);"></path><title>FlightSegment → SparLoading.2
  16.0m</title></g><g class="link" style="opacity: 0.8;"><path d="M282.0735694801245,68.7417231383689 A323.0446433859492 323.0446433859492 0.13862278735349154 0 1 326.71163432239234,71.84061364190742 L478.5239494547813,93.02110410219169 A321.0446433859492 321.0446433859492 0.13862278735349154 0 0 522.8856558075574,96.10080908096153 L522.8856558075574,98.10080908096153 A323.0446433859492 323.0446433859492 0.13862278735349154 0 1 478.2475909652896,95.001918577423 L326.43527583290063,73.82142811713874 A321.0446433859492 321.0446433859492 0.13862278735349154 0 0 282.0735694801245,70.7417231383689 Z" style="fill: rgb(89, 173, 228);"></path><title>Aircraft → Motor
  18.4m</title></g><g class="link" style="opacity: 0.8;"><path d="M721.1775622664314,55.28290335730597 A109.08335275098165 109.08335275098165 0.31847541005409385 0 1 755.3336326855732,60.76827977227167 L866.470167582492,97.40979967770332 A107.08335275098165 107.08335275098165 0.31847541005409385 0 0 900,102.79460389211542 L900,104.79460389211542 A109.08335275098165 109.08335275098165 0.31847541005409385 0 1 865.8439295808582,99.3092274771497 L754.7073946839395,62.66770757171807 A107.08335275098165 107.08335275098165 0.31847541005409385 0 0 721.1775622664314,57.28290335730597 Z" style="fill: rgb(89, 173, 228);"></path><title>HorizontalTail → Planform
  19.4m</title></g><g class="link" style="opacity: 0.8;"><path d="M522.8856558075574,168.07709339593313 A82.88787442993878 82.88787442993878 0.5222954774405688 0 1 564.2360031928981,179.1280100769183 L682.0524125427193,246.94476633953394 A78.4274063559935 78.4274063559935 0.5222954774405688 0 0 721.1775622664314,257.4009969897532 L721.1775622664314,259.4009969897532 A80.4274063559935 80.4274063559935 0.5222954774405688 0 1 681.0546707699997,248.6781189738731 L563.2382614201786,180.86136271125744 A80.88787442993878 80.88787442993878 0.5222954774405688 0 0 522.8856558075574,170.07709339593313 Z" style="fill: rgb(89, 173, 228);"></path><title>AircraftPerf → TailBoomAero
  39.8m</title></g><g class="link" style="opacity: 0.8;"><path d="M522.8856558075574,264.60579615057696 A137.21720476436184 137.21720476436184 0.27705293971993705 0 1 560.4176026282081,269.8384781435296 L684.1926597742976,305.03592982182863 A135.21720476436184 135.21720476436184 0.27705293971993705 0 0 721.1775622664314,310.1923432156367 L721.1775622664314,312.1923432156367 A137.21720476436184 137.21720476436184 0.27705293971993705 0 1 683.6456154457807,306.9596612226841 L559.8705582996912,271.76220954438503 A135.21720476436184 135.21720476436184 0.27705293971993705 0 0 522.8856558075574,266.60579615057696 Z" style="fill: rgb(89, 173, 228);"></path><title>GustL → Beam.1
  70.2m</title></g><g class="link" style="opacity: 0.8;"><path d="M522.8856558075574,166.55266365676243 A113.12286462756467 113.12286462756467 0.34297897405329403 0 1 560.9282020945793,173.14127476206264 L683.8076040793003,217.02054535504956 A111.12286462756467 111.12286462756467 0.34297897405329403 0 0 721.1775622664314,223.49267052928724 L721.1775622664314,225.49267052928724 A113.12286462756467 113.12286462756467 0.34297897405329403 0 1 683.1350159794097,218.90405942398704 L560.2556139946887,175.0247888310001 A111.12286462756467 111.12286462756467 0.34297897405329403 0 0 522.8856558075574,168.55266365676243 Z" style="fill: rgb(89, 173, 228);"></path><title>AircraftPerf → TailAero
  106m</title></g><g class="link" style="opacity: 0.8;"><path d="M721.1775622664314,55.6427897011051 A60.81141777601837 60.81141777601837 0.6848181940135976 0 1 759.6427425656747,69.35369329228514 L862.7998841148417,153.5981674241737 A58.81141777601837 58.81141777601837 0.6848181940135976 0 0 900,166.858139131421 L900,168.858139131421 A60.81141777601837 60.81141777601837 0.6848181940135976 0 1 861.5348197007568,155.14723554024096 L758.3776781515897,70.90276140835242 A58.81141777601837 58.81141777601837 0.6848181940135976 0 0 721.1775622664314,57.6427897011051 Z" style="fill: rgb(89, 173, 228);"></path><title>HorizontalTail → WingSkin
  119m</title></g><g class="link" style="opacity: 0.8;"><path d="M721.1775622664314,130.96471617191025 A56.54687686927518 56.54687686927518 0.9213689322977098 0 1 766.2132027822964,153.3159739212639 L857.9106424950851,274.0815292003762 A52.84751563595279 52.84751563595279 0.9213689322977098 0 0 900,294.9705421536979 L900,296.9705421536979 A54.84751563595279 54.84751563595279 0.9213689322977098 0 1 856.3177820929102,275.2909901295439 L764.6203423801215,154.52543485043157 A54.54687686927518 54.54687686927518 0.9213689322977098 0 0 721.1775622664314,132.96471617191025 Z" style="fill: rgb(89, 173, 228);"></path><title>VerticalTail → Planform.1
  125m</title></g><g class="link" style="opacity: 0.8;"><path d="M522.8856558075574,124.71995570959342 A235.0617402657399 235.0617402657399 0.1574523508189758 0 1 559.743943969475,127.62767742184971 L684.6328792715669,147.45586042846483 A233.0617402657399 233.0617402657399 0.1574523508189758 0 0 721.1775622664314,150.3388420727801 L721.1775622664314,152.3388420727801 A235.0617402657399 235.0617402657399 0.1574523508189758 0 1 684.3192741045139,149.4311203605238 L559.4303388024219,129.6029373539087 A233.0617402657399 233.0617402657399 0.1574523508189758 0 0 522.8856558075574,126.71995570959342 Z" style="fill: rgb(89, 173, 228);"></path><title>Wing → BoxSpar.2
  141m</title></g><g class="link" style="opacity: 0.8;"><path d="M282.0735694801245,319.40132802772797 A166.55335420750066 166.55335420750066 0.2732755768581847 0 0 327.02413889028946,313.220870867924 L477.3953125858826,271.0736626742512 A168.55335420750066 168.55335420750066 0.2732755768581847 0 1 522.8856558075574,264.81898957098315 L522.8856558075574,266.81898957098315 A166.55335420750066 166.55335420750066 0.2732755768581847 0 0 477.9350863973924,272.9994467307871 L327.56391270179927,315.14665492445994 A168.55335420750066 168.55335420750066 0.2732755768581847 0 1 282.0735694801245,321.40132802772797 Z" style="fill: rgb(89, 173, 228);"></path><title>FlightSegment → GustL
  152m</title></g><g class="link" style="opacity: 0.8;"><path d="M282.0735694801245,69.2125112769542 A219.11631466679026 219.11631466679026 0.20688606106980245 0 1 327.08298912290473,73.88510023330089 L478.28706289587865,105.62120062793346 A217.11631466679026 217.11631466679026 0.20688606106980245 0 0 522.8856558075574,110.25114019084313 L522.8856558075574,112.25114019084313 A219.11631466679026 219.11631466679026 0.20688606106980245 0 1 477.8762361647772,107.57855123449644 L326.6721623918033,75.84245083986387 A217.11631466679026 217.11631466679026 0.20688606106980245 0 0 282.0735694801245,71.2125112769542 Z" style="fill: rgb(89, 173, 228);"></path><title>Aircraft → SolarCells
  162m</title></g><g class="link" style="opacity: 0.8;"><path d="M522.8856558075574,61.37090455016231 A1045.9348238123362 1045.9348238123362 0.034826057253676046 0 0 559.3040791167817,60.73668539995536 L684.68950092149,56.368239282423616 A1047.9348238123362 1047.9348238123362 0.034826057253676046 0 1 721.1775622664314,55.732807400532494 L721.1775622664314,57.732807400532494 A1045.9348238123362 1045.9348238123362 0.034826057253676046 0 0 684.7591389572071,58.36702655073944 L559.3737171524989,62.735472668271186 A1047.9348238123362 1047.9348238123362 0.034826057253676046 0 1 522.8856558075574,63.37090455016231 Z" style="fill: rgb(89, 173, 228);"></path><title>Empennage → HorizontalTail
  208m</title></g><g class="link" style="opacity: 0.8;"><path d="M522.8856558075574,167.40173323982066 A92.61787668790575 92.61787668790575 0.4336794583810568 0 1 561.8048429671186,175.97576450752226 L683.098800056164,232.14480572249607 A90.61787668790575 90.61787668790575 0.4336794583810568 0 0 721.1775622664314,240.53368847299308 L721.1775622664314,242.53368847299308 A92.61787668790575 92.61787668790575 0.4336794583810568 0 1 682.2583751068703,233.95965720529148 L560.9644180178249,177.79061599031766 A90.61787668790575 90.61787668790575 0.4336794583810568 0 0 522.8856558075574,169.40173323982066 Z" style="fill: rgb(89, 173, 228);"></path><title>AircraftPerf → TailAero.1
  220m</title></g><g class="link" style="opacity: 0.8;"><path d="M522.8856558075574,70.57025762312935 A144.80119712898133 144.80119712898133 0.26143117725566123 0 1 560.3114602551641,75.49044870970474 L684.2686845458085,108.65577234744988 A142.80119712898133 142.80119712898133 0.26143117725566123 0 0 721.1775622664314,113.50800555544235 L721.1775622664314,115.50800555544235 A144.80119712898133 144.80119712898133 0.26143117725566123 0 1 683.7517578188248,110.58781446886697 L559.7945335281804,77.42249083112182 A142.80119712898133 142.80119712898133 0.26143117725566123 0 0 522.8856558075574,72.57025762312935 Z" style="fill: rgb(89, 173, 228);"></path><title>Empennage → VerticalBoomTorsion
  334m</title></g><g class="link" style="opacity: 0.8;"><path d="M522.8856558075574,72.43929437235276 A110.2212391280958 110.2212391280958 0.3554850930613722 0 1 561.2476257315077,79.3305726058135 L683.9333477909828,124.87850409630215 A107.00971503743325 107.00971503743325 0.3554850930613722 0 0 721.1775622664314,131.56899066531338 L721.1775622664314,134.7805147559759 A110.2212391280958 110.2212391280958 0.3554850930613722 0 1 682.8155923424812,127.88923652251518 L560.1298702830061,82.34130503202653 A107.00971503743325 107.00971503743325 0.3554850930613722 0 0 522.8856558075574,75.65081846301531 Z" style="fill: rgb(89, 173, 228);"></path><title>Empennage → VerticalTail
  616m</title></g><g class="link" style="opacity: 0.8;"><path d="M522.8856558075574,67.16601539678976 A226.2982875730981 226.2982875730981 0.16430082562513726 0 1 559.899594918865,70.21358456123183 L684.7418505985537,90.91185457435584 A222.76308209598193 222.76308209598193 0.16430082562513726 0 0 721.1775622664314,93.91181496845516 L721.1775622664314,97.44702044557133 A226.2982875730981 226.2982875730981 0.16430082562513726 0 1 684.1636231551239,94.39945128112926 L559.3213674754352,73.70118126800524 A222.76308209598193 222.76308209598193 0.16430082562513726 0 0 522.8856558075574,70.70122087390592 Z" style="fill: rgb(89, 173, 228);"></path><title>Empennage → VerticalBoomBending
  679m</title></g><g class="link" style="opacity: 0.8;"><path d="M522.8856558075574,62.9117635899978 A562.5537865708507 562.5537865708507 0.06514826993984957 0 1 559.5091420908268,64.10516410064437 L684.8310371136548,72.2812392518924 A558.2995347640588 558.2995347640588 0.06514826993984957 0 0 721.1775622664314,73.46561480101559 L721.1775622664314,77.71986660780755 A562.5537865708507 562.5537865708507 0.06514826993984957 0 1 684.5540759831621,76.52646609716098 L559.2321809603341,68.35039094591295 A558.2995347640588 558.2995347640588 0.06514826993984957 0 0 522.8856558075574,67.16601539678976 Z" style="fill: rgb(89, 173, 228);"></path><title>Empennage → TailBoom
  817m</title></g><g class="link" style="opacity: 0.8;"><path d="M282.0735694801245,314.1309928959122 A150.90426007265324 150.90426007265324 0.3448335017075186 0 0 333.0852433073456,305.24752299645917 L475.3552573553188,254.14633180354554 A140.60584707898764 140.60584707898764 0.3448335017075186 0 1 522.8856558075574,245.86911146787108 L522.8856558075574,251.74348382856985 A134.73147471828887 134.73147471828887 0.3448335017075186 0 0 477.34103010062995,259.6748901360696 L335.0710160526567,310.77608132898325 A156.77863243335202 156.77863243335202 0.3448335017075186 0 1 282.0735694801245,320.00536525661096 Z" style="fill: rgb(89, 173, 228);"></path><title>FlightSegment → FlightState
  1.13</title></g><g class="link" style="opacity: 0.8;"><path d="M522.8856558075574,143.29884587064768 A113.74526138633101 113.74526138633101 0.3490577736624254 0 1 561.7879631215758,150.15821027570973 L684.5741916042931,194.84761953613835 A107.02347112674738 107.02347112674738 0.3490577736624254 0 0 721.1775622664314,201.30162895512956 L721.1775622664314,208.02341921471321 A113.74526138633101 113.74526138633101 0.3490577736624254 0 1 682.2752549524131,201.16405480965116 L559.4890264696958,156.47464554922254 A107.02347112674738 107.02347112674738 0.3490577736624254 0 0 522.8856558075574,150.02063613023134 Z" style="fill: rgb(89, 173, 228);"></path><title>Wing → WingSkin.2
  1.29</title></g><g class="link" style="opacity: 0.8;"><path d="M282.0735694801245,40 A0 0 0 0 0 282.0735694801245,40 L522.8856558075574,40 A0 0 0 0 0 522.8856558075574,40 L522.8856558075574,48.1505025389811 A0 0 0 0 0 522.8856558075574,48.1505025389811 L282.0735694801245,48.1505025389811 A0 0 0 0 0 282.0735694801245,48.1505025389811 Z" style="fill: rgb(89, 173, 228);"></path><title>Aircraft → Battery
  1.56</title></g><g class="link" style="opacity: 0.8;"><path d="M522.8856558075574,126.08633466574996 A155.94064753216037 155.94064753216037 0.25475965967869274 0 1 562.1847001476538,131.1194917718065 L686.2162916354391,163.41956514581872 A138.7281363272627 138.7281363272627 0.25475965967869274 0 0 721.1775622664314,167.89716938958426 L721.1775622664314,185.10968059448194 A155.94064753216037 155.94064753216037 0.25475965967869274 0 1 681.878517926335,180.0765234884254 L557.8469264385496,147.7764501144132 A138.7281363272627 138.7281363272627 0.25475965967869274 0 0 522.8856558075574,143.29884587064765 Z" style="fill: rgb(89, 173, 228);"></path><title>Wing → Planform.2
  3.30</title></g><g class="link" style="opacity: 0.8;"><path d="M522.8856558075574,169.1806869229138 A81.78428090295814 81.78428090295814 0.6012460270548416 0 1 569.1486047693783,183.52308057343865 L686.2965169344907,263.8827517254781 A61.663194276061304 61.663194276061304 0.6012460270548416 0 0 721.1775622664314,274.69653887738144 L721.1775622664314,294.8176255042783 A81.78428090295814 81.78428090295814 0.6012460270548416 0 1 674.9146133046106,280.4752318537535 L557.7667011394982,200.11556070171397 A61.663194276061304 61.663194276061304 0.6012460270548416 0 0 522.8856558075574,189.30177354981063 Z" style="fill: rgb(89, 173, 228);"></path><title>AircraftPerf → WingAero
  3.86</title></g><g class="link" style="opacity: 0.8;"><path d="M282.0735694801245,48.15050253898111 A648.7051554608653 648.7051554608653 0.06952416608608747 0 1 327.13793004479976,49.71766488832901 L479.3178706975422,60.31492820663996 A627.1618294087654 627.1618294087654 0.06952416608608747 0 0 522.8856558075574,61.830045510277415 L522.8856558075574,83.37337156237734 A648.7051554608653 648.7051554608653 0.06952416608608747 0 1 477.8212952428822,81.80620921302943 L325.6413545901397,71.20894589471848 A627.1618294087654 627.1618294087654 0.06952416608608747 0 0 282.0735694801245,69.69382859108104 Z" style="fill: rgb(89, 173, 228);"></path><title>Aircraft → Empennage
  4.14</title></g><g class="link" style="opacity: 0.8;"><path d="M282.0735694801245,70.63540486825163 A181.29923651910937 181.29923651910937 0.27393422923941 0 1 331.11883081130895,77.39531772828472 L481.48051539438546,119.6467024590897 A153.05699554100656 153.05699554100656 0.27393422923941 0 0 522.8856558075574,125.35357675343687 L522.8856558075574,153.59581773153968 A181.29923651910937 181.29923651910937 0.27393422923941 0 1 473.840394476373,146.8359048715066 L323.47870989329647,104.58452014070163 A153.05699554100656 153.05699554100656 0.27393422923941 0 0 282.0735694801245,98.87764584635444 Z" style="fill: rgb(89, 173, 228);"></path><title>Aircraft → Wing
  5.42</title></g><g class="link" style="opacity: 0.8;"><path d="M282.0735694801245,320.9092736565589 A0 0 0 0 1 282.0735694801245,320.9092736565589 L522.8856558075574,321.04510708499936 A0 0 0 0 0 522.8856558075574,321.04510708499936 L522.8856558075574,360 A0 0 0 0 1 522.8856558075574,360 L282.0735694801245,359.86416657155956 A0 0 0 0 0 282.0735694801245,359.86416657155956 Z" style="fill: rgb(89, 173, 228);"></path><title>FlightSegment → SteadyLevelFlight
  7.48</title></g><g class="link" style="opacity: 0.8;"><path d="M282.0735694801245,249.2167851021734 A85.99005227891448 85.99005227891448 0.402460805065735 0 0 315.754472395506,242.3461733529738 L463.778914988994,179.3326226160687 A150.90426007265324 150.90426007265324 0.402460805065735 0 1 522.8856558075574,167.275360702836 L522.8856558075574,232.1895684965748 A85.99005227891448 85.99005227891448 0.402460805065735 0 0 489.2047528921759,239.0601802457744 L341.1803102986879,302.0737309826795 A150.90426007265324 150.90426007265324 0.402460805065735 0 1 282.0735694801245,314.1309928959122 Z" style="fill: rgb(89, 173, 228);"></path><title>FlightSegment → AircraftPerf
  12.5</title></g><g class="link" style="opacity: 0.8;"><path d="M0,100 A163.30535394705984 163.30535394705984 0.2569394884287928 0 0 41.499434947629176,94.63905249647962 L217.90221300575521,48.289733913797306 A252.52213904923323 252.52213904923323 0.2569394884287928 0 1 282.0735694801245,40 L282.0735694801245,129.2167851021734 A163.30535394705984 163.30535394705984 0.2569394884287928 0 0 240.57413453249532,134.57773260569377 L64.17135647436928,180.92705118837608 A252.52213904923323 252.52213904923323 0.2569394884287928 0 1 0,189.2167851021734 Z" style="fill: rgb(89, 173, 228);"></path><title>Mission → Aircraft
  17.1</title></g><g class="link" style="opacity: 0.8;"><path d="M0,189.2167851021734 A263.30535394705987 263.30535394705987 0.2569394884287928 0 1 66.91160542740562,197.8605077100901 L243.31438348553166,244.2098262927724 A152.52213904923323 152.52213904923323 0.2569394884287928 0 0 282.0735694801245,249.2167851021734 L282.0735694801245,360 A263.30535394705987 263.30535394705987 0.2569394884287928 0 1 215.16196405271887,351.35627739208326 L38.759185994592826,305.006958809401 A152.52213904923323 152.52213904923323 0.2569394884287928 0 0 0,300 Z" style="fill: rgb(89, 173, 228);"></path><title>Mission → FlightSegment
  21.3</title></g></g><g class="nodes"><g class="node" transform="translate(721.1775622664314,131.56899066531338)"><title>VerticalTail</title><text dy=".35em" text-anchor="end" transform="translate(-4, 1.6057621240615845)">VerticalTail</text><line x1="0" x2="0" y1="0" y2="3.2115240906625466" style="stroke: rgb(0, 0, 0);"></line><rect x="-5" y="-5" width="10" style="fill: none; visibility: hidden; pointer-events: all;" height="8.211524090662547"></rect></g><g class="node" transform="translate(900,360.00000000000006)"><title>WingSkin.1</title><text dy=".35em" text-anchor="start" transform="translate(4, 2.604800877636835e-30)">WingSkin.1</text><line x1="0" x2="0" y1="0" y2="1" style="stroke: rgb(0, 0, 0);"></line><rect x="-5" y="-5" width="10" style="fill: none; visibility: hidden; pointer-events: all;" height="6"></rect></g><g class="node" transform="translate(522.8856558075574,279.8944953133964)"><title>SparLoading</title><text dy=".35em" text-anchor="start" transform="translate(4, 6.692679477282582e-8)">SparLoading</text><line x1="0" x2="0" y1="0" y2="1" style="stroke: rgb(0, 0, 0);"></line><rect x="-5" y="-5" width="10" style="fill: none; visibility: hidden; pointer-events: all;" height="6"></rect></g><g class="node" transform="translate(721.1775622664314,327.56706092699517)"><title>Beam</title><text dy=".35em" text-anchor="start" transform="translate(4, 3.4982914343117955e-8)">Beam</text><line x1="0" x2="0" y1="0" y2="1" style="stroke: rgb(0, 0, 0);"></line><rect x="-5" y="-5" width="10" style="fill: none; visibility: hidden; pointer-events: all;" height="6"></rect></g><g class="node" transform="translate(282.0735694801245,249.2167851021734)"><title>FlightSegment</title><text dy=".35em" text-anchor="start" transform="translate(-4, -10)">FlightSegment</text><line x1="0" x2="0" y1="-5" y2="110.78321489782661" style="stroke: rgb(0, 0, 0);"></line><rect x="-5" y="-5" width="10" style="fill: none; visibility: hidden; pointer-events: all;" height="115.78321489782661"></rect></g><g class="node" transform="translate(522.8856558075574,307.28212231206135)"><title>SparLoading.2</title><text dy=".35em" text-anchor="start" transform="translate(4, 0.041720904409885406)">SparLoading.2</text><line x1="0" x2="0" y1="0" y2="1" style="stroke: rgb(0, 0, 0);"></line><rect x="-5" y="-5" width="10" style="fill: none; visibility: hidden; pointer-events: all;" height="6"></rect></g><g class="node" transform="translate(522.8856558075574,125.35357675343687)"><title>Wing</title><text dy=".35em" text-anchor="end" transform="translate(-4, 14.12112045288086)">Wing</text><line x1="0" x2="0" y1="0" y2="28.242240978102807" style="stroke: rgb(0, 0, 0);"></line><rect x="-5" y="-5" width="10" style="fill: none; visibility: hidden; pointer-events: all;" height="33.24224097810281"></rect></g><g class="node" transform="translate(721.1775622664314,201.30162895512956)"><title>WingSkin.2</title><text dy=".35em" text-anchor="start" transform="translate(4, 3.3608951568603516)">WingSkin.2</text><line x1="0" x2="0" y1="0" y2="6.721790259583642" style="stroke: rgb(0, 0, 0);"></line><rect x="-5" y="-5" width="10" style="fill: none; visibility: hidden; pointer-events: all;" height="11.721790259583642"></rect></g><g class="node" transform="translate(900,295.6447332029022)"><title>Planform.1</title><text dy=".35em" text-anchor="start" transform="translate(4, 0.32580897212028503)">Planform.1</text><line x1="0" x2="0" y1="0" y2="1" style="stroke: rgb(0, 0, 0);"></line><rect x="-5" y="-5" width="10" style="fill: none; visibility: hidden; pointer-events: all;" height="6"></rect></g><g class="node" transform="translate(522.8856558075574,61.830045510277415)"><title>Empennage</title><text dy=".35em" text-anchor="end" transform="translate(-4, 10.771662712097168)">Empennage</text><line x1="0" x2="0" y1="0" y2="21.543326052099932" style="stroke: rgb(0, 0, 0);"></line><rect x="-5" y="-5" width="10" style="fill: none; visibility: hidden; pointer-events: all;" height="26.543326052099932"></rect></g><g class="node" transform="translate(721.1775622664314,113.63896880621893)"><title>VerticalBoomTorsion</title><text dy=".35em" text-anchor="start" transform="translate(4, 0.8690367937088013)">VerticalBoomTorsion</text><line x1="0" x2="0" y1="0" y2="1.7380734984468404" style="stroke: rgb(0, 0, 0);"></line><rect x="-5" y="-5" width="10" style="fill: none; visibility: hidden; pointer-events: all;" height="6.73807349844684"></rect></g><g class="node" transform="translate(282.0735694801245,40)"><title>Aircraft</title><text dy=".35em" text-anchor="start" transform="translate(-4, -10)">Aircraft</text><line x1="0" x2="0" y1="-5" y2="89.21678510217339" style="stroke: rgb(0, 0, 0);"></line><rect x="-5" y="-5" width="10" style="fill: none; visibility: hidden; pointer-events: all;" height="94.21678510217339"></rect></g><g class="node" transform="translate(522.8856558075574,167.275360702836)"><title>AircraftPerf</title><text dy=".35em" text-anchor="end" transform="translate(-4, 32.45710372924805)">AircraftPerf</text><line x1="0" x2="0" y1="0" y2="64.91420779373877" style="stroke: rgb(0, 0, 0);"></line><rect x="-5" y="-5" width="10" style="fill: none; visibility: hidden; pointer-events: all;" height="69.91420779373877"></rect></g><g class="node" transform="translate(721.1775622664314,240.96192184386126)"><title>TailAero.1</title><text dy=".35em" text-anchor="start" transform="translate(4, 0.5717666149139404)">TailAero.1</text><line x1="0" x2="0" y1="0" y2="1.14353325826365" style="stroke: rgb(0, 0, 0);"></line><rect x="-5" y="-5" width="10" style="fill: none; visibility: hidden; pointer-events: all;" height="6.14353325826365"></rect></g><g class="node" transform="translate(721.1775622664314,274.69653887738144)"><title>WingAero</title><text dy=".35em" text-anchor="start" transform="translate(4, 10.060543060302734)">WingAero</text><line x1="0" x2="0" y1="0" y2="20.121086626896847" style="stroke: rgb(0, 0, 0);"></line><rect x="-5" y="-5" width="10" style="fill: none; visibility: hidden; pointer-events: all;" height="25.121086626896847"></rect></g><g class="node" transform="translate(721.1775622664314,258.29740346277254)"><title>TailBoomAero</title><text dy=".35em" text-anchor="start" transform="translate(4, 0.10359353572130203)">TailBoomAero</text><line x1="0" x2="0" y1="0" y2="1" style="stroke: rgb(0, 0, 0);"></line><rect x="-5" y="-5" width="10" style="fill: none; visibility: hidden; pointer-events: all;" height="6"></rect></g><g class="node" transform="translate(522.8856558075574,97.05291453367366)"><title>Motor</title><text dy=".35em" text-anchor="start" transform="translate(4, 0.04789454862475395)">Motor</text><line x1="0" x2="0" y1="0" y2="1" style="stroke: rgb(0, 0, 0);"></line><rect x="-5" y="-5" width="10" style="fill: none; visibility: hidden; pointer-events: all;" height="6"></rect></g><g class="node" transform="translate(522.8856558075574,40)"><title>Battery</title><text dy=".35em" text-anchor="start" transform="translate(4, 4.07525110244751)">Battery</text><line x1="0" x2="0" y1="0" y2="8.150502538981106" style="stroke: rgb(0, 0, 0);"></line><rect x="-5" y="-5" width="10" style="fill: none; visibility: hidden; pointer-events: all;" height="13.150502538981106"></rect></g><g class="node" transform="translate(522.8856558075574,321.04510708499936)"><title>SteadyLevelFlight</title><text dy=".35em" text-anchor="start" transform="translate(4, 19.477445602416992)">SteadyLevelFlight</text><line x1="0" x2="0" y1="0" y2="38.95489291500062" style="stroke: rgb(0, 0, 0);"></line><rect x="-5" y="-5" width="10" style="fill: none; visibility: hidden; pointer-events: all;" height="43.95489291500062"></rect></g><g class="node" transform="translate(721.1775622664314,93.91181496845516)"><title>VerticalBoomBending</title><text dy=".35em" text-anchor="start" transform="translate(4, 1.767602801322937)">VerticalBoomBending</text><line x1="0" x2="0" y1="0" y2="3.5352054771161567" style="stroke: rgb(0, 0, 0);"></line><rect x="-5" y="-5" width="10" style="fill: none; visibility: hidden; pointer-events: all;" height="8.535205477116158"></rect></g><g class="node" transform="translate(721.1775622664314,150.97246311662354)"><title>BoxSpar.2</title><text dy=".35em" text-anchor="start" transform="translate(4, 0.3663789629936218)">BoxSpar.2</text><line x1="0" x2="0" y1="0" y2="1" style="stroke: rgb(0, 0, 0);"></line><rect x="-5" y="-5" width="10" style="fill: none; visibility: hidden; pointer-events: all;" height="6"></rect></g><g class="node" transform="translate(0,100)"><title>Mission</title><text dy=".35em" text-anchor="end" transform="translate(-4, 100)">Mission</text><line x1="0" x2="0" y1="0" y2="200" style="stroke: rgb(0, 0, 0);"></line><rect x="-5" y="-5" width="10" style="fill: none; visibility: hidden; pointer-events: all;" height="205"></rect></g><g class="node" transform="translate(721.1775622664314,224.2153675753608)"><title>TailAero</title><text dy=".35em" text-anchor="start" transform="translate(4, 0.27730295062065125)">TailAero</text><line x1="0" x2="0" y1="0" y2="1" style="stroke: rgb(0, 0, 0);"></line><rect x="-5" y="-5" width="10" style="fill: none; visibility: hidden; pointer-events: all;" height="6"></rect></g><g class="node" transform="translate(721.1775622664314,56.191948360697)"><title>HorizontalTail</title><text dy=".35em" text-anchor="end" transform="translate(-4, 0.5408591032028198)">HorizontalTail</text><line x1="0" x2="0" y1="0" y2="1.0817180796709882" style="stroke: rgb(0, 0, 0);"></line><rect x="-5" y="-5" width="10" style="fill: none; visibility: hidden; pointer-events: all;" height="6.081718079670988"></rect></g><g class="node" transform="translate(900,40)"><title>BoxSpar</title><text dy=".35em" text-anchor="start" transform="translate(4, 0.020224187523126602)">BoxSpar</text><line x1="0" x2="0" y1="0" y2="1" style="stroke: rgb(0, 0, 0);"></line><rect x="-5" y="-5" width="10" style="fill: none; visibility: hidden; pointer-events: all;" height="6"></rect></g><g class="node" transform="translate(522.8856558075574,265.42302679986614)"><title>GustL</title><text dy=".35em" text-anchor="start" transform="translate(4, 0.39596274495124817)">GustL</text><line x1="0" x2="0" y1="0" y2="1" style="stroke: rgb(0, 0, 0);"></line><rect x="-5" y="-5" width="10" style="fill: none; visibility: hidden; pointer-events: all;" height="6"></rect></g><g class="node" transform="translate(721.1775622664314,311.00957386492587)"><title>Beam.1</title><text dy=".35em" text-anchor="start" transform="translate(4, 0.18276935815811157)">Beam.1</text><line x1="0" x2="0" y1="0" y2="1" style="stroke: rgb(0, 0, 0);"></line><rect x="-5" y="-5" width="10" style="fill: none; visibility: hidden; pointer-events: all;" height="6"></rect></g><g class="node" transform="translate(721.1775622664314,40)"><title>HorizontalBoomBending</title><text dy=".35em" text-anchor="start" transform="translate(4, 2.4697299760845226e-11)">HorizontalBoomBending</text><line x1="0" x2="0" y1="0" y2="1" style="stroke: rgb(0, 0, 0);"></line><rect x="-5" y="-5" width="10" style="fill: none; visibility: hidden; pointer-events: all;" height="6"></rect></g><g class="node" transform="translate(900,103.74409727298337)"><title>Planform</title><text dy=".35em" text-anchor="start" transform="translate(4, 0.050506625324487686)">Planform</text><line x1="0" x2="0" y1="0" y2="1" style="stroke: rgb(0, 0, 0);"></line><rect x="-5" y="-5" width="10" style="fill: none; visibility: hidden; pointer-events: all;" height="6"></rect></g><g class="node" transform="translate(721.1775622664314,359.96345707393067)"><title>Beam.3</title><text dy=".35em" text-anchor="start" transform="translate(4, 0.018271464854478836)">Beam.3</text><line x1="0" x2="0" y1="0" y2="1" style="stroke: rgb(0, 0, 0);"></line><rect x="-5" y="-5" width="10" style="fill: none; visibility: hidden; pointer-events: all;" height="6"></rect></g><g class="node" transform="translate(900,231.87116775159456)"><title>BoxSpar.1</title><text dy=".35em" text-anchor="start" transform="translate(4, 0.03495828062295914)">BoxSpar.1</text><line x1="0" x2="0" y1="0" y2="1" style="stroke: rgb(0, 0, 0);"></line><rect x="-5" y="-5" width="10" style="fill: none; visibility: hidden; pointer-events: all;" height="6"></rect></g><g class="node" transform="translate(522.8856558075574,245.86911146787108)"><title>FlightState</title><text dy=".35em" text-anchor="start" transform="translate(4, 2.9371862411499023)">FlightState</text><line x1="0" x2="0" y1="0" y2="5.874372360698771" style="stroke: rgb(0, 0, 0);"></line><rect x="-5" y="-5" width="10" style="fill: none; visibility: hidden; pointer-events: all;" height="10.874372360698771"></rect></g><g class="node" transform="translate(522.8856558075574,293.5740384185463)"><title>SparLoading.1</title><text dy=".35em" text-anchor="start" transform="translate(4, 0.014270460233092308)">SparLoading.1</text><line x1="0" x2="0" y1="0" y2="1" style="stroke: rgb(0, 0, 0);"></line><rect x="-5" y="-5" width="10" style="fill: none; visibility: hidden; pointer-events: all;" height="6"></rect></g><g class="node" transform="translate(721.1775622664314,343.7590093576086)"><title>Beam.2</title><text dy=".35em" text-anchor="start" transform="translate(4, 0.006249677389860153)">Beam.2</text><line x1="0" x2="0" y1="0" y2="1" style="stroke: rgb(0, 0, 0);"></line><rect x="-5" y="-5" width="10" style="fill: none; visibility: hidden; pointer-events: all;" height="6"></rect></g><g class="node" transform="translate(900,167.54875940675393)"><title>WingSkin</title><text dy=".35em" text-anchor="start" transform="translate(4, 0.3093797266483307)">WingSkin</text><line x1="0" x2="0" y1="0" y2="1" style="stroke: rgb(0, 0, 0);"></line><rect x="-5" y="-5" width="10" style="fill: none; visibility: hidden; pointer-events: all;" height="6"></rect></g><g class="node" transform="translate(522.8856558075574,110.8282465995457)"><title>SolarCells</title><text dy=".35em" text-anchor="start" transform="translate(4, 0.4228936433792114)">SolarCells</text><line x1="0" x2="0" y1="0" y2="1" style="stroke: rgb(0, 0, 0);"></line><rect x="-5" y="-5" width="10" style="fill: none; visibility: hidden; pointer-events: all;" height="6"></rect></g><g class="node" transform="translate(721.1775622664314,167.89716938958426)"><title>Planform.2</title><text dy=".35em" text-anchor="start" transform="translate(4, 8.606255531311035)">Planform.2</text><line x1="0" x2="0" y1="0" y2="17.212511204897698" style="stroke: rgb(0, 0, 0);"></line><rect x="-5" y="-5" width="10" style="fill: none; visibility: hidden; pointer-events: all;" height="22.212511204897698"></rect></g><g class="node" transform="translate(721.1775622664314,73.46561480101559)"><title>TailBoom</title><text dy=".35em" text-anchor="start" transform="translate(4, 2.1271259784698486)">TailBoom</text><line x1="0" x2="0" y1="0" y2="4.2542518067919675" style="stroke: rgb(0, 0, 0);"></line><rect x="-5" y="-5" width="10" style="fill: none; visibility: hidden; pointer-events: all;" height="9.254251806791967"></rect></g></g><g class="slice-titles"></g></g></svg>
