<?xml version="1.0" encoding="utf-8" standalone="no"?>
<!DOCTYPE svg PUBLIC "-//W3C//DTD SVG 1.1//EN"
  "http://www.w3.org/Graphics/SVG/1.1/DTD/svg11.dtd">
  <svg width="1100" height="400" viewBox="0 0 1100 400" xmlns="http://www.w3.org/2000/svg" xmlns:xlink="http://www.w3.org/1999/xlink"><g class="sankey" transform="translate(60,0)"><g class="groups"></g><g class="links"><g class="link" style="opacity: 0.8;"><path d="M225.75,47.421981356137266 A269.35291724097226 269.35291724097226 0.15490810681958433 0 1 267.3082749712141,50.647290469656866 L408.25030364302114,72.6566852248922 A267.35291724097226 267.35291724097226 0.15490810681958433 0 0 449.5,75.85804576457375 L449.5,77.85804576457375 A269.35291724097226 269.35291724097226 0.15490810681958433 0 1 407.9417250287859,74.63273665105415 L266.99969635697886,52.62334189581881 A267.35291724097226 267.35291724097226 0.15490810681958433 0 0 225.75,49.421981356137266 Z" style="fill: rgb(207, 207, 207);"></path><title>Aircraft.1 → FoamHD
850µ</title></g><g class="link" style="opacity: 0.8;"><path d="M450.5,350.69080366371116 A999 999 0.02593657386842496 0 0 476.4077323526587,350.35480592089823 L648.2904003153039,345.8957584859532 A1001 1001 0.02593657386842496 0 1 674.25,345.55908807498645 L674.25,347.55908807498645 A999 999 0.02593657386842496 0 0 648.3422676473413,347.8950858177994 L476.459599684696,352.3541332527444 A1001 1001 0.02593657386842496 0 1 450.5,352.69080366371116 Z" style="fill: rgb(207, 207, 207);"></path><title>TailBoomBending.2 → Beam.2
850µ</title></g><g class="link" style="opacity: 0.8;"><path d="M450.5,141.43660690448212 A134.2667530669026 134.2667530669026 0.3236852590420729 0 1 493.2052319057098,148.40911757602677 L632.1808932843353,195.03328326287976 A132.2667530669026 132.2667530669026 0.3236852590420729 0 0 674.25,201.90193336563462 L674.25,203.90193336563462 A134.2667530669026 134.2667530669026 0.3236852590420729 0 1 631.5447680942902,196.92942269408996 L492.56910671566476,150.30525700723697 A132.2667530669026 132.2667530669026 0.3236852590420729 0 0 450.5,143.43660690448212 Z" style="fill: rgb(207, 207, 207);"></path><title>AircraftDrag.2 → TailBoomAero.2
850µ</title></g><g class="link" style="opacity: 0.8;"><path d="M225.75,44.974313314761034 A1001 1001 0.03832025936257977 0 1 264.09919241785957,45.70917874248276 L411.2274293452131,51.34993225174128 A999 999 0.03832025936257977 0 0 449.5,52.08332941687015 L449.5,54.08332941687015 A1001 1001 0.03832025936257977 0 1 411.15080758214043,53.34846398914843 L264.0225706547869,47.70771047988991 A999 999 0.03832025936257977 0 0 225.75,46.974313314761034 Z" style="fill: rgb(207, 207, 207);"></path><title>Aircraft.1 → CFRPFabric
850µ</title></g><g class="link" style="opacity: 0.8;"><path d="M225.75,343.85310339852936 A226.34020117068314 226.34020117068314 0.1836669696304163 0 0 267.08788858409235,340.0461932954851 L407.7968392426898,313.90803258612095 A228.34020117068314 228.34020117068314 0.1836669696304163 0 1 449.5,310.0674836501751 L449.5,312.0674836501751 A226.34020117068314 226.34020117068314 0.1836669696304163 0 0 408.16211141590765,315.87439375321935 L267.4531607573102,342.0125544625835 A228.34020117068314 228.34020117068314 0.1836669696304163 0 1 225.75,345.85310339852936 Z" style="fill: rgb(207, 207, 207);"></path><title>FlightSegment.1 → SparLoading.3
850µ</title></g><g class="link" style="opacity: 0.8;"><path d="M225.75,44.97584830500523 A531.3077199900466 531.3077199900466 0.07775118161003158 0 1 267.0181942845874,46.58098244001625 L408.38715145096995,57.59478857565096 A529.3077199900466 529.3077199900466 0.07775118161003158 0 0 449.5,59.19388050922346 L449.5,61.19388050922346 A531.3077199900466 531.3077199900466 0.07775118161003158 0 1 408.2318057154126,59.58874637421244 L266.86284854903005,48.57494023857773 A529.3077199900466 529.3077199900466 0.07775118161003158 0 0 225.75,46.97584830500523 Z" style="fill: rgb(207, 207, 207);"></path><title>Aircraft.1 → CFRPUD
850µ</title></g><g class="link" style="opacity: 0.8;"><path d="M225.75,356.0403590036289 A999 999 0.02721252226686066 0 0 252.9319546516946,355.6704914056676 L422.2636270206744,351.0614117373441 A1001 1001 0.02721252226686066 0 1 449.5,350.69080366371116 L449.5,352.69080366371116 A999 999 0.02721252226686066 0 0 422.31804534830536,353.0606712616725 L252.98637297932564,357.669750929996 A1001 1001 0.02721252226686066 0 1 225.75,358.0403590036289 Z" style="fill: rgb(207, 207, 207);"></path><title>FlightSegment.1 → TailBoomBending.2
850µ</title></g><g class="link" style="opacity: 0.8;"><path d="M225.75,48.33740889016196 A159.3716140956185 159.3716140956185 0.26830273111739555 0 1 267.9986618551013,54.03937096920285 L407.78152869476355,92.47011508000786 A157.3716140956185 157.3716140956185 0.26830273111739555 0 0 449.5,98.10052160492579 L449.5,100.10052160492579 A159.3716140956185 159.3716140956185 0.26830273111739555 0 1 407.2513381448987,94.39855952588489 L267.46847130523645,55.9678154150799 A157.3716140956185 157.3716140956185 0.26830273111739555 0 0 225.75,50.33740889016196 Z" style="fill: rgb(207, 207, 207);"></path><title>Aircraft.1 → Propeller.1
1.10m</title></g><g class="link" style="opacity: 0.8;"><path d="M675.25,296.7387953070062 A221.89852414767256 221.89852414767256 0.18920087673184938 0 1 716.9833635170788,300.69860928948907 L857.6427846675689,327.63366250021005 A219.89852414767256 219.89852414767256 0.18920087673184938 0 0 899,331.5577861688642 L899,333.5577861688642 A221.89852414767256 221.89852414767256 0.18920087673184938 0 1 857.2666364829212,329.59797218638136 L716.6072153324311,302.6629189756604 A219.89852414767256 219.89852414767256 0.18920087673184938 0 0 675.25,298.7387953070062 Z" style="fill: rgb(207, 207, 207);"></path><title>AircraftDrag.3 → TailBoomAero.3
1.65m</title></g><g class="link" style="opacity: 0.8;"><path d="M450.5,140.81947861862463 A839.5537427613702 839.5537427613702 0.04908932696364343 0 1 491.69657787102324,141.83083786182007 L633.1515613564562,148.78035091797867 A837.5537427613702 837.5537427613702 0.04908932696364343 0 0 674.25,149.78930088302624 L674.25,151.78930088302624 A839.5537427613702 839.5537427613702 0.04908932696364343 0 1 633.0534221289769,150.7779416398308 L491.5984386435438,143.8284285836722 A837.5537427613702 837.5537427613702 0.04908932696364343 0 0 450.5,142.81947861862463 Z" style="fill: rgb(207, 207, 207);"></path><title>AircraftDrag.2 → FuselageAero.2
4.04m</title></g><g class="link" style="opacity: 0.8;"><path d="M450.5,141.41999524678315 A222.51334047953011 222.51334047953011 0.1886580965496687 0 1 492.2303678140717,145.36809811186188 L632.8947141268505,172.224953181893 A220.51334047953011 220.51334047953011 0.1886580965496687 0 0 674.25,176.13756960956022 L674.25,178.13756960956022 A222.51334047953011 222.51334047953011 0.1886580965496687 0 1 632.5196321859283,174.18946674448148 L491.8552858731495,147.33261167445036 A220.51334047953011 220.51334047953011 0.1886580965496687 0 0 450.5,143.41999524678315 Z" style="fill: rgb(207, 207, 207);"></path><title>AircraftDrag.2 → TailAero.4
4.57m</title></g><g class="link" style="opacity: 0.8;"><path d="M450.5,141.42998010190485 A165.93196214658334 165.93196214658334 0.25692628274687435 0 1 492.66479378637484,146.8765964166408 L632.5934240788382,183.64046298968944 A163.93196214658334 163.93196214658334 0.25692628274687435 0 0 674.25,189.02143051386963 L674.25,191.02143051386963 A165.93196214658334 165.93196214658334 0.25692628274687435 0 1 632.0852062136252,185.57481419913367 L492.1565759211618,148.81094762608504 A163.93196214658334 163.93196214658334 0.25692628274687435 0 0 450.5,143.42998010190485 Z" style="fill: rgb(207, 207, 207);"></path><title>AircraftDrag.2 → TailAero.5
6.49m</title></g><g class="link" style="opacity: 0.8;"><path d="M225.75,343.867658332051 A284.50694283703837 284.50694283703837 0.14541189410941335 0 0 266.9750529147669,340.8650592175429 L407.98514710704154,320.2147611876035 A286.50694283703837 286.50694283703837 0.14541189410941335 0 1 449.5,317.1910546858059 L449.5,319.1910546858059 A284.50694283703837 284.50694283703837 0.14541189410941335 0 0 408.2749470852331,322.193653800314 L267.26485289295846,342.84395183025345 A286.50694283703837 286.50694283703837 0.14541189410941335 0 1 225.75,345.867658332051 Z" style="fill: rgb(89, 173, 228);"></path><title>FlightSegment.1 → SparLoading.4
15.3m</title></g><g class="link" style="opacity: 0.8;"><path d="M225.75,343.89800639568097 A385.7131259935154 385.7131259935154 0.10688270606573869 0 0 266.89761366984123,341.69692643588144 L408.1390276918503,326.5429118528589 A387.7131259935154 387.7131259935154 0.10688270606573869 0 1 449.5,324.33041885154495 L449.5,326.33041885154495 A385.7131259935154 385.7131259935154 0.10688270606573869 0 0 408.35238633015877,328.5314988113445 L267.1109723081497,343.68551339436704 A387.7131259935154 387.7131259935154 0.10688270606573869 0 1 225.75,345.89800639568097 Z" style="fill: rgb(89, 173, 228);"></path><title>FlightSegment.1 → SparLoading.5
18.3m</title></g><g class="link" style="opacity: 0.8;"><path d="M675.25,39.01771463932862 A0 0 0 0 0 675.25,39.01771463932862 L899,39.01771463932862 A0 0 0 0 0 899,39.01771463932862 L899,41.01771463932862 A0 0 0 0 0 899,41.01771463932862 L675.25,41.01771463932862 A0 0 0 0 0 675.25,41.01771463932862 Z" style="fill: rgb(89, 173, 228);"></path><title>HorizontalTail.1 → BoxSpar.3
19.6m</title></g><g class="link" style="opacity: 0.8;"><path d="M675.25,39.053166251013145 A373.63930656065907 373.63930656065907 0.1109642879655981 0 1 716.625587368374,41.35113094808141 L857.845886050733,57.08617616819118 A371.63930656065907 371.63930656065907 0.1109642879655981 0 0 899,59.37184042118562 L899,61.37184042118562 A373.63930656065907 373.63930656065907 0.1109642879655981 0 1 857.624412631626,59.07387572411735 L716.404113949267,43.33883050400758 A371.63930656065907 371.63930656065907 0.1109642879655981 0 0 675.25,41.053166251013145 Z" style="fill: rgb(89, 173, 228);"></path><title>HorizontalTail.1 → Planform.3
19.6m</title></g><g class="link" style="opacity: 0.8;"><path d="M675.25,66.07137044707632 A226.73516168587247 226.73516168587247 0.18501480953080263 0 1 716.96044756046,69.94094010711622 L857.6574746202051,96.27311599727297 A224.73516168587247 224.73516168587247 0.18501480953080263 0 0 899,100.10855271003403 L899,102.10855271003403 A226.73516168587247 226.73516168587247 0.18501480953080263 0 1 857.28955243954,98.23898304999413 L716.5925253797949,71.90680715983738 A224.73516168587247 224.73516168587247 0.18501480953080263 0 0 675.25,68.07137044707632 Z" style="fill: rgb(89, 173, 228);"></path><title>VerticalTail.1 → BoxSpar.4
25.9m</title></g><g class="link" style="opacity: 0.8;"><path d="M675.25,66.11871227070607 A147.30977720074316 147.30977720074316 0.2922131652019333 0 1 717.6858626572077,72.36336968816903 L857.1402818929178,114.31469394691527 A145.30977720074316 145.30977720074316 0.2922131652019333 0 0 899,120.47456870383625 L899,122.47456870383625 A147.30977720074316 147.30977720074316 0.2922131652019333 0 1 856.5641373427923,116.2299112863733 L717.1097181070822,74.27858702762705 A145.30977720074316 145.30977720074316 0.2922131652019333 0 0 675.25,68.11871227070607 Z" style="fill: rgb(89, 173, 228);"></path><title>VerticalTail.1 → Planform.4
26.6m</title></g><g class="link" style="opacity: 0.8;"><path d="M675.25,39.10003548701462 A191.89135496861834 191.89135496861834 0.2202150828872087 0 1 717.1666548713641,43.73411781692546 L857.5202241623809,75.15160051884725 A189.89135496861834 189.89135496861834 0.2202150828872087 0 0 899,79.73738382735957 L899,81.73738382735957 A191.89135496861834 191.89135496861834 0.2202150828872087 0 1 857.0833451286359,77.10330149744873 L716.7297758376191,45.68581879552694 A189.89135496861834 189.89135496861834 0.2202150828872087 0 0 675.25,41.10003548701462 Z" style="fill: rgb(89, 173, 228);"></path><title>HorizontalTail.1 → WingSecondStruct.3
32.3m</title></g><g class="link" style="opacity: 0.8;"><path d="M675.25,66.18110298962804 A112.76571363348367 112.76571363348367 0.3952425462644693 0 1 718.6684135354748,74.87497827415515 L856.3516505582371,132.31595190155167 A110.76571363348367 110.76571363348367 0.3952425462644693 0 0 899,140.8556335929307 L899,142.8556335929307 A112.76571363348367 112.76571363348367 0.3952425462644693 0 1 855.5815864645252,134.1617583084036 L717.8983494417629,76.72078468100707 A110.76571363348367 110.76571363348367 0.3952425462644693 0 0 675.25,68.18110298962804 Z" style="fill: rgb(89, 173, 228);"></path><title>VerticalTail.1 → WingSecondStruct.4
42.5m</title></g><g class="link" style="opacity: 0.8;"><path d="M675.25,278.59379933518244 A167.61931440708926 167.61931440708926 0.2509593288633487 0 0 716.8754660255859,273.34306298571937 L856.8778672725746,237.451480597539 A169.61931440708926 169.61931440708926 0.2509593288633487 0 1 899,232.13809351635044 L899,234.13809351635044 A167.61931440708926 167.61931440708926 0.2509593288633487 0 0 857.3745339744141,239.38882986581353 L717.3721327274254,275.28041225399386 A169.61931440708926 169.61931440708926 0.2509593288633487 0 1 675.25,280.59379933518244 Z" style="fill: rgb(89, 173, 228);"></path><title>AircraftDrag.3 → FuselageAero.3
68.5m</title></g><g class="link" style="opacity: 0.8;"><path d="M675.25,296.4427645210352 A999 999 0.030025510125814003 0 0 705.2409778410114,295.9924834875672 L868.9489801613089,291.0755895395467 A1001 1001 0.030025510125814003 0 1 899,290.6244070425482 L899,292.6244070425482 A999 999 0.030025510125814003 0 0 869.0090221589886,293.07468807601623 L705.3010198386911,297.99158202403675 A1001 1001 0.030025510125814003 0 1 675.25,298.4427645210352 Z" style="fill: rgb(89, 173, 228);"></path><title>AircraftDrag.3 → TailAero.6
84.1m</title></g><g class="link" style="opacity: 0.8;"><path d="M450.5,66.4019777446924 A278.13590118638996 278.13590118638996 0.14879826471954027 0 0 491.73358720791555,63.32856184979491 L632.7199132245563,42.193829635148575 A280.13590118638996 280.13590118638996 0.14879826471954027 0 1 674.25,39.09831363823773 L674.25,41.09831363823773 A278.13590118638996 278.13590118638996 0.14879826471954027 0 0 633.0164127920845,44.17172953313522 L492.0300867754438,65.30646174778155 A280.13590118638996 280.13590118638996 0.14879826471954027 0 1 450.5,68.4019777446924 Z" style="fill: rgb(89, 173, 228);"></path><title>Empennage.1 → HorizontalTail.1
109m</title></g><g class="link" style="opacity: 0.8;"><path d="M675.25,296.6280086596923 A521.0678311355765 521.0678311355765 0.07929077289847042 0 1 716.5225923397113,298.26513434372 L857.8858230905782,309.4974834008151 A519.0678311355765 519.0678311355765 0.07929077289847042 0 0 899,311.1283253513778 L899,313.1283253513778 A521.0678311355765 521.0678311355765 0.07929077289847042 0 1 857.7274076602887,311.4911996673501 L716.3641769094218,300.25885061025497 A519.0678311355765 519.0678311355765 0.07929077289847042 0 0 675.25,298.6280086596923 Z" style="fill: rgb(89, 173, 228);"></path><title>AircraftDrag.3 → TailAero.7
121m</title></g><g class="link" style="opacity: 0.8;"><path d="M450.5,67.73470269867367 A999 999 0.007184359709278887 0 0 457.6771136080488,67.70892110486317 L667.0585177961393,66.20462389920739 A1001 1001 0.007184359709278887 0 1 674.25,66.17879069059445 L674.25,68.17879069059445 A999 999 0.007184359709278887 0 0 667.0728863919512,68.20457228440496 L457.6914822038607,69.70886949006074 A1001 1001 0.007184359709278887 0 1 450.5,69.73470269867367 Z" style="fill: rgb(89, 173, 228);"></path><title>Empennage.1 → VerticalTail.1
145m</title></g><g class="link" style="opacity: 0.8;"><path d="M225.75,47.58321190243211 A217.60176814034727 217.60176814034727 0.1930848022229048 0 1 267.5050115050107,51.62691179898329 L408.1287630558474,79.12175857377164 A215.60176814034727 215.60176814034727 0.1930848022229048 0 0 449.5,83.12829241297771 L449.5,85.12829241297771 A217.60176814034727 217.60176814034727 0.1930848022229048 0 1 407.7449884949893,81.08459251642654 L267.1212369441526,53.589745741638176 A215.60176814034727 215.60176814034727 0.1930848022229048 0 0 225.75,49.58321190243211 Z" style="fill: rgb(89, 173, 228);"></path><title>Aircraft.1 → Fuselage.1
178m</title></g><g class="link" style="opacity: 0.8;"><path d="M450.5,141.60569746816626 A114.39644943037607 114.39644943037607 0.38862215426305413 0 1 493.84637879009335,150.13600930930969 L631.6614485551771,206.5637240919074 A112.39644943037607 112.39644943037607 0.38862215426305413 0 0 674.25,214.94489997850647 L674.25,216.94489997850647 A114.39644943037607 114.39644943037607 0.38862215426305413 0 1 630.9036212099066,208.41458813736304 L493.0885514448229,151.98687335476532 A112.39644943037607 112.39644943037607 0.38862215426305413 0 0 450.5,143.60569746816626 Z" style="fill: rgb(89, 173, 228);"></path><title>AircraftDrag.2 → WingAero.2
186m</title></g><g class="link" style="opacity: 0.8;"><path d="M225.75,48.613977633562556 A141.57457311238437 141.57457311238437 0.3052232128976651 0 1 268.2940198052122,55.157568631590756 L407.55699235212535,99.03495565341477 A139.57457311238437 139.57457311238437 0.3052232128976651 0 0 449.5,105.4861064504355 L449.5,107.4861064504355 A141.57457311238437 141.57457311238437 0.3052232128976651 0 1 406.9559801947878,100.9425154524073 L267.69300764787465,57.06512843058328 A139.57457311238437 139.57457311238437 0.3052232128976651 0 0 225.75,50.613977633562556 Z" style="fill: rgb(89, 173, 228);"></path><title>Aircraft.1 → SolarCells.1
305m</title></g><g class="link" style="opacity: 0.8;"><path d="M450.5,358.08372145129425 A1001 1001 0.0028664086181477977 0 1 453.36927109763093,358.0878337058109 L671.3864617117549,358.7127617714242 A999 999 0.0028664086181477977 0 0 674.25,358.71686580964814 L674.25,360.71686580964814 A1001 1001 0.0028664086181477977 0 1 671.3807289023691,360.7127535551315 L453.363538288245,360.0878254895182 A999 999 0.0028664086181477977 0 0 450.5,360.08372145129425 Z" style="fill: rgb(89, 173, 228);"></path><title>TailBoomBending.3 → Beam.3
314m</title></g><g class="link" style="opacity: 0.8;"><path d="M225.75,48.040045145742376 A183.45645287836942 183.45645287836942 0.23090387738879037 0 1 267.73538614167416,52.908991593096616 L407.9723288689775,85.87827544391321 A181.45645287836942 181.45645287836942 0.23090387738879037 0 0 449.5,90.6941417583971 L449.5,92.6941417583971 A183.45645287836942 183.45645287836942 0.23090387738879037 0 1 407.51461385832584,87.82519531104286 L267.2776711310225,54.85591146022625 A181.45645287836942 181.45645287836942 0.23090387738879037 0 0 225.75,50.040045145742376 Z" style="fill: rgb(89, 173, 228);"></path><title>Aircraft.1 → Motor.1
328m</title></g><g class="link" style="opacity: 0.8;"><path d="M450.5,141.11949948997096 A348.0649218628824 348.0649218628824 0.11924427999578424 0 1 491.90646019196,143.59117071594338 L633.0814635836986,160.5057289350834 A346.0649218628824 346.0649218628824 0.11924427999578424 0 0 674.25,162.96319780356032 L674.25,164.96319780356032 A348.0649218628824 348.0649218628824 0.11924427999578424 0 1 632.84353980804,162.4915265775879 L491.6685364163014,145.57696835844789 A346.0649218628824 346.0649218628824 0.11924427999578424 0 0 450.5,143.11949948997096 Z" style="fill: rgb(89, 173, 228);"></path><title>AircraftDrag.2 → MotorPerf.2
328m</title></g><g class="link" style="opacity: 0.8;"><path d="M450.5,125.75107810333691 A946.0455697909571 946.0455697909571 0.04345545560905073 0 0 491.59790369187436,124.85797349100378 L633.0652127477471,118.70657458201612 A948.0455697909571 948.0455697909571 0.04345545560905073 0 1 674.25,117.81158189020596 L674.25,119.81158189020596 A946.0455697909571 946.0455697909571 0.04345545560905073 0 0 633.1520963081256,120.70468650253909 L491.6847872522529,126.85608541152675 A948.0455697909571 948.0455697909571 0.04345545560905073 0 1 450.5,127.75107810333691 Z" style="fill: rgb(89, 173, 228);"></path><title>Wing.1 → WingSecondStruct.5
361m</title></g><g class="link" style="opacity: 0.8;"><path d="M450.5,67.05210569461462 A521.5885621174469 521.5885621174469 0.07890612909293049 0 0 491.6138397298106,65.42919659130405 L632.9785117222117,54.25144968809682 A523.5885621174469 523.5885621174469 0.07890612909293049 0 1 674.25,52.62231763734767 L674.25,54.62231763734767 A521.5885621174469 521.5885621174469 0.07890612909293049 0 0 633.1361602701894,56.24522674065825 L491.7714882777883,67.42297364386548 A523.5885621174469 523.5885621174469 0.07890612909293049 0 1 450.5,69.05210569461462 Z" style="fill: rgb(89, 173, 228);"></path><title>Empennage.1 → TailBoom.1
611m</title></g><g class="link" style="opacity: 0.8;"><path d="M225.75,356.6408328682798 A1001 1001 0.008161001164284087 0 1 233.91907148540895,356.67416695424134 L441.3472503357407,358.36702614608 A999 999 0.008161001164284087 0 0 449.5,358.4002936304712 L449.5,360.4002936304712 A1001 1001 0.008161001164284087 0 1 441.33092851459105,360.36695954450965 L233.90274966425926,358.674100352671 A999 999 0.008161001164284087 0 0 225.75,358.6408328682798 Z" style="fill: rgb(89, 173, 228);"></path><title>FlightSegment.1 → TailBoomBending.3
664m</title></g><g class="link" style="opacity: 0.8;"><path d="M225.75,318.27085411443477 A200.41106335363727 200.41106335363727 0.2685697634695232 0 0 278.92962559005696,311.08639797791176 L405.78776024305176,276.17263428325134 A164.73257105625575 164.73257105625575 0.2685697634695232 0 1 449.5,270.26720216186226 L449.5,272.45466244806033 A162.54511077005768 162.54511077005768 0.2685697634695232 0 0 406.3682088323987,278.28167717964277 L279.5100741794039,313.1954408743032 A202.59852363983535 202.59852363983535 0.2685697634695232 0 1 225.75,320.45831440063284 Z" style="fill: rgb(89, 173, 228);"></path><title>FlightSegment.1 → FlightState.1
1.21</title></g><g class="link" style="opacity: 0.8;"><path d="M225.75,45.97661580012733 A356.53803304933564 356.53803304933564 0.11644030502426705 0 1 267.17164755408913,48.39091888408212 L408.3623593958103,64.90591465798991 A354.09343498844777 354.09343498844777 0.11644030502426705 0 0 449.5,67.30366410645468 L449.5,69.74826216734252 A356.53803304933564 356.53803304933564 0.11644030502426705 0 1 408.07835244591087,67.33395908338773 L266.8876406041897,50.81896330947993 A354.09343498844777 354.09343498844777 0.11644030502426705 0 0 225.75,48.42121386101517 Z" style="fill: rgb(89, 173, 228);"></path><title>Aircraft.1 → Empennage.1
1.35</title></g><g class="link" style="opacity: 0.8;"><path d="M450.5,113.87069774366314 A225.42447074303038 225.42447074303038 0.18313979143370274 0 0 491.55379738119757,110.10086315868595 L632.2673872251829,84.0385740662228 A230.52455238908448 230.52455238908448 0.18313979143370274 0 1 674.25,80.18344943215675 L674.25,85.28353107821087 A225.42447074303038 225.42447074303038 0.18313979143370274 0 0 633.1962026188024,89.05336566318806 L492.4826127748171,115.11565475565122 A230.52455238908448 230.52455238908448 0.18313979143370274 0 1 450.5,118.97077938971726 Z" style="fill: rgb(89, 173, 228);"></path><title>Wing.1 → BoxSpar.5
2.82</title></g><g class="link" style="opacity: 0.8;"><path d="M450.5,135.91562378964738 A997.0498979166117 997.0498979166117 0.019071852565631042 0 0 469.5144359003093,135.73429803434058 L655.1230430973192,132.1939687846769 A1002.9501020833883 1002.9501020833883 0.019071852565631042 0 1 674.25,132.01157000486126 L674.25,137.91177417163777 A997.0498979166117 997.0498979166117 0.019071852565631042 0 0 655.2355640996907,138.09309992694457 L469.6269569026807,141.63342917660825 A1002.9501020833883 1002.9501020833883 0.019071852565631042 0 1 450.5,141.8158279564239 Z" style="fill: rgb(89, 173, 228);"></path><title>AircraftDrag.2 → ActuatorProp.2
3.27</title></g><g class="link" style="opacity: 0.8;"><path d="M225.75,40 A0 0 0 0 0 225.75,40 L449.5,40 A0 0 0 0 0 449.5,40 L449.5,45.97354581963894 A0 0 0 0 0 449.5,45.97354581963894 L225.75,45.97354581963894 A0 0 0 0 0 225.75,45.97354581963894 Z" style="fill: rgb(89, 173, 228);"></path><title>Aircraft.1 → Battery.1
3.31</title></g><g class="link" style="opacity: 0.8;"><path d="M675.25,297.7402833911481 A148.0291255193348 148.0291255193348 0.2962624023554845 0 1 718.4667312589963,304.1892685612565 L857.8625338040672,346.7392400640595 A140.90707394251336 140.90707394251336 0.2962624023554845 0 0 899,352.87794842317857 L899,360.00000000000006 A148.0291255193348 148.0291255193348 0.2962624023554845 0 1 855.7832687410037,353.5510148298917 L716.3874661959328,311.00104332708867 A140.90707394251336 140.90707394251336 0.2962624023554845 0 0 675.25,304.8623349679696 Z" style="fill: rgb(89, 173, 228);"></path><title>AircraftDrag.3 → WingAero.3
3.94</title></g><g class="link" style="opacity: 0.8;"><path d="M450.5,118.97077938971726 A360.2018629869971 360.2018629869971 0.11365131037619092 0 0 491.34934178871237,116.64698694453527 L632.5553027330507,100.52928922562765 A367.65604963514926 367.65604963514926 0.11365131037619092 0 1 674.25,98.15740712739859 L674.25,105.61159377555066 A360.2018629869971 360.2018629869971 0.11365131037619092 0 0 633.4006582112877,107.93538622073265 L492.1946972669494,124.05308393964027 A367.65604963514926 367.65604963514926 0.11365131037619092 0 1 450.5,126.42496603786934 Z" style="fill: rgb(89, 173, 228);"></path><title>Wing.1 → Planform.5
4.13</title></g><g class="link" style="opacity: 0.8;"><path d="M225.75,136.45579355486336 A995.818166183015 995.818166183015 0.002440787207547368 0 0 228.18057782772328,136.45282729175628 L447.0490082595767,135.91861496577533 A1004.181833816985 1004.181833816985 0.002440787207547368 0 1 449.5,135.91562378964738 L449.5,144.2792914236174 A995.818166183015 995.818166183015 0.002440787207547368 0 0 447.06942217227675,144.28225768672448 L228.20099174042335,144.81647001270542 A1004.181833816985 1004.181833816985 0.002440787207547368 0 1 225.75,144.81946118883337 Z" style="fill: rgb(89, 173, 228);"></path><title>Climb.1 → AircraftDrag.2
4.63</title></g><g class="link" style="opacity: 0.8;"><path d="M1,136.45579355486336 A0 0 0 0 0 1,136.45579355486336 L224.75,136.45579355486336 A0 0 0 0 0 224.75,136.45579355486336 L224.75,146.50097558040812 A0 0 0 0 0 224.75,146.50097558040812 L1,146.50097558040812 A0 0 0 0 0 1,146.50097558040812 Z" style="fill: rgb(89, 173, 228);"></path><title>Mission.1 → Climb.1
5.56</title></g><g class="link" style="opacity: 0.8;"><path d="M225.75,344.91456702091136 A598.5727631895861 598.5727631895861 0.06814988996072824 0 0 266.51109898120507,343.5250970020743 L407.9132214127687,333.87361147912355 A610.6977876771816 610.6977876771816 0.06814988996072824 0 1 449.5,332.4559955788845 L449.5,344.58102006648 A598.5727631895861 598.5727631895861 0.06814988996072824 0 0 408.73890101879493,345.97049008531707 L267.3367785872313,355.6219756082678 A610.6977876771816 610.6977876771816 0.06814988996072824 0 1 225.75,357.0395915085069 Z" style="fill: rgb(89, 173, 228);"></path><title>FlightSegment.1 → SteadyLevelFlight.1
6.71</title></g><g class="link" style="opacity: 0.8;"><path d="M225.75,49.88955282468109 A134.43735230076572 134.43735230076572 0.34161204871724005 0 1 270.787376729024,57.65790184915919 L409.4662490596494,106.96540767903883 A119.5014423568906 119.5014423568906 0.34161204871724005 0 0 449.5,113.87069774366314 L449.5,128.80660768753825 A134.43735230076572 134.43735230076572 0.34161204871724005 0 1 404.462623270976,121.03825866306016 L265.7837509403506,71.73075283318052 A119.5014423568906 119.5014423568906 0.34161204871724005 0 0 225.75,64.8254627685562 Z" style="fill: rgb(89, 173, 228);"></path><title>Aircraft.1 → Wing.1
8.27</title></g><g class="link" style="opacity: 0.8;"><path d="M675.25,279.6556355043387 A282.3818043553506 282.3818043553506 0.14249628477271048 0 0 715.3523216018074,276.79357505472495 L856.3824328570378,256.56017473004806 A300.09298779656217 300.09298779656217 0.14249628477271048 0 1 899,253.5186038556792 L899,271.2297872968908 A282.3818043553506 282.3818043553506 0.14249628477271048 0 0 858.8976783981926,274.0918477465045 L717.8675671429622,294.3252480711814 A300.09298779656217 300.09298779656217 0.14249628477271048 0 1 675.25,297.3668189455503 Z" style="fill: rgb(89, 173, 228);"></path><title>AircraftDrag.3 → MotorPerf.3
9.81</title></g><g class="link" style="opacity: 0.8;"><path d="M225.75,320.45831440063284 A202.59852363983535 202.59852363983535 0.22603220509306765 0 0 271.15484755695184,315.3048757828635 L404.2372850709164,284.7009851509249 A201.96432129985288 201.96432129985288 0.22603220509306765 0 1 449.5,279.56367855016947 L449.5,303.9577000529439 A177.57029979707846 177.57029979707846 0.22603220509306765 0 0 409.70428852057387,308.47450315645483 L276.6218510066093,339.07839378839344 A226.99254514260977 226.99254514260977 0.22603220509306765 0 1 225.75,344.85233590340727 Z" style="fill: rgb(89, 173, 228);"></path><title>FlightSegment.1 → GustL.1
13.5</title></g><g class="link" style="opacity: 0.8;"><path d="M1,100 A115.93225947256832 115.93225947256832 0.32130227413298407 0 0 37.6116925328759,94.06716214542504 L176.62547824474126,47.79846449727867 A152.38805302743168 152.38805302743168 0.32130227413298407 0 1 224.75,40 L224.75,76.45579355486336 A115.93225947256832 115.93225947256832 0.32130227413298407 0 0 188.1383074671241,82.38863140943832 L49.12452175525875,128.6573290575847 A152.38805302743168 152.38805302743168 0.32130227413298407 0 1 1,136.45579355486336 Z" style="fill: rgb(89, 173, 228);"></path><title>Mission.1 → Aircraft.1
20.2</title></g><g class="link" style="opacity: 0.8;"><path d="M675.25,228.98709909625623 A97.20616005064423 97.20616005064423 0.3557535907560152 0 0 709.1066011151131,222.90046556283875 L847.538781025934,171.46425561007788 A147.7510241204141 147.7510241204141 0.3557535907560152 0 1 899,162.21271910725181 L899,212.75758317702167 A97.20616005064423 97.20616005064423 0.3557535907560152 0 0 865.1433988848869,218.84421671043918 L726.711218974066,270.2804266632 A147.7510241204141 147.7510241204141 0.3557535907560152 0 1 675.25,279.5319631660261 Z" style="fill: rgb(89, 173, 228);"></path><title>AircraftDrag.3 → ActuatorProp.3
28.0</title></g><g class="link" style="opacity: 0.8;"><path d="M450.5,151.3883075257265 A160.76331517120408 160.76331517120408 0.40966117603174235 0 1 514.5317973504242,164.69053483674253 L651.9190048434397,224.34796688467554 A56.065969736783664 56.065969736783664 0.40966117603174235 0 0 674.25,228.98709909625626 L674.25,333.68444453067667 A160.76331517120408 160.76331517120408 0.40966117603174235 0 1 610.2182026495758,320.3822172196607 L472.83099515656033,260.72478517172766 A56.065969736783664 56.065969736783664 0.40966117603174235 0 0 450.5,256.08565296014694 Z" style="fill: rgb(89, 173, 228);"></path><title>AircraftPerf.1 → AircraftDrag.3
58.0</title></g><g class="link" style="opacity: 0.8;"><path d="M225.75,206.5009755804081 A88.64118481961063 88.64118481961063 0.29613303187476725 0 0 251.6176030113792,202.64261190205258 L391.0152918311022,160.11177810159825 A200.41106335363727 200.41106335363727 0.29613303187476725 0 1 449.5,151.3883075257265 L449.5,263.1581860597531 A88.64118481961063 88.64118481961063 0.29613303187476725 0 0 423.6323969886208,267.01654973810867 L284.2347081688978,309.547383538563 A200.41106335363727 200.41106335363727 0.29613303187476725 0 1 225.75,318.2708541144347 Z" style="fill: rgb(89, 173, 228);"></path><title>FlightSegment.1 → AircraftPerf.1
61.9</title></g><g class="link" style="opacity: 0.8;"><path d="M1,146.50097558040807 A210.90966845979585 210.90966845979585 0.3213022741329843 0 1 67.60579177004612,157.29428600691807 L206.6195774819115,203.5629836550645 A57.410644040203934 57.410644040203934 0.3213022741329843 0 0 224.75,206.50097558040812 L224.75,360.00000000000006 A210.90966845979585 210.90966845979585 0.3213022741329843 0 1 158.14420822995385,349.20668957349005 L19.1304225180885,302.9379919253436 A57.410644040203934 57.410644040203934 0.3213022741329843 0 0 1,300 Z" style="fill: rgb(89, 173, 228);"></path><title>Mission.1 → FlightSegment.1
85.0</title></g></g><g class="nodes"><g class="node" transform="translate(674.25,118.48546982473839)"><title>WingSecondStruct.5</title><text dy=".35em" text-anchor="start" transform="translate(4,0.32611206546757643)" style="display: inline;">WingSecondStruct.5</text><line x1="0" x2="0" y1="0" y2="1" style="display: inline; stroke: rgb(0, 0, 0);"></line><rect x="-5" y="-5" width="10" height="6" style="fill: none; visibility: hidden; pointer-events: all;"></rect></g><g class="node" transform="translate(0,100)"><title>Mission.1</title><text dy=".35em" text-anchor="end" transform="translate(-4,100)" style="display: inline;">Mission.1</text><line x1="0" x2="0" y1="0" y2="200" style="display: inline; stroke: rgb(0, 0, 0);"></line><rect x="-5" y="-5" width="10" height="205" style="fill: none; visibility: hidden; pointer-events: all;"></rect></g><g class="node" transform="translate(674.25,132.01157000486126)"><title>ActuatorProp.2</title><text dy=".35em" text-anchor="start" transform="translate(4,2.950102083388259)" style="display: inline;">ActuatorProp.2</text><line x1="0" x2="0" y1="0" y2="5.900204166776518" style="display: inline; stroke: rgb(0, 0, 0);"></line><rect x="-5" y="-5" width="10" height="10.900204166776518" style="fill: none; visibility: hidden; pointer-events: all;"></rect></g><g class="node" transform="translate(899,352.87794842317857)"><title>WingAero.3</title><text dy=".35em" text-anchor="start" transform="translate(4,3.561025788410717)" style="display: inline;">WingAero.3</text><line x1="0" x2="0" y1="0" y2="7.122051576821434" style="display: inline; stroke: rgb(0, 0, 0);"></line><rect x="-5" y="-5" width="10" height="12.122051576821434" style="fill: none; visibility: hidden; pointer-events: all;"></rect></g><g class="node" transform="translate(449.5,76.85727826945164)"><title>FoamHD</title><text dy=".35em" text-anchor="start" transform="translate(4,0.0007674951220977277)" style="display: inline;">FoamHD</text><line x1="0" x2="0" y1="0" y2="1" style="display: inline; stroke: rgb(0, 0, 0);"></line><rect x="-5" y="-5" width="10" height="6" style="fill: none; visibility: hidden; pointer-events: all;"></rect></g><g class="node" transform="translate(449.5,99.09952805264372)"><title>Propeller.1</title><text dy=".35em" text-anchor="start" transform="translate(4,0.0009935522820683218)" style="display: inline;">Propeller.1</text><line x1="0" x2="0" y1="0" y2="1" style="display: inline; stroke: rgb(0, 0, 0);"></line><rect x="-5" y="-5" width="10" height="6" style="fill: none; visibility: hidden; pointer-events: all;"></rect></g><g class="node" transform="translate(899,162.21271910725181)"><title>ActuatorProp.3</title><text dy=".35em" text-anchor="start" transform="translate(4,25.27243203488493)" style="display: inline;">ActuatorProp.3</text><line x1="0" x2="0" y1="0" y2="50.54486406976986" style="display: inline; stroke: rgb(0, 0, 0);"></line><rect x="-5" y="-5" width="10" height="55.54486406976986" style="fill: none; visibility: hidden; pointer-events: all;"></rect></g><g class="node" transform="translate(449.5,40)"><title>Battery.1</title><text dy=".35em" text-anchor="start" transform="translate(4,2.986772909819468)" style="display: inline;">Battery.1</text><line x1="0" x2="0" y1="0" y2="5.973545819638936" style="display: inline; stroke: rgb(0, 0, 0);"></line><rect x="-5" y="-5" width="10" height="10.973545819638936" style="fill: none; visibility: hidden; pointer-events: all;"></rect></g><g class="node" transform="translate(449.5,106.21053125931697)"><title>SolarCells.1</title><text dy=".35em" text-anchor="start" transform="translate(4,0.27557519111852713)" style="display: inline;">SolarCells.1</text><line x1="0" x2="0" y1="0" y2="1" style="display: inline; stroke: rgb(0, 0, 0);"></line><rect x="-5" y="-5" width="10" height="6" style="fill: none; visibility: hidden; pointer-events: all;"></rect></g><g class="node" transform="translate(449.5,270.26720216186226)"><title>FlightState.1</title><text dy=".35em" text-anchor="start" transform="translate(4,1.0937301430990374)" style="display: inline;">FlightState.1</text><line x1="0" x2="0" y1="0" y2="2.1874602861980748" style="display: inline; stroke: rgb(0, 0, 0);"></line><rect x="-5" y="-5" width="10" height="7.187460286198075" style="fill: none; visibility: hidden; pointer-events: all;"></rect></g><g class="node" transform="translate(224.75,136.45579355486336)"><title>Climb.1</title><text dy=".35em" text-anchor="start" transform="translate(-4,-10)" style="display: inline;">Climb.1</text><line x1="0" x2="0" y1="-5" y2="10.045182025544733" style="display: inline; stroke: rgb(0, 0, 0);"></line><rect x="-5" y="-5" width="10" height="15.045182025544733" style="fill: none; visibility: hidden; pointer-events: all;"></rect></g><g class="node" transform="translate(899,312.0190267882057)"><title>TailAero.7</title><text dy=".35em" text-anchor="start" transform="translate(4,0.10929856317207509)" style="display: inline;">TailAero.7</text><line x1="0" x2="0" y1="0" y2="1" style="display: inline; stroke: rgb(0, 0, 0);"></line><rect x="-5" y="-5" width="10" height="6" style="fill: none; visibility: hidden; pointer-events: all;"></rect></g><g class="node" transform="translate(674.25,190.01557120641445)"><title>TailAero.5</title><text dy=".35em" text-anchor="start" transform="translate(4,0.005859307455182261)" style="display: inline;">TailAero.5</text><line x1="0" x2="0" y1="0" y2="1" style="display: inline; stroke: rgb(0, 0, 0);"></line><rect x="-5" y="-5" width="10" height="6" style="fill: none; visibility: hidden; pointer-events: all;"></rect></g><g class="node" transform="translate(674.25,177.13344406189367)"><title>TailAero.4</title><text dy=".35em" text-anchor="start" transform="translate(4,0.004125547666532725)" style="display: inline;">TailAero.4</text><line x1="0" x2="0" y1="0" y2="1" style="display: inline; stroke: rgb(0, 0, 0);"></line><rect x="-5" y="-5" width="10" height="6" style="fill: none; visibility: hidden; pointer-events: all;"></rect></g><g class="node" transform="translate(449.5,332.4559955788845)"><title>SteadyLevelFlight.1</title><text dy=".35em" text-anchor="start" transform="translate(4,6.062512243797727)" style="display: inline;">SteadyLevelFlight.1</text><line x1="0" x2="0" y1="0" y2="12.125024487595454" style="display: inline; stroke: rgb(0, 0, 0);"></line><rect x="-5" y="-5" width="10" height="17.125024487595454" style="fill: none; visibility: hidden; pointer-events: all;"></rect></g><g class="node" transform="translate(899,291.54846146706325)"><title>TailAero.6</title><text dy=".35em" text-anchor="start" transform="translate(4,0.0759455754849796)" style="display: inline;">TailAero.6</text><line x1="0" x2="0" y1="0" y2="1" style="display: inline; stroke: rgb(0, 0, 0);"></line><rect x="-5" y="-5" width="10" height="6" style="fill: none; visibility: hidden; pointer-events: all;"></rect></g><g class="node" transform="translate(899,101.0851902611776)"><title>BoxSpar.4</title><text dy=".35em" text-anchor="start" transform="translate(4,0.023362448856424578)" style="display: inline;">BoxSpar.4</text><line x1="0" x2="0" y1="0" y2="1" style="display: inline; stroke: rgb(0, 0, 0);"></line><rect x="-5" y="-5" width="10" height="6" style="fill: none; visibility: hidden; pointer-events: all;"></rect></g><g class="node" transform="translate(674.25,80.18344943215675)"><title>BoxSpar.5</title><text dy=".35em" text-anchor="start" transform="translate(4,2.550040823027061)" style="display: inline;">BoxSpar.5</text><line x1="0" x2="0" y1="0" y2="5.100081646054122" style="display: inline; stroke: rgb(0, 0, 0);"></line><rect x="-5" y="-5" width="10" height="10.100081646054122" style="fill: none; visibility: hidden; pointer-events: all;"></rect></g><g class="node" transform="translate(449.5,325.31385822631455)"><title>SparLoading.5</title><text dy=".35em" text-anchor="start" transform="translate(4,0.016560625230397363)" style="display: inline;">SparLoading.5</text><line x1="0" x2="0" y1="0" y2="1" style="display: inline; stroke: rgb(0, 0, 0);"></line><rect x="-5" y="-5" width="10" height="6" style="fill: none; visibility: hidden; pointer-events: all;"></rect></g><g class="node" transform="translate(899,40)"><title>BoxSpar.3</title><text dy=".35em" text-anchor="start" transform="translate(4,0.0177146393286165)" style="display: inline;">BoxSpar.3</text><line x1="0" x2="0" y1="0" y2="1" style="display: inline; stroke: rgb(0, 0, 0);"></line><rect x="-5" y="-5" width="10" height="6" style="fill: none; visibility: hidden; pointer-events: all;"></rect></g><g class="node" transform="translate(449.5,67.30366410645468)"><title>Empennage.1</title><text dy=".35em" text-anchor="start" transform="translate(4,1.2222990304439207)" style="display: inline;">Empennage.1</text><line x1="0" x2="0" y1="0" y2="2.4445980608878415" style="display: inline; stroke: rgb(0, 0, 0);"></line><rect x="-5" y="-5" width="10" height="7.4445980608878415" style="fill: none; visibility: hidden; pointer-events: all;"></rect></g><g class="node" transform="translate(674.25,67.04800799821989)"><title>VerticalTail.1</title><text dy=".35em" text-anchor="start" transform="translate(4,0.13078269237457363)" style="display: inline;">VerticalTail.1</text><line x1="0" x2="0" y1="0" y2="1" style="display: inline; stroke: rgb(0, 0, 0);"></line><rect x="-5" y="-5" width="10" height="6" style="fill: none; visibility: hidden; pointer-events: all;"></rect></g><g class="node" transform="translate(224.75,40)"><title>Aircraft.1</title><text dy=".35em" text-anchor="start" transform="translate(-4,-10)" style="display: inline;">Aircraft.1</text><line x1="0" x2="0" y1="-5" y2="36.45579355486336" style="display: inline; stroke: rgb(0, 0, 0);"></line><rect x="-5" y="-5" width="10" height="41.45579355486336" style="fill: none; visibility: hidden; pointer-events: all;"></rect></g><g class="node" transform="translate(449.5,135.91562378964738)"><title>AircraftDrag.2</title><text dy=".35em" text-anchor="start" transform="translate(4,4.181833816985005)" style="display: inline;">AircraftDrag.2</text><line x1="0" x2="0" y1="0" y2="8.36366763397001" style="display: inline; stroke: rgb(0, 0, 0);"></line><rect x="-5" y="-5" width="10" height="13.36366763397001" style="fill: none; visibility: hidden; pointer-events: all;"></rect></g><g class="node" transform="translate(674.25,228.98709909625623)"><title>AircraftDrag.3</title><text dy=".35em" text-anchor="start" transform="translate(4,52.34867271721022)" style="display: inline;">AircraftDrag.3</text><line x1="0" x2="0" y1="0" y2="104.69734543442044" style="display: inline; stroke: rgb(0, 0, 0);"></line><rect x="-5" y="-5" width="10" height="109.69734543442044" style="fill: none; visibility: hidden; pointer-events: all;"></rect></g><g class="node" transform="translate(899,253.5186038556792)"><title>MotorPerf.3</title><text dy=".35em" text-anchor="start" transform="translate(4,8.855591720605787)" style="display: inline;">MotorPerf.3</text><line x1="0" x2="0" y1="0" y2="17.711183441211574" style="display: inline; stroke: rgb(0, 0, 0);"></line><rect x="-5" y="-5" width="10" height="22.711183441211574" style="fill: none; visibility: hidden; pointer-events: all;"></rect></g><g class="node" transform="translate(674.25,163.66682759441468)"><title>MotorPerf.2</title><text dy=".35em" text-anchor="start" transform="translate(4,0.2963702091456355)" style="display: inline;">MotorPerf.2</text><line x1="0" x2="0" y1="0" y2="1" style="display: inline; stroke: rgb(0, 0, 0);"></line><rect x="-5" y="-5" width="10" height="6" style="fill: none; visibility: hidden; pointer-events: all;"></rect></g><g class="node" transform="translate(449.5,83.96782936180496)"><title>Fuselage.1</title><text dy=".35em" text-anchor="start" transform="translate(4,0.16046305117274784)" style="display: inline;">Fuselage.1</text><line x1="0" x2="0" y1="0" y2="1" style="display: inline; stroke: rgb(0, 0, 0);"></line><rect x="-5" y="-5" width="10" height="6" style="fill: none; visibility: hidden; pointer-events: all;"></rect></g><g class="node" transform="translate(674.25,202.90116587051253)"><title>TailBoomAero.2</title><text dy=".35em" text-anchor="start" transform="translate(4,0.0007674951221048332)" style="display: inline;">TailBoomAero.2</text><line x1="0" x2="0" y1="0" y2="1" style="display: inline; stroke: rgb(0, 0, 0);"></line><rect x="-5" y="-5" width="10" height="6" style="fill: none; visibility: hidden; pointer-events: all;"></rect></g><g class="node" transform="translate(899,332.5562980847223)"><title>TailBoomAero.3</title><text dy=".35em" text-anchor="start" transform="translate(4,0.0014880841418971613)" style="display: inline;">TailBoomAero.3</text><line x1="0" x2="0" y1="0" y2="1" style="display: inline; stroke: rgb(0, 0, 0);"></line><rect x="-5" y="-5" width="10" height="6" style="fill: none; visibility: hidden; pointer-events: all;"></rect></g><g class="node" transform="translate(449.5,53.08256192174805)"><title>CFRPFabric</title><text dy=".35em" text-anchor="start" transform="translate(4,0.0007674951220977277)" style="display: inline;">CFRPFabric</text><line x1="0" x2="0" y1="0" y2="1" style="display: inline; stroke: rgb(0, 0, 0);"></line><rect x="-5" y="-5" width="10" height="6" style="fill: none; visibility: hidden; pointer-events: all;"></rect></g><g class="node" transform="translate(674.25,98.15740712739859)"><title>Planform.5</title><text dy=".35em" text-anchor="start" transform="translate(4,3.727093324076037)" style="display: inline;">Planform.5</text><line x1="0" x2="0" y1="0" y2="7.454186648152074" style="display: inline; stroke: rgb(0, 0, 0);"></line><rect x="-5" y="-5" width="10" height="12.454186648152074" style="fill: none; visibility: hidden; pointer-events: all;"></rect></g><g class="node" transform="translate(899,121.45058932906292)"><title>Planform.4</title><text dy=".35em" text-anchor="start" transform="translate(4,0.023979374773333006)" style="display: inline;">Planform.4</text><line x1="0" x2="0" y1="0" y2="1" style="display: inline; stroke: rgb(0, 0, 0);"></line><rect x="-5" y="-5" width="10" height="6" style="fill: none; visibility: hidden; pointer-events: all;"></rect></g><g class="node" transform="translate(899,60.354103448829704)"><title>Planform.3</title><text dy=".35em" text-anchor="start" transform="translate(4,0.017736972355912428)" style="display: inline;">Planform.3</text><line x1="0" x2="0" y1="0" y2="1" style="display: inline; stroke: rgb(0, 0, 0);"></line><rect x="-5" y="-5" width="10" height="6" style="fill: none; visibility: hidden; pointer-events: all;"></rect></g><g class="node" transform="translate(674.25,53.07050332566318)"><title>TailBoom.1</title><text dy=".35em" text-anchor="start" transform="translate(4,0.5518143116844882)" style="display: inline;">TailBoom.1</text><line x1="0" x2="0" y1="0" y2="1.1036286233689765" style="display: inline; stroke: rgb(0, 0, 0);"></line><rect x="-5" y="-5" width="10" height="6.1036286233689765" style="fill: none; visibility: hidden; pointer-events: all;"></rect></g><g class="node" transform="translate(449.5,113.87069774366314)"><title>Wing.1</title><text dy=".35em" text-anchor="start" transform="translate(4,7.4679549719375515)" style="display: inline;">Wing.1</text><line x1="0" x2="0" y1="0" y2="14.935909943875103" style="display: inline; stroke: rgb(0, 0, 0);"></line><rect x="-5" y="-5" width="10" height="19.935909943875103" style="fill: none; visibility: hidden; pointer-events: all;"></rect></g><g class="node" transform="translate(224.75,206.50097558040812)"><title>FlightSegment.1</title><text dy=".35em" text-anchor="start" transform="translate(-4,-10)" style="display: inline;">FlightSegment.1</text><line x1="0" x2="0" y1="-5" y2="153.49902441959188" style="display: inline; stroke: rgb(0, 0, 0);"></line><rect x="-5" y="-5" width="10" height="158.49902441959188" style="fill: none; visibility: hidden; pointer-events: all;"></rect></g><g class="node" transform="translate(899,233.07625734719414)"><title>FuselageAero.3</title><text dy=".35em" text-anchor="start" transform="translate(4,0.06183616915629386)" style="display: inline;">FuselageAero.3</text><line x1="0" x2="0" y1="0" y2="1" style="display: inline; stroke: rgb(0, 0, 0);"></line><rect x="-5" y="-5" width="10" height="6" style="fill: none; visibility: hidden; pointer-events: all;"></rect></g><g class="node" transform="translate(674.25,150.78565022082552)"><title>FuselageAero.2</title><text dy=".35em" text-anchor="start" transform="translate(4,0.003650662200712418)" style="display: inline;">FuselageAero.2</text><line x1="0" x2="0" y1="0" y2="1" style="display: inline; stroke: rgb(0, 0, 0);"></line><rect x="-5" y="-5" width="10" height="6" style="fill: none; visibility: hidden; pointer-events: all;"></rect></g><g class="node" transform="translate(449.5,358.8005872609424)"><title>TailBoomBending.3</title><text dy=".35em" text-anchor="start" transform="translate(4,0.5997063695288034)" style="display: inline;">TailBoomBending.3</text><line x1="0" x2="0" y1="0" y2="1.1994127390576068" style="display: inline; stroke: rgb(0, 0, 0);"></line><rect x="-5" y="-5" width="10" height="6.199412739057607" style="fill: none; visibility: hidden; pointer-events: all;"></rect></g><g class="node" transform="translate(449.5,91.39777156625958)"><title>Motor.1</title><text dy=".35em" text-anchor="start" transform="translate(4,0.29637019213750904)" style="display: inline;">Motor.1</text><line x1="0" x2="0" y1="0" y2="1" style="display: inline; stroke: rgb(0, 0, 0);"></line><rect x="-5" y="-5" width="10" height="6" style="fill: none; visibility: hidden; pointer-events: all;"></rect></g><g class="node" transform="translate(899,141.81722224878206)"><title>WingSecondStruct.4</title><text dy=".35em" text-anchor="start" transform="translate(4,0.038411344148642)" style="display: inline;">WingSecondStruct.4</text><line x1="0" x2="0" y1="0" y2="1" style="display: inline; stroke: rgb(0, 0, 0);"></line><rect x="-5" y="-5" width="10" height="6" style="fill: none; visibility: hidden; pointer-events: all;"></rect></g><g class="node" transform="translate(449.5,351.6900361685891)"><title>TailBoomBending.2</title><text dy=".35em" text-anchor="start" transform="translate(4,0.0007674951220906223)" style="display: inline;">TailBoomBending.2</text><line x1="0" x2="0" y1="0" y2="1" style="display: inline; stroke: rgb(0, 0, 0);"></line><rect x="-5" y="-5" width="10" height="6" style="fill: none; visibility: hidden; pointer-events: all;"></rect></g><g class="node" transform="translate(674.25,215.77657690994445)"><title>WingAero.2</title><text dy=".35em" text-anchor="start" transform="translate(4,0.1683230685620316)" style="display: inline;">WingAero.2</text><line x1="0" x2="0" y1="0" y2="1" style="display: inline; stroke: rgb(0, 0, 0);"></line><rect x="-5" y="-5" width="10" height="6" style="fill: none; visibility: hidden; pointer-events: all;"></rect></g><g class="node" transform="translate(899,80.708251563714)"><title>WingSecondStruct.3</title><text dy=".35em" text-anchor="start" transform="translate(4,0.02913226364556465)" style="display: inline;">WingSecondStruct.3</text><line x1="0" x2="0" y1="0" y2="1" style="display: inline; stroke: rgb(0, 0, 0);"></line><rect x="-5" y="-5" width="10" height="6" style="fill: none; visibility: hidden; pointer-events: all;"></rect></g><g class="node" transform="translate(674.25,346.55832057986436)"><title>Beam.2</title><text dy=".35em" text-anchor="start" transform="translate(4,0.0007674951220906223)" style="display: inline;">Beam.2</text><line x1="0" x2="0" y1="0" y2="1" style="display: inline; stroke: rgb(0, 0, 0);"></line><rect x="-5" y="-5" width="10" height="6" style="fill: none; visibility: hidden; pointer-events: all;"></rect></g><g class="node" transform="translate(449.5,151.3883075257265)"><title>AircraftPerf.1</title><text dy=".35em" text-anchor="start" transform="translate(4,55.88493926701331)" style="display: inline;">AircraftPerf.1</text><line x1="0" x2="0" y1="0" y2="111.76987853402662" style="display: inline; stroke: rgb(0, 0, 0);"></line><rect x="-5" y="-5" width="10" height="116.76987853402662" style="fill: none; visibility: hidden; pointer-events: all;"></rect></g><g class="node" transform="translate(449.5,318.17726724740635)"><title>SparLoading.4</title><text dy=".35em" text-anchor="start" transform="translate(4,0.01378743839956087)" style="display: inline;">SparLoading.4</text><line x1="0" x2="0" y1="0" y2="1" style="display: inline; stroke: rgb(0, 0, 0);"></line><rect x="-5" y="-5" width="10" height="6" style="fill: none; visibility: hidden; pointer-events: all;"></rect></g><g class="node" transform="translate(449.5,311.06671615505303)"><title>SparLoading.3</title><text dy=".35em" text-anchor="start" transform="translate(4,0.0007674951220906223)" style="display: inline;">SparLoading.3</text><line x1="0" x2="0" y1="0" y2="1" style="display: inline; stroke: rgb(0, 0, 0);"></line><rect x="-5" y="-5" width="10" height="6" style="fill: none; visibility: hidden; pointer-events: all;"></rect></g><g class="node" transform="translate(674.25,40)"><title>HorizontalTail.1</title><text dy=".35em" text-anchor="start" transform="translate(-4,-10)" style="display: inline;">HorizontalTail.1</text><line x1="0" x2="0" y1="-5" y2="1" style="display: inline; stroke: rgb(0, 0, 0);"></line><rect x="-5" y="-5" width="10" height="6" style="fill: none; visibility: hidden; pointer-events: all;"></rect></g><g class="node" transform="translate(674.25,359.4337316192963)"><title>Beam.3</title><text dy=".35em" text-anchor="start" transform="translate(4,0.28313419035183074)" style="display: inline;">Beam.3</text><line x1="0" x2="0" y1="0" y2="1" style="display: inline; stroke: rgb(0, 0, 0);"></line><rect x="-5" y="-5" width="10" height="6" style="fill: none; visibility: hidden; pointer-events: all;"></rect></g><g class="node" transform="translate(449.5,279.56367855016947)"><title>GustL.1</title><text dy=".35em" text-anchor="start" transform="translate(4,12.19701075138721)" style="display: inline;">GustL.1</text><line x1="0" x2="0" y1="0" y2="24.39402150277442" style="display: inline; stroke: rgb(0, 0, 0);"></line><rect x="-5" y="-5" width="10" height="29.39402150277442" style="fill: none; visibility: hidden; pointer-events: all;"></rect></g><g class="node" transform="translate(449.5,60.193113014101364)"><title>CFRPUD</title><text dy=".35em" text-anchor="start" transform="translate(4,0.0007674951220977277)" style="display: inline;">CFRPUD</text><line x1="0" x2="0" y1="0" y2="1" style="display: inline; stroke: rgb(0, 0, 0);"></line><rect x="-5" y="-5" width="10" height="6" style="fill: none; visibility: hidden; pointer-events: all;"></rect></g></g><g class="slice-titles"></g></g></svg>
