<?xml version="1.0" encoding="utf-8" standalone="no"?>
<!DOCTYPE svg PUBLIC "-//W3C//DTD SVG 1.1//EN"
  "http://www.w3.org/Graphics/SVG/1.1/DTD/svg11.dtd">
<svg width="900" height="400" viewBox="0 0 900 400" xmlns="http://www.w3.org/2000/svg" xmlns:xlink="http://www.w3.org/1999/xlink"><g class="sankey" transform="translate(120,0)"><g class="groups"></g><g class="links"><g class="link" style="opacity: 0.8;"><path d="M544,99.00299995270039 A97.58204334365325 97.58204334365325 0.3555420147562529 0 0 577.9681660751959,92.90001911304603 L689.3356368600313,51.546854362057786 A99.58204334365325 99.58204334365325 0.3555420147562529 0 1 724,45.318789426384605 L724,47.318789426384605 A97.58204334365325 97.58204334365325 0.3555420147562529 0 0 690.0318339248041,53.421770266038976 L578.6643631399687,94.77493501702722 A99.58204334365325 99.58204334365325 0.3555420147562529 0 1 544,101.00299995270039 Z" style="fill: rgb(207, 207, 207);"></path><title>GustL → Ⓑ
2.37µ</title></g><g class="link" style="opacity: 0.8;"><path d="M544,99.00099998423346 A89.00000000000001 89.00000000000001 0.39479111969976133 0 0 578.2307692307693,92.15484613807962 L689,46.00099998423347 A91.00000000000001 91.00000000000001 0.39479111969976133 0 1 724,39.00099998423347 L724,41.00099998423347 A89.00000000000001 89.00000000000001 0.39479111969976133 0 0 689.7692307692307,47.847153830387306 L579,94.00099998423346 A91.00000000000001 91.00000000000001 0.39479111969976133 0 1 544,101.00099998423346 Z" style="fill: rgb(207, 207, 207);"></path><title>GustL → Ⓐ
2.37µ</title></g><g class="link" style="opacity: 0.8;"><path d="M544,99.00896667618576 A108.70526315789469 108.70526315789469 0.31556504372104976 0 0 577.737076637204,93.64122767192346 L689.6422160362666,57.107042293238166 A110.70526315789469 110.70526315789469 0.31556504372104976 0 1 724,51.64054562355417 L724,53.64054562355417 A108.70526315789469 108.70526315789469 0.31556504372104976 0 0 690.262923362796,59.008284627816465 L578.3577839637334,95.54247000650177 A110.70526315789469 110.70526315789469 0.31556504372104976 0 1 544,101.00896667618576 Z" style="fill: rgb(207, 207, 207);"></path><title>GustL → Ⓒ
11.7µ</title></g><g class="link" style="opacity: 0.8;"><path d="M544,99.03707540381536 A123.5425101214575 123.5425101214575 0.274922563196359 0 0 577.5383828379354,94.39758746315236 L689.9186723440428,62.69903932059204 A125.5425101214575 125.5425101214575 0.274922563196359 0 1 724,57.984443824868 L724,59.984443824868 A123.5425101214575 123.5425101214575 0.274922563196359 0 0 690.4616171620646,64.62393176553101 L578.0813276559572,96.32247990809132 A125.5425101214575 125.5425101214575 0.274922563196359 0 1 544,101.03707540381536 Z" style="fill: rgb(207, 207, 207);"></path><title>GustL → Ⓓ
54.7µ</title></g><g class="link" style="opacity: 0.8;"><path d="M544,99.1303772935156 A144.11961722488033 144.11961722488033 0.2336847372289046 0 0 577.3728678545965,95.21317003439036 L690.1640048002548,68.3651029478363 A146.11961722488033 146.11961722488033 0.2336847372289046 0 1 724,64.39353518825243 L724,66.39353518825243 A144.11961722488033 144.11961722488033 0.2336847372289046 0 0 690.6271321454035,70.31074244737766 L577.8359951997452,97.15880953393172 A146.11961722488033 146.11961722488033 0.2336847372289046 0 1 544,101.1303772935156 Z" style="fill: rgb(207, 207, 207);"></path><title>GustL → Ⓔ
166µ</title></g><g class="link" style="opacity: 0.8;"><path d="M544,99.3668570388522 A174.26315789473676 174.26315789473676 0.1919290718266653 0 0 577.2412025753189,96.16705188453312 L690.3772916264744,74.1823333900019 A176.26315789473676 176.26315789473676 0.1919290718266653 0 1 724,70.94580440727324 L724,72.94580440727324 A174.26315789473676 174.26315789473676 0.1919290718266653 0 0 690.7587974246811,76.14560956159232 L577.6227083735256,98.13032805612355 A176.26315789473676 176.26315789473676 0.1919290718266653 0 1 544,101.3668570388522 Z" style="fill: rgb(207, 207, 207);"></path><title>GustL → Ⓕ
393µ</title></g><g class="link" style="opacity: 0.8;"><path d="M544,99.86949795951192 A222.17293233082705 222.17293233082705 0.14973973956531506 0 0 577.1439334339408,97.38336891237041 L690.5577049872096,80.27274397419573 A224.17293233082705 224.17293233082705 0.14973973956531506 0 1 724,77.76423480161718 L724,79.76423480161718 A222.17293233082705 222.17293233082705 0.14973973956531506 0 0 690.8560665660592,82.25036384875868 L577.4422950127904,99.36098878693336 A224.17293233082705 224.17293233082705 0.14973973956531506 0 1 544,101.86949795951192 Z" style="fill: rgb(207, 207, 207);"></path><title>GustL → Ⓖ
795µ</title></g><g class="link" style="opacity: 0.8;"><path d="M544,100.81432943301338 A309.1684210526314 309.1684210526314 0.10720670030453094 0 0 577.081472101026,99.03935134852047 L690.7045249811573,86.81131610615176 A311.1684210526314 311.1684210526314 0.10720670030453094 0 1 724,85.02485574880285 L724,87.02485574880285 A309.1684210526314 309.1684210526314 0.10720670030453094 0 0 690.918527898974,88.79983383329576 L577.2954750188427,101.02786907566447 A311.1684210526314 311.1684210526314 0.10720670030453094 0 1 544,102.81432943301338 Z" style="fill: rgb(207, 207, 207);"></path><title>GustL → Ⓗ
1.44m</title></g><g class="link" style="opacity: 0.8;"><path d="M544,102.42283982986922 A513.4069662007411 513.4069662007411 0.06442463493803885 0 0 577.0531805728344,101.3577518681303 L690.8162454999633,94.01845112527482 A515.4351390624153 515.4351390624153 0.06442463493803885 0 1 724,92.94915561934289 L724,94.97732848101708 A513.4069662007411 513.4069662007411 0.06442463493803885 0 0 690.9468194271656,96.04241644275601 L577.1837545000367,103.38171718561148 A515.4351390624153 515.4351390624153 0.06442463493803885 0 1 544,104.45101269154341 Z" style="fill: rgb(207, 207, 207);"></path><title>GustL → Ⓘ
2.40m</title></g><g class="link" style="opacity: 0.8;"><path d="M544,104.45101269154343 A998.4137108491213 998.4137108491213 0.01969707599210424 0 0 563.664559117689,104.25733927215622 L704.2729544071229,101.48740679441107 A1001.5862891508787 1001.5862891508787 0.01969707599210424 0 1 724,101.2931179547013 L724,104.46569625645859 A998.4137108491213 998.4137108491213 0.01969707599210424 0 0 704.335440882311,104.6593696758458 L563.7270455928771,107.42930215359094 A1001.5862891508787 1001.5862891508787 0.01969707599210424 0 1 544,107.62359099330071 Z" style="fill: rgb(207, 207, 207);"></path><title>GustL → Ⓙ
3.75m</title></g><g class="link" style="opacity: 0.8;"><path d="M544,107.62359099330072 A1002.3596060700238 1002.3596060700238 0.01969707599210424 0 1 563.7422766900745,107.81802984189997 L704.3506719795084,110.58796231964507 A997.6403939299762 997.6403939299762 0.01969707599210424 0 0 724,110.7814857301428 L724,115.5006978701903 A1002.3596060700238 1002.3596060700238 0.01969707599210424 0 1 704.2577233099255,115.30625902159105 L563.6493280204916,112.53632654384595 A997.6403939299762 997.6403939299762 0.01969707599210424 0 0 544,112.34280313334821 Z" style="fill: rgb(207, 207, 207);"></path><title>GustL → Ⓚ
5.58m</title></g><g class="link" style="opacity: 0.8;"><path d="M544,112.34280313334821 A517.7901016512429 517.7901016512429 0.06442463493803885 0 1 577.3353671753902,113.41698412480885 L691.0984321025188,120.75628486766428 A511.05200361191794 511.05200361191794 0.06442463493803885 0 0 724,121.8164873438745 L724,128.55458538319948 A517.7901016512429 517.7901016512429 0.06442463493803885 0 1 690.6646328246098,127.48040439173883 L576.9015678974812,120.1411036488834 A511.05200361191794 511.05200361191794 0.06442463493803885 0 0 544,119.08090117267318 Z" style="fill: rgb(207, 207, 207);"></path><title>GustL → Ⓛ
7.97m</title></g><g class="link" style="opacity: 0.8;"><path d="M544,119.08090117267318 A314.81798771293205 314.81798771293205 0.10720670030453006 0 1 577.6859839758779,120.88831419012193 L691.3090368560097,133.11634943249064 A305.51885439233246 305.51885439233246 0.10720670030453006 0 0 724,134.87037485688367 L724,144.16950817748327 A314.81798771293205 314.81798771293205 0.10720670030453006 0 1 690.3140160241221,142.3620951600345 L576.6909631439903,130.13405991766578 A305.51885439233246 305.51885439233246 0.10720670030453006 0 0 544,128.38003449327277 Z" style="fill: rgb(250, 51, 51);"></path><title>GustL → Ⓜ
11.0m</title></g><g class="link" style="opacity: 0.8;"><path d="M544,128.38003449327277 A250.34197472880038 250.34197472880038 0.15184849999173133 0 1 581.8681338818626,131.26068144049705 L691.1848601368971,147.98903436118636 A216.9371994923053 216.9371994923053 0.15184849999173133 0 0 724,150.48529765116749 L724,162.9567633282115 A229.40866516934932 229.40866516934932 0.15184849999173133 0 1 689.2983561558009,160.31699278352843 L579.9816299007664,143.58863986283913 A237.87050905175636 237.87050905175636 0.15184849999173133 0 0 544,140.8515001703168 Z" style="fill: rgb(250, 51, 51);"></path><title>GustL → Ⓝ
14.7m</title></g><g class="link" style="opacity: 0.8;"><path d="M544,140.85150017031677 A237.87050905175636 237.87050905175636 0.20164429583263122 0 1 591.6408437286723,145.67109400103834 L690.5328582548897,165.8868438752181 A167.10128159685593 167.10128159685593 0.20164429583263122 0 0 724,169.2725528018957 L724,185.59630539765772 A183.42503419261794 183.42503419261794 0.20164429583263122 0 1 687.2635276027617,181.87985409514553 L588.3715130765443,161.66410422096578 A221.54675645599434 221.54675645599434 0.20164429583263122 0 0 544,157.17525276607878 Z" style="fill: rgb(250, 51, 51);"></path><title>GustL → Ⓞ
19.3m</title></g><g class="link" style="opacity: 0.8;"><path d="M544,157.17525276607878 A221.54675645599434 221.54675645599434 0.25209248439049414 0 1 599.2605958363589,164.17776706213476 L690.4125364250643,187.6559573778515 A134.65641294650877 134.65641294650877 0.25209248439049414 0 0 724,191.91209487134194 L724,212.83850342808523 A155.58282150325206 155.58282150325206 0.25209248439049414 0 1 685.1928445457548,207.92093681945988 L594.0409039570494,184.44274650374314 A200.62034789925104 200.62034789925104 0.25209248439049414 0 0 544,178.10166132282208 Z" style="fill: rgb(250, 51, 51);"></path><title>GustL → Ⓟ
24.7m</title></g><g class="link" style="opacity: 0.8;"><path d="M544,277.44401844414614 A101.27799077792703 101.27799077792703 0.39479111969976133 0 1 582.9530733761258,285.23463311937127 L693.7223041453565,331.3884792732174 A78.72200922207311 78.72200922207311 0.39479111969976133 0 0 724,337.4440184441461 L724,360 A101.27799077792703 101.27799077792703 0.39479111969976133 0 1 685.0469266238742,352.20938532477487 L574.2776958546435,306.05553917092874 A78.72200922207311 78.72200922207311 0.39479111969976133 0 0 544,300.00000000000006 Z" style="fill: rgb(250, 51, 51);"></path><title>GustL → Ⓣ
26.7m</title></g><g class="link" style="opacity: 0.8;"><path d="M544,178.1016613228221 A200.62034789925104 200.62034789925104 0.2995622034099814 0 1 603.2034529250012,187.03613297404675 L691.1363817631145,214.1948006595504 A111.36361475848848 111.36361475848848 0.2995622034099814 0 0 724,219.15429290176945 L724,245.51208362770763 A137.72140548442664 137.72140548442664 0.2995622034099814 0 1 683.3581467097401,239.37876761090283 L595.4252178716268,212.22009992539918 A174.26255717331287 174.26255717331287 0.2995622034099814 0 0 544,204.45945204876028 Z" style="fill: rgb(250, 51, 51);"></path><title>GustL → Ⓠ
31.2m</title></g><g class="link" style="opacity: 0.8;"><path d="M544,204.45945204876028 A174.26255717331287 174.26255717331287 0.33946409117852183 0 1 602.0262623536332,214.40405003973223 L692.9179675875218,246.5010037745223 A93.34453453735347 93.34453453735347 0.33946409117852183 0 0 724,251.82787310139184 L724,284.54933034247443 A126.06599177843606 126.06599177843606 0.33946409117852183 0 1 682.0223174073406,277.35515375683605 L591.1306121734519,245.25820002204597 A141.54109993223028 141.54109993223028 0.33946409117852183 0 0 544,237.18090928984287 Z" style="fill: rgb(250, 51, 51);"></path><title>GustL → Ⓡ
38.7m</title></g><g class="link" style="opacity: 0.8;"><path d="M544,237.18090928984287 A141.54109993223028 141.54109993223028 0.36858945855487524 0 1 594.9972563664363,246.68730615836512 L695.7342899722195,285.5961097469916 A78.45048876650165 78.45048876650165 0.36858945855487524 0 0 724,290.86511981615865 L724,331.1282289704619 A118.71359792080489 118.71359792080489 0.36858945855487524 0 1 681.2274922955381,323.15500722733793 L580.490458689755,284.24620363871145 A101.27799077792703 101.27799077792703 0.36858945855487524 0 0 544,277.44401844414614 Z" style="fill: rgb(250, 51, 51);"></path><title>GustL → Ⓢ
47.6m</title></g><g class="link" style="opacity: 0.8;"><path d="M363,100.0015766535662 A0 0 0 0 0 363,100.0015766535662 L543,100.00000000000001 A0 0 0 0 1 543,100.00000000000001 L543,299.9968466928676 A0 0 0 0 0 543,299.9968466928676 L363,299.9984233464338 A0 0 0 0 1 363,299.9984233464338 Z" style="fill: rgb(250, 51, 51);"></path><title>FlightSegment → GustL
237m</title></g><g class="link" style="opacity: 0.8;"><path d="M182,100.0015766535662 A0 0 0 0 0 182,100.0015766535662 L362,100.0015766535662 A0 0 0 0 0 362,100.0015766535662 L362,299.9984233464338 A0 0 0 0 0 362,299.9984233464338 L182,299.9984233464338 A0 0 0 0 0 182,299.9984233464338 Z" style="fill: rgb(250, 51, 51);"></path><title>Mission → FlightSegment
237m</title></g><g class="link" style="opacity: 0.8;"><path d="M1,100.0015766535662 A0 0 0 0 0 1,100.0015766535662 L181,100.0015766535662 A0 0 0 0 0 181,100.0015766535662 L181,299.9984233464338 A0 0 0 0 0 181,299.9984233464338 L1,299.9984233464338 A0 0 0 0 0 1,299.9984233464338 Z" style="fill: rgb(250, 51, 51);"></path><title>vgust [m/s] → Mission
237m</title></g></g><g class="nodes"><g class="node" transform="translate(0,100.0015766535662)"><title>vgust [m/s]</title><text dy=".35em" text-anchor="end" transform="translate(-4,99.99842334643381)" style="display: inline;">vgust [m/s]</text><line x1="0" x2="0" y1="0" y2="199.99684669286762" style="display: inline; stroke: rgb(0, 0, 0);"></line><rect x="-5" y="-5" width="10" height="204.99684669286762" style="fill: none; visibility: hidden; pointer-events: all;"></rect></g><g class="node" transform="translate(362,100.0015766535662)"><title>FlightSegment</title><text dy=".35em" text-anchor="start" transform="translate(-4,-10)" style="display: inline;">FlightSegment</text><line x1="0" x2="0" y1="-5" y2="199.99684669286762" style="display: inline; stroke: rgb(0, 0, 0);"></line><rect x="-5" y="-5" width="10" height="204.99684669286762" style="fill: none; visibility: hidden; pointer-events: all;"></rect></g><g class="node" transform="translate(724,46.31778944215114)"><title>Ⓑ</title><text dy=".35em" text-anchor="start" transform="translate(4,0.000999984233462925)" style="display: inline;">Ⓑ</text><line x1="0" x2="0" y1="0" y2="1" style="display: inline; stroke: rgb(0, 0, 0);"></line><rect x="-5" y="-5" width="10" height="6" style="fill: none; visibility: hidden; pointer-events: all;"></rect></g><g class="node" transform="translate(724,40)"><title>Ⓐ</title><text dy=".35em" text-anchor="start" transform="translate(4,0.000999984233462925)" style="display: inline;">Ⓐ</text><line x1="0" x2="0" y1="0" y2="1" style="display: inline; stroke: rgb(0, 0, 0);"></line><rect x="-5" y="-5" width="10" height="6" style="fill: none; visibility: hidden; pointer-events: all;"></rect></g><g class="node" transform="translate(724,58.96130183649028)"><title>Ⓓ</title><text dy=".35em" text-anchor="start" transform="translate(4,0.02314198837771997)" style="display: inline;">Ⓓ</text><line x1="0" x2="0" y1="0" y2="1" style="display: inline; stroke: rgb(0, 0, 0);"></line><rect x="-5" y="-5" width="10" height="6" style="fill: none; visibility: hidden; pointer-events: all;"></rect></g><g class="node" transform="translate(724,52.63557888430228)"><title>Ⓒ</title><text dy=".35em" text-anchor="start" transform="translate(4,0.004966739251894836)" style="display: inline;">Ⓒ</text><line x1="0" x2="0" y1="0" y2="1" style="display: inline; stroke: rgb(0, 0, 0);"></line><rect x="-5" y="-5" width="10" height="6" style="fill: none; visibility: hidden; pointer-events: all;"></rect></g><g class="node" transform="translate(724,71.77948456325913)"><title>Ⓕ</title><text dy=".35em" text-anchor="start" transform="translate(4,0.1663198440141045)" style="display: inline;">Ⓕ</text><line x1="0" x2="0" y1="0" y2="1" style="display: inline; stroke: rgb(0, 0, 0);"></line><rect x="-5" y="-5" width="10" height="6" style="fill: none; visibility: hidden; pointer-events: all;"></rect></g><g class="node" transform="translate(724,65.32337528692993)"><title>Ⓔ</title><text dy=".35em" text-anchor="start" transform="translate(4,0.07015990132249783)" style="display: inline;">Ⓔ</text><line x1="0" x2="0" y1="0" y2="1" style="display: inline; stroke: rgb(0, 0, 0);"></line><rect x="-5" y="-5" width="10" height="6" style="fill: none; visibility: hidden; pointer-events: all;"></rect></g><g class="node" transform="translate(724,85.416345351947)"><title>Ⓗ</title><text dy=".35em" text-anchor="start" transform="translate(4,0.6085103968558414)" style="display: inline;">Ⓗ</text><line x1="0" x2="0" y1="0" y2="1.2170207937116828" style="display: inline; stroke: rgb(0, 0, 0);"></line><rect x="-5" y="-5" width="10" height="6.217020793711683" style="fill: none; visibility: hidden; pointer-events: all;"></rect></g><g class="node" transform="translate(724,78.42791372497156)"><title>Ⓖ</title><text dy=".35em" text-anchor="start" transform="translate(4,0.3363210766456177)" style="display: inline;">Ⓖ</text><line x1="0" x2="0" y1="0" y2="1" style="display: inline; stroke: rgb(0, 0, 0);"></line><rect x="-5" y="-5" width="10" height="6" style="fill: none; visibility: hidden; pointer-events: all;"></rect></g><g class="node" transform="translate(724,101.2931179547013)"><title>Ⓙ</title><text dy=".35em" text-anchor="start" transform="translate(4,1.586289150878649)" style="display: inline;">Ⓙ</text><line x1="0" x2="0" y1="0" y2="3.172578301757298" style="display: inline; stroke: rgb(0, 0, 0);"></line><rect x="-5" y="-5" width="10" height="8.172578301757298" style="fill: none; visibility: hidden; pointer-events: all;"></rect></g><g class="node" transform="translate(724,92.94915561934289)"><title>Ⓘ</title><text dy=".35em" text-anchor="start" transform="translate(4,1.0140864308371036)" style="display: inline;">Ⓘ</text><line x1="0" x2="0" y1="0" y2="2.028172861674207" style="display: inline; stroke: rgb(0, 0, 0);"></line><rect x="-5" y="-5" width="10" height="7.028172861674207" style="fill: none; visibility: hidden; pointer-events: all;"></rect></g><g class="node" transform="translate(724,121.8164873438745)"><title>Ⓛ</title><text dy=".35em" text-anchor="start" transform="translate(4,3.3690490196624907)" style="display: inline;">Ⓛ</text><line x1="0" x2="0" y1="0" y2="6.738098039324981" style="display: inline; stroke: rgb(0, 0, 0);"></line><rect x="-5" y="-5" width="10" height="11.738098039324981" style="fill: none; visibility: hidden; pointer-events: all;"></rect></g><g class="node" transform="translate(724,110.7814857301428)"><title>Ⓚ</title><text dy=".35em" text-anchor="start" transform="translate(4,2.3596060700237445)" style="display: inline;">Ⓚ</text><line x1="0" x2="0" y1="0" y2="4.719212140047489" style="display: inline; stroke: rgb(0, 0, 0);"></line><rect x="-5" y="-5" width="10" height="9.719212140047489" style="fill: none; visibility: hidden; pointer-events: all;"></rect></g><g class="node" transform="translate(724,150.48529765116749)"><title>Ⓝ</title><text dy=".35em" text-anchor="start" transform="translate(4,6.235732838521997)" style="display: inline;">Ⓝ</text><line x1="0" x2="0" y1="0" y2="12.471465677043994" style="display: inline; stroke: rgb(0, 0, 0);"></line><rect x="-5" y="-5" width="10" height="17.471465677043994" style="fill: none; visibility: hidden; pointer-events: all;"></rect></g><g class="node" transform="translate(724,134.87037485688367)"><title>Ⓜ</title><text dy=".35em" text-anchor="start" transform="translate(4,4.649566660299797)" style="display: inline;">Ⓜ</text><line x1="0" x2="0" y1="0" y2="9.299133320599594" style="display: inline; stroke: rgb(0, 0, 0);"></line><rect x="-5" y="-5" width="10" height="14.299133320599594" style="fill: none; visibility: hidden; pointer-events: all;"></rect></g><g class="node" transform="translate(724,191.91209487134194)"><title>Ⓟ</title><text dy=".35em" text-anchor="start" transform="translate(4,10.463204278371663)" style="display: inline;">Ⓟ</text><line x1="0" x2="0" y1="0" y2="20.926408556743326" style="display: inline; stroke: rgb(0, 0, 0);"></line><rect x="-5" y="-5" width="10" height="25.926408556743326" style="fill: none; visibility: hidden; pointer-events: all;"></rect></g><g class="node" transform="translate(724,169.2725528018957)"><title>Ⓞ</title><text dy=".35em" text-anchor="start" transform="translate(4,8.161876297881008)" style="display: inline;">Ⓞ</text><line x1="0" x2="0" y1="0" y2="16.323752595762016" style="display: inline; stroke: rgb(0, 0, 0);"></line><rect x="-5" y="-5" width="10" height="21.323752595762016" style="fill: none; visibility: hidden; pointer-events: all;"></rect></g><g class="node" transform="translate(724,251.82787310139184)"><title>Ⓡ</title><text dy=".35em" text-anchor="start" transform="translate(4,16.360728620541295)" style="display: inline;">Ⓡ</text><line x1="0" x2="0" y1="0" y2="32.72145724108259" style="display: inline; stroke: rgb(0, 0, 0);"></line><rect x="-5" y="-5" width="10" height="37.72145724108259" style="fill: none; visibility: hidden; pointer-events: all;"></rect></g><g class="node" transform="translate(724,219.15429290176945)"><title>Ⓠ</title><text dy=".35em" text-anchor="start" transform="translate(4,13.178895362969087)" style="display: inline;">Ⓠ</text><line x1="0" x2="0" y1="0" y2="26.357790725938173" style="display: inline; stroke: rgb(0, 0, 0);"></line><rect x="-5" y="-5" width="10" height="31.357790725938173" style="fill: none; visibility: hidden; pointer-events: all;"></rect></g><g class="node" transform="translate(724,337.4440184441461)"><title>Ⓣ</title><text dy=".35em" text-anchor="start" transform="translate(4,11.27799077792696)" style="display: inline;">Ⓣ</text><line x1="0" x2="0" y1="0" y2="22.55598155585392" style="display: inline; stroke: rgb(0, 0, 0);"></line><rect x="-5" y="-5" width="10" height="27.55598155585392" style="fill: none; visibility: hidden; pointer-events: all;"></rect></g><g class="node" transform="translate(724,290.86511981615865)"><title>Ⓢ</title><text dy=".35em" text-anchor="start" transform="translate(4,20.131554577151633)" style="display: inline;">Ⓢ</text><line x1="0" x2="0" y1="0" y2="40.263109154303265" style="display: inline; stroke: rgb(0, 0, 0);"></line><rect x="-5" y="-5" width="10" height="45.263109154303265" style="fill: none; visibility: hidden; pointer-events: all;"></rect></g><g class="node" transform="translate(181,100.0015766535662)"><title>Mission</title><text dy=".35em" text-anchor="start" transform="translate(-4,-10)" style="display: inline;">Mission</text><line x1="0" x2="0" y1="-5" y2="199.99684669286762" style="display: inline; stroke: rgb(0, 0, 0);"></line><rect x="-5" y="-5" width="10" height="204.99684669286762" style="fill: none; visibility: hidden; pointer-events: all;"></rect></g><g class="node" transform="translate(543,100)"><title>GustL</title><text dy=".35em" text-anchor="start" transform="translate(-4,-10)" style="display: inline;">GustL</text><line x1="0" x2="0" y1="-5" y2="200" style="display: inline; stroke: rgb(0, 0, 0);"></line><rect x="-5" y="-5" width="10" height="205" style="fill: none; visibility: hidden; pointer-events: all;"></rect></g></g><g class="slice-titles"></g></g></svg>
