<?xml version="1.0" encoding="utf-8" standalone="no"?>
<!DOCTYPE svg PUBLIC "-//W3C//DTD SVG 1.1//EN"
  "http://www.w3.org/Graphics/SVG/1.1/DTD/svg11.dtd">
<svg width="950" height="400" viewBox="0 0 950 400" xmlns="http://www.w3.org/2000/svg" xmlns:xlink="http://www.w3.org/1999/xlink"><g class="sankey" transform="translate(120,0)"><g class="groups"></g><g class="links"><g class="link" style="opacity: 0.8;"><path d="M580.2,173.64839998181733 A201.93342243562245 201.93342243562245 0.13257295328682117 0 1 606.8925599828176,175.42035175405954 L697.57180992347,187.51289539003412 A199.93342243562245 199.93342243562245 0.13257295328682117 0 0 724,189.26729730103125 L724,191.26729730103125 A201.93342243562245 201.93342243562245 0.13257295328682117 0 1 697.3074400171824,189.49534552878904 L606.62819007653,177.40280189281447 A199.93342243562245 199.93342243562245 0.13257295328682117 0 0 580.2,175.64839998181733 Z" style="fill: rgb(207, 207, 207);"></path><title>WingAero.2 → Ⓚ
1.57µ</title></g><g class="link" style="opacity: 0.8;"><path d="M580.2,195.61190856837877 A99.36497558493909 99.36497558493909 0.5683056164016764 0 1 633.6787039885907,211.23068070088516 L692.7739052413873,248.96773198989735 A58.01898535096345 58.01898535096345 0.5683056164016764 0 0 724,258.0874978452344 L724,260.0874978452344 A60.01898535096345 60.01898535096345 0.5683056164016764 0 1 691.6974956982102,250.65336020968886 L632.6022944454136,212.91630892067667 A97.36497558493909 97.36497558493909 0.5683056164016764 0 0 580.2,197.61190856837877 Z" style="fill: rgb(207, 207, 207);"></path><title>WingAero.2 → Ⓞ
1.57µ</title></g><g class="link" style="opacity: 0.8;"><path d="M1,278.9997500000021 A49.77249332313434 49.77249332313434 0.6243732849835777 0 0 30.09644788375411,269.60915623780267 L114.5343742856376,208.76893446325792 A51.77249332313434 51.77249332313434 0.6243732849835777 0 1 144.8,199.0009999999916 L144.8,201.0009999999916 A49.77249332313434 49.77249332313434 0.6243732849835777 0 0 115.7035521162459,210.39159376219104 L31.265625714362407,271.2318155367357 A51.77249332313434 51.77249332313434 0.6243732849835777 0 1 1,280.9997500000021 Z" style="fill: rgb(207, 207, 207);"></path><title>CL_(3,) [-] → Mission.1
1.57µ</title></g><g class="link" style="opacity: 0.8;"><path d="M1,119.00024999999789 A51.77249332313432 51.77249332313432 0.624373284983578 0 1 31.26562571436241,128.76818446326425 L115.7035521162459,189.608406237809 A49.77249332313432 49.77249332313432 0.624373284983578 0 0 144.8,198.99900000000846 L144.8,200.99900000000846 A51.77249332313432 51.77249332313432 0.624373284983578 0 1 114.5343742856376,191.2310655367421 L30.096447883754113,130.39084376219736 A49.77249332313432 49.77249332313432 0.624373284983578 0 0 1,121.00024999999789 Z" style="fill: rgb(207, 207, 207);"></path><title>CL_(1,) [-] → Mission.1
1.57µ</title></g><g class="link" style="opacity: 0.8;"><path d="M580.2,249.6672187655069 A45.309665387810995 45.309665387810995 0.8002961637500615 0 1 612.712512180313,263.41896392272605 L692.5923467919479,345.7150745914694 A43.76992616199467 43.76992616199467 0.8002961637500615 0 0 724,358.9995000000042 L724,360.9995000000042 A45.76992616199467 45.76992616199467 0.8002961637500615 0 1 691.1572219945328,347.10806303931963 L611.2773873828979,264.8119523705763 A43.309665387810995 43.309665387810995 0.8002961637500615 0 0 580.2,251.6672187655069 Z" style="fill: rgb(207, 207, 207);"></path><title>WingAero.2 → Ⓢ
1.57µ</title></g><g class="link" style="opacity: 0.8;"><path d="M1,199 A0 0 0 0 1 1,199 L144.8,199.00000000000003 A0 0 0 0 0 144.8,199.00000000000003 L144.8,201.00000000000003 A0 0 0 0 1 144.8,201.00000000000003 L1,201 A0 0 0 0 0 1,201 Z" style="fill: rgb(207, 207, 207);"></path><title>CL_(2,) [-] → Mission.1
1.57µ</title></g><g class="link" style="opacity: 0.8;"><path d="M1,39.000499999995775 A44.385965411569536 44.385965411569536 1.0387240392747996 0 1 39.24994339171885,60.86856684070949 L108.27357182472608,178.1152926817532 A42.385965411569536 42.385965411569536 1.0387240392747996 0 0 144.8,198.9980000000169 L144.8,200.9980000000169 A44.385965411569536 44.385965411569536 1.0387240392747996 0 1 106.55005660828115,179.12993315930316 L37.52642817527394,61.883207318259466 A42.385965411569536 42.385965411569536 1.0387240392747996 0 0 1,41.000499999995775 Z" style="fill: rgb(207, 207, 207);"></path><title>CL_(0,) [-] → Mission.1
1.57µ</title></g><g class="link" style="opacity: 0.8;"><path d="M580.2,154.19569964182733 A50.43229055695853 50.43229055695853 0.611771323309805 0 0 609.164193544175,145.04889591931294 L693.8871696112834,85.61075277020669 A52.43229055695853 52.43229055695853 0.611771323309805 0 1 724,76.10121304575782 L724,78.10121304575782 A50.43229055695853 50.43229055695853 0.611771323309805 0 0 695.0358064558251,87.24801676827221 L610.3128303887166,146.68615991737846 A52.43229055695853 52.43229055695853 0.611771323309805 0 1 580.2,156.19569964182733 Z" style="fill: rgb(207, 207, 207);"></path><title>WingAero.2 → Ⓒ
1.57µ</title></g><g class="link" style="opacity: 0.8;"><path d="M145.8,198.9980000000169 A45.01806046088314 45.01806046088314 0.7485703096705701 0 0 176.43893069055113,186.96299115355137 L257.59988535896866,111.57018354027328 A47.01806046088314 47.01806046088314 0.7485703096705701 0 1 289.6,99.00049999999578 L289.6,101.00049999999578 A45.01806046088314 45.01806046088314 0.7485703096705701 0 0 258.96106930944893,113.03550884646133 L177.80011464103134,188.42831645973942 A47.01806046088314 47.01806046088314 0.7485703096705701 0 1 145.8,200.9980000000169 Z" style="fill: rgb(207, 207, 207);"></path><title>Mission.1 → Climb.1
1.57µ</title></g><g class="link" style="opacity: 0.8;"><path d="M580.2,161.8371681957116 A102.98096311463443 102.98096311463443 0.26224340839909765 0 0 606.8975995128328,158.31633249035656 L696.7839046660879,134.18858764246494 A104.98096311463443 104.98096311463443 0.26224340839909765 0 1 724,130.5993735572838 L724,132.5993735572838 A102.98096311463443 102.98096311463443 0.26224340839909765 0 0 697.3024004871672,136.12020926263887 L607.4160953339122,160.24795411053043 A104.98096311463443 104.98096311463443 0.26224340839909765 0 1 580.2,163.8371681957116 Z" style="fill: rgb(207, 207, 207);"></path><title>WingAero.2 → Ⓖ
1.57µ</title></g><g class="link" style="opacity: 0.8;"><path d="M1,358.9995000000042 A42.385965411569536 42.385965411569536 1.0387240392747994 0 0 37.526428175273935,338.11679268174055 L106.55005660828115,220.87006684069686 A44.385965411569536 44.385965411569536 1.0387240392747994 0 1 144.8,199.00199999998316 L144.8,201.00199999998316 A42.385965411569536 42.385965411569536 1.0387240392747994 0 0 108.27357182472608,221.88470731824683 L39.249943391718844,339.1314331592905 A44.385965411569536 44.385965411569536 1.0387240392747994 0 1 1,360.9995000000042 Z" style="fill: rgb(207, 207, 207);"></path><title>CL_(4,) [-] → Mission.1
1.57µ</title></g><g class="link" style="opacity: 0.8;"><path d="M580.2,161.7787583876964 A72.22536640622641 72.22536640622641 0.3864800044855956 0 0 607.4239355829739,156.45153010120956 L696.0222036354871,120.39681153927454 A74.22536640622641 74.22536640622641 0.3864800044855956 0 1 724,114.92206643005468 L724,116.92206643005468 A72.22536640622641 72.22536640622641 0.3864800044855956 0 0 696.7760644170262,122.24929471654154 L608.1777963645129,158.30401327847656 A74.22536640622641 74.22536640622641 0.3864800044855956 0 1 580.2,163.7787583876964 Z" style="fill: rgb(207, 207, 207);"></path><title>WingAero.2 → Ⓕ
182µ</title></g><g class="link" style="opacity: 0.8;"><path d="M580.2,173.4073882671115 A0 0 0 0 0 580.2,173.4073882671115 L724,173.4073882671115 A0 0 0 0 0 724,173.4073882671115 L724,175.4073882671115 A0 0 0 0 0 724,175.4073882671115 L580.2,175.4073882671115 A0 0 0 0 0 580.2,175.4073882671115 Z" style="fill: rgb(207, 207, 207);"></path><title>WingAero.2 → Ⓙ
757µ</title></g><g class="link" style="opacity: 0.8;"><path d="M580.2,153.92049984275434 A46.70138536566177 46.70138536566177 0.7123659707339332 0 0 610.725249374909,142.5635418408463 L692.5243431329636,71.91767425022218 A48.15543889358259 48.15543889358259 0.7123659707339332 0 1 724,60.207115927470895 L724,62.207115927470895 A46.15543889358259 46.15543889358259 0.7123659707339332 0 0 693.8315955468227,73.4313093206602 L612.0325017887681,144.07717691128437 A48.70138536566177 48.70138536566177 0.7123659707339332 0 1 580.2,155.92049984275434 Z" style="fill: rgb(207, 207, 207);"></path><title>WingAero.2 → Ⓑ
865µ</title></g><g class="link" style="opacity: 0.8;"><path d="M580.2,194.63357578517733 A100.34330836814054 100.34330836814054 0.40945704807307437 0 1 620.1478066201413,202.92824331325147 L695.246264278238,235.51991046463309 A72.22536640622641 72.22536640622641 0.40945704807307437 0 0 724,241.49026774281904 L724,243.49026774281904 A74.22536640622641 74.22536640622641 0.40945704807307437 0 1 694.450041644765,237.35458469128622 L619.3515839866683,204.7629175399046 A98.34330836814054 98.34330836814054 0.40945704807307437 0 0 580.2,196.63357578517733 Z" style="fill: rgb(207, 207, 207);"></path><title>WingAero.2 → Ⓝ
3.08m</title></g><g class="link" style="opacity: 0.8;"><path d="M290.6,199.99999915511586 A110.69609957755794 110.69609957755794 0.31200425573479773 0 0 324.58002109124726,194.6556182551524 L405.5628607948292,168.5355071103302 A93.94222635752698 93.94222635752698 0.31200425573479773 0 1 434.40000000000003,163.99999915511592 L434.40000000000003,168.76411853683624 A89.17810697580663 89.17810697580663 0.31200425573479773 0 0 407.02528700216504,173.0696159611829 L326.0424472985831,199.1897271060051 A115.4602189592783 115.4602189592783 0.31200425573479773 0 1 290.6,204.76411853683618 Z" style="fill: rgb(207, 207, 207);"></path><title>Climb.1 → Ⓓ
7.50m</title></g><g class="link" style="opacity: 0.8;"><path d="M580.2,149.33228123449734 A42.11316675740479 42.11316675740479 0.8015182766769487 0 0 610.4546488797827,136.51373916316857 L689.9280498278707,54.43588813306352 A47.426685566584545 47.426685566584545 0.8015182766769487 0 1 724,40 L724,45.313518809179754 A42.11316675740479 42.11316675740479 0.8015182766769487 0 0 693.7453511202174,58.132060880508526 L614.2719501721293,140.20991191061358 A47.426685566584545 47.426685566584545 0.8015182766769487 0 1 580.2,154.6458000436771 Z" style="fill: rgb(207, 207, 207);"></path><title>WingAero.2 → Ⓐ
8.36m</title></g><g class="link" style="opacity: 0.8;"><path d="M580.2,243.79997974232288 A51.176904410995 51.176904410995 0.712460833662799 0 1 613.6542399530258,256.24847888977143 L695.4189707802327,326.87821192870575 A43.72206938198848 43.72206938198848 0.712460833662799 0 0 724,337.5133636576063 L724,344.3801026807945 A50.588808405176714 50.588808405176714 0.712460833662799 0 1 690.9301972285602,332.0746546364032 L609.1654664013533,261.44492159746886 A44.31016538780677 44.31016538780677 0.712460833662799 0 0 580.2,250.66671876551112 Z" style="fill: rgb(250, 51, 51);"></path><title>WingAero.2 → Ⓡ
10.8m</title></g><g class="link" style="opacity: 0.8;"><path d="M290.6,204.7641185368362 A256.57608454777494 256.57608454777494 0.10201163442268224 0 0 316.7283737235738,203.43026256503225 L407.5171494783745,194.13649062117426 A263.98491545222635 263.98491545222635 0.10201163442268224 0 1 434.40000000000003,192.76411853683624 L434.40000000000003,200.17294944128764 A256.57608454777494 256.57608454777494 0.10201163442268224 0 0 408.2716262764263,201.5068054130916 L317.48285052162555,210.8005773569496 A263.98491545222635 263.98491545222635 0.10201163442268224 0 1 290.6,212.1729494412876 Z" style="fill: rgb(89, 173, 228);"></path><title>Climb.1 → Ⓗ
11.7m</title></g><g class="link" style="opacity: 0.8;"><path d="M580.2,155.1961996418231 A55.25666088203654 55.25666088203654 0.5033816839149976 0 0 606.855288187234,148.34195795023498 L693.7148926607465,100.5082374917434 A62.78130981989041 62.78130981989041 0.5033816839149976 0 1 724,92.7206103649675 L724,100.24525930282137 A55.25666088203654 55.25666088203654 0.5033816839149976 0 0 697.344711812766,107.0995009944095 L610.4851073392535,154.93322145290108 A62.78130981989041 62.78130981989041 0.5033816839149976 0 1 580.2,162.72084857967695 Z" style="fill: rgb(250, 51, 51);"></path><title>WingAero.2 → Ⓔ
11.8m</title></g><g class="link" style="opacity: 0.8;"><path d="M580.2,162.83766819570738 A195.2688182572754 195.2688182572754 0.13257295328682117 0 0 606.0115995917809,161.1241978627568 L696.6908495324333,149.03165422678222 A206.5980266139695 206.5980266139695 0.13257295328682117 0 1 724,147.21877087649347 L724,158.54797923318756 A195.2688182572754 195.2688182572754 0.13257295328682117 0 0 698.1884004082192,160.26144956613814 L607.5091504675668,172.35399320211272 A206.5980266139695 206.5980266139695 0.13257295328682117 0 1 580.2,174.16687655240148 Z" style="fill: rgb(250, 51, 51);"></path><title>WingAero.2 → Ⓘ
17.8m</title></g><g class="link" style="opacity: 0.8;"><path d="M290.6,212.1729494412876 A266.1856175983366 266.1856175983366 0.10201163442268246 0 1 317.70695857997873,213.55676226338934 L408.4957343347796,222.8505342072474 A254.37538240166216 254.37538240166216 0.10201163442268246 0 0 434.40000000000003,224.17294944128764 L434.40000000000003,235.9831846379621 A266.1856175983366 266.1856175983366 0.10201163442268246 0 1 407.2930414200214,234.59937181586037 L316.5042656652205,225.30559987200232 A254.37538240166216 254.37538240166216 0.10201163442268246 0 0 290.6,223.98318463796207 Z" style="fill: rgb(89, 173, 228);"></path><title>Climb.1 → Ⓛ
18.6m</title></g><g class="link" style="opacity: 0.8;"><path d="M580.2,174.64889998181312 A120.32798417150477 120.32798417150477 0.2646223166803259 0 1 611.6711525548276,178.83735457079942 L699.420667362389,202.6154633426171 A93.97754160455517 93.97754160455517 0.2646223166803259 0 0 724,205.88669462024092 L724,225.89353764039947 A113.9843846247137 113.9843846247137 0.2646223166803259 0 1 694.1879826036178,221.9258951826509 L606.4384677960563,198.14778641083322 A100.32114115134621 100.32114115134621 0.2646223166803259 0 0 580.2,194.65574300197167 Z" style="fill: rgb(250, 51, 51);"></path><title>WingAero.2 → Ⓜ
31.5m</title></g><g class="link" style="opacity: 0.8;"><path d="M290.6,223.98318463796207 A109.68575988946954 109.68575988946954 0.3043138490700219 0 1 323.46608990216384,229.02294098657367 L410.25544514191085,256.280807081256 A80.5789144582161 80.5789144582161 0.3043138490700219 0 0 434.40000000000003,259.9831846379621 L434.40000000000003,281.9456890548632 A102.54141887511724 102.54141887511724 0.3043138490700219 0 1 403.6746305915998,277.23419535420163 L316.8852753518528,249.9763292595193 A87.7232554725684 87.7232554725684 0.3043138490700219 0 0 290.6,245.9456890548632 Z" style="fill: rgb(89, 173, 228);"></path><title>Climb.1 → Ⓟ
34.6m</title></g><g class="link" style="opacity: 0.8;"><path d="M580.2,196.61240856837455 A98.3644755849433 98.3644755849433 0.6603739332759626 0 1 640.5379706968308,217.2922695292541 L706.9235210462545,268.8542089307754 A27.83850496998437 27.83850496998437 0.6603739332759626 0 0 724,274.70689516444406 L724,321.89446633839236 A75.02607614393268 75.02607614393268 0.6603739332759626 0 1 677.9780885634717,306.1212025267325 L611.5925382140481,254.55926312521115 A51.176904410995 51.176904410995 0.6603739332759626 0 0 580.2,243.79997974232285 Z" style="fill: rgb(250, 51, 51);"></path><title>WingAero.2 → Ⓠ
74.3m</title></g><g class="link" style="opacity: 0.8;"><path d="M290.6,245.94568905486324 A87.7232554725684 87.7232554725684 0.48539866387149666 0 1 331.52825070286207,256.0786884052279 L418.6913832244816,302.05655622245695 A33.66894452743162 33.66894452743162 0.48539866387149666 0 0 434.40000000000003,305.94568905486324 L434.40000000000003,360 A87.7232554725684 87.7232554725684 0.48539866387149666 0 1 393.47174929713805,349.8670006496353 L306.3086167755185,303.8891328324063 A33.66894452743162 33.66894452743162 0.48539866387149666 0 0 290.6,300 Z" style="fill: rgb(89, 173, 228);"></path><title>Climb.1 → Ⓣ
85.1m</title></g><g class="link" style="opacity: 0.8;"><path d="M290.6,100 A10.696100422442072 10.696100422442072 0.48539866387149666 0 0 295.5903834197033,98.7644829407188 L382.75351594132286,52.78661512348972 A110.69609957755794 110.69609957755794 0.48539866387149666 0 1 434.40000000000003,39.99999999999999 L434.40000000000003,139.99999915511586 A10.696100422442072 10.696100422442072 0.48539866387149666 0 0 429.4096165802968,141.23551621439705 L342.24648405867725,187.21338403162613 A110.69609957755794 110.69609957755794 0.48539866387149666 0 1 290.6,199.99999915511586 Z" style="fill: rgb(250, 51, 51);"></path><title>Climb.1 → AircraftDrag.2
157m</title></g><g class="link" style="opacity: 0.8;"><path d="M435.40000000000003,39.99999999999999 A99.99999915511587 99.99999915511587 0.8317680022892494 0 1 509.3123392807896,72.64299556183965 L579.2,149.33228123449734 A0 0 0.8317680022892494 0 0 579.2,149.33228123449734 L579.2,249.3322803896132 A99.99999915511587 99.99999915511587 0.8317680022892494 0 1 505.2876607192104,216.68928482777355 L435.4,139.99999915511586 A0 0 0.8317680022892494 0 0 435.40000000000003,139.99999915511586 Z" style="fill: rgb(250, 51, 51);"></path><title>AircraftDrag.2 → WingAero.2
157m</title></g></g><g class="nodes"><g class="node" transform="translate(0,40)"><title>CL_(0,) [-]</title><text dy=".35em" text-anchor="end" transform="translate(-4,0.0004999999957746581)" style="display: inline;">CL_(0,) [-]</text><line x1="0" x2="0" y1="0" y2="1" style="display: inline; stroke: rgb(0, 0, 0);"></line><rect x="-5" y="-5" width="10" height="6" style="fill: none; visibility: hidden; pointer-events: all;"></rect></g><g class="node" transform="translate(0,119.99975000000211)"><title>CL_(1,) [-]</title><text dy=".35em" text-anchor="end" transform="translate(-4,0.0004999999957746581)" style="display: inline;">CL_(1,) [-]</text><line x1="0" x2="0" y1="0" y2="1" style="display: inline; stroke: rgb(0, 0, 0);"></line><rect x="-5" y="-5" width="10" height="6" style="fill: none; visibility: hidden; pointer-events: all;"></rect></g><g class="node" transform="translate(0,199.99950000000422)"><title>CL_(2,) [-]</title><text dy=".35em" text-anchor="end" transform="translate(-4,0.0004999999957817636)" style="display: inline;">CL_(2,) [-]</text><line x1="0" x2="0" y1="0" y2="1" style="display: inline; stroke: rgb(0, 0, 0);"></line><rect x="-5" y="-5" width="10" height="6" style="fill: none; visibility: hidden; pointer-events: all;"></rect></g><g class="node" transform="translate(0,279.9992500000063)"><title>CL_(3,) [-]</title><text dy=".35em" text-anchor="end" transform="translate(-4,0.0004999999957817636)" style="display: inline;">CL_(3,) [-]</text><line x1="0" x2="0" y1="0" y2="1" style="display: inline; stroke: rgb(0, 0, 0);"></line><rect x="-5" y="-5" width="10" height="6" style="fill: none; visibility: hidden; pointer-events: all;"></rect></g><g class="node" transform="translate(0,359.99900000000844)"><title>CL_(4,) [-]</title><text dy=".35em" text-anchor="end" transform="translate(-4,0.0004999999957817636)" style="display: inline;">CL_(4,) [-]</text><line x1="0" x2="0" y1="0" y2="1" style="display: inline; stroke: rgb(0, 0, 0);"></line><rect x="-5" y="-5" width="10" height="6" style="fill: none; visibility: hidden; pointer-events: all;"></rect></g><g class="node" transform="translate(144.8,199.99750000002112)"><title>Mission.1</title><text dy=".35em" text-anchor="start" transform="translate(-4,-10)" style="display: inline;">Mission.1</text><line x1="0" x2="0" y1="-5" y2="1" style="display: inline; stroke: rgb(0, 0, 0);"></line><rect x="-5" y="-5" width="10" height="6" style="fill: none; visibility: hidden; pointer-events: all;"></rect></g><g class="node" transform="translate(289.6,100)"><title>Climb.1</title><text dy=".35em" text-anchor="start" transform="translate(-4,-10)" style="display: inline;">Climb.1</text><line x1="0" x2="0" y1="-5" y2="200" style="display: inline; stroke: rgb(0, 0, 0);"></line><rect x="-5" y="-5" width="10" height="205" style="fill: none; visibility: hidden; pointer-events: all;"></rect></g><g class="node" transform="translate(724,60.93241612839367)"><title>Ⓑ</title><text dy=".35em" text-anchor="start" transform="translate(4,0.2746997990772293)" style="display: inline;">Ⓑ</text><line x1="0" x2="0" y1="0" y2="1" style="display: inline; stroke: rgb(0, 0, 0);"></line><rect x="-5" y="-5" width="10" height="6" style="fill: none; visibility: hidden; pointer-events: all;"></rect></g><g class="node" transform="translate(724,40)"><title>Ⓐ</title><text dy=".35em" text-anchor="start" transform="translate(4,2.6567594045898772)" style="display: inline;">Ⓐ</text><line x1="0" x2="0" y1="0" y2="5.3135188091797545" style="display: inline; stroke: rgb(0, 0, 0);"></line><rect x="-5" y="-5" width="10" height="10.313518809179754" style="fill: none; visibility: hidden; pointer-events: all;"></rect></g><g class="node" transform="translate(434.40000000000003,163.9999991551159)"><title>Ⓓ</title><text dy=".35em" text-anchor="start" transform="translate(4,2.3820596908601743)" style="display: inline;">Ⓓ</text><line x1="0" x2="0" y1="0" y2="4.764119381720349" style="display: inline; stroke: rgb(0, 0, 0);"></line><rect x="-5" y="-5" width="10" height="9.764119381720349" style="fill: none; visibility: hidden; pointer-events: all;"></rect></g><g class="node" transform="translate(724,77.10071304576203)"><title>Ⓒ</title><text dy=".35em" text-anchor="start" transform="translate(4,0.0004999999957746581)" style="display: inline;">Ⓒ</text><line x1="0" x2="0" y1="0" y2="1" style="display: inline; stroke: rgb(0, 0, 0);"></line><rect x="-5" y="-5" width="10" height="6" style="fill: none; visibility: hidden; pointer-events: all;"></rect></g><g class="node" transform="translate(724,115.86415662203527)"><title>Ⓕ</title><text dy=".35em" text-anchor="start" transform="translate(4,0.057909808019410036)" style="display: inline;">Ⓕ</text><line x1="0" x2="0" y1="0" y2="1" style="display: inline; stroke: rgb(0, 0, 0);"></line><rect x="-5" y="-5" width="10" height="6" style="fill: none; visibility: hidden; pointer-events: all;"></rect></g><g class="node" transform="translate(724,92.7206103649675)"><title>Ⓔ</title><text dy=".35em" text-anchor="start" transform="translate(4,3.762324468926934)" style="display: inline;">Ⓔ</text><line x1="0" x2="0" y1="0" y2="7.524648937853868" style="display: inline; stroke: rgb(0, 0, 0);"></line><rect x="-5" y="-5" width="10" height="12.524648937853868" style="fill: none; visibility: hidden; pointer-events: all;"></rect></g><g class="node" transform="translate(434.40000000000003,192.76411853683624)"><title>Ⓗ</title><text dy=".35em" text-anchor="start" transform="translate(4,3.704415452225703)" style="display: inline;">Ⓗ</text><line x1="0" x2="0" y1="0" y2="7.408830904451406" style="display: inline; stroke: rgb(0, 0, 0);"></line><rect x="-5" y="-5" width="10" height="12.408830904451406" style="fill: none; visibility: hidden; pointer-events: all;"></rect></g><g class="node" transform="translate(724,131.59887355728802)"><title>Ⓖ</title><text dy=".35em" text-anchor="start" transform="translate(4,0.0004999999957817636)" style="display: inline;">Ⓖ</text><line x1="0" x2="0" y1="0" y2="1" style="display: inline; stroke: rgb(0, 0, 0);"></line><rect x="-5" y="-5" width="10" height="6" style="fill: none; visibility: hidden; pointer-events: all;"></rect></g><g class="node" transform="translate(434.40000000000003,40)"><title>AircraftDrag.2</title><text dy=".35em" text-anchor="start" transform="translate(-4,-10)" style="display: inline;">AircraftDrag.2</text><line x1="0" x2="0" y1="-5" y2="99.99999915511586" style="display: inline; stroke: rgb(0, 0, 0);"></line><rect x="-5" y="-5" width="10" height="104.99999915511586" style="fill: none; visibility: hidden; pointer-events: all;"></rect></g><g class="node" transform="translate(724,147.21877087649347)"><title>Ⓘ</title><text dy=".35em" text-anchor="start" transform="translate(4,5.664604178347034)" style="display: inline;">Ⓘ</text><line x1="0" x2="0" y1="0" y2="11.329208356694068" style="display: inline; stroke: rgb(0, 0, 0);"></line><rect x="-5" y="-5" width="10" height="16.329208356694068" style="fill: none; visibility: hidden; pointer-events: all;"></rect></g><g class="node" transform="translate(434.40000000000003,224.17294944128764)"><title>Ⓛ</title><text dy=".35em" text-anchor="start" transform="translate(4,5.9051175983372275)" style="display: inline;">Ⓛ</text><line x1="0" x2="0" y1="0" y2="11.810235196674455" style="display: inline; stroke: rgb(0, 0, 0);"></line><rect x="-5" y="-5" width="10" height="16.810235196674455" style="fill: none; visibility: hidden; pointer-events: all;"></rect></g><g class="node" transform="translate(724,190.26679730103547)"><title>Ⓚ</title><text dy=".35em" text-anchor="start" transform="translate(4,0.0004999999957817636)" style="display: inline;">Ⓚ</text><line x1="0" x2="0" y1="0" y2="1" style="display: inline; stroke: rgb(0, 0, 0);"></line><rect x="-5" y="-5" width="10" height="6" style="fill: none; visibility: hidden; pointer-events: all;"></rect></g><g class="node" transform="translate(724,241.51243495961336)"><title>Ⓝ</title><text dy=".35em" text-anchor="start" transform="translate(4,0.9778327832056704)" style="display: inline;">Ⓝ</text><line x1="0" x2="0" y1="0" y2="1.9556655664113407" style="display: inline; stroke: rgb(0, 0, 0);"></line><rect x="-5" y="-5" width="10" height="6.955665566411341" style="fill: none; visibility: hidden; pointer-events: all;"></rect></g><g class="node" transform="translate(724,205.88669462024092)"><title>Ⓜ</title><text dy=".35em" text-anchor="start" transform="translate(4,10.003421510079278)" style="display: inline;">Ⓜ</text><line x1="0" x2="0" y1="0" y2="20.006843020158556" style="display: inline; stroke: rgb(0, 0, 0);"></line><rect x="-5" y="-5" width="10" height="25.006843020158556" style="fill: none; visibility: hidden; pointer-events: all;"></rect></g><g class="node" transform="translate(434.40000000000003,259.9831846379621)"><title>Ⓟ</title><text dy=".35em" text-anchor="start" transform="translate(4,10.98125220845057)" style="display: inline;">Ⓟ</text><line x1="0" x2="0" y1="0" y2="21.96250441690114" style="display: inline; stroke: rgb(0, 0, 0);"></line><rect x="-5" y="-5" width="10" height="26.96250441690114" style="fill: none; visibility: hidden; pointer-events: all;"></rect></g><g class="node" transform="translate(724,259.0869978452386)"><title>Ⓞ</title><text dy=".35em" text-anchor="start" transform="translate(4,0.0004999999957817636)" style="display: inline;">Ⓞ</text><line x1="0" x2="0" y1="0" y2="1" style="display: inline; stroke: rgb(0, 0, 0);"></line><rect x="-5" y="-5" width="10" height="6" style="fill: none; visibility: hidden; pointer-events: all;"></rect></g><g class="node" transform="translate(724,337.5133636576063)"><title>Ⓡ</title><text dy=".35em" text-anchor="start" transform="translate(4,3.4333695115941225)" style="display: inline;">Ⓡ</text><line x1="0" x2="0" y1="0" y2="6.866739023188245" style="display: inline; stroke: rgb(0, 0, 0);"></line><rect x="-5" y="-5" width="10" height="11.866739023188245" style="fill: none; visibility: hidden; pointer-events: all;"></rect></g><g class="node" transform="translate(724,274.70689516444406)"><title>Ⓠ</title><text dy=".35em" text-anchor="start" transform="translate(4,23.59378558697415)" style="display: inline;">Ⓠ</text><line x1="0" x2="0" y1="0" y2="47.1875711739483" style="display: inline; stroke: rgb(0, 0, 0);"></line><rect x="-5" y="-5" width="10" height="52.1875711739483" style="fill: none; visibility: hidden; pointer-events: all;"></rect></g><g class="node" transform="translate(434.40000000000003,305.94568905486324)"><title>Ⓣ</title><text dy=".35em" text-anchor="start" transform="translate(4,27.02715547256838)" style="display: inline;">Ⓣ</text><line x1="0" x2="0" y1="0" y2="54.05431094513676" style="display: inline; stroke: rgb(0, 0, 0);"></line><rect x="-5" y="-5" width="10" height="59.05431094513676" style="fill: none; visibility: hidden; pointer-events: all;"></rect></g><g class="node" transform="translate(724,359.99900000000844)"><title>Ⓢ</title><text dy=".35em" text-anchor="start" transform="translate(4,0.0004999999957817636)" style="display: inline;">Ⓢ</text><line x1="0" x2="0" y1="0" y2="1" style="display: inline; stroke: rgb(0, 0, 0);"></line><rect x="-5" y="-5" width="10" height="6" style="fill: none; visibility: hidden; pointer-events: all;"></rect></g><g class="node" transform="translate(579.2,149.33228123449734)"><title>WingAero.2</title><text dy=".35em" text-anchor="start" transform="translate(-4,-10)" style="display: inline;">WingAero.2</text><line x1="0" x2="0" y1="-5" y2="101.33543753100528" style="display: inline; stroke: rgb(0, 0, 0);"></line><rect x="-5" y="-5" width="10" height="106.33543753100528" style="fill: none; visibility: hidden; pointer-events: all;"></rect></g><g class="node" transform="translate(724,174.16687655240145)"><title>Ⓙ</title><text dy=".35em" text-anchor="start" transform="translate(4,0.24051171471005262)" style="display: inline;">Ⓙ</text><line x1="0" x2="0" y1="0" y2="1" style="display: inline; stroke: rgb(0, 0, 0);"></line><rect x="-5" y="-5" width="10" height="6" style="fill: none; visibility: hidden; pointer-events: all;"></rect></g></g><g class="slice-titles"></g></g></svg>
