<?xml version="1.0" encoding="utf-8" standalone="no"?>
<!DOCTYPE svg PUBLIC "-//W3C//DTD SVG 1.1//EN"
  "http://www.w3.org/Graphics/SVG/1.1/DTD/svg11.dtd">
<svg width="900" height="400" viewBox="0 0 900 400" xmlns="http://www.w3.org/2000/svg" xmlns:xlink="http://www.w3.org/1999/xlink"><g class="sankey" transform="translate(120,0)"><g class="groups"></g><g class="links"><g class="link" style="opacity: 0.8;"><path d="M435.40000000000003,212.34596141817448 A82.54415 82.54415 0.33274755048793603 0 0 462.36231204717745,207.8182867826328 L551.5844057505788,176.9833391552816 A84.54415 84.54415 0.33274755048793603 0 1 579.2,172.34596141817448 L579.2,174.34596141817448 A82.54415 82.54415 0.33274755048793603 0 0 552.2376879528226,178.87363605371615 L463.01559424942144,209.70858368106735 A84.54415 84.54415 0.33274755048793603 0 1 435.40000000000003,214.34596141817448 Z" style="fill: rgb(207, 207, 207);"></path><title>Climb.2 → Ⓐ
7.50m</title></g><g class="link" style="opacity: 0.8;"><path d="M435.40000000000003,212.5554070360046 A106.89220000000002 106.89220000000002 0.2521355729428969 0 0 462.06667255988646,209.17567486198098 L552.0343822867743,185.99837548309628 A108.89220000000002 108.89220000000002 0.2521355729428969 0 1 579.2,182.5554070360046 L579.2,184.5554070360046 A106.89220000000002 106.89220000000002 0.2521355729428969 0 0 552.5333274401136,187.9351392100282 L462.5656177132257,211.1124385889129 A108.89220000000002 108.89220000000002 0.2521355729428969 0 1 435.40000000000003,214.5554070360046 Z" style="fill: rgb(250, 51, 51);"></path><title>Climb.2 → Ⓑ
11.7m</title></g><g class="link" style="opacity: 0.8;"><path d="M435.40000000000003,212.8860868694909 A157.0883 157.0883 0.16935710310956664 0 0 461.8770263570986,210.63867640508968 L552.3858762733698,195.16211067383406 A159.0883 159.0883 0.16935710310956664 0 1 579.2,192.8860868694909 L579.2,194.8860868694909 A157.0883 157.0883 0.16935710310956664 0 0 552.7229736429015,197.1334973338921 L462.21412372663025,212.61006306514773 A159.0883 159.0883 0.16935710310956664 0 1 435.40000000000003,214.8860868694909 Z" style="fill: rgb(250, 51, 51);"></path><title>Climb.2 → Ⓒ
18.6m</title></g><g class="link" style="opacity: 0.8;"><path d="M435.40000000000003,216.069444958466 A312.6766 312.6766 0.08506709142592128 0 1 461.96642092860867,217.20009093786894 L552.8035081350221,224.94603102635665 A310.6766 310.6766 0.08506709142592128 0 0 579.2,226.069444958466 L579.2,228.069444958466 A312.6766 312.6766 0.08506709142592128 0 1 552.6335790713914,226.93879897906305 L461.796491864978,219.19285889057534 A310.6766 310.6766 0.08506709142592128 0 0 435.40000000000003,218.069444958466 Z" style="fill: rgb(250, 51, 51);"></path><title>Climb.2 → Ⓕ
33.3m</title></g><g class="link" style="opacity: 0.8;"><path d="M435.40000000000003,213.46717462125932 A310.6766 310.6766 0.08506709142592128 0 0 461.796491864978,212.34376068914997 L552.6335790713914,204.59782060066226 A312.6766 312.6766 0.08506709142592128 0 1 579.2,203.46717462125932 L579.2,205.46717462125932 A310.6766 310.6766 0.08506709142592128 0 0 552.8035081350221,206.59058855336866 L461.96642092860867,214.33652864185638 A312.6766 312.6766 0.08506709142592128 0 1 435.40000000000003,215.46717462125932 Z" style="fill: rgb(250, 51, 51);"></path><title>Climb.2 → Ⓓ
34.6m</title></g><g class="link" style="opacity: 0.8;"><path d="M435.40000000000003,216.82025320740033 A159.0883 159.0883 0.16935710310956664 0 1 462.21412372663025,219.0962770117435 L552.7229736429015,234.57284274299911 A157.0883 157.0883 0.16935710310956664 0 0 579.2,236.82025320740033 L579.2,238.82025320740033 A159.0883 159.0883 0.16935710310956664 0 1 552.3858762733698,236.54422940305716 L461.8770263570986,221.06766367180154 A157.0883 157.0883 0.16935710310956664 0 0 435.40000000000003,218.82025320740033 Z" style="fill: rgb(250, 51, 51);"></path><title>Climb.2 → Ⓖ
35.3m</title></g><g class="link" style="opacity: 0.8;"><path d="M435.40000000000003,217.62795176042408 A108.89220000000002 108.89220000000002 0.2521355729428969 0 1 462.5656177132257,221.07092020751577 L552.5333274401136,244.24821958640047 A106.89220000000002 106.89220000000002 0.2521355729428969 0 0 579.2,247.62795176042408 L579.2,249.62795176042408 A108.89220000000002 108.89220000000002 0.2521355729428969 0 1 552.0343822867743,246.1849833133324 L462.06667255988646,223.0076839344477 A106.89220000000002 106.89220000000002 0.2521355729428969 0 0 435.40000000000003,219.62795176042408 Z" style="fill: rgb(250, 51, 51);"></path><title>Climb.2 → Ⓗ
38.5m</title></g><g class="link" style="opacity: 0.8;"><path d="M435.40000000000003,218.5361311240962 A84.54415000000012 84.54415000000012 0.33274755048793536 0 1 463.0155942494214,223.17350886120332 L552.2376879528226,254.00845648855446 A82.54415000000012 82.54415000000012 0.33274755048793536 0 0 579.2,258.53613112409613 L579.2,260.53613112409613 A84.54415000000012 84.54415000000012 0.33274755048793536 0 1 551.5844057505788,255.898753386989 L462.3623120471774,225.06380575963786 A82.54415000000012 82.54415000000012 0.33274755048793536 0 0 435.40000000000003,220.5361311240962 Z" style="fill: rgb(250, 51, 51);"></path><title>Climb.2 → Ⓘ
44.5m</title></g><g class="link" style="opacity: 0.8;"><path d="M435.40000000000003,219.66185418461427 A70.53532000000003 70.53532000000003 0.4106444326066341 0 1 463.55771862884836,225.52589579056203 L551.8406819066238,263.9640850675684 A68.53532000000003 68.53532000000003 0.4106444326066341 0 0 579.2,269.66185418461424 L579.2,271.66185418461424 A70.53532000000003 70.53532000000003 0.4106444326066341 0 1 551.0422813711516,265.7978125786664 L462.7593180933763,227.3596233016601 A68.53532000000003 68.53532000000003 0.4106444326066341 0 0 435.40000000000003,221.66185418461427 Z" style="fill: rgb(250, 51, 51);"></path><title>Climb.2 → Ⓙ
58.4m</title></g><g class="link" style="opacity: 0.8;"><path d="M435.40000000000003,214.77510642782104 A0 0 0 0 0 435.40000000000003,214.77510642782104 L579.2,214.77510642782104 A0 0 0 0 0 579.2,214.77510642782104 L579.2,216.77510642782104 A0 0 0 0 0 579.2,216.77510642782104 L435.40000000000003,216.77510642782104 A0 0 0 0 0 435.40000000000003,216.77510642782104 Z" style="fill: rgb(250, 51, 51);"></path><title>Climb.2 → Ⓔ
85.1m</title></g><g class="link" style="opacity: 0.8;"><path d="M435.40000000000003,40 A0 0 0 0 0 435.40000000000003,40 L579.2,40 A0 0 0 0 0 579.2,40 L579.2,42.32962137153872 A0 0 0 0 0 579.2,42.32962137153872 L435.40000000000003,42.32962137153872 A0 0 0 0 0 435.40000000000003,42.32962137153872 Z" style="fill: rgb(250, 51, 51);"></path><title>Aircraft.2 → Ⓛ
107m</title></g><g class="link" style="opacity: 0.8;"><path d="M290.6,210.93436945578776 A1004.0182935137854 1004.0182935137854 0.018606027794421776 0 1 309.2797144611414,211.10815211244645 L415.86980587318624,213.09159920054557 A995.9817064862146 995.9817064862146 0.018606027794421776 0 0 434.40000000000003,213.2639908273265 L434.40000000000003,221.30057785489709 A1004.0182935137854 1004.0182935137854 0.018606027794421776 0 1 415.72028553885866,221.1267951982384 L309.1301941268138,219.14334811013927 A995.9817064862146 995.9817064862146 0.018606027794421776 0 0 290.6,218.97095648335835 Z" style="fill: rgb(250, 51, 51);"></path><title>Mission.2 → Climb.2
367m</title></g><g class="link" style="opacity: 0.8;"><path d="M1,189.06563389012828 A0 0 0 0 0 1,189.06563389012828 L144.8,189.06563054421224 A0 0 0 0 1 144.8,189.06563054421224 L144.8,210.93436276395568 A0 0 0 0 0 144.8,210.93436276395568 L1,210.93436610987172 A0 0 0 0 1 1,210.93436610987172 Z" style="fill: rgb(89, 173, 228);"></path><title>(objective) → Wtotal [lbf]
1.00</title></g><g class="link" style="opacity: 0.8;"><path d="M145.8,189.06563054421224 A37.83702703144038 37.83702703144038 0.667873993078449 0 0 169.23315851364967,180.9359712294195 L252.62313402268657,115.15799543597421 A59.705765943015884 59.705765943015884 0.667873993078449 0 1 289.6,102.3296213715387 L289.6,124.19836028311423 A37.83702703144038 37.83702703144038 0.667873993078449 0 0 266.16684148635034,132.32801959790697 L182.77686597731346,198.10599539135225 A59.705765943015884 59.705765943015884 0.667873993078449 0 1 145.8,210.93436945578776 Z" style="fill: rgb(89, 173, 228);"></path><title>Wtotal [lbf] → Mission.2
1.00</title></g><g class="link" style="opacity: 0.8;"><path d="M580.2,281.30057785489714 A4.456564732720167 4.456564732720167 0.8615982149203333 0 0 583.5820171407241,279.74624145171504 L660.8942246233297,189.65298165123227 A83.15598687782308 83.15598687782308 0.8615982149203333 0 1 724,160.65028892744854 L724,239.34971107255146 A4.456564732720167 4.456564732720167 0.8615982149203333 0 0 720.6179828592759,240.9040474757336 L643.3057753766703,330.99730727621636 A83.15598687782308 83.15598687782308 0.8615982149203333 0 1 580.2,360.0000000000001 Z" style="fill: rgb(250, 51, 51);"></path><title>SteadyLevelFlight.2 → Ⓚ
3.60</title></g><g class="link" style="opacity: 0.8;"><path d="M290.6,218.97095648335838 A98.46306960051373 98.46306960051373 0.5023272924574691 0 1 338.0066822689268,231.1346486156155 L424.8844632693754,278.8590642596635 A19.763647455410826 19.763647455410826 0.5023272924574691 0 0 434.40000000000003,281.300577854897 L434.40000000000003,360 A98.46306960051373 98.46306960051373 0.5023272924574691 0 1 386.99331773107326,347.83630786774285 L300.1155367306247,300.11189222369484 A19.763647455410826 19.763647455410826 0.5023272924574691 0 0 290.6,297.6703786284613 Z" style="fill: rgb(250, 51, 51);"></path><title>Mission.2 → FlightSegment.2
3.60</title></g><g class="link" style="opacity: 0.8;"><path d="M435.40000000000003,281.300577854897 A0 0 0 0 1 435.40000000000003,281.300577854897 L579.2,281.30057785489714 A0 0 0 0 0 579.2,281.30057785489714 L579.2,360.0000000000001 A0 0 0 0 1 579.2,360.0000000000001 L435.40000000000003,360 A0 0 0 0 0 435.40000000000003,360 Z" style="fill: rgb(250, 51, 51);"></path><title>FlightSegment.2 → SteadyLevelFlight.2
3.60</title></g><g class="link" style="opacity: 0.8;"><path d="M290.6,102.32962137153874 A4.8109844858377215 4.8109844858377215 0.5023272924574695 0 0 292.9163284858596,101.73529362636258 L379.7941094863082,54.01087798231457 A113.41573257008676 113.41573257008676 0.5023272924574695 0 1 434.40000000000003,39.99999999999999 L434.40000000000003,148.60474808424902 A4.8109844858377215 4.8109844858377215 0.5023272924574695 0 0 432.08367151414046,149.19907582942517 L345.2058905136919,196.92349147347318 A113.41573257008676 113.41573257008676 0.5023272924574695 0 1 290.6,210.93436945578776 Z" style="fill: rgb(89, 173, 228);"></path><title>Mission.2 → Aircraft.2
4.97</title></g><g class="link" style="opacity: 0.8;"><path d="M435.40000000000003,42.32962137153872 A367.1437847278939 367.1437847278939 0.08506709142592128 0 1 466.59419977831317,43.65722197889269 L557.4312869847265,51.40316206738041 A256.2094152721061 256.2094152721061 0.08506709142592128 0 0 579.2,52.32962137153872 L579.2,163.2639908273265 A367.1437847278939 367.1437847278939 0.08506709142592128 0 1 548.005800221687,161.9363902199725 L457.1687130152735,154.1904501314848 A256.2094152721061 256.2094152721061 0.08506709142592128 0 0 435.40000000000003,153.2639908273265 Z" style="fill: rgb(89, 173, 228);"></path><title>Aircraft.2 → Ⓜ
5.07</title></g></g><g class="nodes"><g class="node" transform="translate(144.8,189.06563054421224)"><title>Wtotal [lbf]</title><text dy=".35em" text-anchor="start" transform="translate(-4,-10)" style="display: inline;">Wtotal [lbf]</text><line x1="0" x2="0" y1="-5" y2="21.86873891157552" style="display: inline; stroke: rgb(0, 0, 0);"></line><rect x="-5" y="-5" width="10" height="26.86873891157552" style="fill: none; visibility: hidden; pointer-events: all;"></rect></g><g class="node" transform="translate(579.2,40)"><title>Ⓛ</title><text dy=".35em" text-anchor="start" transform="translate(4,1.1648106857693605)" style="display: inline;">Ⓛ</text><line x1="0" x2="0" y1="0" y2="2.329621371538721" style="display: inline; stroke: rgb(0, 0, 0);"></line><rect x="-5" y="-5" width="10" height="7.329621371538721" style="fill: none; visibility: hidden; pointer-events: all;"></rect></g><g class="node" transform="translate(724,160.65028892744854)"><title>Ⓚ</title><text dy=".35em" text-anchor="start" transform="translate(4,39.34971107255146)" style="display: inline;">Ⓚ</text><line x1="0" x2="0" y1="0" y2="78.69942214510291" style="display: inline; stroke: rgb(0, 0, 0);"></line><rect x="-5" y="-5" width="10" height="83.69942214510291" style="fill: none; visibility: hidden; pointer-events: all;"></rect></g><g class="node" transform="translate(579.2,52.32962137153872)"><title>Ⓜ</title><text dy=".35em" text-anchor="start" transform="translate(4,55.46718472789389)" style="display: inline;">Ⓜ</text><line x1="0" x2="0" y1="0" y2="110.93436945578777" style="display: inline; stroke: rgb(0, 0, 0);"></line><rect x="-5" y="-5" width="10" height="115.93436945578777" style="fill: none; visibility: hidden; pointer-events: all;"></rect></g><g class="node" transform="translate(579.2,281.30057785489714)"><title>SteadyLevelFlight.2</title><text dy=".35em" text-anchor="start" transform="translate(4,39.34971107255146)" style="display: inline;">SteadyLevelFlight.2</text><line x1="0" x2="0" y1="0" y2="78.69942214510291" style="display: inline; stroke: rgb(0, 0, 0);"></line><rect x="-5" y="-5" width="10" height="83.69942214510291" style="fill: none; visibility: hidden; pointer-events: all;"></rect></g><g class="node" transform="translate(0,189.06563389012828)"><title>(objective)</title><text dy=".35em" text-anchor="end" transform="translate(-4,10.934366109871718)" style="display: inline;">(objective)</text><line x1="0" x2="0" y1="0" y2="21.868732219743436" style="display: inline; stroke: rgb(0, 0, 0);"></line><rect x="-5" y="-5" width="10" height="26.868732219743436" style="fill: none; visibility: hidden; pointer-events: all;"></rect></g><g class="node" transform="translate(289.6,102.32962137153872)"><title>Mission.2</title><text dy=".35em" text-anchor="start" transform="translate(-4,-10)" style="display: inline;">Mission.2</text><line x1="0" x2="0" y1="-5" y2="195.34075725692253" style="display: inline; stroke: rgb(0, 0, 0);"></line><rect x="-5" y="-5" width="10" height="200.34075725692253" style="fill: none; visibility: hidden; pointer-events: all;"></rect></g><g class="node" transform="translate(434.40000000000003,213.2639908273265)"><title>Climb.2</title><text dy=".35em" text-anchor="start" transform="translate(-4,-10)" style="display: inline;">Climb.2</text><line x1="0" x2="0" y1="-5" y2="8.036587027570619" style="display: inline; stroke: rgb(0, 0, 0);"></line><rect x="-5" y="-5" width="10" height="13.036587027570619" style="fill: none; visibility: hidden; pointer-events: all;"></rect></g><g class="node" transform="translate(579.2,204.08929167599504)"><title>Ⓓ</title><text dy=".35em" text-anchor="start" transform="translate(4,0.37788294526427535)" style="display: inline;">Ⓓ</text><line x1="0" x2="0" y1="0" y2="1" style="display: inline; stroke: rgb(0, 0, 0);"></line><rect x="-5" y="-5" width="10" height="6" style="fill: none; visibility: hidden; pointer-events: all;"></rect></g><g class="node" transform="translate(579.2,270.0231305143314)"><title>Ⓙ</title><text dy=".35em" text-anchor="start" transform="translate(4,0.6387236702828716)" style="display: inline;">Ⓙ</text><line x1="0" x2="0" y1="0" y2="1.2774473405657432" style="display: inline; stroke: rgb(0, 0, 0);"></line><rect x="-5" y="-5" width="10" height="6.277447340565743" style="fill: none; visibility: hidden; pointer-events: all;"></rect></g><g class="node" transform="translate(579.2,183.4279320090225)"><title>Ⓑ</title><text dy=".35em" text-anchor="start" transform="translate(4,0.12747502698211122)" style="display: inline;">Ⓑ</text><line x1="0" x2="0" y1="0" y2="1" style="display: inline; stroke: rgb(0, 0, 0);"></line><rect x="-5" y="-5" width="10" height="6" style="fill: none; visibility: hidden; pointer-events: all;"></rect></g><g class="node" transform="translate(579.2,173.2639908273265)"><title>Ⓐ</title><text dy=".35em" text-anchor="start" transform="translate(4,0.08197059084800173)" style="display: inline;">Ⓐ</text><line x1="0" x2="0" y1="0" y2="1" style="display: inline; stroke: rgb(0, 0, 0);"></line><rect x="-5" y="-5" width="10" height="6" style="fill: none; visibility: hidden; pointer-events: all;"></rect></g><g class="node" transform="translate(434.40000000000003,40)"><title>Aircraft.2</title><text dy=".35em" text-anchor="start" transform="translate(-4,-10)" style="display: inline;">Aircraft.2</text><line x1="0" x2="0" y1="-5" y2="113.2639908273265" style="display: inline; stroke: rgb(0, 0, 0);"></line><rect x="-5" y="-5" width="10" height="118.2639908273265" style="fill: none; visibility: hidden; pointer-events: all;"></rect></g><g class="node" transform="translate(579.2,193.68288206298672)"><title>Ⓒ</title><text dy=".35em" text-anchor="start" transform="translate(4,0.20320480650416073)" style="display: inline;">Ⓒ</text><line x1="0" x2="0" y1="0" y2="1" style="display: inline; stroke: rgb(0, 0, 0);"></line><rect x="-5" y="-5" width="10" height="6" style="fill: none; visibility: hidden; pointer-events: all;"></rect></g><g class="node" transform="translate(579.2,226.70515528911852)"><title>Ⓕ</title><text dy=".35em" text-anchor="start" transform="translate(4,0.3642896693474711)" style="display: inline;">Ⓕ</text><line x1="0" x2="0" y1="0" y2="1" style="display: inline; stroke: rgb(0, 0, 0);"></line><rect x="-5" y="-5" width="10" height="6" style="fill: none; visibility: hidden; pointer-events: all;"></rect></g><g class="node" transform="translate(579.2,214.8450575665236)"><title>Ⓔ</title><text dy=".35em" text-anchor="start" transform="translate(4,0.9300488612974647)" style="display: inline;">Ⓔ</text><line x1="0" x2="0" y1="0" y2="1.8600977225949293" style="display: inline; stroke: rgb(0, 0, 0);"></line><rect x="-5" y="-5" width="10" height="6.860097722594929" style="fill: none; visibility: hidden; pointer-events: all;"></rect></g><g class="node" transform="translate(579.2,248.20677178698722)"><title>Ⓗ</title><text dy=".35em" text-anchor="start" transform="translate(4,0.421179973436864)" style="display: inline;">Ⓗ</text><line x1="0" x2="0" y1="0" y2="1" style="display: inline; stroke: rgb(0, 0, 0);"></line><rect x="-5" y="-5" width="10" height="6" style="fill: none; visibility: hidden; pointer-events: all;"></rect></g><g class="node" transform="translate(579.2,237.43373462781346)"><title>Ⓖ</title><text dy=".35em" text-anchor="start" transform="translate(4,0.38651857958687685)" style="display: inline;">Ⓖ</text><line x1="0" x2="0" y1="0" y2="1" style="display: inline; stroke: rgb(0, 0, 0);"></line><rect x="-5" y="-5" width="10" height="6" style="fill: none; visibility: hidden; pointer-events: all;"></rect></g><g class="node" transform="translate(434.40000000000003,281.3005778548971)"><title>FlightSegment.2</title><text dy=".35em" text-anchor="start" transform="translate(-4,-10)" style="display: inline;">FlightSegment.2</text><line x1="0" x2="0" y1="-5" y2="78.69942214510291" style="display: inline; stroke: rgb(0, 0, 0);"></line><rect x="-5" y="-5" width="10" height="83.69942214510291" style="fill: none; visibility: hidden; pointer-events: all;"></rect></g><g class="node" transform="translate(579.2,259.0491317338609)"><title>Ⓘ</title><text dy=".35em" text-anchor="start" transform="translate(4,0.4869993902352405)" style="display: inline;">Ⓘ</text><line x1="0" x2="0" y1="0" y2="1" style="display: inline; stroke: rgb(0, 0, 0);"></line><rect x="-5" y="-5" width="10" height="6" style="fill: none; visibility: hidden; pointer-events: all;"></rect></g></g><g class="slice-titles"></g></g></svg>